<svg id="Layer_1" data-name="Layer 1" xmlns="http://www.w3.org/2000/svg" viewBox="0 0 216 216"><path d="M49.9,88.76l.93-1.86L41.21,82l-.94,1.85-2.08-1,5.74-11.37,4,2-1.22,2.42-2-1-2.25,4.46,3.73,1.89,2.62-5.19,2.09,1-2.62,5.19,3.8,1.92,2.29-4.53-2.06-1,1.23-2.44,4.15,2.09L52,89.81Zm6.62-13.21,1.23-1.35-5-10.49-1.42,1.55-1.72-1.57L53.85,59,67.11,64l1.25-1.37,1.72,1.58-4.67,5.11-1.72-1.57,1.37-1.5L63,65.39l-4.28,4.68,1,2,1.37-1.5,1.72,1.57-4.53,5Zm4.11-11.08-5.85-2.25,2.79,5.6ZM71,63.24,69,60l2.22-1.42,1.09,1.71a12.15,12.15,0,0,0,2.43-1.16c1.39-.88,2.48-2.06,1.66-3.34-1.9-3-7.87,3.09-10.93-1.7-1.75-2.74-.11-5.26,2.46-6.9a16.31,16.31,0,0,1,4.6-1.94l2,3.18-2.27,1.45-1.12-1.75a14.9,14.9,0,0,0-1.93,1c-1.26.8-2.31,2-1.55,3.18,1.78,2.78,7.82-3.18,11,1.79,1.82,2.84.07,5.25-2.54,6.92A22.15,22.15,0,0,1,71,63.24Zm13.5-9.72,2.16-.74L83.21,42.57l-2.74.93.76,2.24-2.53.86-1.51-4.45L90.5,37.62,92,42.07l-2.53.86-.76-2.24L86,41.62l3.48,10.22,2.16-.74.75,2.21-7.11,2.42Zm22.22-4.58L109,49l.43-10.78-2.89-.11-.09,2.35-2.66-.1L104,35.7l14.05.56L117.85,41l-2.66-.11.1-2.35-2.89-.12L112,49.15l2.28.09-.09,2.33-7.5-.3Zm12.94.86,2,.6,3.12-10.33-2-.6.68-2.23,12.19,3.68-1.31,4.35-2.6-.79.64-2.11-4.79-1.44-1.21,4L132,46.61l-.68,2.24-5.56-1.68-1.23,4.08,4.86,1.47.66-2.21,2.63.79-1.34,4.44L119,52ZM134,54.23l1.46.91,6.93-2.21-.87-6.83L140,45.19l1.22-1.93L147.2,47,146,48.91l-1.68-1,.49,4.28,4.13-1.38-1.63-1,1.2-1.91,5.76,3.61-1.22,2-1.45-.91-6.48,2.08,1,7.31,1.42.89-1.2,1.91-6-3.76L141.5,59l1.68,1-.54-4.68-4.52,1.51,1.64,1-1.2,1.92-5.83-3.66Zm14.78,9.36,1.2,1.37,11-3.82-1.39-1.59L161.29,58l4.16,4.76L159.08,75.4l1.22,1.4-1.75,1.53L154,73.12l1.76-1.53,1.34,1.52,1-2-4.18-4.77-2.12.78,1.34,1.53-1.75,1.54L147,65.13Zm10.56,5.32,2.89-5.57-5.88,2.15Zm.08,10.47,3.46-1.7L164,80.05l-1.82.89a11.84,11.84,0,0,0,.88,2.54c.73,1.48,1.77,2.69,3.14,2,3.16-1.55-2.2-8.16,2.9-10.67,2.92-1.43,5.24.48,6.58,3.22a16.14,16.14,0,0,1,1.42,4.79L173.7,84.5l-1.19-2.41,1.87-.92a15.28,15.28,0,0,0-.77-2c-.66-1.34-1.71-2.52-3-1.89-3,1.45,2.29,8.12-3,10.71-3,1.49-5.23-.52-6.59-3.29A22.67,22.67,0,0,1,159.37,79.38ZM40.66,104.9l0,2.08,10.78-.17,0-2.08,2.33,0L54,117.42l-4.54.08,0-2.72,2.21,0-.08-5-4.19.07.1,5.81-2.34,0L45,109.85l-4.26.07.08,5.08,2.31,0,0,2.74-4.64.07-.21-12.83ZM41.77,124l.59,2,10.35-3-.59-2,2.24-.66,2.12,7.18-2.24.66-.7-2.36-10.35,3,1.41,4.8,2.39-.71.76,2.61-4.62,1.36-3.6-12.22Zm6.09,17.89L49,143.62l8.95-6-1.17-1.73,1.94-1.3,4.1,6.08c3.13,4.65,2,8.64-1.78,11.21s-7.9,2.08-11-2.57l-4.1-6.08ZM52,148c2,3,4.63,3.24,7.41,1.37s3.57-4.37,1.53-7.4L59.61,140l-8.94,6Zm8.86,11.17,1.62,1.31,6.77-8.4-1.62-1.31,1.46-1.82,9.92,8-2.85,3.53L74,158.75,75.39,157l-3.89-3.14-2.63,3.27,4.53,3.64-1.47,1.82L67.41,159l-2.68,3.32,4,3.19,1.45-1.8,2.13,1.72L69.36,169l-10-8Zm15.69,11.52,1.93.76,4-10-1.94-.77.86-2.17,6.94,2.75c4.25,1.68,4.93,4.65,4.06,6.85a4.25,4.25,0,0,1-4.43,2.69l.66,4.68,1.77.71-.86,2.17-3.64-1.44L85,170.44l-2.57-1-1.23,3.09,1.94.77-.86,2.17-6.61-2.62Zm9-2.45c2.29.91,3.5,0,4-1.2s.17-2.72-2.09-3.61l-2.31-.92-1.91,4.81Zm11,9.2,2.08.14.71-10.76-2.07-.14.15-2.33,7.68.51c3.41.23,5.65,1.85,5.48,4.41-.1,1.47-1,2.79-3.15,3.3,2.32.74,3.24,2.23,3.12,4-.17,2.51-2.33,4-6.15,3.77l-8-.54Zm7.93.56c1.87.12,3.06-.56,3.16-2s-.9-2.3-3-2.43l-2.88-.2-.3,4.41Zm0-6.67c1.93.13,3.09-.56,3.18-1.92s-1-2.13-2.7-2.24l-2.71-.18-.28,4.17Zm12,6.5,2-.45-2.36-10.53-2,.46L113.6,165,126,162.21l1,4.43-2.65.6-.48-2.16-4.88,1.1.92,4.08,5.67-1.27.51,2.28-5.67,1.27.93,4.16,5-1.11-.5-2.26,2.67-.6,1,4.53L117,180.08Zm18.78-5.12,1.8-1-5.38-9.34-1.81,1-1.16-2,6.46-3.72c4-2.29,6.71-1,7.89,1.07a4.25,4.25,0,0,1-.64,5.15l4.07,2.39,1.65-.95,1.17,2-3.39,1.95-5.57-3.31-2.4,1.38,1.66,2.88,1.81-1,1.16,2-6.15,3.55Zm3.71-8.61c2.13-1.23,2.21-2.71,1.54-3.88s-2-1.82-4.13-.61l-2.15,1.25,2.58,4.48Zm14.1-2.9,1.4-1.55-8-7.22L145.06,154l-1.73-1.57,5-5.54c3.06-3.39,6.08-3,7.84-1.41a4.24,4.24,0,0,1,1,5.09l4.62,1,1.27-1.42,1.74,1.57-2.62,2.9-6.33-1.43L154,155.21l2.47,2.23,1.39-1.55,1.74,1.56-4.76,5.28Zm.87-9.34c1.64-1.82,1.27-3.26.27-4.16s-2.49-1.11-4.12.7l-1.66,1.84,3.84,3.47Zm11.94-6.69,1-1.84-9.55-5-1,1.84-2.07-1.08,3.31-6.29,2.06,1.08-1,1.84,9.55,5,1-1.85,2.07,1.09-3.3,6.29Zm5.67-11.52.51-2L161.61,129l-.51,2-2.27-.57L162,118.05l4.4,1.12-.67,2.63-2.14-.54-1.23,4.84,4.06,1,1.43-5.63,2.26.57-1.43,5.64,4.14,1,1.24-4.92-2.23-.56.67-2.66,4.5,1.14-3.16,12.45Zm5.58-19.21-3.86.11-.07-2.64,2,0a11.4,11.4,0,0,0,.26-2.68c0-1.65-.5-3.18-2-3.14-3.53.1-1.39,8.34-7.07,8.51-3.25.09-4.57-2.61-4.66-5.66a16.58,16.58,0,0,1,.7-4.94l3.78-.11.08,2.69-2.08.06a14.17,14.17,0,0,0-.14,2.16c0,1.5.51,3,1.93,3,3.3-.09,1.29-8.33,7.17-8.5,3.38-.1,4.55,2.63,4.64,5.73A22,22,0,0,1,177.13,114.41Zm-98.66-34L76,83.06l-6.48-5.83L72,74.53ZM60.93,92.18l-1.12,3.44,8.29,2.7,1.12-3.45Zm47-19.34A36.58,36.58,0,0,0,72.68,99.9h3.77a32.9,32.9,0,0,1,63,0h3.77A36.58,36.58,0,0,0,108,72.84Zm-18.7-9.93L86,64.39l3.55,8,3.31-1.47Zm20.51-3.59h-3.62V68h3.62ZM155,92.18l-8.29,2.69,1.12,3.45,8.29-2.7ZM143.94,74.53l-6.48,5.84,2.42,2.69,6.48-5.83ZM126.66,62.91l-3.55,8,3.31,1.47,3.55-8Zm14.22,45.77h-4l-.47.41,14.87,17.28c.52-1.29,1-2.6,1.39-3.94Zm-14.09,0h-3.86l-.28.18,19.56,31.88c.86-.93,1.69-1.9,2.47-2.9Zm-58.73,0H63.87l-2.69,2.54a45.91,45.91,0,0,0,.45,4.57l6.94-6.56Zm83.44,0h-4.19l-.51.55,7.34,6.93a45,45,0,0,0,.47-4.54Zm-51.56,0L89.83,152.09c1.12.47,2.26.89,3.42,1.27l10.42-44.68Zm15.42,0h-3.68l8,45.54c1.19-.31,2.35-.67,3.5-1.06Zm-36.92,0h-4L63,122c.4,1.36.85,2.68,1.36,4l14.57-16.92Zm14,0H88.57L70.88,137.52c.78,1,1.6,2,2.46,2.93l19.38-31.59Z"/></svg>