<svg id="Layer_1" data-name="Layer 1" xmlns="http://www.w3.org/2000/svg" viewBox="0 0 432 432"><defs><style>.cls-1{fill:#7f2629;}</style></defs><path class="cls-1" d="M200.18,213.53l-3.53-1.18.51-2.14,3.68,1.22Zm3-6.24-3.12-2.89,1.44-1.64,3.13,2.89Zm7.19-5.35L208.65,198l-2,.9,1.71,3.94Zm15-3-2-.9-1.71,3.94,2,.9Zm6.5,14.63,3.53-1.18-.5-2.15-3.69,1.23Zm.13-9.13-1.44-1.64-3.13,2.89,1.45,1.64Zm-14.87-7.76h-2.16v4.3h2.16ZM214.9,217l-3.15,18.36-2.1-.52L212.71,217Zm-4.17,0-8.48,14.17-.32-.35c-.34-.38-.68-.79-1-1.22l-.15-.19L208.2,217Zm-9.28,0-4.31,4.16-.1-.67c-.09-.61-.16-1.26-.19-1.9v-.17l1.47-1.42Zm4.37,0-7,8.33-.21-.55c-.22-.55-.41-1.11-.57-1.66l0-.18,5-5.94Zm11.26,0,3.15,18.36,2.1-.52L219.27,217Zm4.17,0,8.48,14.17.32-.35c.34-.38.68-.79,1-1.22l.15-.19L223.78,217Zm9.28,0,4.31,4.16.1-.67c.09-.61.16-1.26.19-1.9v-.17L233.67,217Zm-4.37,0,7,8.33.21-.55c.22-.55.41-1.11.57-1.66l.05-.18L229,217Zm2.19-3.17.08.25h2.23l-.12-.44a15,15,0,0,0-29.08,0l-.12.44h2.23l.08-.25a12.81,12.81,0,0,1,24.7,0Z"/></svg>