<svg id="Layer_1" data-name="Layer 1" xmlns="http://www.w3.org/2000/svg" viewBox="0 0 384.44 432"><defs><style>.cls-1{fill:#7f2629;}.cls-2{fill:#f2dab2;}.cls-3{fill:#fff;}</style></defs><path class="cls-1" d="M371.84,195H286.49a98.94,98.94,0,0,0-97.23-80.67h0A98.94,98.94,0,0,0,92,195H8.16v43.62H93.65a98.93,98.93,0,0,0,95.61,73.53h0a98.94,98.94,0,0,0,95.62-73.53h87Z"/><path class="cls-1" d="M92.69,243.85H10.55V241H91.83C92.1,242,92.4,242.91,92.69,243.85Zm281.53-43.77V241H286.7A101.27,101.27,0,0,1,127,293.11a98.85,98.85,0,0,0,65.32,24.53h0a99.31,99.31,0,0,0,96-73.79h88V200.08Z"/><path class="cls-2" d="M142.76,243.19l-24.91,26.9c-.5-.63-1-1.27-1.49-1.92l23.13-25Zm8.62,0-26.31,35c.57.57,1.15,1.13,1.73,1.69l27.59-36.65Zm-47.13,0-1.16.77c.28.77.58,1.53.88,2.29l4.64-3.06Zm62.89,0-25.72,47.94c.68.43,1.37.84,2.06,1.25l26.38-49.19Zm40.47,0,26.55,49.49c.69-.4,1.38-.81,2.06-1.23l-25.89-48.26Zm18.48,0h-3l27.88,37q.89-.83,1.74-1.68Zm8.62,0L260,270.49c.51-.63,1-1.26,1.5-1.91L238,243.19Zm-123.23,0-6.74,4.94c.32.75.66,1.5,1,2.24l9.8-7.18Zm161.74,0h-4.36l5.19,3.42c.31-.75.6-1.52.89-2.28Zm-153.8,0L107,253.1l1.12,2.18,15.12-12.09Zm61,0-11.77,57.74h2.45l11.77-57.74Zm67.85,0h-3.64L266.07,262q.66-1,1.29-2.07Zm-51.5,0h-2.43l8.87,57.74h2.43Zm74.15,10.3-12.89-10.3h-3.84l15.6,12.48C270.2,255,270.57,254.22,270.94,253.49ZM266,243.19h-4.06l10.32,7.57c.34-.75.68-1.49,1-2.25Zm-136.81,0-18.62,16.38c.42.7.84,1.39,1.28,2.08l21-18.46Z"/><path class="cls-2" d="M220.28,160.13l-1.74-1.26-5.26,7.24,1.74,1.26Zm-9.19-5.56-2-.88-3.64,8.18,2,.87Zm10.36,18.9,6.65-6-1.43-1.6-6.65,6Zm5,7.3,7.75-4.48-1.07-1.85-7.75,4.47ZM201,151l-2.1-.45L197,159.34l2.1.45Zm-11.72,13.31a36.74,36.74,0,0,0-34.83,25.2h2.28a34.5,34.5,0,0,1,65.09,0h2.28A36.72,36.72,0,0,0,189.23,164.35ZM229.88,189l8.51-2.77-.66-2-8.51,2.77ZM190.3,149.69h-2.14v8.95h2.14ZM153,178.91l-7.74-4.47-1.08,1.85,7.75,4.48Zm-3.8,8-8.52-2.77-.66,2,8.51,2.77Zm32.22-27.58-1.86-8.75-2.1.45,1.86,8.75Zm-23,12.53-6.65-6-1.44,1.6,6.65,6Zm6.73-5.76-5.26-7.24-1.73,1.26,5.26,7.24Zm7.79-4.24-3.64-8.18-2,.88,3.64,8.17Z"/><path class="cls-3" d="M118.75,183l5.91-10.59-3.83-2.13-1.26,2.26,1.91,1.06-2.34,4.18-3.51-2L118.3,171l-1.92-1.07-2.68,4.79-3.45-1.93,2.3-4.12,1.82,1,1.25-2.23-3.75-2.09L106,175.86l1.93,1.07,1-1.71,8.89,5-1,1.71ZM128,167.42l4.41-4.56-1.58-1.53-1.33,1.37-.9-1.93,4.17-4.3,2,.83-1.33,1.38,1.58,1.53,4.55-4.7L138,154l-1.22,1.25-12.38-5-4.15,4.28,1.58,1.53,1.39-1.42,4.44,10-1.2,1.24Zm-.38-8.8-2.48-5.37,5.46,2.29Zm21.39-9c2.49-1.52,4.18-3.76,2.52-6.48-2.9-4.74-8.7.78-10.33-1.88-.7-1.14.32-2.24,1.52-3a14.38,14.38,0,0,1,1.84-.9l1,1.68,2.17-1.32-1.86-3a15.63,15.63,0,0,0-4.38,1.75c-2.45,1.5-4,3.85-2.44,6.47,2.79,4.57,8.54-1.05,10.27,1.79.75,1.23-.29,2.32-1.62,3.13a11.25,11.25,0,0,1-2.31,1.05l-1-1.64-2.12,1.3,1.9,3.11A21,21,0,0,0,149,149.61Zm13.13-6.8,6.75-2.17-.68-2.1-2.05.66-3.1-9.69,2.6-.83.68,2.12,2.39-.77-1.35-4.22-12.64,4.05,1.36,4.22,2.39-.77-.68-2.12,2.6-.83,3.11,9.69-2.05.66ZM191.68,138l7.06.55.17-2.2-2.15-.16.79-10.15,2.72.21-.17,2.22,2.51.2.34-4.42-13.22-1-.35,4.41,2.51.2.17-2.22,2.72.21L194,136l-2.14-.17ZM208,140.11,219.5,144l1.4-4.15-2.45-.83-.7,2.07-4.54-1.53,1.28-3.81,5.2,1.74.7-2.08-5.19-1.75,1.26-3.75,4.47,1.51-.67,2,2.43.82,1.37-4.06-11.39-3.84-.71,2.09,1.86.63-3.24,9.64-1.86-.62Zm17.14,6.41,5.42,3.56,1.17-1.77-1.52-1,4.29-1.34.41,4.43-1.56-1-1.17,1.78,5.58,3.67,1.17-1.78-1.32-.87-.75-6.91,6.15-1.83,1.34.89,1.2-1.82L240.2,139,239,140.75l1.52,1L236.62,143l-.37-4,1.56,1,1.17-1.78-5.54-3.64-1.18,1.8,1.34.88.68,6.46-6.58,2-1.36-.9ZM242,158.44l4.17,4.8,1.66-1.45-1.26-1.45,2-.72,3.93,4.52-1,1.88-1.26-1.44L248.63,166l4.29,4.94,1.66-1.45-1.15-1.32,6.07-11.9-3.91-4.5-1.67,1.44,1.31,1.5-10.39,3.57-1.13-1.3Zm8.81.38,5.56-2-2.75,5.24ZM258,180.91c1.3,2.61,3.39,4.49,6.24,3.07,5-2.47,0-8.74,2.77-10.12,1.2-.6,2.21.51,2.84,1.77a14.48,14.48,0,0,1,.73,1.91l-1.76.87,1.13,2.28,3.2-1.59a15.83,15.83,0,0,0-1.36-4.52c-1.28-2.57-3.49-4.36-6.23-3-4.8,2.39.29,8.61-2.69,10.09-1.28.64-2.28-.5-3-1.89a10.8,10.8,0,0,1-.84-2.39l1.71-.86-1.11-2.23-3.26,1.63A21.4,21.4,0,0,0,258,180.91Z"/><path class="cls-3" d="M31.23,207l-7.11.1,0,2.82,0,2.82H25L25,208.88l6.27-.09ZM37,210.89l.89,0V210l-.07-5.81,0-1.4h.83l.13,9.84-4.22,0v0l-.89,0-1.47,0,0-1.73h0ZM14.57,226.38l0-.85,3.64-.06h.06c0-2.33-.06-4.3-.09-6.13v-.52c0-3.17-.08-6-.13-9.59v-.32c0-.48,0-1,0-1.48v-.24h0l0-.86-2,0h0l-1.73,0h0v-1c0-.52,0-1,0-1.45l0-1.7,22.68-.31,0,1.31c0,2.41.05,4,.09,6.75h-.06l-3,0H33.7l-1.54,0v-1.63l0-2.28-8.9.12,0,.85h0c0,2.43.05,3.91.09,6.58l1.72,0h0l8.62-.12v.85h0c0,1.14,0,1.95,0,3.29l-10.33.14c0,.94,0,1.74,0,2.48v.28l0,1c0,1.13,0,2.26.05,3.77l1.73,0h0l7.23-.09h.06l0-4.1,4.87-.07V222h0c0,1.81,0,3.14.06,4.69,0,.8,0,1.67,0,2.69h-.06l-21.53.29-1.23,0c0-.56,0-1,0-1.45v-1.84ZM39.19,232h-.9c-9.12.12-13.68.18-22.81.32h-.89l0-1.75h.07c9.12-.13,13.68-.2,22.81-.31h.89v-.9L38.26,225l0-3h.83Zm-6.75-11.69h-.9v.07l-6.4.09.05,4h-.83L24.3,220l0-1.29,9.44-.12.9,0,0-.89,0-2.07,0-1.22h.83l.08,5.86ZM17.12,209l-2.87,0,0-1.75h.06l2.81,0Zm29.71-2.14-2.81,0H44l0,1.75,2.87,0Zm21.86,24.79h-.9c-9.05.09-13.58.14-22.63.25h-.89l0-1.75h.06c9-.11,13.58-.16,22.63-.25h.89V229l0-4.3,0-3.41h.84ZM44.27,227l0-1.91,3.69,0,0-1.91c0-.7,0-1.37,0-2v-.06c-.06-4.62-.1-8-.16-13V206.8h0v-.86l-2.23,0H44l0-4.15,13.33-.15v.85h0c0,1.14,0,2,0,3.29h0l-4.39,0v.85h0c.07,5.94.11,9.61.18,15,0,.47,0,1,0,1.45l0,1.84v0l8.83-.1h.06V223l0-2.51,4.83,0v.85h0c0,.89,0,1.66,0,2.4V229h-.06l-22.57.25h0C44.28,228.37,44.28,227.72,44.27,227Zm13.08-20.31h.89v-.9l0-2.07v-1.22H59l.07,5.93-4.38.05.17,15.61h-.83v-.73l-.19-16.63Zm18.1-.19-2.81,0h0l0,1.74,2.86,0Zm7.11,8.61-.08-8.68,3.22,0h.14c4.2,0,6.8,1.57,7.87,4.78a6.71,6.71,0,0,0-.65-.84c-1.42-1.49-3.64-2.16-6.51-2.21l-3.21,0,.14,15.61h-.84Zm19.72,1.61c.07,9.12-5.73,14.62-15.52,14.71l-13.93.13v-1.75h.05l13-.12c.61,0,1.21,0,1.79-.08,5-.23,8.58-2,10.68-5a14.62,14.62,0,0,0,3.06-9.66,16.68,16.68,0,0,0-1.2-6.33A15.77,15.77,0,0,1,102.28,216.76ZM72.64,205.67h1.73l2,0,.18,19.14h0l-3.65,0c0,1.66,0,2.49,0,4.14l13-.12c9.66-.08,14.4-5.35,14.64-13.05,0-.25,0-.5,0-.75v0c0-.26,0-.51,0-.77,0-.08,0-.16,0-.24s0-.35,0-.52l0-.28c0-.16,0-.32-.05-.47s0-.19,0-.28,0-.31-.07-.46a2.56,2.56,0,0,1,0-.27c0-.15-.06-.3-.1-.44a2,2,0,0,0-.06-.26c0-.15-.07-.3-.11-.44l-.07-.25c0-.14-.09-.29-.14-.43s0-.15-.07-.23l-.17-.44a1.67,1.67,0,0,0-.08-.2c-.06-.15-.12-.3-.19-.44l-.08-.18c-.07-.15-.15-.3-.23-.45l-.08-.15c-.08-.16-.17-.31-.27-.47l-.06-.1-.33-.5a.21.21,0,0,0,0-.06c-2.36-3.35-6.5-5.32-12.48-5.27l-13.06.12c0,1.66,0,2.49,0,4.14Zm8.94-.08,4.11,0c3,0,5.29.75,6.84,2.19a7.45,7.45,0,0,1,.61.65h0a7.55,7.55,0,0,1,.51.71l0,0a6.79,6.79,0,0,1,.41.75l0,.07c.12.25.22.51.32.78l.05.12c.09.25.16.52.23.79a1.09,1.09,0,0,1,.05.17c.06.26.11.53.16.8,0,.08,0,.15,0,.23,0,.27.07.55.1.83l0,.25c0,.37,0,.74,0,1.13h0a7.42,7.42,0,0,1,0,.82,5.25,5.25,0,0,1,0,.56c-.39,5.11-3.28,8.19-9.25,8.24l-3.58,0h-.53c-.06-7.37-.1-11.2-.16-18.29h0Zm41.62,1.65v-1.06l-7.11,0,0,5.65H117l0-3.9,6.27,0ZM131,231.16h-.89c-9.13,0-13.69.07-22.81.14h-.9v-1.74h0l22.81-.14h.9V226l0-4.84h.85Zm-2-21.09h.9v-.89l0-7.22h.85l0,9.85-4.23,0h-2.39v-1.73h0Zm-22.72-7.47v-1.35l22.69-.14V202h0v3.94l0,3.27h0l-3.09,0h-1.74v-3.92l-8.9.05v.85h0c0,1.89,0,3.21,0,4.95v.26c0,.41,0,.85,0,1.33v0H117l8.6,0v.84h0v3.3l-10.33.06c0,1.87,0,3.17,0,4.6,0,.88,0,1.81,0,3l9-.05h0v-.93c0-.83,0-1.48,0-2.32h0v-.85l4.88,0v.84h0c0,2,0,3.34,0,5.05v2.35l-21.08.12H106.4v-4.14l3.69,0c0-2.15,0-4,0-5.71v-1.06c0-3.92,0-7.31-.08-12.37l-3.71,0h0v-1.86C106.23,203.23,106.23,202.92,106.22,202.6Zm2.85,5.41-2.86,0v-1.74h0l2.81,0Zm15.23,11.42h-.89v.06l-6.4,0,0,4h-.85l0-5.77,9.44-.06h.89v-4.19h.85l0,5.87Zm58.34-2.08h-4.25v6.05h.86v-4.31h4.26a6,6,0,0,1,3.58.9l.15.13C187,217.73,184.3,217.35,182.64,217.35Zm-14-13.27v1h3.7V206h0c0,2.73,0,5,0,7.12,0,.81,0,1.62,0,2.43v.9c0,2.33,0,4.78,0,7.85h-3.7c0,1.66,0,2.49,0,4.15h14.24c6.49,0,10.1-2.66,10.44-6.76,0-.21,0-.41,0-.62h0c0-.21,0-.41,0-.62a1.1,1.1,0,0,0,0-.18,3.18,3.18,0,0,0-.06-.43,1.29,1.29,0,0,0,0-.19,2.71,2.71,0,0,0-.09-.41c0-.06,0-.12,0-.17a2.6,2.6,0,0,0-.15-.42.58.58,0,0,0-.05-.14,3.88,3.88,0,0,0-.22-.46l0-.07a5.79,5.79,0,0,0-1.17-1.51h0a5.15,5.15,0,0,0-.61-.51h0a8.58,8.58,0,0,0-1.88-1h0a11.12,11.12,0,0,0-1.6-.52c3.32-1,4.78-3,5.11-5.18h0a7.17,7.17,0,0,0,.08-1,6.08,6.08,0,0,0,0-.61s0-.08,0-.12-.05-.38-.08-.57a.29.29,0,0,1,0-.09c0-.18-.09-.36-.14-.54v0a4.81,4.81,0,0,0-.2-.53l0-.09c-.08-.17-.16-.34-.25-.5l0,0a4.53,4.53,0,0,0-.3-.46l0,0q-.16-.23-.36-.45L191,204a5.4,5.4,0,0,0-.41-.42h0c-1.79-1.69-4.71-2.6-8.32-2.59H168.62v2.15C168.62,203.44,168.63,203.74,168.63,204.08Zm13.69,1c2,0,3.49.52,4.33,1.53a3.89,3.89,0,0,1,.28.39.25.25,0,0,0,0,.07l.09.18.06.13c0,.06,0,.11.07.17s.06.2.08.3l0,.12a2.34,2.34,0,0,1,0,.26s0,.08,0,.12,0,.25,0,.38h0a4.06,4.06,0,0,1,0,.51v0c0,.16-.06.31-.1.46h0c-.49,1.8-2.36,2.78-5.28,2.78h-4.47c0-2,0-3.33,0-4.89v-2.54Zm5.15,13.2.05.06.14.22a.59.59,0,0,1,0,.08,2.19,2.19,0,0,1,.2.44l0,.07a.84.84,0,0,1,0,.17l.06.19,0,.16a2,2,0,0,1,0,.24c0,.05,0,.09,0,.13a2.61,2.61,0,0,1,0,.4h0a4.12,4.12,0,0,1,0,.51v0a3.73,3.73,0,0,1-.09.46c-.48,1.87-2.38,2.87-5.24,2.87H177.5v-1.66c0-1.82,0-3.2,0-5.13v-1h5.15c2.23,0,3.79.59,4.66,1.59h0Zm6-10.14a7.53,7.53,0,0,0-.35-2.3,7,7,0,0,1,1.21,4,6.65,6.65,0,0,1-2.67,5.5,9.52,9.52,0,0,0-1.64-1,5.39,5.39,0,0,0,1.59-1.43A6.64,6.64,0,0,0,193.46,208.12Zm-15.08.66V206h3.94c1.52,0,4,.34,4.15,2.6l-.13-.1a5.6,5.6,0,0,0-3.16-.77h-4v3.9h-.86Zm16.75,14c0,5.18-4.25,8.28-11.36,8.28l-14.25,0h-.89V229.3h14.28c.64,0,1.26,0,1.85-.08,3.45-.16,6-1.15,7.34-2.84a7.2,7.2,0,0,0,2.17-5.36,7.87,7.87,0,0,0-.37-2.42A7.13,7.13,0,0,1,195.13,222.74Zm-23.69-15h-2.85V206h2.85Zm31-1.74h-2.85v1.73h2.85Zm7,5.65V206h7.11v1.74h-6.26v3.91Zm10.33,1.76h.87l0,5.88h-4v.05h-6.38v4h-.86v-5.78l9.44,0h.89v-4.2Zm4.41,7.62,0,10h-.89c-9.13,0-13.69,0-22.81,0h-.9v-1.74h0l22.81,0h.89V221ZM222.26,210h.89v-8.11H224l0,9.85-4.25,0h-2.38V210h0Zm-22.67-4.86v-3.3h0V201l22.69,0v1.32c0,2.41,0,4,0,6.74h-4.83V206h0v-.84l-8.9,0V206h0v.29c0,2.05,0,3.45,0,5.59v.71h1.27l9.07,0v.84h0c0,1.15,0,2,0,3.3h0l-10.3,0c0,1.21,0,2.18,0,3.11,0,1.19,0,2.3,0,3.76v.69h9v-4.1l4.88,0V221h0v4.64c0,.82,0,1.71,0,2.76-9.12,0-13.69,0-22.81,0h0v-4.15h3.7c0-7.66,0-11.49,0-19.14h-3.7Zm75.76,23.6v.89h-.89l-12.62-.09h0v1.73l14.41.1,0-5.93h-.87Zm12-18.69a8.85,8.85,0,0,0-.6-3.25,8.92,8.92,0,0,1,1.46,5,8.27,8.27,0,0,1-5.13,7.72l-.89-1.58a7.1,7.1,0,0,0,2.81-2.06A8.21,8.21,0,0,0,287.32,210Zm-22.55-2-2.84,0,0-1.73h0l2.81,0Zm11.3,13.32-3.5,0v2.38h-.87l0-3.44v-.68l3.5,0,.95,1.73Zm3.2-13.79a3.09,3.09,0,0,1,.92,1.83l-.07-.09a5.62,5.62,0,0,0-3.92-1.19l-3.53,0,0,5.67h-.87l0-3.14,0-4.26,3.53,0A5.66,5.66,0,0,1,279.27,207.51ZM290,226.41l0,5-8.36-.07-.86-1.73h.52l6.95.06h.89v-3l0-1.24H290Zm-7.81,2.35,6,.05c0-1,0-1.67,0-2.42v-.13c0-.24,0-.49,0-.76v-.83l-2.47,0h-.91l-.75-1.33-2.84-5.09-.51-.91a7.54,7.54,0,0,0,5.53-6.17h0a10.35,10.35,0,0,0,.09-1.12,8.69,8.69,0,0,0-.15-1.61h0a7.8,7.8,0,0,0-2.49-4.41h0c-1.78-1.59-4.53-2.68-8.5-2.71L262,201.19c0,1.14,0,1.89,0,2.79,0,.41,0,.84,0,1.36h3.7c0,.86,0,1.65,0,2.42,0,.4,0,.81,0,1.19l0,3.83c0,3.64,0,6.94-.07,11.7h0l-3.67,0c0,.38,0,.72,0,1,0,1,0,1.84,0,3.1h1.76l10.87.07c0-1.19,0-2,0-2.94,0-.36,0-.75,0-1.2h-3.7c0-.71,0-1.31,0-1.87,0-1.07,0-2,0-3.2,0-.26,0-.54,0-.84l4.92,0,.49.88.52.94.26.49,2.87,5.21.07.11,1.35,2.46Zm-7-14.15-4.42,0c0-1.22,0-2.24,0-3.19v-.14c0-.79,0-1.55,0-2.34v-.82c0-.58,0-1.19,0-1.86v-.84l4.43,0c2.35,0,3.84.68,4.72,1.66a4,4,0,0,1,.82,1.39h0a4,4,0,0,1,.19.76,5.66,5.66,0,0,1,.06.82,5,5,0,0,1-.1,1h0C280.66,213,279.06,214.64,275.28,214.61Zm22.14-7.42v-.69l-2.81,0h0v1.73l2.83,0Zm11.65-4.78-.06,5.93-3.7,0-.15,15.62h-.88l.09-8.68.08-8.67,2.81,0h.89v-.9l0-2.06,0-1.25ZM308,225.69h.88l-.06,5.93-14.41-.14v-1.73h0l12.63.12h.89V229Zm-13.55,3.18v-1c0-.8,0-1.45,0-2.28h0v-.84l3.7,0c0-3.65.06-6.43.08-9.17V212.8c0-1,0-2,0-3.09v-.33c0-1.16,0-2.4,0-3.76l-1.93,0h0l-1.77,0v-.8c0-1.17,0-2,0-3.34l12.65.12v.84h0c0,.68,0,1.24,0,1.87v1.43h0l-3.68,0c0,1.92,0,3.6-.05,5.16l0,1.36v.87l0,2.48c0,.83,0,1.67,0,2.54s0,1.6,0,2.45V222c0,.89,0,1.83,0,2.84l1.77,0h1.93v.84h0V229h0l-10.84-.11h-1.77Zm39.36-10.4h-.89l-9.44-.11,0,2.89,0,2.89h.88l.05-4.06,6.36.08v0h.89l3.08,0,.07-5.88-.88,0,0,3.32Zm-10.23-8.87,0-2.83,7.11.09v1.72l-6.23-.07-.05,3.92h-.87Zm13.75,12.32h.88l-.12,10h-.9c-9.12-.12-13.68-.17-22.81-.27h-.89l0-1.73h0c9.12.09,13.68.15,22.81.26h.89v-.89l.05-4.12Zm-20.77-13.5-2.82,0v-1.73h0l2.81,0Zm19.84,2.42.89,0V210l.09-7.23h.88l-.12,9.85-6.62-.08,0-1.73h0Zm-22.84,18.21h0c0-1.65,0-2.48,0-4.14l3.7,0c.08-7.66.12-11.48.21-19.14l-3.71,0,.05-4.14c9.07.09,13.61.15,22.68.26,0,.6,0,1.15,0,1.66,0,2,0,3.49-.07,5.7v.7h0l-4.07,0h-.74V209c0-1,0-1.8,0-3l-8.9-.1v.83h0c0,2.44-.05,3.92-.08,6.6l10.34.12v.83h0l0,1.34c0,.26,0,.52,0,.79v1.18h0l-10.33-.12,0,2.27v2.68c0,.78,0,1.62,0,2.62h0l9,.1c0-.67,0-1.21,0-1.72l0-1.54h0V221l4.87.06v1.45c0,1.33,0,2.42,0,3.59v.77c0,.73,0,1.52,0,2.43h0l-21.09-.25Zm32-.12h0a35.94,35.94,0,0,0,7.95,1.16c5.2.07,9.89-1.59,10.47-6.83h0a.13.13,0,0,1,0-.06l0-.39c0-.17,0-.33,0-.5a6.66,6.66,0,0,0,0-.9v-.06c0-.27-.06-.52-.1-.77a.5.5,0,0,0,0-.12,6.38,6.38,0,0,0-.15-.66l-.05-.15a5.49,5.49,0,0,0-.2-.57,1.54,1.54,0,0,0-.08-.19c-.07-.16-.14-.32-.22-.47l-.13-.22-.24-.39-.18-.25-.15-.19-.34-.39-.06-.06c-.16-.16-.32-.32-.49-.47h0c-2.91-2.55-7.7-3.09-10.31-4.66l-.25-.16-.14-.1-.25-.19-.09-.08a2.73,2.73,0,0,1-.25-.23l0,0a2.84,2.84,0,0,1-.73-1.31h0a2.57,2.57,0,0,1-.09-.75c0-2.52,2.75-3.25,5.42-3.21a26.25,26.25,0,0,1,3.83.41l-.05,3.7h1.46l3.33,0,0-2c0-.76,0-1.46,0-2.19v0l0-2.48a29.86,29.86,0,0,0-8.75-1.61c-5.42-.07-10.33,2.07-10.41,7.83a10.67,10.67,0,0,0,.07,1.17l0,.24a6.63,6.63,0,0,0,.13.67,1.17,1.17,0,0,0,.05.2,6.06,6.06,0,0,0,.43,1.15l.07.15a5,5,0,0,0,.33.55l.08.12a7,7,0,0,0,.74.89l.09.09c.17.16.34.31.53.46l.05,0c3.45,2.73,9.34,2.93,11.31,5.43a.83.83,0,0,1,.12.16,1.58,1.58,0,0,1,.15.24l.1.17.12.3s0,.08,0,.12a3,3,0,0,1,.1.43s0,.06,0,.1a4,4,0,0,1,0,.5h0a3.09,3.09,0,0,1-.15.94h0c-.61,1.91-3,2.42-5.58,2.39a20.14,20.14,0,0,1-3-.28h0c-.7-.12-1.3-.26-1.75-.37h0l0-1c0-.61,0-1.13,0-1.75h0v-.83l-4.69-.07v.83h0c0,2.22-.05,3.57-.08,6h0Zm17.89-18.12h.9v-1.13l.09-5.68.27.09.6.21-.12,8.25-6.57-.1,0-1.72h0Zm-8.56-4.18a22.78,22.78,0,0,1,2.94.28v1.62a17.36,17.36,0,0,0-2.07-.16c-1.74-.07-4.44.24-4.51,2.29a2.08,2.08,0,0,1-.86-1.7,1.88,1.88,0,0,1,.32-1,6.46,6.46,0,0,1,3.63-1.29h.57Zm10.91,17.43c-.08,5.52-4.12,8.66-11.11,8.66h-.33a40.07,40.07,0,0,1-9.94-1.65l-.67-.19,0-1.5a39.27,39.27,0,0,0,9.74,1.6h.33q.81,0,1.56-.06c2.67-.08,5.52-.72,7.18-2.67a8,8,0,0,0,2.36-5.93,9.61,9.61,0,0,0-.46-3.23A8.48,8.48,0,0,1,365.79,224.06Zm-16.35-.78v-.75h.88l0,2.21c-.32-.05-.62-.11-.87-.17Zm4.12-2.82c-3.39-1.1-7.46-2.42-8.77-6.34,1.78,2.61,5.08,3.69,7.91,4.61,3.29,1.06,5.33,1.83,5.38,3.73A14.06,14.06,0,0,0,353.56,220.46Zm-104.83,8.08-2.9-5.22,0-.06c-.67-1.21-1.36-2.44-2.19-3.95l-.47-.84-4.92,0v3.42c0,.74,0,1.51,0,2.48h3.7v.85c0,1.14,0,1.95,0,3.29h0l-10.87,0h-1.76c0-1.66,0-2.48,0-4.14H233c0-4.55,0-7.75,0-11.2v-.26c0-2.06,0-4.23,0-6.83v-.84h-3.71v-.72c0-1.21,0-2,0-3.43l13.28.06c6.58,0,9.83,3,10.82,6.29v0c0,.12.07.24.1.37v0c0,.11.06.23.08.34s0,0,0,.06a3.06,3.06,0,0,1,0,.32s0,0,0,.08l0,.3s0,.06,0,.1,0,.18,0,.28,0,.08,0,.12v.39a4.35,4.35,0,0,1,0,.51c0,.17,0,.33-.05.49h0a7.51,7.51,0,0,1-5.52,6.31l1.5,2.66.21.38.48.86.13.23.42.75.47.83.74,1.32.16.29h3.39c0,.69,0,1.24,0,1.77l0,2.37h0l-6,0Zm-.32-17.71h0a4,4,0,0,0,.07-.48h0a4.19,4.19,0,0,0,0-.5c0-.14,0-.28,0-.42l0-.19a1.64,1.64,0,0,0,0-.22c0-.08,0-.17,0-.25l0-.15c0-.09-.05-.18-.08-.28a.42.42,0,0,0,0-.1c0-.1-.07-.2-.11-.3l0-.07-.16-.31,0,0a2.7,2.7,0,0,0-.2-.31v0a3.61,3.61,0,0,0-.25-.3c-.89-1-2.4-1.65-4.75-1.66l-4.43,0,0,9.19h0l4.42,0C246.43,214.44,248,212.81,248.41,210.83Zm-16.27-4.75H229.3v1.74h2.84Zm20.15,9.62a7.11,7.11,0,0,1-2.73,2l.88,1.57a8.27,8.27,0,0,0,5.1-7.74,8.92,8.92,0,0,0-1.38-4.87,9.37,9.37,0,0,1,.53,3.14A8.24,8.24,0,0,1,252.29,215.7Zm-9.52,11.94v1.77h-.9c-5.05,0-7.57,0-12.62,0h0v1.73l14.41.06,0-5.93h-.86Zm13.82-2.36,0,3.31v.89h-.89l-6.94,0h-.63l1,1.73,8.36.05,0-5.93ZM242.7,206.13l-3.53,0,0,3.7v3.7H240l0-5.66h3.54a5.66,5.66,0,0,1,3.92,1.18l.08.09a3.1,3.1,0,0,0-.93-1.82A5.61,5.61,0,0,0,242.7,206.13Zm.88,15-1-1.73-3.5,0v4.11H240v-2.38h3.61Zm-94.22-15-3.53,0v.66l0,6.74h.85l0-5.66h3.58a5.65,5.65,0,0,1,3.89,1.15l.09.1C153.93,207.09,152.27,206.06,149.36,206.06Zm-10.55,1.78-2.86,0v-1.74H136l2.81,0Zm11.63,17.31,0,5.93-14.39.06V229.4h0l12.63-.05h.89v-4.19Zm10.93-15.51a9.11,9.11,0,0,0-.54-3.09,8.86,8.86,0,0,1,1.4,4.83,8.25,8.25,0,0,1-5,7.76l-.89-1.56a6.92,6.92,0,0,0,2.84-2.15A8.18,8.18,0,0,0,161.37,209.64Zm-21.68-4.43c0,2.78,0,5.06,0,7.21v.34c0,3.6,0,6.87.05,11.59h-3.7l0,3.48v.67h1l11.61,0h0v-3.3h0v-.85H145c0-2.06,0-3.22,0-5.06h0v-.84l4.92,0,3.12,5.52.07.12,2.48,4.39h6.94v-.66c0-1.25,0-2.06,0-3.48h-3.38L155,217a7.53,7.53,0,0,0,5.51-6.81,4.87,4.87,0,0,0,0-.54h0c0-.13,0-.26,0-.39a.28.28,0,0,0,0-.09c0-.1,0-.2,0-.31a.13.13,0,0,0,0-.06c0-.11,0-.22,0-.33v-.05l-.06-.35h0c-.72-3.65-4-7.06-11.08-7l-13.28.05c0,1.66,0,2.49,0,4.14Zm14.7,1.9,0,0a2.9,2.9,0,0,1,.19.29l0,.06a2.64,2.64,0,0,1,.15.29s0,.05,0,.08.08.19.11.28,0,.08,0,.12l.08.26,0,.16a2,2,0,0,1,0,.24l0,.23a.88.88,0,0,0,0,.17c0,.14,0,.28,0,.43h0a4.36,4.36,0,0,1,0,.51v0c0,.16,0,.33-.07.49-.38,2-2,3.58-5.71,3.59H145c0-2.45,0-4.09,0-6v-3.16l4.43,0c2.37,0,3.89.65,4.78,1.64h0ZM150.23,221h-3.5v2.38h-.85v-4.11h3.51l1,1.73Zm14,10-8.36,0-1-1.74h.65l6.94,0h.89v-4.19h.85Z"/></svg>