<svg id="Layer_1" data-name="Layer 1" xmlns="http://www.w3.org/2000/svg" viewBox="0 0 432 432"><defs><style>.cls-1{fill:#fff;}.cls-2{fill:#c7b299;opacity:0.32;}.cls-3,.cls-4{fill:#736357;}.cls-4{font-size:11.66px;font-family:Montserrat-Bold, Montserrat;font-weight:700;}.cls-5{font-size:12.18px;fill:#534741;font-family:Montserrat-Medium, Montserrat;font-weight:500;letter-spacing:0.21em;}.cls-6{letter-spacing:0.2em;}.cls-7{letter-spacing:0.21em;}.cls-8{letter-spacing:0.15em;}.cls-9{letter-spacing:0.22em;}.cls-10{letter-spacing:0.26em;}.cls-11{letter-spacing:0.1em;}.cls-12{letter-spacing:0.26em;}.cls-13{letter-spacing:0.16em;}.cls-14{letter-spacing:0.21em;}.cls-15{letter-spacing:0.19em;}.cls-16{letter-spacing:0.23em;}.cls-17{letter-spacing:0.12em;}.cls-18{letter-spacing:0.22em;}.cls-19{letter-spacing:0.22em;}.cls-20{letter-spacing:0.21em;}.cls-21{letter-spacing:0.22em;}.cls-22{letter-spacing:0.26em;}</style></defs><rect class="cls-1" x="-1651.54" y="-141.11" width="2240.39" height="1814.65"/><path d="M588.35-140.61V1673H-1651V-140.61H588.35m1-1H-1652V1674H589.35V-141.61Z"/><path id="Icon" class="cls-2" d="M202.11,182.92a30.46,30.46,0,0,1-7.84-14.75c-1.65-8.21.32-16.69,3.45-24.3a104.48,104.48,0,0,1,10.7-19.15c.34,7.13,1.93,14.26,3.46,21.21,1.46,6.69,3.11,13.35,4.86,20,.36,1.35.72,2.71,1.09,4.06,1.57-3.63,2.94-7.35,4.22-11.09a108.6,108.6,0,0,0,5.53-22.53,33.41,33.41,0,0,0-.31-11.63,46.47,46.47,0,0,1,11.82,16.59A42.46,42.46,0,0,1,242.21,158a44.24,44.24,0,0,1-2.67,14.58,31,31,0,0,1-5.8,10.16,49.79,49.79,0,0,0-9.5,16.61c-.46,1.28-.89,2.58-1.25,3.9a14.84,14.84,0,0,0-.66,3.08,11.79,11.79,0,0,0,.41,3.44c.09.37.42,2.07,1,2,.37,0,.73-1.09.9-1.38a16.62,16.62,0,0,1,1-1.47,30,30,0,0,1,2.5-2.79c2.15-2.16,4.41-4.21,6.44-6.5,7-7.86,10.9-17.76,13.46-27.83.5-2,.94-3.92,1.34-5.89,5.57,9.71,10,20.74,9.59,32.11a39.67,39.67,0,0,1-8,22.13c-4.3,5.84-9.78,10.66-15.42,15.16-2.46,2-5,3.88-7.4,5.88-1,.86-2.07,1.74-3,2.66a6.15,6.15,0,0,0-1.91,2.22,21,21,0,0,0-.69,4.17c-.21,2-.36,4-.49,6.08q-.31,5-.48,10.1c0,.2,0,.39,0,.58a19.14,19.14,0,0,1,5.3-9.25,84.34,84.34,0,0,1,9.37-7.58,93.3,93.3,0,0,0,11.35-9.74,68.72,68.72,0,0,0,11.27-15.75,104.85,104.85,0,0,0,9-25.4c.3-1.34.59-2.68.86-4a110,110,0,0,1,5.39,22.19,69.41,69.41,0,0,1,.06,18.1,53.22,53.22,0,0,1-4.11,14.59,54.24,54.24,0,0,1-7.15,11.66,70.79,70.79,0,0,1-9,9.31,122.08,122.08,0,0,1-9.73,7.54c-3.06,2.16-6.2,4.22-9.29,6.34a84.43,84.43,0,0,0-7.7,5.73,21.1,21.1,0,0,0-4.95,5.7,25.69,25.69,0,0,0-1.91,5.62c-.79,3-1.49,6.08-2.15,9.13-.12.56-.23,1.11-.35,1.67-.38-2-.81-4.05-1.26-6.06a54.12,54.12,0,0,0-2.51-9,15.3,15.3,0,0,0-4.14-5.31,58.07,58.07,0,0,0-7-5.1c-2.91-1.89-5.87-3.71-8.78-5.6-3.25-2.11-6.46-4.31-9.5-6.71a73.7,73.7,0,0,1-9.12-8.45,57.09,57.09,0,0,1-7.73-10.9,55.89,55.89,0,0,1-5.24-14,71.07,71.07,0,0,1-1.67-17.69,109.76,109.76,0,0,1,3-21.95q.7-3.1,1.55-6.16a95.48,95.48,0,0,0,8.12,24.83,71.52,71.52,0,0,0,11.37,16.57A80.57,80.57,0,0,0,197.07,248c3.47,2.51,7.11,4.76,10.63,7.18,2.42,1.66,5.08,3.48,6.65,6a8.24,8.24,0,0,1,.42.77c.09-3,.12-5.95,0-8.92a43.89,43.89,0,0,0-.39-5.73,4.84,4.84,0,0,0-.42-1.64,4.61,4.61,0,0,0-1-1c-3.82-3.42-8.46-5.89-12.75-8.64-5.24-3.37-10.33-7.09-14.42-11.83A38,38,0,0,1,177,204.76c-1.55-10.58.73-21.44,4.06-31.46q.81-2.45,1.73-4.86c2.6,9.32,6.1,18.89,12.49,26.33a48.66,48.66,0,0,0,6.28,6c1.95,1.57,4,3.07,5.78,4.79a24.07,24.07,0,0,1,5.23,7.22,86.63,86.63,0,0,0-1.57-9.2,64,64,0,0,0-4.55-14A26,26,0,0,0,202.11,182.92ZM333,212.51a122.82,122.82,0,0,0-3.79-29.06,109.5,109.5,0,0,0-11.1-27.32,107.12,107.12,0,0,0-17.74-22.95A108.84,108.84,0,0,0,276,115.11a97.43,97.43,0,0,0-26.61-10c-1.29-.26-2.58-.5-3.87-.69A151.58,151.58,0,0,1,276,128.18a130.43,130.43,0,0,1,12.27,14.29A133.35,133.35,0,0,1,298.48,159a110.72,110.72,0,0,1,11.3,36.47,126.84,126.84,0,0,1,.74,28.22,85.76,85.76,0,0,1-10.72,34.51q-1.2,2.11-2.52,4.15a108,108,0,0,0,6.89-30.23,103,103,0,0,0-1.27-28.16,90.14,90.14,0,0,0-9.55-26.67,124.93,124.93,0,0,0-17.18-23.86,258.5,258.5,0,0,0-21.51-20.62l-3.07-2.68c3,7,7,13.5,10.74,20.1s7.45,13.31,10.71,20.19a135.4,135.4,0,0,1,8.19,21.13A93.93,93.93,0,0,1,284.56,214c.49,15-1.66,30.22-7.32,44.19a97.08,97.08,0,0,1-10.25,19,90,90,0,0,1-6.59,8.36,49.47,49.47,0,0,1-8.29,7.05,91.46,91.46,0,0,1-7.72,4.91c-3,1.72-6.09,3.23-9,5-5.83,3.54-12,7.78-15.55,13.8a16.39,16.39,0,0,0-2,5.05c-1.42-7.09-7.66-12.27-13.33-16.15a110,110,0,0,0-9.55-5.76c-2.35-1.28-4.7-2.49-6.95-3.92a83.18,83.18,0,0,1-9.07-6.55,51,51,0,0,1-7.3-7.81,94.57,94.57,0,0,1-11.17-18.33,98.17,98.17,0,0,1-7.13-21.44,119.16,119.16,0,0,1-2.28-22.92,96.62,96.62,0,0,1,2.22-22.37,117.6,117.6,0,0,1,7.38-21.39c3-6.8,6.5-13.35,10.08-19.85,3.67-6.65,7.63-13.15,11.05-19.93.8-1.59,1.58-3.19,2.29-4.83-7.6,6.68-15.16,13.33-22.16,20.66a123.45,123.45,0,0,0-18,23.73,95.38,95.38,0,0,0-10.43,26.09,100.27,100.27,0,0,0-2.24,27.8A111.12,111.12,0,0,0,137,258.59c.44,1.25.9,2.49,1.38,3.73a85,85,0,0,1-12.76-34.41,121.86,121.86,0,0,1-.31-27.53,112,112,0,0,1,9.82-37.15,120.28,120.28,0,0,1,21.21-31.54A148.45,148.45,0,0,1,186,107q2.06-1.34,4.16-2.6A93.81,93.81,0,0,0,160,115a109.11,109.11,0,0,0-26.4,19.93,105.3,105.3,0,0,0-18.79,26.3,113.76,113.76,0,0,0-10.16,30.37A128.09,128.09,0,0,0,103,224,94.86,94.86,0,0,0,110.73,255a93.88,93.88,0,0,0,17.52,26.29,105.26,105.26,0,0,0,24.31,19.08,114,114,0,0,0,31.23,12.08c4.65,1.09,9.33,2.09,14,3.29,5.37,1.4,11.21,2.91,15.84,6.09a9.37,9.37,0,0,1,4.25,5.74c.54-2.84,2.79-4.89,5.16-6.32a40.11,40.11,0,0,1,8.35-3.6c6.07-2,12.32-3.27,18.53-4.73A144.29,144.29,0,0,0,264.15,309a108.61,108.61,0,0,0,44.13-28.65,94.2,94.2,0,0,0,18.26-29.22A100.46,100.46,0,0,0,333,217C333.07,215.47,333.05,214,333,212.51Z"/><g id="Wordmark"><path class="cls-3" d="M102.6,249.24l4.16-12.47a8.22,8.22,0,0,0,3.93,1c2.08,0,3.62-1.51,3.62-5v-41h16.6V233c0,11.19-6.73,18.42-17.6,18.42A24.07,24.07,0,0,1,102.6,249.24Z"/><ellipse class="cls-3" cx="122.61" cy="179.48" rx="9.37" ry="8.92"/><path class="cls-3" d="M179.29,191.76v43.42H163.54v-4.12A16.08,16.08,0,0,1,151.6,236c-8.47,0-16.91-6.12-16.91-20.25v-24h16.6v20.88c0,6.19,2.08,8.25,5.47,8.25,3,0,5.93-2.3,5.93-8.73v-20.4Z"/><path class="cls-3" d="M228,176.28v58.9H212.23v-3.57c-2.55,2.94-6.32,4.37-11.55,4.37-11,0-19.52-7.66-19.52-22.51,0-14.61,8.5-22.51,19.52-22.51,4.62,0,8.16,1.19,10.7,3.73V176.28Zm-16.29,37.15c0-5.64-3-8.5-6.86-8.5s-7.43,2.12-7.43,8.54S201,222,204.83,222,211.69,219.07,211.69,213.43Z"/><path class="cls-3" d="M262.69,219.54l9,9.45c-4.1,4.61-9.95,7-18.15,7-15.26,0-23.88-10.15-23.88-22.51A22.43,22.43,0,0,1,252.21,191c12.07,0,22.55,7.78,22.55,22.23l-28.39,5.72c1.36,2.7,3.95,3.81,7.67,3.81A12.32,12.32,0,0,0,262.69,219.54Zm-17.46-9.13,13.29-2.7a6.34,6.34,0,0,0-6.23-4.52C248.42,203.19,245.76,205.49,245.23,210.41Z"/><path class="cls-3" d="M292.42,198c0,2.14-.15,4.13-2.79,10l-4,9h-10l2.71-10.48c-3-1.51-4.79-4.52-4.79-8.49,0-5.8,4-9.77,9.44-9.77S292.42,192.15,292.42,198Z"/><path class="cls-3" d="M292.17,231.69l4.77-11.83a29.76,29.76,0,0,0,14.71,3.89c4.23,0,5.39-.79,5.39-2.06,0-4.45-24.26,1.51-24.26-15.88,0-8.18,7.39-14.85,21.56-14.85,6.16,0,12.71,1.19,17.18,3.58l-4.78,11.82a24.34,24.34,0,0,0-12.17-3.17c-4.46,0-5.69,1-5.69,2.06,0,4.53,24.18-1.35,24.18,16,0,7.86-7.16,14.69-21.8,14.69C304,236,296.48,234.23,292.17,231.69Z"/><text class="cls-4" transform="translate(332.97 199.44)">™</text><text class="cls-5" transform="translate(133.59 250.5) scale(0.99 1)">H<tspan class="cls-6" x="12.47" y="0">E</tspan><tspan class="cls-7" x="23.04" y="0">A</tspan><tspan class="cls-8" x="35.38" y="0">L</tspan><tspan class="cls-9" x="44.42" y="0">T</tspan><tspan class="cls-10" x="54.26" y="0">H</tspan><tspan class="cls-11" x="67.29" y="0"> </tspan><tspan class="cls-12" x="71.84" y="0">&amp;</tspan><tspan class="cls-13" x="83.41" y="0"> </tspan><tspan class="cls-14" x="88.68" y="0">J</tspan><tspan class="cls-15" x="97.5" y="0">AV</tspan><tspan class="cls-16" x="120.51" y="0">A</tspan><tspan class="cls-17" x="133.01" y="0"> </tspan><tspan class="cls-18" x="137.8" y="0">H</tspan><tspan class="cls-19" x="150.37" y="0">O</tspan><tspan class="cls-20" x="163.25" y="0">U</tspan><tspan class="cls-21" x="175.49" y="0">S</tspan><tspan class="cls-22" x="185.74" y="0">E</tspan></text></g></svg>