<svg id="Layer_1" data-name="Layer 1" xmlns="http://www.w3.org/2000/svg" viewBox="0 0 432 432"><defs><style>.cls-1{fill:#7f2629;}</style></defs><path class="cls-1" d="M177.92,241.08,156.68,264l-.23-.3q-.63-.78-1.23-1.59l-.17-.21,19.29-20.84Zm6.18,0-21.9,29.09.2.2c.47.47.95.93,1.43,1.39l.27.25,23.29-30.93Zm-18.21,0L150.3,254.8l.14.24q.51.86,1.05,1.71l.2.32,18.18-16Zm32.18,48.11h2.68l9.8-48.11h-2.68Zm-1-48.11-21.38,39.84.26.17c.56.35,1.13.69,1.7,1l.29.17L200,241.08Zm-51.6,0-1.25.83.09.24c.24.64.48,1.27.73,1.89l.15.38,5.06-3.34Zm12.46,0-10.48,8.38.12.23c.3.61.61,1.21.92,1.8l.19.35,13.45-10.76Zm-6.53,0-5.82,4.27.1.24c.26.62.54,1.24.82,1.85l.17.37,9.18-6.73Zm120.69,0h-4.2l13.86,11.08.18-.34q.48-.9.93-1.8l.12-.24-10.8-8.63Zm2.08,0,9.62,7,.16-.36c.29-.61.56-1.23.83-1.85l.1-.24-6.26-4.59Zm-14.07,0,18.54,16.31.21-.32c.36-.56.71-1.13,1.06-1.7l.14-.23-16-14.06Zm24.45,0h-4.78l5.51,3.63.15-.37c.25-.62.5-1.25.74-1.88l.09-.25Zm-32.5,0,21.54,23.27.24-.3c.42-.52.83-1,1.24-1.58l.17-.21-19.61-21.18Zm-22.07,0,22.23,41.46.29-.17c.58-.33,1.14-.67,1.71-1l.26-.16-21.51-40.11Zm-10.73,0,7.39,48.11h2.66l-7.39-48.11Zm26.62,0h-3.28l23.52,31.24.26-.24,1.44-1.38.21-.2-22.05-29.29Zm-4.48-68-2-1.42-4.7,6.48,1.95,1.41Zm7.23,24.17,7.61-2.47-.74-2.3L247.82,195Zm-23.18-31.82-2.36-.51-1.67,7.84,2.36.5Zm8.37,3-2.2-1-3.26,7.32,2.21,1Zm12.1,22.15,6.94-4-1.21-2.09-6.93,4Zm-4-6,5.95-5.35-1.62-1.8-5.95,5.36Zm-25.26-20.32h-2.41v8h2.41Zm-30.5,24.22-6.93-4-1.21,2.09,6.93,4Zm23.3-15.71-1.67-7.84-2.36.51,1.66,7.83Zm32.43,24.68.08.22h2.56l-.14-.43a30.46,30.46,0,0,0-57.87,0l-.14.43h2.56l.07-.22a28,28,0,0,1,52.88,0ZM182.91,195l-7.62-2.48-.75,2.3,7.62,2.47Zm19.52-20.21-3.26-7.32-2.21,1,3.26,7.32Zm-6.38,3.39-4.71-6.48-2,1.42,4.71,6.47Zm-5.53,4.64-6-5.36-1.62,1.8,6,5.35Z"/><path class="cls-1" d="M157.44,191.91l4.86-8.7-3.15-1.75-1,1.85,1.56.88-1.92,3.43L154.87,186l2.2-3.93-1.58-.89-2.2,3.94-2.84-1.58,1.89-3.39,1.5.83,1-1.84-3.08-1.71L147,186.07l1.58.88.79-1.41,7.31,4.08-.79,1.41Zm7.61-12.78,3.63-3.75-1.3-1.26-1.1,1.14-.73-1.59,3.42-3.54,1.61.68L169.49,172l1.3,1.26,3.74-3.87-1.3-1.26-1,1L162.05,165l-3.41,3.52,1.3,1.26,1.14-1.17,3.65,8.26-1,1Zm-.31-7.23-2-4.41,4.49,1.88Zm17.58-7.4c2.05-1.26,3.44-3.1,2.07-5.33-2.38-3.9-7.15.64-8.49-1.55-.57-.94.26-1.84,1.25-2.44a10.76,10.76,0,0,1,1.51-.74l.84,1.37,1.78-1.08-1.53-2.51a12.88,12.88,0,0,0-3.6,1.44c-2,1.24-3.32,3.17-2,5.32,2.3,3.76,7-.86,8.45,1.47.62,1-.24,1.91-1.33,2.57a8.56,8.56,0,0,1-1.9.86l-.82-1.34-1.75,1.07,1.56,2.55A17.05,17.05,0,0,0,182.32,164.5Zm10.79-5.6,5.55-1.78-.56-1.72-1.68.54-2.56-8,2.14-.68.56,1.74,2-.63-1.12-3.46L187,148.26l1.11,3.47,2-.63-.56-1.74,2.14-.69,2.55,8-1.69.54Zm24.27-4,5.8.45.14-1.8-1.76-.14.64-8.33,2.24.17-.14,1.82,2.06.16.28-3.63-10.87-.84-.28,3.63,2.06.16.14-1.83,2.24.18-.65,8.34-1.76-.14Zm13.42,1.74,9.44,3.18,1.15-3.42-2-.68-.57,1.7-3.73-1.25,1-3.14,4.27,1.44.58-1.72-4.27-1.43,1-3.08,3.68,1.24-.55,1.62,2,.67,1.12-3.34-9.36-3.15-.58,1.72,1.53.51-2.67,7.93-1.53-.52ZM244.89,162l4.46,2.92,1-1.46-1.25-.82,3.52-1.1.34,3.64-1.28-.84-1,1.46,4.58,3,1-1.47-1.08-.71-.62-5.68,5.06-1.5,1.1.72,1-1.49-4.4-2.9-1,1.47,1.25.82-3.23,1-.31-3.33,1.28.85,1-1.47-4.56-3-1,1.48,1.1.72.56,5.31-5.41,1.6-1.12-.73Zm13.88,9.79,3.42,3.94,1.37-1.18-1-1.19,1.65-.6,3.22,3.72-.82,1.54-1-1.19L264.18,178l3.53,4.06,1.37-1.19-.95-1.08,5-9.78-3.22-3.71-1.36,1.19,1.07,1.24-8.54,2.93-.93-1.07Zm7.24.32,4.57-1.65-2.26,4.31Zm5.84,18.15c1.07,2.15,2.79,3.69,5.13,2.53,4.09-2,0-7.19,2.28-8.33,1-.49,1.81.42,2.33,1.46a11,11,0,0,1,.6,1.57l-1.44.72.93,1.87,2.62-1.31a12.7,12.7,0,0,0-1.12-3.71c-1.05-2.11-2.86-3.59-5.11-2.47-3.95,2,.24,7.07-2.21,8.29-1.06.53-1.88-.41-2.45-1.55a9.38,9.38,0,0,1-.69-2l1.41-.7-.91-1.83-2.68,1.33A17.65,17.65,0,0,0,271.85,190.22Z"/><path class="cls-1" d="M85.51,211.7l-5.84.08,0,2.32,0,2.32h.68l0-3.2,5.16-.07Zm4.75,3.16H91v-.74l-.06-4.77v-1.15h.68l.11,8.09-3.47,0v0h-.74l-1.2,0,0-1.42h0ZM71.81,227.59v-.7l3,0h0c0-1.91,0-3.53-.07-5v-.42c0-2.61-.07-4.93-.11-7.89v-1.67h0v-.71l-1.62,0h0l-1.42,0h0v-.82c0-.43,0-.8,0-1.19l0-1.4,18.64-.25,0,1.07c0,2,0,3.29.07,5.55h0l-2.5,0H86.28l0-1.23v-.11l0-1.88-7.31.1v.71h0c0,2,0,3.2.08,5.4l1.41,0h0l7.08-.09v.7h0c0,.93,0,1.59,0,2.7l-8.5.12,0,2v1.09c0,.92,0,1.86,0,3.09l1.42,0h0l5.94-.08h0c0-1.35,0-2,0-3.37l4-.05v.7h0c0,1.49,0,2.58,0,3.86,0,.66,0,1.37,0,2.22h0l-17.69.24h-1l0-1.19v-.58l0-.93Zm20.24,4.6h-.74c-7.49.09-11.25.14-18.74.25h-.74l0-1.43h0l18.75-.26h.73V230l0-3.59,0-2.49h.68Zm-5.55-9.61h-.73v.06l-5.27.07,0,3.31h-.69l0-3.69v-1.06l7.76-.11h.73v-.74l0-1.7v-1h.68l.07,4.82ZM73.91,213.3l-2.36,0,0-1.44h0l2.31,0Zm24.42-1.76-2.31,0h0L96,213l2.36,0Zm18,20.37h-.73c-7.44.07-11.16.12-18.6.21h-.73l0-1.43h.05l18.6-.21h.73v-.73l0-3.53,0-2.8h.69Zm-20.07-3.77v-1.58l3,0V225l0-1.65v-.05c0-3.8-.08-6.61-.13-10.71v-1h0v-.7l-1.83,0H96c0-1.36,0-2,0-3.41l11-.12v.7h0l0,2.7h0l-3.61,0v.7h0c.06,4.89.09,7.89.14,12.3,0,.38,0,.78,0,1.19v1.54l7.26-.08h0v-1.55l0-2.06,4-.05v.7h0c0,.73,0,1.37,0,2v4.36h0l-18.55.2h0C96.24,229.23,96.23,228.69,96.22,228.14ZM107,211.44h.74v-.74l0-1.7v-1h.69l0,4.87-3.6.05.15,12.82h-.69v-.6l-.15-13.66Zm14.89-.16-2.31,0h0l0,1.43,2.35,0Zm5.84,7.08-.07-7.13,2.65,0h.11c3.46,0,5.59,1.29,6.47,3.93a5.13,5.13,0,0,0-.54-.69c-1.16-1.22-3-1.77-5.34-1.82l-2.64,0,.11,12.83h-.69Zm16.21,1.32c.05,7.5-4.72,12-12.77,12.09l-11.44.11v-1.44h0l10.71-.1c.5,0,1,0,1.47-.06,4.09-.2,7.06-1.6,8.78-4.09a12,12,0,0,0,2.51-7.94,13.61,13.61,0,0,0-1-5.2A13,13,0,0,1,143.91,219.68Zm-24.37-9.11H121l1.62,0,.15,15.73h0l-3,0c0,1.36,0,2,0,3.41,4.28-.05,6.42-.06,10.71-.1,7.93-.07,11.83-4.41,12-10.73,0-.21,0-.41,0-.62v0c0-.21,0-.42,0-.62s0-.14,0-.21l0-.42a2,2,0,0,1,0-.23c0-.13,0-.26,0-.39l0-.23-.06-.37c0-.08,0-.15,0-.23s-.05-.24-.08-.36a1.42,1.42,0,0,0,0-.22l-.09-.36-.06-.2c0-.12-.07-.24-.11-.36a1.34,1.34,0,0,0-.07-.18c0-.12-.08-.24-.13-.36a1.22,1.22,0,0,0-.07-.17l-.15-.36a1,1,0,0,1-.07-.15c-.06-.12-.12-.25-.19-.37l-.06-.12-.22-.38-.06-.09c-.08-.14-.17-.28-.26-.41l0,0c-1.94-2.75-5.34-4.38-10.26-4.33-4.29,0-6.44.05-10.73.1,0,1.36,0,2,0,3.4Zm7.35-.07,3.38,0a7.86,7.86,0,0,1,5.62,1.8c.18.17.34.35.5.53h0c.15.19.29.38.42.58l0,0a5.36,5.36,0,0,1,.34.62l0,.06a6.14,6.14,0,0,1,.27.64.36.36,0,0,0,0,.09c.07.21.13.43.19.65,0,.05,0,.1,0,.15.05.21.09.43.13.65l0,.19c0,.22.06.45.08.68l0,.21c0,.3,0,.61,0,.92h0c0,.23,0,.46,0,.68l0,.46c-.32,4.2-2.69,6.73-7.6,6.77l-2.94,0H127c0-6-.08-9.2-.13-15h0Zm34.21,1.36V211l-5.84,0,0,4.64H156l0-3.21,5.15,0Zm6.39,19.66h-.74c-7.5,0-11.25.06-18.75.11h-.73v-1.43h0l18.75-.11h.73v-2.84l0-4h.69Zm-1.67-17.34h.73v-.74l0-5.92h.7l0,8.1h-5.44V214.2h0Zm-18.68-6.13v-1.11c7.45-.06,11.18-.08,18.64-.12v.7h0v3.24l0,2.69h-4v-3.22l-7.32,0v.7h0c0,1.55,0,2.63,0,4.07v1.34H156l7.07,0v.7h0v2.71l-8.49,0c0,1.55,0,2.61,0,3.79,0,.72,0,1.49,0,2.43l7.41,0h0v-.77c0-.68,0-1.21,0-1.9h0v-.7l4,0v.7h0c0,1.6,0,2.74,0,4.14v1.93l-17.32.11h-1.43v-3.41l3,0c0-1.76,0-3.28,0-4.69v-.87c0-3.23,0-6-.07-10.17l-3,0h0v-2.29Zm2.34,4.44-2.34,0,0-1.43h2.35ZM162,221.88h-.73v.05L156,222l0,3.32h-.69l0-4.74,7.76,0h.73V217h.7l0,4.82ZM210,220.17h-3.5v5h.7V221.6h3.5a4.92,4.92,0,0,1,2.94.74l.12.11C213.55,220.48,211.31,220.17,210,220.17Zm-11.52-10.91v.86h3v.69h0c0,2.24,0,4.08,0,5.85v2.73c0,1.92,0,3.93,0,6.46h-3c0,1.36,0,2,0,3.41h11.71c5.32,0,8.3-2.18,8.57-5.56q0-.24,0-.51h0a4.36,4.36,0,0,0,0-.51s0-.1,0-.15,0-.23-.05-.35l0-.16c0-.11,0-.22-.08-.34s0-.09,0-.14l-.12-.34,0-.12c-.05-.13-.11-.25-.17-.37l0-.06a4.92,4.92,0,0,0-1-1.24h0a4.11,4.11,0,0,0-.5-.42h0a7.1,7.1,0,0,0-1.55-.85h0a10.23,10.23,0,0,0-1.32-.43c2.74-.83,3.93-2.44,4.21-4.26h0a5.83,5.83,0,0,0,.06-.84c0-.18,0-.34,0-.51a.28.28,0,0,1,0-.09c0-.16,0-.32-.07-.47s0-.05,0-.08-.07-.3-.11-.44v0a3.16,3.16,0,0,0-.16-.43l0-.08c-.06-.14-.13-.28-.2-.41l0,0a3,3,0,0,0-.24-.38l0,0c-.09-.13-.19-.25-.29-.37l-.05,0c-.1-.12-.21-.23-.33-.35h0c-1.47-1.38-3.88-2.13-6.84-2.13H198.43v2.55Zm11.25.81a4.53,4.53,0,0,1,3.56,1.25,2.35,2.35,0,0,1,.23.32l0,.06.07.15,0,.11.06.14c0,.08.05.16.07.24s0,.07,0,.11a1.2,1.2,0,0,1,0,.2s0,.07,0,.1,0,.21,0,.32h0a3,3,0,0,1,0,.42v0a2.33,2.33,0,0,1-.08.38h0c-.4,1.48-1.94,2.29-4.34,2.29h-3.67c0-1.64,0-2.73,0-4v-2.1Zm4.24,10.85,0,.05a1.74,1.74,0,0,1,.11.18l0,.06c.06.12.12.24.17.36a.14.14,0,0,0,0,.06.74.74,0,0,1,0,.14s0,.11,0,.16,0,.09,0,.13a.64.64,0,0,1,0,.2s0,.07,0,.11,0,.21,0,.32h0c0,.15,0,.29,0,.42v0a2.32,2.32,0,0,1-.07.38c-.4,1.54-2,2.36-4.31,2.36h-4.34v-6.44H210a4.89,4.89,0,0,1,3.83,1.3h0Zm4.93-8.33a5.87,5.87,0,0,0-.3-1.9,5.71,5.71,0,0,1,1,3.32,5.5,5.5,0,0,1-2.2,4.53,7.56,7.56,0,0,0-1.35-.85,4.4,4.4,0,0,0,1.31-1.17A5.55,5.55,0,0,0,218.85,212.59Zm-12.4.54v-2.32h3.23c1.26,0,3.33.29,3.42,2.15l-.11-.09a4.62,4.62,0,0,0-2.6-.63h-3.24v3.22h-.7Zm13.76,11.47c0,4.26-3.49,6.8-9.33,6.81H198.43V230h11.75c.52,0,1,0,1.51-.06,2.84-.13,4.9-.95,6-2.33a6,6,0,0,0,1.78-4.42,6.32,6.32,0,0,0-.3-2A5.88,5.88,0,0,1,220.21,224.6Zm-19.46-12.32H198.4v-1.43h2.34Zm25.44-1.43h-2.34v1.42h2.34ZM232,215.5v-4.64h5.84v1.42h-5.14v3.22Zm8.49,1.44h.71v4.83H237.9v.05h-5.25v3.32h-.71v-4.75l7.76,0h.73v-3.45Zm3.62,6.26,0,8.25h-.74l-18.74,0h-.74V230h0l18.75,0h.74V223.2Zm-1.56-9.1h.73v-6.67H244l0,8.09h-5.44v-1.42h4Zm-18.63-4V207.4h0v-.69c7.46,0,11.19,0,18.65,0v1.08c0,2,0,3.28,0,5.55h-4c0-1,0-1.66,0-2.53h0v-.69l-7.32,0v.69h0v.25c0,1.68,0,2.83,0,4.59v.58h1.05l7.45,0v.69h0c0,.94,0,1.6,0,2.71h0l-8.46,0c0,1,0,1.8,0,2.56v3.66h1.44l6,0v-1.1c0-.73,0-1.34,0-2.27h4v.69h0v6.08c-7.5,0-11.25,0-18.75,0h0v-.52c0-1,0-1.71,0-2.89h3c0-6.3,0-9.44,0-15.74h-3.05Zm62.27,19.4v.73h-.73L275,230.17h0v1.42l11.84.08,0-4.88h-.71ZM296,214.15a7.29,7.29,0,0,0-.49-2.68,7.33,7.33,0,0,1,1.2,4.11,6.82,6.82,0,0,1-4.22,6.34l-.72-1.3a5.8,5.8,0,0,0,2.3-1.7A6.72,6.72,0,0,0,296,214.15Zm-18.53-1.68-2.33,0V211h2.33Zm9.29,10.94-2.88,0v2h-.71l0-2.82V222l2.88,0,.78,1.42Zm2.62-11.33a2.56,2.56,0,0,1,.77,1.5l-.06-.07a4.65,4.65,0,0,0-3.23-1l-2.9,0,0,4.66h-.72l0-2.58,0-3.51,2.9,0A4.62,4.62,0,0,1,289.36,212.08Zm8.86,15.54,0,4.14-6.87-.06-.7-1.43H291l5.71,0h.73v-3.45h.7Zm-6.42,1.93,4.95,0c0-.8,0-1.38,0-2v-1.41l-2,0H294l-.61-1.09-2.34-4.18-.41-.75a6.21,6.21,0,0,0,4.54-5.07h0a7.28,7.28,0,0,0,.07-.93,7.37,7.37,0,0,0-.12-1.32h0a6.4,6.4,0,0,0-2.05-3.62h0c-1.46-1.31-3.72-2.2-7-2.23l-10.92-.07c0,.93,0,1.55,0,2.29v1.11h3c0,.71,0,1.36,0,2,0,.32,0,.66,0,1l0,3.15c0,3,0,5.71-.06,9.62h0l-3,0c0,.31,0,.59,0,.85,0,.85,0,1.52,0,2.55h1.44l8.93.06c0-1,0-1.63,0-2.42,0-.29,0-.61,0-1l-1.59,0H282.4c0-.58,0-1.07,0-1.53,0-.88,0-1.64,0-2.63v-.69l4,0,.41.73c.14.27.28.52.42.77l.22.4,2.36,4.28.05.1c.34.61.71,1.27,1.11,2Zm-5.71-11.63-3.63,0v-2.74c0-.65,0-1.27,0-1.92v-.67c0-.48,0-1,0-1.53,0-.22,0-.44,0-.69l3.64,0a5,5,0,0,1,3.88,1.37,3.24,3.24,0,0,1,.67,1.14h0a4.34,4.34,0,0,1,.16.62,5.19,5.19,0,0,1,.05.68,6.82,6.82,0,0,1-.08.79h0C290.51,216.6,289.2,217.94,286.09,217.92Zm18.19-6.1v-.57l-2.31,0h0v1.42l2.32,0Zm9.58-3.93-.05,4.88-3,0-.13,12.84h-.71l.07-7.13.06-7.13,2.31,0h.74v-3.45ZM313,227h.72l-.05,4.87-11.84-.11v-1.42h0l10.37.1h.74v-.73Zm-11.14,2.61v-.84c0-.66,0-1.2,0-1.87h0v-.69l3,0c0-3,.05-5.29.07-7.54v-2.29l0-2.54v-.27l0-3.09-1.59,0H302v-.66c0-1,0-1.62,0-2.75l10.4.1v.69h0l0,1.54v1.18h0l-3,0c0,1.58,0,3,0,4.24l0,1.12v.72l0,2c0,.68,0,1.38,0,2.09s0,1.32,0,2V224l0,2.33h1.46l1.58,0V227h0v2.72h0l-8.91-.08h-.08Zm32.35-8.54h-.73l-7.76-.09,0,2.37,0,2.38h.72l0-3.33,5.23.06v0h.74l2.53,0,.06-4.84h-.73l0,2.72Zm-8.41-7.29,0-2.32,5.84.06V213l-5.13-.06,0,3.22h-.72Zm11.31,10.12h.72l-.11,8.24h-.73c-7.5-.1-11.25-.14-18.75-.22h-.73v-1.42h0l18.75.22H337V230l0-3.38ZM320,212.83l-2.33,0,0-1.42h0l2.31,0Zm16.3,2H337v-.73l.08-5.94h.72l-.1,8.1-5.44-.07v-1.42h0Zm-18.77,15h0c0-1.36,0-2,0-3.41l3,0c.07-6.3.11-9.44.17-15.74l-3,0c0-1.36,0-2,0-3.4l18.64.21,0,1.36c0,1.66,0,2.87-.05,4.69v.58h0l-3.34,0h-.61v-.73c0-.85,0-1.47,0-2.49l-7.32-.09v.69h0c0,2,0,3.22-.06,5.42l8.5.1v.68h0v2.73h0l-8.5-.1,0,1.86v2.2l0,2.15h0l7.41.09v-1.42l0-1.26h0v-.69l4,0v1.19c0,1.1,0,2,0,3V228l0,2h0l-17.33-.2Zm26.33-.11h0a29.21,29.21,0,0,0,6.53,1c4.28.06,8.14-1.31,8.61-5.61h0V225a1.84,1.84,0,0,0,0-.33c0-.13,0-.27,0-.4s0-.51,0-.74v0c0-.22,0-.43-.09-.64,0,0,0-.06,0-.09,0-.19-.08-.37-.13-.55a.56.56,0,0,0,0-.12,3.71,3.71,0,0,0-.16-.47l-.07-.16c0-.13-.12-.26-.18-.38l-.11-.19c-.06-.1-.12-.21-.19-.31l-.15-.21-.13-.15c-.09-.12-.18-.22-.28-.33l0-.05-.41-.38h0c-2.39-2.09-6.33-2.54-8.47-3.83l-.2-.13-.12-.08-.2-.16-.08-.06-.2-.19,0,0a2.36,2.36,0,0,1-.6-1.08h0a2.37,2.37,0,0,1-.08-.61c0-2.08,2.27-2.68,4.46-2.65a20.86,20.86,0,0,1,3.15.35c0,1.21,0,1.82,0,3h1.2l2.73,0,0-1.67c0-.62,0-1.19,0-1.8h0l0-2a24.13,24.13,0,0,0-7.19-1.32c-4.45-.06-8.49,1.7-8.55,6.43a9.61,9.61,0,0,0,.05,1l0,.2a4.46,4.46,0,0,0,.11.55,1,1,0,0,0,0,.17,5.52,5.52,0,0,0,.35.94l.06.12a4.25,4.25,0,0,0,.27.46l.07.1a5.21,5.21,0,0,0,.6.72l.08.08c.14.13.28.26.43.38l0,0c2.84,2.25,7.68,2.41,9.3,4.46a.71.71,0,0,1,.1.14.76.76,0,0,1,.12.19l.08.14a2.6,2.6,0,0,1,.1.25l0,.1a3.59,3.59,0,0,1,.08.35.25.25,0,0,0,0,.08c0,.13,0,.27,0,.41h0a2.64,2.64,0,0,1-.12.77h0c-.51,1.57-2.49,2-4.59,2a16.33,16.33,0,0,1-2.43-.23h0c-.58-.1-1.07-.21-1.44-.3h0v-.83c0-.5,0-.93,0-1.45h0v-.68l-3.86,0v.68h0c0,1.82,0,2.94-.06,4.95h0C342.86,229.43,343.34,229.56,343.85,229.68Zm14.7-14.89h.73v-.93l.07-4.67.22.08.5.17-.1,6.78-5.4-.08,0-1.41h0Zm-7-3.43a17.31,17.31,0,0,1,2.42.23v1.33a13.45,13.45,0,0,0-1.7-.13c-1.43-.06-3.65.2-3.71,1.88a1.69,1.69,0,0,1-.7-1.39,1.45,1.45,0,0,1,.26-.85,5.38,5.38,0,0,1,3-1.07h.46Zm9,14.32c-.07,4.54-3.39,7.12-9.13,7.12h-.27a32.8,32.8,0,0,1-8.17-1.36l-.55-.15v-1.23a32.79,32.79,0,0,0,8,1.31h.28c.44,0,.87,0,1.28-.05,2.2-.06,4.54-.59,5.9-2.19a6.57,6.57,0,0,0,1.94-4.87,7.7,7.7,0,0,0-.38-2.66A7,7,0,0,1,360.48,225.68ZM347,225v-.62h.72l0,1.82c-.27,0-.51-.09-.72-.14Zm3.38-2.31c-2.78-.91-6.12-2-7.2-5.21,1.46,2.14,4.18,3,6.5,3.78,2.7.88,4.38,1.5,4.42,3.07A11.65,11.65,0,0,0,350.42,222.73Zm-86.15,6.64c-1-1.72-1.67-3-2.38-4.29l0-.06-1.8-3.24-.38-.69-4.05,0v4.85h3v.7c0,.93,0,1.6,0,2.7h0l-8.94,0h-1.44c0-1.36,0-2,0-3.4h3v0c0-3.73,0-6.36,0-9.2v-.22c0-1.69,0-3.47,0-5.6v-.69l-3,0h0v-.59c0-1,0-1.66,0-2.81l10.92,0c5.4,0,8.07,2.44,8.89,5.18h0c0,.1.06.2.08.3v0l.06.28v.05c0,.08,0,.17.05.26a.13.13,0,0,0,0,.06,2.29,2.29,0,0,1,0,.25.25.25,0,0,1,0,.08c0,.08,0,.16,0,.23v.1a2.62,2.62,0,0,1,0,.28V214c0,.14,0,.28,0,.42s0,.27,0,.4h0a6.19,6.19,0,0,1-4.54,5.19c.48.84.87,1.53,1.23,2.18l.18.31.39.71.11.19.35.61.38.69.61,1.08.13.24H268l2,0v1.45l0,1.94h0l-5,0ZM264,214.81h0l.06-.39h0c0-.13,0-.27,0-.4s0-.24,0-.35a.78.78,0,0,1,0-.16c0-.06,0-.12,0-.18s0-.13,0-.2l0-.12a1.55,1.55,0,0,0-.07-.23.29.29,0,0,0,0-.09,2.44,2.44,0,0,0-.1-.24l0-.06c0-.09-.09-.17-.13-.25l0,0-.17-.25v0a2.52,2.52,0,0,0-.21-.25,5,5,0,0,0-3.9-1.36l-3.64,0,0,7.55h0l3.63,0C262.38,217.77,263.7,216.44,264,214.81Zm-13.38-3.9H248.3v1.42h2.34Zm16.56,7.9a5.8,5.8,0,0,1-2.24,1.64l.73,1.29a6.8,6.8,0,0,0,4.19-6.35,7.27,7.27,0,0,0-1.14-4,7.3,7.3,0,0,1,.43,2.57A6.72,6.72,0,0,1,267.19,218.81Zm-7.82,9.81v1.46h-.74l-10.37,0h0v1.42l11.84,0,0-4.88h-.71Zm11.36-1.93,0,2.71v.74H270l-5.71,0h-.51l.79,1.43,6.87,0,0-4.88Zm-11.42-15.75h-2.9v3l0,3h.71l0-4.66H260a4.64,4.64,0,0,1,3.22,1l.07.07a2.62,2.62,0,0,0-.77-1.5A4.72,4.72,0,0,0,259.31,210.94Zm.72,12.31c-.24-.44-.5-.91-.79-1.42l-2.88,0v3.38h.71v-2h3ZM182.6,210.89h-2.91v.55l0,5.54h.7v-4.65h2.93a4.58,4.58,0,0,1,3.2,1,.3.3,0,0,1,.08.08C186.35,211.74,185,210.89,182.6,210.89Zm-8.68,1.47h-2.34v-1.43h2.35Zm9.57,14.22,0,4.88-11.84,0v-1.43h0l10.38,0h.73v-3.45Zm9-12.75a7.36,7.36,0,0,0-.45-2.54,7.35,7.35,0,0,1,1.16,4,6.79,6.79,0,0,1-4.14,6.38l-.73-1.28a5.68,5.68,0,0,0,2.33-1.77A6.75,6.75,0,0,0,192.47,213.83Zm-17.82-3.64c0,2.29,0,4.16,0,5.92v.28c0,3,0,5.65,0,9.53h-3l0,2.86v.55h.8l9.54,0h0v-2.71h0v-.7h-3c0-1.69,0-2.64,0-4.15h0v-.7h4c1,1.83,1.78,3.16,2.56,4.54l.06.09,2,3.61h5.7v-3.41h-2.78l-3.43-6a6.17,6.17,0,0,0,4.53-5.59c0-.15,0-.3,0-.45h0c0-.11,0-.21,0-.32a.17.17,0,0,0,0-.07c0-.09,0-.17,0-.26v-.05l0-.27v0c0-.09,0-.19,0-.29h0c-.58-3-3.26-5.79-9.1-5.78l-10.92.05c0,1.36,0,2,0,3.4Zm12.08,1.56v0a2.13,2.13,0,0,1,.16.25l0,0c0,.08.09.16.12.24l0,.07a2.29,2.29,0,0,1,.1.23l0,.1.06.21,0,.14c0,.06,0,.12,0,.19a1.11,1.11,0,0,1,0,.19.68.68,0,0,1,0,.14c0,.12,0,.23,0,.35h0a3,3,0,0,1,0,.42v0a2.76,2.76,0,0,1-.06.4c-.31,1.61-1.61,2.94-4.69,3H179c0-2,0-3.36,0-4.94v-2.6h3.64a5,5,0,0,1,3.93,1.35h0Zm-3.42,11.45h-2.87v1.95h-.69v-3.38h2.88l.81,1.42h-.11Zm11.53,8.23H188l-.8-1.43h7v-3.45h.7Z"/></svg>