<svg id="Layer_1" data-name="Layer 1" xmlns="http://www.w3.org/2000/svg" viewBox="0 0 216 216"><path d="M166.35,105v40.71c0,13.13-11.41,23.49-28.57,25.44s-32.19-6.27-33.57-18.36,11.42-23.5,28.58-25.45c1.46-.17,2.9-.23,4.33-.26V111.26C147.4,108.76,157,106.52,166.35,105Zm0-31V50.55H137.12V79.76q-5.75,1.36-11.59,2.8c-7.93,2-16,3.9-24.24,5.68v27.65c10.82-2.18,21-4.67,30.69-7,20.79-5.1,38.75-9.5,56.64-9.5V86.27A13.27,13.27,0,0,0,174.07,73C171.49,73.29,168.92,73.61,166.34,74ZM68.39,50.55V93.63A233.85,233.85,0,0,1,43.28,95v13.38a13.32,13.32,0,0,0,14.15,13.26c3.72-.22,7.37-.52,11-.87v6.28c-1.43,0-2.87.09-4.33.26-17.16,2-29.95,13.35-28.58,25.45s16.41,20.32,33.57,18.36,28.57-12.31,28.57-25.44V50.55Z"/></svg>