<svg id="Layer_1" data-name="Layer 1" xmlns="http://www.w3.org/2000/svg" viewBox="0 0 216 216"><path d="M198,124.7a31.58,31.58,0,0,1-31.55,31.55H115.37a35.27,35.27,0,0,0,19.48-29.48v-.21h31.59a1.86,1.86,0,1,0,0-3.71H116.32a31.55,31.55,0,0,1,0-63.09h79.79l-4.86,29.69H116.35a1.86,1.86,0,0,0,0,3.71h50.1A31.59,31.59,0,0,1,198,124.7ZM81.09,122.84h19.52A35.29,35.29,0,0,1,81.15,93.15H49.55a1.86,1.86,0,1,1,0-3.71H81.14a35.32,35.32,0,0,1,19.49-29.69H49.55a31.55,31.55,0,0,0,0,63.1H81.09Zm50,3.72H24.72l-4.86,29.69H99.65A31.59,31.59,0,0,0,131.14,126.56Z"/></svg>