<svg id="Layer_1" data-name="Layer 1" xmlns="http://www.w3.org/2000/svg" viewBox="0 0 432 288"><g id="wordmark_black" data-name="wordmark black"><path d="M254.15,161.6a4.94,4.94,0,0,1-3.79.3l-7.07-2.2a10.32,10.32,0,0,1-7.28-9.63l-1.58-25.85a4.06,4.06,0,0,1,.7-2.58,12,12,0,0,0,2.2-7.17,24.17,24.17,0,0,0-1-7.1,1.49,1.49,0,0,1,2.18-1.71,23.16,23.16,0,0,1,5.79,4.39c1.16,1.49,1.66,17.47,1.8,27.72A26.69,26.69,0,0,0,249.76,151a10.19,10.19,0,0,0,2,2.37C253.77,155.2,257.93,159.6,254.15,161.6ZM232.66,71.68a.76.76,0,0,0-.56-.73l-2.54-.7,2.3-.66a.75.75,0,0,0,.54-.8.76.76,0,0,0-.69-.69l-4.21-.35a.77.77,0,0,0-.82.69.75.75,0,0,0,.69.82h.1l-.91.27a.75.75,0,0,0-.55.73.76.76,0,0,0,.56.73l2.54.7-2.15.62a.76.76,0,0,0,.12,1.48l3.62.43h.08a.76.76,0,0,0,.2-1.49l1.13-.33A.75.75,0,0,0,232.66,71.68Zm-25.29,2.86a.79.79,0,0,0,.76.57h.05l4.09-.27a.8.8,0,0,0-.1-1.6l-.64,0,1.51-.86a.8.8,0,0,0-.5-1.49l-2.11.3,1.63-1.12a.79.79,0,0,0,.31-.93.82.82,0,0,0-.83-.53l-4.72.45a.8.8,0,0,0,.15,1.59l1.62-.15-1.89,1.29a.8.8,0,0,0-.3,1,.79.79,0,0,0,.86.5l1.39-.19-.91.52A.8.8,0,0,0,207.37,74.54Zm1,84a12.35,12.35,0,0,1,5-1,1.92,1.92,0,0,0,.91-.23,21.29,21.29,0,0,1,3.48-1.24.46.46,0,0,0,.29-.5.49.49,0,0,0-.25-.34,11.22,11.22,0,0,0-4.21-1.09,11.38,11.38,0,0,0-6,1.29S206.46,159.46,208.36,158.53Zm-2.13-13.83c1,1.36,1.64-1,1.82-1.69a.48.48,0,0,0-.06-.37,11.44,11.44,0,0,0-4.31-4,6.19,6.19,0,0,0-4,0,.46.46,0,0,0-.3.61l.64,1.62a.45.45,0,0,0,.37.29A11.52,11.52,0,0,1,206.23,144.7ZM205,152.53c1,1.37,1.67-.74,1.84-1.33a.57.57,0,0,0,0-.29,13.35,13.35,0,0,0-3.52-5.27c-2.34-1.85-2.26,0-2.26,0l.65,4.2a.46.46,0,0,0,.45.39C202.75,150.3,203.87,150.91,205,152.53Zm12.67-2.75a5.08,5.08,0,0,0-2.55-1.37,9.86,9.86,0,0,0-4.5.12.46.46,0,0,0-.27.22c-.34.59-1.43,2.64-.05,2.2,1.65-.54,5.39.34,6.87.93a.46.46,0,0,0,.63-.43V150.1A.48.48,0,0,0,217.66,149.78Zm-32-56.06a2.2,2.2,0,0,0,.8-.23l.05,0,.13-.07a.8.8,0,0,0,.16.08,3.37,3.37,0,0,0,0,1,3.33,3.33,0,0,0,2.48,2.62,4.29,4.29,0,0,0,8.32-.34,5,5,0,0,0,2-6.73,2.46,2.46,0,0,0,.47-4.31,3.61,3.61,0,0,0,.49-2.38l.13-.06a1.11,1.11,0,0,0,.13-1.94l-1.27-.81a2.87,2.87,0,0,0,.84-2.58,2.82,2.82,0,0,0-.92-1.6,3,3,0,0,0,1.11-1.65,6,6,0,0,0,.35.56.77.77,0,0,0,.62.31.77.77,0,0,0,.62-1.21,12,12,0,0,1-1.52-4,2.43,2.43,0,0,0,0-.76,3.06,3.06,0,0,0-.39-1,2.76,2.76,0,0,0,1-3.27,2.42,2.42,0,0,0,1.37-2.64,2.73,2.73,0,0,0-.19-.57,2.24,2.24,0,0,0,1,0,2.43,2.43,0,0,0,2-2.42h.05a.74.74,0,0,0,.51,0l.15,0a3.33,3.33,0,0,0,.53-.11,3.53,3.53,0,0,1,1.24.09,4.89,4.89,0,0,0,1,.12,3.74,3.74,0,0,0,1.49-.33.77.77,0,0,0,.4-1,.75.75,0,0,0-.78-.45,3,3,0,0,0,.84-1,2.94,2.94,0,0,0,.89,0l1.14,1a1.08,1.08,0,0,0,1.1.21,1.1,1.1,0,0,0,.72-.86l.05-.33a4,4,0,0,0,1.19,0,1.55,1.55,0,0,0,.31.06,1.12,1.12,0,0,0,1-.52l.05-.07.21-.16.09.14a2.09,2.09,0,0,0,2.74.42l0,.07a1.12,1.12,0,0,0,.94.62,1.07,1.07,0,0,0,1-.48,2.23,2.23,0,0,0,1,.11c.27.11.33.36.38,1a.77.77,0,0,0,.76.7h.07a.78.78,0,0,0,.7-.83,3.26,3.26,0,0,0-.52-1.64,2.35,2.35,0,0,0,.29-.54,3,3,0,0,0,.35.62l0,.06.17.84a1.1,1.1,0,0,0,1.79.64l.34-.29a3.11,3.11,0,0,0,1.58-.31l0,0-.08.62a1.1,1.1,0,0,0,1.66,1.1l1.18-.7a2.23,2.23,0,0,0,.36,0A3.13,3.13,0,0,0,236,63a2.23,2.23,0,0,0,.2.33,2.13,2.13,0,0,0,.45.45,2.5,2.5,0,0,0-.22,2.36l-.2.8a1.1,1.1,0,0,0,.58,1.26h0a2.79,2.79,0,0,0,0,1.49h0a1.11,1.11,0,0,0-.62,1,1.08,1.08,0,0,0,.6.93,3.73,3.73,0,0,0-.12.94.76.76,0,0,0-1.12,1,10.32,10.32,0,0,1,1.62,3,3.09,3.09,0,0,0,.59,2,3.33,3.33,0,0,0,.25.28,3.08,3.08,0,0,0-.92,3.43c0,.06,0,.12,0,.19a.28.28,0,0,0,0,.09,4.12,4.12,0,0,0-.47,4.46,4.86,4.86,0,0,0-.12,6,.08.08,0,0,0,0,0,3.33,3.33,0,0,0,.11,3.8,3.6,3.6,0,0,0,.5.53,1.08,1.08,0,0,0,.67.45,3.38,3.38,0,0,0,2.32.27,3.32,3.32,0,0,0,4.39.68h.18c1.18.06,1.27.06,1.36,1.09a.76.76,0,0,0,.76.7h.07a.75.75,0,0,0,.69-.83,3,3,0,0,0-.63-1.79,3.17,3.17,0,0,0,.76-.42,3.29,3.29,0,0,0,1.27-2H250a1.1,1.1,0,0,0,1.09-.92c.72-4.21.72-4.34.72-4.45a1.12,1.12,0,0,0-.77-1.06.87.87,0,0,0-1,.11V87.79a1.12,1.12,0,0,0-.48-.91,1.09,1.09,0,0,0-1-.13l-1.3.49a2.67,2.67,0,0,0-.43-.94,2.43,2.43,0,0,0-.26-.29h.05a3.81,3.81,0,0,0,1.49-.33.77.77,0,0,0,.4-1,.76.76,0,0,0-1-.4,2.19,2.19,0,0,1-1.59.12,4.92,4.92,0,0,0-1.71-.11,4,4,0,0,0-.7-1.52,3.78,3.78,0,0,0-.61-.65,3.07,3.07,0,0,0-.23-2.26l1-.86a1.11,1.11,0,0,0,.39-.77,1.15,1.15,0,0,0-.27-.81l-.54-.6a3,3,0,0,0-.36-1.48l1.51-1.23a1.09,1.09,0,0,0,.39-1,1.08,1.08,0,0,0-.68-.86l-1.1-.44a3.52,3.52,0,0,0-.13-.43,1.07,1.07,0,0,0,.16.14.77.77,0,0,0,.46.15.76.76,0,0,0,.61-.3.77.77,0,0,0-.15-1.07,8.3,8.3,0,0,1-1.58-1.8,2.76,2.76,0,0,0-.51-1.23,2.91,2.91,0,0,0-.7-.66.88.88,0,0,0-.28-.24A2.5,2.5,0,0,0,240,63a2.21,2.21,0,0,0-.21-2.29,2.18,2.18,0,0,0-1.57-.88,3.07,3.07,0,0,0-.34-1.24,7.12,7.12,0,0,0,1.42.34h.08a.76.76,0,0,0,.09-1.52,7.4,7.4,0,0,1-1.85-.54,2.51,2.51,0,0,0-.45-1.09l.21-.78a1.1,1.1,0,0,0-1.63-1.25l-1.21.72a3.39,3.39,0,0,0-.45-.89,3.15,3.15,0,0,0-3.94-.94,3.1,3.1,0,0,0-1.7-1,19.17,19.17,0,0,1-1.32-2c-.4-.68-.83-.64-1.13-.48a.7.7,0,0,0-.33.3.86.86,0,0,0-.21-.07,1.12,1.12,0,0,0-1.15.49l-.36.57a2.56,2.56,0,0,0-1.8,1.58,2,2,0,0,0-2.44-1,1.08,1.08,0,0,0-.69-.31,1.12,1.12,0,0,0-1,.52l-.07.11a3.53,3.53,0,0,0-4.89-.37,4.07,4.07,0,0,0-.54.56,3,3,0,0,0-2.81.05,18.09,18.09,0,0,1-2.95-.52q-.93-.22-1.14.48c-.21.7.41.92.91,1.09l.06,0a.62.62,0,0,0,.38,0l.39.09-.06.17-.22.08a3.16,3.16,0,0,0-.84.48,3.29,3.29,0,0,0-1.69.17,3.17,3.17,0,0,0-1.46,1.13l-2.34-.4a1.11,1.11,0,0,0-.66,2.09l2.33,1.12a2.38,2.38,0,0,0-.38.11,2.42,2.42,0,0,0-3.39,2.21l-2,.69a1.11,1.11,0,0,0-.71,1.3,1.1,1.1,0,0,0,1.21.85l.51-.07c-.21.43-.38.81-.51,1.13a.61.61,0,0,0-.05.12l-1.46,1.32-.14,0a.77.77,0,0,0-.69.84.54.54,0,0,1,0,.1,1.1,1.1,0,0,0,.43,1.2l.93.65a2.73,2.73,0,0,0-.6,3.79,3,3,0,0,0-.91,2.76,2.85,2.85,0,0,0,.36,1c-1.55,1.24-1.92,2-2,2.43a.75.75,0,0,0-.17,1.08.66.66,0,0,0,.55.31h.1l.16.13,1.87,1.2a3.56,3.56,0,0,0-2.09,3.57l-.33.15a2.66,2.66,0,0,0-.89,0,2.57,2.57,0,0,0-1.74,1.21l-.73.34a1.11,1.11,0,0,0-.65,1H189a3.32,3.32,0,0,0-2.66,3.88,2.85,2.85,0,0,0,.22.7,1.14,1.14,0,0,0-.23.2l-.82.47c-.56.3-.73.68-.52,1.12A.66.66,0,0,0,185.64,93.72Zm47.38,21-1-.08a4.7,4.7,0,0,0-.12-.51l.65,0a.75.75,0,0,0,0-1.49l-1.33-.1c0-.08-.11-.17-.15-.25l1.09,0a.73.73,0,0,0,.76-.63.75.75,0,0,0-.54-.83l-1.85-.51.64,0a.76.76,0,0,0,.7-.64.74.74,0,0,0-.5-.81l-.65-.22a.73.73,0,0,0,.06-.3.75.75,0,0,0-.74-.75H227.5a.75.75,0,0,0-.38,1.39l-1.42.06a.75.75,0,0,0-.71.66.74.74,0,0,0,.55.8l.35.1,0,0-2.24-.07a.82.82,0,0,0-.47.15l-.2,0c-.08-.3-.15-.57-.23-.84a.74.74,0,0,0,0-1.47l-.59-.08a1.59,1.59,0,0,0-.14-.26.74.74,0,0,0,.05-1.47l-1.35-.23,0,0a.74.74,0,0,0,.13-1.45l-1-.3a.73.73,0,0,0,.33-.61.75.75,0,0,0-.75-.75h-4.42a.74.74,0,0,0-.2,1.46l.84.24-.16.09-2.23.07a.76.76,0,0,0-.72.7.73.73,0,0,0,.62.78l.87.15a2.44,2.44,0,0,0-.1.24l-1.28.07a.74.74,0,0,0-.71.71.76.76,0,0,0,.65.77l.9.12c0,.07,0,.15,0,.22l-.91.05a.75.75,0,0,0-.71.7.74.74,0,0,0,.62.77l1,.18c0,.2,0,.39.08.58l-.59,0a.75.75,0,0,0,0,1.49l1,.08.12.47h-.55a.75.75,0,0,0-.73.73.75.75,0,0,0,.69.76l1,.08.16.62H214a.75.75,0,0,0,0,1.49l1,.08.1.38-.56,0a.75.75,0,0,0-.72.72.76.76,0,0,0,.66.77l1,.11.18.69-.56,0a.74.74,0,0,0-.09,1.48l1.08.17.13.48h-.56a.75.75,0,0,0-.14,1.48l.84.18h-.25a.74.74,0,0,0-.31,1.42l1.15.53-.39,0a.74.74,0,0,0-.68.81.75.75,0,0,0,.74.68h.07l3.18-.28a.74.74,0,0,0,.67-.61.75.75,0,0,0-.42-.81l-.22-.1.36-.18h3a.74.74,0,0,0,.16-1.47l-.12,0,.69-.34,3.16-.07a.75.75,0,0,0,.1-1.48l-.09,0h0a10,10,0,0,0,1.58-.79l2.26-.07a.75.75,0,0,0,.06-1.49l-.35,0a6.68,6.68,0,0,0,.63-.85l1.33,0a.76.76,0,0,0,.72-.73.75.75,0,0,0-.69-.76l-.7-.05a3.69,3.69,0,0,0,.08-.46l.92,0a.75.75,0,0,0,0-1.49Zm-44.37,18.79c1.7-.58,4.35-4.59,7.61-10.52a32,32,0,0,0,2.29-5.31l2.2-6.69a25.16,25.16,0,0,1,2.56-5.52q.24-.37.48-.78a1.55,1.55,0,0,0-1.9-2.25c-4.26,1.72-10.2,5.09-11.72,9.8-1.86,5.79-7,13.3-9.48,17.65a45.6,45.6,0,0,0-2.6,5.24c-1.34,3.19-3.37,8-3.46,7.7-.57-1.83-1.81-4.82-3.52-3.5-2.39,1.84-6.26,13.65-1.47,16.23s12.36,1.48,13.28,0S181.29,136.1,188.65,133.55Zm2.7,2c-3.94.35-6.49,7.84-5.69,16.73s4.64,15.81,8.58,15.46,6.48-7.85,5.69-16.74S195.29,135.18,191.35,135.53Zm24.28,23.3c-8.47,2.8-14.34,8.11-13.1,11.87s9.12,4.53,17.59,1.73,14.34-8.11,13.1-11.87S224.11,156,215.63,158.83ZM215,82.48a.74.74,0,0,0,.74.68h.07l7.48-.73a.74.74,0,0,0,0-1.48l-1.05-.13.39,0a.75.75,0,0,0,0-1.48L220.88,79l.61-.15a.74.74,0,0,0,0-1.45l-.18,0a.7.7,0,0,0,.15-.4.75.75,0,0,0-.53-.76l-.15,0a.73.73,0,0,0,.26-.56.75.75,0,0,0-.5-.71.75.75,0,0,0,.12-.6.79.79,0,0,0-.3-.43.76.76,0,0,0,0-.73.74.74,0,0,0-.66-.4h-.3a.74.74,0,0,0-.75.74,1.11,1.11,0,0,0,0,.19l-.26.38a.69.69,0,0,0-.13.44.74.74,0,0,0-.33.68.66.66,0,0,0,.12.34.75.75,0,0,0-.53.72.83.83,0,0,0,.17.46h0a.77.77,0,0,0-.62.73.74.74,0,0,0,.6.74l.3.06-1,.26a.74.74,0,0,0-.57.75.76.76,0,0,0,.64.71l.54.08-1.06.16a.74.74,0,0,0-.15,1.43l-.65.07A.74.74,0,0,0,215,82.48Zm-4.39,1-2.24,2.61a.55.55,0,0,0,.06.78.54.54,0,0,0,.37.14.55.55,0,0,0,.42-.2l2.24-2.6a.57.57,0,0,0-.06-.79A.56.56,0,0,0,210.59,83.47Zm4,8.66a1.31,1.31,0,0,0,1.07.24l.21,2.14a.55.55,0,0,0,.55.5h0a.56.56,0,0,0,.55-.48l0-.27h0a.55.55,0,0,0,.61-.43l.12-.56.08.6a.56.56,0,0,0,.52.49.58.58,0,0,0,.58-.42l.36-1.45a.59.59,0,0,0,.63.27c.34-.09,3.35-.86,4.05-1.14s4.11-2,4.26-2.07a.48.48,0,0,0,.11-.09l.52.89a.55.55,0,0,0,.48.28.53.53,0,0,0,.28-.07.57.57,0,0,0,.21-.77l-2.11-3.63a.56.56,0,0,0-1,.56l1,1.81-.07,0c-1.22.61-3.66,1.82-4.18,2s-2.24.66-3.34,1L219.86,90a.57.57,0,0,0-.54-.45h0a.57.57,0,0,0-.54.43l-.23.9-.11-.84a.55.55,0,0,0-.53-.48.47.47,0,0,0-.27,0,.57.57,0,0,0-.52-.52.53.53,0,0,0-.59.48l0,.09a.54.54,0,0,0-.61-.47.56.56,0,0,0-.5.61l0,.3a6.06,6.06,0,0,1,0,1.22.46.46,0,0,1-.21-.09c-1.11-.72-3.53-3.91-4.36-5.08a.56.56,0,0,0-.91.66C210.23,87.21,213.09,91.17,214.58,92.13Z"/><path d="M39.53,178.26q.61,1.45,2.25,4.6T45,189.25c1.07,2.17,2.28,4.44,3.62,6.83,1.08,1.89,1.69,3,1.83,3.32q5.87-13.12,8.88-21.14,5.63,0,10.38-.28l.65,0q1,0,1,.75c0,.43-.25.65-.75.65-1.78,0-2.94.61-3.5,1.82s-.83,4.15-.83,8.83l0,11.48c0,2.34.31,4,.92,4.91a3.49,3.49,0,0,0,3,1.48c.67,0,1,.24,1,.68a.68.68,0,0,1-.42.58l-6.57,0q-3,0-8.25.24a.84.84,0,0,1-.45-.66c0-.36.41-.6,1.21-.72a4.38,4.38,0,0,0,1.78-.61,2.57,2.57,0,0,0,.83-1.48,13.23,13.23,0,0,0,.28-3.16l.09-10.48c0-5.35,0-8.44,0-9.25q-6.36,14.79-7.88,18.89l-2.36,6.34c-.27.68-.53,1-.8,1s-.62-.41-1-1.24q-1.71-3.6-12.21-23.81-.12,5.82-.11,15.68,0,5.21.58,6.57c.39.92,1.48,1.45,3.28,1.61.59.06.89.28.89.65s-.24.61-.73.61l-.56,0c-1.87-.14-3.21-.21-4-.21a39.52,39.52,0,0,0-5,.23,4.21,4.21,0,0,1-.49.05c-.55,0-.82-.23-.82-.68a.52.52,0,0,1,.2-.46,4.38,4.38,0,0,1,1.06-.31,4,4,0,0,0,2.94-1.62,8.24,8.24,0,0,0,.69-3.91L33.45,189a50.14,50.14,0,0,0-.23-6.05,3.67,3.67,0,0,0-1.15-2.27,6.37,6.37,0,0,0-3-1.19q-.78-.17-.78-.78c0-.43.28-.65.85-.65l.51,0C31.27,178.19,34.56,178.26,39.53,178.26Zm44.08,25.58,1.92-5.31a22.49,22.49,0,0,0,1.56-6.06c0-1.29-.74-2-2.21-2.24-.66-.11-1-.34-1-.68s.32-.66,1-.66a13.5,13.5,0,0,1,1.36.12,21.7,21.7,0,0,0,2.44.11,20.59,20.59,0,0,0,2.28-.14c.75-.09,1.18-.14,1.29-.14.75,0,1.12.23,1.12.69,0,.26-.24.46-.73.58a4.21,4.21,0,0,0-2.68,2,84.47,84.47,0,0,0-3.64,9.44q-3.61,10.27-5.24,13.75a12.88,12.88,0,0,1-3.61,4.94,7,7,0,0,1-4.23,1.48,4.65,4.65,0,0,1-3.15-1,3.27,3.27,0,0,1-1.13-2.56,2.83,2.83,0,0,1,.81-1.91,2.69,2.69,0,0,1,2.11-.9c1.41,0,2.3.83,2.67,2.5.21.84.52,1.27.94,1.27,1.06,0,2.21-1.09,3.43-3.25s1.85-3.78,1.85-4.84a18.22,18.22,0,0,0-1.46-4.3q-1.47-3.5-3.93-9.07a46.38,46.38,0,0,0-3.15-6.41,2.86,2.86,0,0,0-1.58-1c-.61-.13-.92-.35-.92-.66s.4-.68,1.2-.68c.18,0,.82.06,1.9.16a21.59,21.59,0,0,0,2.53.12c1.7,0,3.2-.06,4.48-.19l1-.09c.62,0,.94.21.94.63s-.38.68-1.13.82a1.94,1.94,0,0,0-1.17.65,1.53,1.53,0,0,0-.42,1,22.85,22.85,0,0,0,1.24,3.9Q81.54,199.24,83.61,203.84Zm38.46-10.5a11.62,11.62,0,0,1,5.2,1.91q2,1.47,3.07,5.84,1,4.08,2.08,5.39a4.15,4.15,0,0,0,3.09,1.42c.73,0,1.1.28,1.1.7s-.6.68-1.78.68l-9-.23q-1.41-1.41-1.92-5a35.68,35.68,0,0,0-1.36-6.52,5,5,0,0,0-2.11-2.72,6.3,6.3,0,0,0-3.25-.82c-.36,0-.85,0-1.48.07,0,5.49,0,8.88.06,10.15a4.48,4.48,0,0,0,.76,2.74,3.65,3.65,0,0,0,2.67.92c.7.05,1,.28,1,.71s-.3.63-.91.63l-7.19-.19q-1.44,0-3.72.12c-1.39.07-2.27.11-2.64.11-.64,0-1-.22-1-.67s.28-.66.84-.66a4.66,4.66,0,0,0,2.42-.66q1.11-.65,1.11-5.54l0-4.36,0-8.4q0-6.51-.57-7.95c-.38-1-1.41-1.46-3.08-1.49-.65,0-1-.24-1-.68s.44-.68,1.31-.68q6.6,0,11.19-.28c1.36-.09,2.58-.14,3.68-.14q5.31,0,8.33,2.12a6.61,6.61,0,0,1,1.59,9.66,8.71,8.71,0,0,1-3.57,2.72A16.8,16.8,0,0,1,122.07,193.34Zm-6.37-1,.91,0a11.79,11.79,0,0,0,4.11-.76,5.09,5.09,0,0,0,2.93-2.44,7.7,7.7,0,0,0,.85-3.57,6,6,0,0,0-1.73-4.56,6.24,6.24,0,0,0-4.47-1.64,9.51,9.51,0,0,0-2.6.42Zm32.91,14.47a11.12,11.12,0,0,1-2.93,2.07,6.94,6.94,0,0,1-3,.7,4.73,4.73,0,0,1-3.69-1.45,5.07,5.07,0,0,1-1.3-3.5,5.18,5.18,0,0,1,.79-2.85,5.72,5.72,0,0,1,1.93-1.95,24.64,24.64,0,0,1,3.82-1.65,18.79,18.79,0,0,0,3-1.26,3.7,3.7,0,0,0,1.27-1.33,4.53,4.53,0,0,0,.51-2.28,3.7,3.7,0,0,0-.77-2.46,2.62,2.62,0,0,0-2.12-.92,2,2,0,0,0-1.65.59,4.4,4.4,0,0,0-.75,1.93c-.36,1.77-1.32,2.66-2.88,2.66a2.53,2.53,0,0,1-1.64-.56,2,2,0,0,1-.67-1.62,3.58,3.58,0,0,1,2.44-3.36,14.05,14.05,0,0,1,5.84-1.11,11.06,11.06,0,0,1,4.77.89,4.57,4.57,0,0,1,2.35,2.06,9.69,9.69,0,0,1,.52,3.65l-.05,5.55a32.83,32.83,0,0,0,.29,5.62c.2.83.61,1.24,1.25,1.24l.38,0c.31,0,.52,0,.63,0q1,0,1,.54a.69.69,0,0,1-.4.59,9.57,9.57,0,0,1-2.4.62,19.81,19.81,0,0,1-3.61.38,3.08,3.08,0,0,1-2.22-.62A3.37,3.37,0,0,1,148.61,206.82Zm.3-9.39a9.63,9.63,0,0,1-2.69,1.81,9.15,9.15,0,0,0-2.6,1.83,3.78,3.78,0,0,0-.65,2.37,3.9,3.9,0,0,0,.69,2.5,2.1,2.1,0,0,0,1.7.86,3.42,3.42,0,0,0,2.52-1.26c.78-.83,1.17-2.31,1.17-4.42C149.05,200.46,149,199.23,148.91,197.43Zm26.68-6.81q2.76-2.43,4.82-2.43a3.25,3.25,0,0,1,2.26.79,2.44,2.44,0,0,1,.88,1.83,2.41,2.41,0,0,1-.61,1.58,2.06,2.06,0,0,1-1.66.71,2.21,2.21,0,0,1-2.13-1.59q-.45-1-.87-1a4.22,4.22,0,0,0-1.85,1.12,7.14,7.14,0,0,1,1.24,4,7,7,0,0,1-1.26,4,7.23,7.23,0,0,1-3.06,2.61,17.43,17.43,0,0,1-5.09,1.07c-1.89.18-3,.47-3.44.87a2,2,0,0,0-.63,1.41c0,.62.42,1,1.28,1.21a54.65,54.65,0,0,0,7,.45q8.81.27,8.81,5.78a7.51,7.51,0,0,1-3.29,6.22q-3.3,2.46-9.94,2.47-5,0-7.24-1.47a4.14,4.14,0,0,1-2.22-3.43,4.35,4.35,0,0,1,1.82-3.52,13.62,13.62,0,0,1,5.44-2.26,9.4,9.4,0,0,1-4.15-1.2,2.89,2.89,0,0,1-1.38-2.52,3.65,3.65,0,0,1,1.29-2.83,8.81,8.81,0,0,1,3.84-1.75,8.32,8.32,0,0,1-4-2.39,5.79,5.79,0,0,1-1.35-3.91,7.2,7.2,0,0,1,2.71-5.71,10,10,0,0,1,6.7-2.3,10.49,10.49,0,0,1,3.42.53A7.51,7.51,0,0,1,175.59,190.62ZM163.2,216.23a3.46,3.46,0,0,0,1.58,2.79,7.26,7.26,0,0,0,4.46,1.19,10,10,0,0,0,5.8-1.59,4.57,4.57,0,0,0,2.3-3.77,2.71,2.71,0,0,0-1.85-2.58,11.52,11.52,0,0,0-4.75-.84,9.79,9.79,0,0,0-5.49,1.37A4.06,4.06,0,0,0,163.2,216.23Zm2.51-20.7a9,9,0,0,0,1,4.68,2.88,2.88,0,0,0,2.42,1.65,2.33,2.33,0,0,0,2.18-1.42,9.76,9.76,0,0,0,.72-4.26,10.37,10.37,0,0,0-.88-4.71,2.58,2.58,0,0,0-2.25-1.71,2.64,2.64,0,0,0-2.31,1.54A8.44,8.44,0,0,0,165.71,195.53Zm34.84-4.91q2.76-2.43,4.82-2.43a3.23,3.23,0,0,1,2.26.79,2.41,2.41,0,0,1,.88,1.83,2.36,2.36,0,0,1-.61,1.58,2,2,0,0,1-1.66.71,2.22,2.22,0,0,1-2.13-1.59q-.45-1-.87-1a4.27,4.27,0,0,0-1.85,1.12,7.15,7.15,0,0,1,1.25,4,7,7,0,0,1-1.27,4,7.21,7.21,0,0,1-3.05,2.61,17.58,17.58,0,0,1-5.1,1.07c-1.88.18-3,.47-3.44.87a2,2,0,0,0-.63,1.41c0,.62.43,1,1.29,1.21a54.31,54.31,0,0,0,7,.45q8.81.27,8.8,5.78a7.51,7.51,0,0,1-3.29,6.22q-3.28,2.46-9.94,2.47-5,0-7.23-1.47a4.14,4.14,0,0,1-2.22-3.43,4.34,4.34,0,0,1,1.81-3.52,13.68,13.68,0,0,1,5.44-2.26,9.35,9.35,0,0,1-4.14-1.2,2.89,2.89,0,0,1-1.38-2.52,3.65,3.65,0,0,1,1.29-2.83,8.7,8.7,0,0,1,3.84-1.75,8.4,8.4,0,0,1-4-2.39,5.79,5.79,0,0,1-1.35-3.91,7.21,7.21,0,0,1,2.72-5.71,10,10,0,0,1,6.69-2.3,10.4,10.4,0,0,1,3.42.53A7.34,7.34,0,0,1,200.55,190.62Zm-12.38,25.61a3.43,3.43,0,0,0,1.58,2.79,7.24,7.24,0,0,0,4.46,1.19,10,10,0,0,0,5.79-1.59,4.56,4.56,0,0,0,2.31-3.77,2.72,2.72,0,0,0-1.85-2.58,11.55,11.55,0,0,0-4.75-.84,9.74,9.74,0,0,0-5.49,1.37A4,4,0,0,0,188.17,216.23Zm2.5-20.7a9,9,0,0,0,1,4.68,2.89,2.89,0,0,0,2.42,1.65,2.32,2.32,0,0,0,2.18-1.42,9.74,9.74,0,0,0,.73-4.26,10.51,10.51,0,0,0-.88-4.71,2.6,2.6,0,0,0-2.26-1.71,2.64,2.64,0,0,0-2.31,1.54A8.44,8.44,0,0,0,190.67,195.53ZM215,198.37c0,.46,0,.78,0,1a9.5,9.5,0,0,0,1.63,5.63,5.1,5.1,0,0,0,4.39,2.3,8.37,8.37,0,0,0,5.57-2.46,1.64,1.64,0,0,1,.79-.49c.41,0,.61.22.61.66s-.47,1-1.4,1.85a9.12,9.12,0,0,1-3.44,2,13.37,13.37,0,0,1-4.22.68,9.62,9.62,0,0,1-10.18-9.79,11,11,0,0,1,3.1-8,10.34,10.34,0,0,1,7.74-3.22,7.9,7.9,0,0,1,6.63,2.93,9.18,9.18,0,0,1,2.29,5.57c0,.56-.15.9-.45,1a13.3,13.3,0,0,1-2.88.16Zm.14-1.71,4,.05a8,8,0,0,0,3.24-.38,1.64,1.64,0,0,0,.6-1.52,5.53,5.53,0,0,0-1.1-3.39,3.24,3.24,0,0,0-2.63-1.48Q215.68,189.94,215.16,196.66Zm30.08-5.94c0-4.51,0-7.52-.07-9a6.31,6.31,0,0,0-.38-2.64,2.88,2.88,0,0,0-1.66-.62c-.61-.1-.91-.32-.91-.66a.46.46,0,0,1,.31-.5,10.15,10.15,0,0,1,2-.11h6.18l-.05,16.62-.12,10.33a6.82,6.82,0,0,0,.41,3,2.61,2.61,0,0,0,1.89.82c.58.06.86.28.86.65s-.3.61-.91.61h-7.58V206a7.13,7.13,0,0,1-2.46,2.7,6.35,6.35,0,0,1-3.37.89,8.5,8.5,0,0,1-6.29-2.79,9.87,9.87,0,0,1-2.7-7.18,10.72,10.72,0,0,1,3.09-7.91,9.5,9.5,0,0,1,6.88-3.1,6.5,6.5,0,0,1,2.63.53A6.67,6.67,0,0,1,245.24,190.72Zm-8.5,8.22q0,4.47,1.18,6.54a3.46,3.46,0,0,0,3,2.07,3.58,3.58,0,0,0,3-2c.83-1.31,1.25-3.7,1.25-7.14a14.64,14.64,0,0,0-1.05-6.31,3.41,3.41,0,0,0-6.35.13A16.4,16.4,0,0,0,236.74,198.94Zm30.42,4.9,1.92-5.31a22.49,22.49,0,0,0,1.56-6.06c0-1.29-.73-2-2.2-2.24-.66-.11-1-.34-1-.68s.32-.66,1-.66a13.27,13.27,0,0,1,1.36.12,21.7,21.7,0,0,0,2.44.11,20.59,20.59,0,0,0,2.28-.14c.75-.09,1.18-.14,1.29-.14.75,0,1.13.23,1.13.69,0,.26-.25.46-.73.58a4.23,4.23,0,0,0-2.69,2,84.47,84.47,0,0,0-3.64,9.44q-3.62,10.27-5.24,13.75a12.77,12.77,0,0,1-3.61,4.94,7,7,0,0,1-4.22,1.48,4.61,4.61,0,0,1-3.15-1,3.24,3.24,0,0,1-1.14-2.56,2.83,2.83,0,0,1,.81-1.91,2.71,2.71,0,0,1,2.12-.9c1.4,0,2.29.83,2.66,2.5.21.84.52,1.27.94,1.27,1.07,0,2.21-1.09,3.44-3.25s1.84-3.78,1.84-4.84a18.22,18.22,0,0,0-1.46-4.3q-1.47-3.5-3.93-9.07a46.38,46.38,0,0,0-3.15-6.41,2.86,2.86,0,0,0-1.58-1c-.61-.13-.92-.35-.92-.66s.4-.68,1.2-.68c.19,0,.82.06,1.9.16a21.71,21.71,0,0,0,2.53.12c1.71,0,3.2-.06,4.48-.19l1-.09c.63,0,.94.21.94.63s-.38.68-1.13.82A1.94,1.94,0,0,0,263,191a1.53,1.53,0,0,0-.42,1,22.85,22.85,0,0,0,1.24,3.9C264.68,198.11,265.78,200.77,267.16,203.84Zm45-11.56.21-7.1a10.75,10.75,0,0,0-.6-4.25,2.66,2.66,0,0,0-2.56-1.33q-1.59-.07-1.59-.75c0-.49.31-.73.94-.73s1.81,0,3.27.11l3.16.13c2.65,0,5-.07,7-.19l.8,0c.59,0,.88.22.88.66s-.33.73-1,.75a4.82,4.82,0,0,0-2.33.44,2.23,2.23,0,0,0-1,1.3,39.53,39.53,0,0,0-.43,6.19q-.16,5.31-.17,7.3c0,5.49,0,8.86.11,10.09a3.89,3.89,0,0,0,.84,2.58,3.5,3.5,0,0,0,2.52.73c.73,0,1.1.23,1.1.7s-.28.61-.84.61c-.19,0-.6,0-1.22-.07l-6.47-.24c-.39,0-1.14,0-2.25.1q-3.18.21-4.11.21c-.56,0-.84-.23-.84-.68s.23-.61.69-.61a4.07,4.07,0,0,0,2.45-.58,4.32,4.32,0,0,0,1.12-2.7,63.89,63.89,0,0,0,.35-8.4c0-.44,0-1.09-.05-2-2.73-.08-5.15-.11-7.26-.11a53.68,53.68,0,0,0-5.73.23q-.25,4.71-.26,8.52a8.29,8.29,0,0,0,.6,3.77,2.82,2.82,0,0,0,2.49,1.15c.61,0,.91.25.91.68s-.32.65-1,.65a9.9,9.9,0,0,1-1-.07q-2.79-.25-5.84-.26c-.95,0-2.23,0-3.82.13-1.13.07-1.85.11-2.18.11-.81,0-1.22-.24-1.22-.7s.32-.61,1-.68a4.6,4.6,0,0,0,2.45-.77,4.08,4.08,0,0,0,1-2.22,77.83,77.83,0,0,0,.37-9.27q.06-7.65.06-8.35a34.92,34.92,0,0,0-.25-5,3.6,3.6,0,0,0-.83-2.09,3.11,3.11,0,0,0-1.8-.68,4.3,4.3,0,0,1-1.17-.27c-.16-.09-.23-.27-.23-.55,0-.47.26-.7.79-.7s1.81.06,3.4.19q1.33.09,3,.09l6.61-.23c.77,0,1.15.24,1.15.72s-.31.7-.94.7a4.25,4.25,0,0,0-2.13.38,2.32,2.32,0,0,0-.86,1.48,20.28,20.28,0,0,0-.29,4.26l.05,6.66a61.11,61.11,0,0,0,6.42.31C307.85,192.59,310.05,192.49,312.15,192.28Zm17.94,6.09c0,.46,0,.78,0,1a9.57,9.57,0,0,0,1.63,5.63,5.13,5.13,0,0,0,4.39,2.3,8.33,8.33,0,0,0,5.57-2.46c.38-.33.64-.49.8-.49.4,0,.61.22.61.66s-.47,1-1.41,1.85a9,9,0,0,1-3.44,2,13.3,13.3,0,0,1-4.21.68,9.67,9.67,0,0,1-7.48-2.92,9.78,9.78,0,0,1-2.71-6.87,11,11,0,0,1,3.11-8,10.3,10.3,0,0,1,7.73-3.22,7.91,7.91,0,0,1,6.64,2.93,9.22,9.22,0,0,1,2.28,5.57c0,.56-.15.9-.44,1a13.43,13.43,0,0,1-2.88.16Zm.14-1.71,4,.05a7.94,7.94,0,0,0,3.24-.38,1.64,1.64,0,0,0,.6-1.52,5.53,5.53,0,0,0-1.1-3.39,3.22,3.22,0,0,0-2.62-1.48C332,189.94,330.57,192.18,330.23,196.66Zm22.18-3.46a9.93,9.93,0,0,1,2.69-3.54,5.43,5.43,0,0,1,3.39-1.17,4,4,0,0,1,2.85,1,3.45,3.45,0,0,1,1.06,2.58,3,3,0,0,1-.76,2.07,2.37,2.37,0,0,1-1.86.85,2.16,2.16,0,0,1-1.36-.42,5.15,5.15,0,0,1-1.14-1.5c-.56-1-1.06-1.54-1.48-1.54-.58,0-1.23.58-2,1.75s-1.1,3.44-1.1,6.81c0,4.25.14,6.62.43,7.09s.92.71,1.91.71,1.28.24,1.28.71-.42.65-1.26.65c-.47,0-1.15,0-2-.13s-1.57-.1-2.29-.1c-1.55,0-3.08,0-4.59.16l-1.12.07c-.66,0-1-.25-1-.74s.39-.65,1.15-.69a2.22,2.22,0,0,0,1.57-.52,3.31,3.31,0,0,0,.44-2.1l.1-5.84c0-1.18-.05-2.66-.14-4.42a29.87,29.87,0,0,0-.26-3.14,1.64,1.64,0,0,0-.6-.9,2.28,2.28,0,0,0-1.3-.47,3.53,3.53,0,0,1-1.06-.22.56.56,0,0,1-.22-.53q0-.63,1.17-.66,2.15,0,7.32-.56Zm18-3a10.31,10.31,0,0,1,2.66-1.18,10.49,10.49,0,0,1,2.86-.38,8.86,8.86,0,0,1,6.74,2.93,10.29,10.29,0,0,1,2.74,7.31,10.8,10.8,0,0,1-1.34,5.34,11,11,0,0,1-3.71,3.91,10,10,0,0,1-5.46,1.51,10.71,10.71,0,0,1-3.67-.58,20.08,20.08,0,0,1-3.77-2,1,1,0,0,0-.47-.19c-.33,0-.57.3-.73.91-.29,1.05-.62,1.57-1,1.57a.49.49,0,0,1-.53-.35,22.68,22.68,0,0,1-.1-3.11l.18-17c0-5.81-.06-9-.18-9.54s-.72-.88-1.78-1c-.67-.07-1-.29-1-.68s.31-.64.91-.64c.35,0,1.09,0,2.23.12.86.05,1.61.07,2.25.07l2.34-.07c.57,0,.86.22.86.66l0,1.12C370.49,185.32,370.46,189.06,370.42,190.15Zm4.07.19a3.92,3.92,0,0,0-2.62,1q-1.17,1-1.48,4.78t-.3,5.88c0,2.23.41,3.79,1.23,4.69a3.84,3.84,0,0,0,2.91,1.34c1.42,0,2.58-.82,3.47-2.45a13,13,0,0,0,1.33-6.25,15.41,15.41,0,0,0-1.19-6.39C377,191.21,375.93,190.34,374.49,190.34Zm29.34,12.18a6.73,6.73,0,0,1-.87,3.27,7.06,7.06,0,0,1-2.65,2.64,8,8,0,0,1-4.13,1,9.58,9.58,0,0,1-5-1.22,3.41,3.41,0,0,0-1.14-.51c-.21,0-.36.13-.47.39-.25.61-.55.92-.89.92a.46.46,0,0,1-.44-.24,9.74,9.74,0,0,1-.21-2.09c-.05-1.23-.08-2.7-.08-4.4,0-.65.19-1,.56-1s.78.49,1.2,1.46q2.25,5.26,6.13,5.26a3.77,3.77,0,0,0,2.31-.7,2.39,2.39,0,0,0,.95-2,2.57,2.57,0,0,0-.88-1.93,15.69,15.69,0,0,0-3.36-2,20.52,20.52,0,0,1-5.13-3.23,4.91,4.91,0,0,1-1.4-3.68,5.25,5.25,0,0,1,2-4.29,7.71,7.71,0,0,1,5-1.65,9.5,9.5,0,0,1,4.8,1.4,1.13,1.13,0,0,0,.54.19c.2,0,.36-.17.47-.52s.38-.65.68-.65a.44.44,0,0,1,.42.21,11.84,11.84,0,0,1,.33,2.19,32.12,32.12,0,0,1,.21,3.29c0,.6-.18.91-.54.91s-.76-.44-1.15-1.31c-1.33-2.9-3.24-4.36-5.73-4.36a3.4,3.4,0,0,0-2.2.68,1.88,1.88,0,0,0-.85,1.45,2.3,2.3,0,0,0,1.08,1.81,23.71,23.71,0,0,0,4.19,2.27,34,34,0,0,1,3.71,1.88,5.68,5.68,0,0,1,1.77,1.92A5.22,5.22,0,0,1,403.83,202.52Z"/></g></svg>