<svg xmlns="http://www.w3.org/2000/svg" viewBox="0 0 195.53 162.18"><defs><style>.cls-1{opacity:0.2;}.cls-2{fill:none;stroke:#494f56;stroke-miterlimit:10;stroke-width:0.5px;}</style></defs><g id="Layer_2" data-name="Layer 2"><g id="Layer_1-2" data-name="Layer 1"><g class="cls-1"><path class="cls-2" d="M.25,81C.25,37.09,37.55.25,81.21.25c44.11,0,81,36.84,81,80.73s-36.84,81-80.95,81C37.55,161.93.25,124.86.25,81Zm138.48,0c0-32.3-26.14-59.58-57.52-59.58C50.05,21.4,23.67,48.68,23.67,81c0,32.51,26.38,59.8,57.54,59.8C112.59,140.78,138.73,113.49,138.73,81Z"/><polygon class="cls-2" points="0.91 159.2 23.87 159.2 23.87 113.49 46.61 89.16 102.32 159.2 131.2 159.2 62.76 73.25 126.88 2.98 97.55 2.98 23.87 84.39 23.87 2.98 0.91 2.98 0.91 159.2"/><polygon class="cls-2" points="169.69 159.2 152.69 119.61 134.34 119.61 125.45 98.91 143.8 98.91 102.61 2.98 128.08 2.98 195.16 159.2 169.69 159.2"/></g></g></g></svg>