<svg id="Layer_1" data-name="Layer 1" xmlns="http://www.w3.org/2000/svg" viewBox="0 0 345.29 184.51"><defs><style>.cls-1{opacity:0.75;}.cls-2,.cls-3,.cls-4{fill:none;stroke:#627772;stroke-miterlimit:10;stroke-width:0.25px;}.cls-3{stroke-dasharray:2.98 2.98;}.cls-4{stroke-dasharray:2.98 2.98;}.cls-5{fill:#697d78;}</style></defs><g class="cls-1"><line class="cls-2" x1="247.03" x2="247.03" y2="1.5"/><line class="cls-3" x1="247.03" y1="4.48" x2="247.03" y2="181.52"/><line class="cls-2" x1="247.03" y1="183.01" x2="247.03" y2="184.51"/><line class="cls-2" x1="249.47" x2="249.47" y2="1.5"/><line class="cls-3" x1="249.47" y1="4.48" x2="249.47" y2="181.52"/><line class="cls-2" x1="249.47" y1="183.01" x2="249.47" y2="184.51"/><line class="cls-2" x1="273.86" x2="273.86" y2="1.5"/><line class="cls-3" x1="273.86" y1="4.48" x2="273.86" y2="181.52"/><line class="cls-2" x1="273.86" y1="183.01" x2="273.86" y2="184.51"/><line class="cls-2" x1="276.3" x2="276.3" y2="1.5"/><line class="cls-3" x1="276.3" y1="4.48" x2="276.3" y2="181.52"/><line class="cls-2" x1="276.3" y1="183.01" x2="276.3" y2="184.51"/><line class="cls-2" x1="220.2" x2="220.2" y2="1.5"/><line class="cls-3" x1="220.2" y1="4.48" x2="220.2" y2="181.52"/><line class="cls-2" x1="220.2" y1="183.01" x2="220.2" y2="184.51"/><line class="cls-2" x1="222.64" x2="222.64" y2="1.5"/><line class="cls-3" x1="222.64" y1="4.48" x2="222.64" y2="181.52"/><line class="cls-2" x1="222.64" y1="183.01" x2="222.64" y2="184.51"/><line class="cls-2" x1="151.9" x2="151.9" y2="1.5"/><line class="cls-3" x1="151.9" y1="4.48" x2="151.9" y2="181.52"/><line class="cls-2" x1="151.9" y1="183.01" x2="151.9" y2="184.51"/><line class="cls-2" x1="154.34" x2="154.34" y2="1.5"/><line class="cls-3" x1="154.34" y1="4.48" x2="154.34" y2="181.52"/><line class="cls-2" x1="154.34" y1="183.01" x2="154.34" y2="184.51"/><line class="cls-2" x1="178.73" x2="178.73" y2="1.5"/><line class="cls-3" x1="178.73" y1="4.48" x2="178.73" y2="181.52"/><line class="cls-2" x1="178.73" y1="183.01" x2="178.73" y2="184.51"/><line class="cls-2" x1="181.17" x2="181.17" y2="1.5"/><line class="cls-3" x1="181.17" y1="4.48" x2="181.17" y2="181.52"/><line class="cls-2" x1="181.17" y1="183.01" x2="181.17" y2="184.51"/><line class="cls-2" x1="345.29" y1="66.53" x2="343.79" y2="66.53"/><line class="cls-4" x1="340.81" y1="66.53" x2="2.99" y2="66.53"/><line class="cls-2" x1="1.5" y1="66.53" y2="66.53"/><line class="cls-2" x1="345.29" y1="68.97" x2="343.79" y2="68.97"/><line class="cls-4" x1="340.81" y1="68.97" x2="2.99" y2="68.97"/><line class="cls-2" x1="1.5" y1="68.97" y2="68.97"/><line class="cls-2" x1="345.29" y1="93.36" x2="343.79" y2="93.36"/><line class="cls-4" x1="340.81" y1="93.36" x2="2.99" y2="93.36"/><line class="cls-2" x1="1.5" y1="93.36" y2="93.36"/><line class="cls-2" x1="345.29" y1="95.8" x2="343.79" y2="95.8"/><line class="cls-4" x1="340.81" y1="95.8" x2="2.99" y2="95.8"/><line class="cls-2" x1="1.5" y1="95.8" y2="95.8"/><line class="cls-2" x1="125.07" x2="125.07" y2="1.5"/><line class="cls-3" x1="125.07" y1="4.48" x2="125.07" y2="181.52"/><line class="cls-2" x1="125.07" y1="183.01" x2="125.07" y2="184.51"/><line class="cls-2" x1="127.51" x2="127.51" y2="1.5"/><line class="cls-3" x1="127.51" y1="4.48" x2="127.51" y2="181.52"/><line class="cls-2" x1="127.51" y1="183.01" x2="127.51" y2="184.51"/><line class="cls-2" x1="83.58" x2="83.58" y2="1.5"/><line class="cls-3" x1="83.58" y1="4.48" x2="83.58" y2="181.52"/><line class="cls-2" x1="83.58" y1="183.01" x2="83.58" y2="184.51"/><line class="cls-2" x1="86.02" x2="86.02" y2="1.5"/><line class="cls-3" x1="86.02" y1="4.48" x2="86.02" y2="181.52"/><line class="cls-2" x1="86.02" y1="183.01" x2="86.02" y2="184.51"/><line class="cls-2" x1="345.29" y1="120.22" x2="343.79" y2="120.22"/><line class="cls-4" x1="340.81" y1="120.22" x2="2.99" y2="120.22"/><line class="cls-2" x1="1.5" y1="120.22" y2="120.22"/><line class="cls-2" x1="345.29" y1="42.14" x2="343.79" y2="42.14"/><line class="cls-4" x1="340.81" y1="42.14" x2="2.99" y2="42.14"/><line class="cls-2" x1="1.5" y1="42.14" y2="42.14"/><line class="cls-2" x1="345.29" y1="122.66" x2="343.79" y2="122.66"/><line class="cls-4" x1="340.81" y1="122.66" x2="2.99" y2="122.66"/><line class="cls-2" x1="1.5" y1="122.66" y2="122.66"/><line class="cls-2" x1="345.2" y1="142.12" x2="343.7" y2="142.12"/><line class="cls-4" x1="340.72" y1="142.12" x2="2.9" y2="142.12"/><line class="cls-2" x1="1.41" y1="142.12" x2="-0.09" y2="142.12"/></g><path class="cls-5" d="M108.83,122.69a5.22,5.22,0,0,1,3.75,1.26,5.06,5.06,0,0,1,1.31,3.85v.13a6.74,6.74,0,0,1-.26,2,4.74,4.74,0,0,1-.68,1.48,2.92,2.92,0,0,1-.94.91,2.25,2.25,0,0,1-1,.37v.22a2.11,2.11,0,0,1,1,.38,4.06,4.06,0,0,1,.94,1,5,5,0,0,1,.63,1.46,6.1,6.1,0,0,1,.26,1.94V140a10.47,10.47,0,0,0,.24,1.77h-4.29a11.27,11.27,0,0,1-.21-1.84v-4.5a1.32,1.32,0,0,0-.15-.72.68.68,0,0,0-.59-.21h-.46v7.27H104V122.69Zm-.52,8.45h.46a.66.66,0,0,0,.59-.22,1.35,1.35,0,0,0,.15-.77v-3.09a1.22,1.22,0,0,0-.15-.72.68.68,0,0,0-.59-.21h-.46Zm11.21-5v3.93h2.65v3.42h-2.65v4.89h2.7v3.44h-7V122.69h7v3.45Zm14.29-3.45v19.12h-4.73l-2.18-12.13h-.25l.93,12.13h-4V122.69h4.7l2.3,12.18h.25l-1-12.18Zm5.82,3.45v3.93h2.65v3.42h-2.65v4.89h2.71v3.44h-7.05V122.69h7v3.45Zm8.19-3.45.25,11.66h.3l.68-11.66h3l.74,11.66H153l.3-11.66h4l-1.61,19.12H151l-.52-9h-.27l-.55,9H145l-1.54-19.12Zm21.64,6.66v-2.59a1.09,1.09,0,0,0-.17-.67.54.54,0,0,0-.46-.23.59.59,0,0,0-.46.23,1.24,1.24,0,0,0-.17.67v1.78a2.43,2.43,0,0,0,.07.61,1.38,1.38,0,0,0,.3.51,3.78,3.78,0,0,0,.68.53c.3.19.72.42,1.25.69l.82.39a5.05,5.05,0,0,1,1.26.87,3.36,3.36,0,0,1,.76,1.08,5.05,5.05,0,0,1,.41,1.46,12.29,12.29,0,0,1,.13,2v.38a4.55,4.55,0,0,1-5,5,4.89,4.89,0,0,1-3.69-1.29,5.19,5.19,0,0,1-1.26-3.76v-1.89h4.37v2.6a1.2,1.2,0,0,0,.17.67.52.52,0,0,0,.46.23.53.53,0,0,0,.49-.22,1.08,1.08,0,0,0,.17-.68v-1.83a2.25,2.25,0,0,0-.06-.63,1.21,1.21,0,0,0-.27-.48,4.51,4.51,0,0,0-.64-.49l-1.14-.64-1-.46a6,6,0,0,1-1.25-.88,3.47,3.47,0,0,1-.79-1.1,5.77,5.77,0,0,1-.41-1.49,16.65,16.65,0,0,1-.12-2v-.3a5.14,5.14,0,0,1,1.27-3.74,4.91,4.91,0,0,1,3.65-1.28,4.58,4.58,0,0,1,5,4.1,4.51,4.51,0,0,1,0,.9v1.91Zm14.34-3.21h-2.62v15.67h-4.37V126.14h-2.62v-3.45h9.61Zm5.33-3.45v15a1.42,1.42,0,0,0,.06.42,1.48,1.48,0,0,0,.12.29.39.39,0,0,0,.19.15.49.49,0,0,0,.24,0,.49.49,0,0,0,.24,0,.4.4,0,0,0,.19-.15.5.5,0,0,0,.12-.29,1.48,1.48,0,0,0,0-.42v-15h4.37V137a6.53,6.53,0,0,1-.34,2.2,4.06,4.06,0,0,1-1,1.57,3.94,3.94,0,0,1-1.6,1,6,6,0,0,1-2.1.32,6.2,6.2,0,0,1-2.09-.31,4,4,0,0,1-1.54-.94,4.06,4.06,0,0,1-1-1.59,6.89,6.89,0,0,1-.33-2.21V122.69Zm11.93,0a7.3,7.3,0,0,1,2.13.29,4.34,4.34,0,0,1,1.59.87,3.92,3.92,0,0,1,1,1.49,5.78,5.78,0,0,1,.35,2.13v9.59a5.55,5.55,0,0,1-.35,2.1,3.78,3.78,0,0,1-1,1.49,4.06,4.06,0,0,1-1.59.87,6.68,6.68,0,0,1-2.13.29h-4.89V122.69Zm-.48,15.68h.52a.76.76,0,0,0,.3,0,.36.36,0,0,0,.23-.13.61.61,0,0,0,.14-.29,1.69,1.69,0,0,0,0-.45V127a1.69,1.69,0,0,0,0-.45.53.53,0,0,0-.37-.41,1.5,1.5,0,0,0-.3,0h-.52Zm11.31-12.23v3.93h2.69v3.42h-2.65v4.89h2.65v3.44h-7V122.69h7v3.45Zm14.3-3.45v19.12h-4.73l-2.18-12.13H219l.87,12.13H216V122.69h4.7l2.27,12.18h.24l-1-12.18Zm10.52,3.45h-2.63v15.67h-4.37V126.14h-2.62v-3.45h9.62Zm5.93,3.21v-2.59a1.09,1.09,0,0,0-.17-.67.52.52,0,0,0-.46-.23.56.56,0,0,0-.43.28,1.23,1.23,0,0,0-.16.67v1.77a2.56,2.56,0,0,0,.07.62,1,1,0,0,0,.3.5,2.94,2.94,0,0,0,.68.54c.3.19.72.42,1.24.69l.82.39a5.33,5.33,0,0,1,1.25.83,3.53,3.53,0,0,1,.76,1.08,5.05,5.05,0,0,1,.41,1.46,13.5,13.5,0,0,1,.12,2v.38a5,5,0,0,1-1.32,3.74,5.09,5.09,0,0,1-3.76,1.31,4.93,4.93,0,0,1-3.69-1.29,5.25,5.25,0,0,1-1.25-3.76v-1.93h4.37v2.6a1.19,1.19,0,0,0,.16.67.62.62,0,0,0,.87.14.44.44,0,0,0,.13-.14,1.08,1.08,0,0,0,.16-.68v-1.82a3.35,3.35,0,0,0-.05-.63,1.07,1.07,0,0,0-.28-.48,3.1,3.1,0,0,0-.64-.49c-.28-.17-.66-.39-1.13-.64l-1-.46a6.65,6.65,0,0,1-1.24-.88,3.26,3.26,0,0,1-.79-1.11,5.81,5.81,0,0,1-.41-1.48,16.65,16.65,0,0,1-.12-2v-.3a5.14,5.14,0,0,1,1.27-3.74,4.94,4.94,0,0,1,3.64-1.28,4.59,4.59,0,0,1,5.06,4.06,4.92,4.92,0,0,1,0,.94v1.91Zm4.39-9.16H232.76a10.11,10.11,0,0,1-10.12-10.1h0V42.14h14.28A10.11,10.11,0,0,1,247,52.25h0Zm26.83-67.94a10.11,10.11,0,0,0-10.11-10.11H249.47v67.94a10.11,10.11,0,0,0,10.11,10.11h14.27Zm26.84,57.83V42.14H286.42A10.13,10.13,0,0,0,276.3,52.25v67.94h14.28a10.1,10.1,0,0,0,10.12-10.1Zm-146.36,0a10.11,10.11,0,0,0,10.11,10.11h14.29V52.25a10.13,10.13,0,0,0-10.13-10.11H154.34Zm-2.44,0V42.14H137.63a10.13,10.13,0,0,0-10.12,10.11v67.94h14.28A10.09,10.09,0,0,0,151.9,110.1Zm58.19-43.55A10.1,10.1,0,0,0,220.2,56.42h0V42.14H191.29a10.11,10.11,0,0,0-10.11,10.11h0V66.53Zm-3,26.83A10.1,10.1,0,0,0,217.2,83.25h0V69H191.29a10.11,10.11,0,0,0-10.11,10.11V93.36Zm-15.8,26.83H220.2V105.92A10.12,10.12,0,0,0,210.09,95.8H181.18v14.28a10.1,10.1,0,0,0,10.09,10.11ZM115,66.53a10.1,10.1,0,0,0,10.11-10.11h0V42.14H96.16A10.11,10.11,0,0,0,86.05,52.25h0V66.53Zm-3,26.83a10.1,10.1,0,0,0,10.11-10.11h0V69H96.16A10.11,10.11,0,0,0,86.05,79.08V93.36Zm-15.8,26.83h28.91V105.92A10.11,10.11,0,0,0,115,95.8H86.05v14.28a10.1,10.1,0,0,0,10.09,10.11ZM83.58,66.53V52.25A10.12,10.12,0,0,0,73.49,42.14H44.58V66.53ZM73.49,93.36A10.1,10.1,0,0,0,83.58,83.25V69h-39V93.36Zm10.09,26.83V105.92A10.13,10.13,0,0,0,73.49,95.8H44.58v24.39Z"/></svg>