<?xml version="1.0" encoding="utf-8"?>
<!-- Generator: Adobe Illustrator 26.0.1, SVG Export Plug-In . SVG Version: 6.00 Build 0)  -->
<svg version="1.1" id="Layer_1" xmlns="http://www.w3.org/2000/svg" xmlns:xlink="http://www.w3.org/1999/xlink" x="0px" y="0px"
	 viewBox="0 0 345.3 184.5" style="enable-background:new 0 0 345.3 184.5;" xml:space="preserve">
<style type="text/css">
	.st0{fill:none;stroke:#939598;stroke-width:0.25;stroke-miterlimit:10;}
	.st1{fill:none;stroke:#939598;stroke-width:0.25;stroke-miterlimit:10;stroke-dasharray:2.9756,2.9756;}
	.st2{fill:none;stroke:#939598;stroke-width:0.25;stroke-miterlimit:10;stroke-dasharray:2.9764,2.9764;}
	.st3{fill:#939598;}
</style>
<g>
	<g>
		<g>
			<line class="st0" x1="247" y1="0" x2="247" y2="1.5"/>
			<line class="st1" x1="247" y1="4.5" x2="247" y2="181.5"/>
			<line class="st0" x1="247" y1="183" x2="247" y2="184.5"/>
		</g>
	</g>
	<g>
		<g>
			<line class="st0" x1="249.5" y1="0" x2="249.5" y2="1.5"/>
			<line class="st1" x1="249.5" y1="4.5" x2="249.5" y2="181.5"/>
			<line class="st0" x1="249.5" y1="183" x2="249.5" y2="184.5"/>
		</g>
	</g>
	<g>
		<g>
			<line class="st0" x1="273.9" y1="0" x2="273.9" y2="1.5"/>
			<line class="st1" x1="273.9" y1="4.5" x2="273.9" y2="181.5"/>
			<line class="st0" x1="273.9" y1="183" x2="273.9" y2="184.5"/>
		</g>
	</g>
	<g>
		<g>
			<line class="st0" x1="276.3" y1="0" x2="276.3" y2="1.5"/>
			<line class="st1" x1="276.3" y1="4.5" x2="276.3" y2="181.5"/>
			<line class="st0" x1="276.3" y1="183" x2="276.3" y2="184.5"/>
		</g>
	</g>
	<g>
		<g>
			<line class="st0" x1="220.2" y1="0" x2="220.2" y2="1.5"/>
			<line class="st1" x1="220.2" y1="4.5" x2="220.2" y2="181.5"/>
			<line class="st0" x1="220.2" y1="183" x2="220.2" y2="184.5"/>
		</g>
	</g>
	<g>
		<g>
			<line class="st0" x1="222.6" y1="0" x2="222.6" y2="1.5"/>
			<line class="st1" x1="222.6" y1="4.5" x2="222.6" y2="181.5"/>
			<line class="st0" x1="222.6" y1="183" x2="222.6" y2="184.5"/>
		</g>
	</g>
	<g>
		<g>
			<line class="st0" x1="151.9" y1="0" x2="151.9" y2="1.5"/>
			<line class="st1" x1="151.9" y1="4.5" x2="151.9" y2="181.5"/>
			<line class="st0" x1="151.9" y1="183" x2="151.9" y2="184.5"/>
		</g>
	</g>
	<g>
		<g>
			<line class="st0" x1="154.3" y1="0" x2="154.3" y2="1.5"/>
			<line class="st1" x1="154.3" y1="4.5" x2="154.3" y2="181.5"/>
			<line class="st0" x1="154.3" y1="183" x2="154.3" y2="184.5"/>
		</g>
	</g>
	<g>
		<g>
			<line class="st0" x1="178.7" y1="0" x2="178.7" y2="1.5"/>
			<line class="st1" x1="178.7" y1="4.5" x2="178.7" y2="181.5"/>
			<line class="st0" x1="178.7" y1="183" x2="178.7" y2="184.5"/>
		</g>
	</g>
	<g>
		<g>
			<line class="st0" x1="181.2" y1="0" x2="181.2" y2="1.5"/>
			<line class="st1" x1="181.2" y1="4.5" x2="181.2" y2="181.5"/>
			<line class="st0" x1="181.2" y1="183" x2="181.2" y2="184.5"/>
		</g>
	</g>
	<g>
		<g>
			<line class="st0" x1="345.3" y1="66.5" x2="343.8" y2="66.5"/>
			<line class="st2" x1="340.8" y1="66.5" x2="3" y2="66.5"/>
			<line class="st0" x1="1.5" y1="66.5" x2="0" y2="66.5"/>
		</g>
	</g>
	<g>
		<g>
			<line class="st0" x1="345.3" y1="69" x2="343.8" y2="69"/>
			<line class="st2" x1="340.8" y1="69" x2="3" y2="69"/>
			<line class="st0" x1="1.5" y1="69" x2="0" y2="69"/>
		</g>
	</g>
	<g>
		<g>
			<line class="st0" x1="345.3" y1="93.4" x2="343.8" y2="93.4"/>
			<line class="st2" x1="340.8" y1="93.4" x2="3" y2="93.4"/>
			<line class="st0" x1="1.5" y1="93.4" x2="0" y2="93.4"/>
		</g>
	</g>
	<g>
		<g>
			<line class="st0" x1="345.3" y1="95.8" x2="343.8" y2="95.8"/>
			<line class="st2" x1="340.8" y1="95.8" x2="3" y2="95.8"/>
			<line class="st0" x1="1.5" y1="95.8" x2="0" y2="95.8"/>
		</g>
	</g>
	<g>
		<g>
			<line class="st0" x1="125.1" y1="0" x2="125.1" y2="1.5"/>
			<line class="st1" x1="125.1" y1="4.5" x2="125.1" y2="181.5"/>
			<line class="st0" x1="125.1" y1="183" x2="125.1" y2="184.5"/>
		</g>
	</g>
	<g>
		<g>
			<line class="st0" x1="127.5" y1="0" x2="127.5" y2="1.5"/>
			<line class="st1" x1="127.5" y1="4.5" x2="127.5" y2="181.5"/>
			<line class="st0" x1="127.5" y1="183" x2="127.5" y2="184.5"/>
		</g>
	</g>
	<g>
		<g>
			<line class="st0" x1="83.6" y1="0" x2="83.6" y2="1.5"/>
			<line class="st1" x1="83.6" y1="4.5" x2="83.6" y2="181.5"/>
			<line class="st0" x1="83.6" y1="183" x2="83.6" y2="184.5"/>
		</g>
	</g>
	<g>
		<g>
			<line class="st0" x1="86" y1="0" x2="86" y2="1.5"/>
			<line class="st1" x1="86" y1="4.5" x2="86" y2="181.5"/>
			<line class="st0" x1="86" y1="183" x2="86" y2="184.5"/>
		</g>
	</g>
	<g>
		<g>
			<line class="st0" x1="345.3" y1="120.2" x2="343.8" y2="120.2"/>
			<line class="st2" x1="340.8" y1="120.2" x2="3" y2="120.2"/>
			<line class="st0" x1="1.5" y1="120.2" x2="0" y2="120.2"/>
		</g>
	</g>
	<g>
		<g>
			<line class="st0" x1="345.3" y1="122.7" x2="343.8" y2="122.7"/>
			<line class="st2" x1="340.8" y1="122.7" x2="3" y2="122.7"/>
			<line class="st0" x1="1.5" y1="122.7" x2="0" y2="122.7"/>
		</g>
	</g>
</g>
<path class="st3" d="M108.8,122.7c1.4-0.1,2.7,0.4,3.8,1.3c1,1,1.4,2.4,1.3,3.8v0.1c0,0.7-0.1,1.3-0.3,2c-0.1,0.5-0.4,1-0.7,1.5
	c-0.2,0.4-0.6,0.7-0.9,0.9c-0.3,0.2-0.6,0.3-1,0.4v0.2c0.4,0,0.7,0.2,1,0.4c0.4,0.3,0.7,0.6,0.9,1c0.3,0.4,0.5,0.9,0.6,1.5
	c0.2,0.6,0.3,1.3,0.3,1.9v0.2c0,0.8,0,1.5,0,2.1c0,0.6,0.1,1.2,0.2,1.8h-4.3c-0.1-0.6-0.2-1.2-0.2-1.8c0-0.7,0-1.4,0-2.1v-2.4
	c0-0.2,0-0.5-0.2-0.7c-0.2-0.2-0.4-0.2-0.6-0.2h-0.5v7.3H104v-19.1H108.8z M108.3,131.1h0.5c0.2,0,0.4-0.1,0.6-0.2
	c0.1-0.2,0.2-0.5,0.2-0.8v-3.1c0-0.2,0-0.5-0.2-0.7c-0.2-0.2-0.4-0.2-0.6-0.2h-0.5V131.1z M119.5,126.1v3.9h2.7v3.4h-2.7v4.9h2.7
	v3.4h-7v-19.1h7v3.4H119.5z M133.8,122.7v19.1h-4.7l-2.2-12.1h-0.2l0.9,12.1h-4v-19.1h4.7l2.3,12.2h0.2l-1-12.2H133.8z M139.6,126.1
	v3.9h2.6v3.4h-2.6v4.9h2.7v3.4h-7.1v-19.1h7v3.4H139.6z M147.8,122.7l0.2,11.7h0.3l0.7-11.7h3l0.7,11.7h0.2l0.3-11.7h4l-1.6,19.1
	H151l-0.5-9h-0.3l-0.6,9H145l-1.5-19.1H147.8z M169.5,129.4v-2.6c0-0.2,0-0.5-0.2-0.7c-0.1-0.2-0.3-0.2-0.5-0.2
	c-0.2,0-0.4,0.1-0.5,0.2c-0.1,0.2-0.2,0.4-0.2,0.7v1.8c0,0.2,0,0.4,0.1,0.6c0.1,0.2,0.2,0.4,0.3,0.5c0.2,0.2,0.4,0.4,0.7,0.5
	c0.3,0.2,0.7,0.4,1.2,0.7l0.8,0.4c0.5,0.2,0.9,0.5,1.3,0.9c0.3,0.3,0.6,0.7,0.8,1.1c0.2,0.5,0.3,1,0.4,1.5c0.1,0.7,0.1,1.3,0.1,2
	v0.4c0.1,1.4-0.4,2.7-1.3,3.7c-1,0.9-2.4,1.4-3.8,1.3c-1.4,0.1-2.7-0.4-3.7-1.3c-0.9-1-1.4-2.4-1.3-3.8v-1.9h4.4v2.6
	c0,0.2,0,0.5,0.2,0.7c0.1,0.2,0.3,0.2,0.5,0.2c0.2,0,0.4-0.1,0.5-0.2c0.1-0.2,0.2-0.4,0.2-0.7v-1.8c0-0.2,0-0.4-0.1-0.6
	c-0.1-0.2-0.1-0.3-0.3-0.5c-0.2-0.2-0.4-0.3-0.6-0.5l-1.1-0.6l-1-0.5c-0.4-0.2-0.9-0.5-1.2-0.9c-0.3-0.3-0.6-0.7-0.8-1.1
	c-0.2-0.5-0.3-1-0.4-1.5c-0.1-0.7-0.1-1.3-0.1-2v-0.3c-0.1-1.4,0.4-2.7,1.3-3.7c1-0.9,2.3-1.4,3.6-1.3c2.5-0.2,4.8,1.6,5,4.1
	c0,0.3,0,0.6,0,0.9v1.9L169.5,129.4z M183.8,126.1h-2.6v15.7h-4.4v-15.7h-2.6v-3.4h9.6L183.8,126.1z M189.1,122.7v15
	c0,0.1,0,0.3,0.1,0.4c0,0.1,0.1,0.2,0.1,0.3c0,0.1,0.1,0.1,0.2,0.2c0.1,0,0.2,0,0.2,0c0.1,0,0.2,0,0.2,0c0.1,0,0.1-0.1,0.2-0.2
	c0.1-0.1,0.1-0.2,0.1-0.3c0-0.1,0-0.3,0-0.4v-15h4.4V137c0,0.7-0.1,1.5-0.3,2.2c-0.2,0.6-0.6,1.1-1,1.6c-0.5,0.5-1,0.8-1.6,1
	c-0.7,0.2-1.4,0.3-2.1,0.3c-0.7,0-1.4-0.1-2.1-0.3c-0.6-0.2-1.1-0.5-1.5-0.9c-0.5-0.4-0.8-1-1-1.6c-0.2-0.7-0.3-1.5-0.3-2.2v-14.4
	H189.1z M201.1,122.7c0.7,0,1.4,0.1,2.1,0.3c0.6,0.2,1.1,0.5,1.6,0.9c0.4,0.4,0.8,0.9,1,1.5c0.2,0.7,0.4,1.4,0.4,2.1v9.6
	c0,0.7-0.1,1.4-0.4,2.1c-0.2,0.6-0.6,1.1-1,1.5c-0.5,0.4-1,0.7-1.6,0.9c-0.7,0.2-1.4,0.3-2.1,0.3h-4.9v-19.1H201.1z M200.6,138.4
	h0.5c0.1,0,0.2,0,0.3,0c0.1,0,0.2-0.1,0.2-0.1c0.1-0.1,0.1-0.2,0.1-0.3c0-0.1,0-0.3,0-0.4V127c0-0.1,0-0.3,0-0.4
	c0-0.2-0.2-0.4-0.4-0.4c-0.1,0-0.2,0-0.3,0h-0.5V138.4z M211.9,126.1v3.9h2.7v3.4h-2.6v4.9h2.6v3.4h-7v-19.1h7v3.4H211.9z
	 M226.2,122.7v19.1h-4.7l-2.2-12.1H219l0.9,12.1H216v-19.1h4.7l2.3,12.2h0.2l-0.9-12.2H226.2z M236.7,126.1h-2.6v15.7h-4.4v-15.7
	h-2.6v-3.4h9.6V126.1z M242.6,129.4v-2.6c0-0.2,0-0.5-0.2-0.7c-0.1-0.2-0.3-0.2-0.5-0.2c-0.2,0-0.3,0.1-0.4,0.3
	c-0.1,0.2-0.2,0.4-0.2,0.7v1.8c0,0.2,0,0.4,0.1,0.6c0.1,0.2,0.2,0.4,0.3,0.5c0.2,0.2,0.4,0.4,0.7,0.5c0.3,0.2,0.7,0.4,1.2,0.7
	l0.8,0.4c0.5,0.2,0.9,0.5,1.2,0.8c0.3,0.3,0.6,0.7,0.8,1.1c0.2,0.5,0.3,1,0.4,1.5c0.1,0.7,0.1,1.3,0.1,2v0.4
	c0.1,1.4-0.4,2.7-1.3,3.7c-1,0.9-2.4,1.4-3.8,1.3c-1.4,0.1-2.7-0.4-3.7-1.3c-0.9-1-1.3-2.4-1.2-3.8v-1.9h4.4v2.6
	c0,0.2,0,0.5,0.2,0.7c0.2,0.3,0.6,0.3,0.9,0.1c0.1,0,0.1-0.1,0.1-0.1c0.1-0.2,0.2-0.4,0.2-0.7v-1.8c0-0.2,0-0.4-0.1-0.6
	c-0.1-0.2-0.1-0.3-0.3-0.5c-0.2-0.2-0.4-0.4-0.6-0.5c-0.3-0.2-0.7-0.4-1.1-0.6l-1-0.5c-0.4-0.2-0.9-0.5-1.2-0.9
	c-0.3-0.3-0.6-0.7-0.8-1.1c-0.2-0.5-0.3-1-0.4-1.5c-0.1-0.7-0.1-1.3-0.1-2v-0.3c-0.1-1.4,0.4-2.7,1.3-3.7c1-0.9,2.3-1.4,3.6-1.3
	c2.5-0.3,4.8,1.5,5.1,4.1c0,0.3,0,0.6,0,0.9v1.9L242.6,129.4z M247,120.2h-14.3c-5.6,0-10.1-4.5-10.1-10.1c0,0,0,0,0,0V42.1h14.3
	c5.6,0,10.1,4.5,10.1,10.1l0,0V120.2z M273.9,52.3c0-5.6-4.5-10.1-10.1-10.1c0,0,0,0,0,0h-14.3v67.9c0,5.6,4.5,10.1,10.1,10.1l0,0
	h14.3L273.9,52.3z M300.7,110.1V42.1h-14.3c-5.6,0-10.1,4.5-10.1,10.1v67.9h14.3C296.2,120.2,300.7,115.7,300.7,110.1
	C300.7,110.1,300.7,110.1,300.7,110.1z M154.3,110.1c0,5.6,4.5,10.1,10.1,10.1c0,0,0,0,0,0h14.3V52.3c0-5.6-4.5-10.1-10.1-10.1
	c0,0,0,0,0,0h-14.2V110.1z M151.9,110.1V42.1h-14.3c-5.6,0-10.1,4.5-10.1,10.1v67.9h14.3C147.4,120.2,151.9,115.7,151.9,110.1
	C151.9,110.1,151.9,110.1,151.9,110.1z M210.1,66.5c5.6,0,10.1-4.5,10.1-10.1v0V42.1h-28.9c-5.6,0-10.1,4.5-10.1,10.1l0,0v14.3
	H210.1z M207.1,93.4c5.6,0,10.1-4.5,10.1-10.1c0,0,0,0,0,0V69h-25.9c-5.6,0-10.1,4.5-10.1,10.1c0,0,0,0,0,0.1v14.2H207.1z
	 M191.3,120.2h28.9v-14.3c0-5.6-4.5-10.1-10.1-10.1h-28.9v14.3C181.2,115.7,185.7,120.2,191.3,120.2
	C191.3,120.2,191.3,120.2,191.3,120.2L191.3,120.2z M115,66.5c5.6,0,10.1-4.5,10.1-10.1v0V42.1H96.2c-5.6,0-10.1,4.5-10.1,10.1l0,0
	v14.3H115z M112,93.4c5.6,0,10.1-4.5,10.1-10.1c0,0,0,0,0,0V69H96.2c-5.6,0-10.1,4.5-10.1,10.1c0,0,0,0,0,0.1v14.2H112z M96.2,120.2
	h28.9v-14.3c0-5.6-4.5-10.1-10.1-10.1c0,0,0,0,0,0H86.1v14.3C86,115.7,90.6,120.2,96.2,120.2C96.1,120.2,96.2,120.2,96.2,120.2z
	 M83.6,66.5V52.3c0-5.6-4.5-10.1-10.1-10.1H44.6v24.4H83.6z M73.5,93.4c5.6,0,10.1-4.5,10.1-10.1V69h-39v24.4H73.5z M83.6,120.2
	v-14.3c0-5.6-4.5-10.1-10.1-10.1H44.6v24.4H83.6z"/>
<g>
	<path class="st3" d="M-175.7,77.6V63.3c0-5.6-4.5-10.1-10.1-10.1h-28.9v24.4H-175.7z M-185.8,104.4c5.6,0,10.1-4.5,10.1-10.1V80
		h-39v24.4H-185.8z M-175.7,131.3V117c0-5.6-4.5-10.1-10.1-10.1h-28.9v24.4H-175.7z"/>
	<g>
		<g>
			<g>
				<line class="st0" x1="-22.6" y1="77.6" x2="-24.1" y2="77.6"/>
				<line class="st2" x1="-27.1" y1="77.6" x2="-364.9" y2="77.6"/>
				<line class="st0" x1="-366.4" y1="77.6" x2="-367.9" y2="77.6"/>
			</g>
		</g>
		<g>
			<g>
				<line class="st0" x1="-22.6" y1="80" x2="-24.1" y2="80"/>
				<line class="st2" x1="-27.1" y1="80" x2="-364.9" y2="80"/>
				<line class="st0" x1="-366.4" y1="80" x2="-367.9" y2="80"/>
			</g>
		</g>
		<g>
			<g>
				<line class="st0" x1="-22.6" y1="104.4" x2="-24.1" y2="104.4"/>
				<line class="st2" x1="-27.1" y1="104.4" x2="-364.9" y2="104.4"/>
				<line class="st0" x1="-366.4" y1="104.4" x2="-367.9" y2="104.4"/>
			</g>
		</g>
		<g>
			<g>
				<line class="st0" x1="-22.6" y1="106.9" x2="-24.1" y2="106.9"/>
				<line class="st2" x1="-27.1" y1="106.9" x2="-364.9" y2="106.9"/>
				<line class="st0" x1="-366.4" y1="106.9" x2="-367.9" y2="106.9"/>
			</g>
		</g>
		<g>
			<g>
				<line class="st0" x1="-22.6" y1="131.3" x2="-24.1" y2="131.3"/>
				<line class="st2" x1="-27.1" y1="131.3" x2="-364.9" y2="131.3"/>
				<line class="st0" x1="-366.4" y1="131.3" x2="-367.9" y2="131.3"/>
			</g>
		</g>
		<g>
			<g>
				<line class="st0" x1="-22.6" y1="53.2" x2="-24.1" y2="53.2"/>
				<line class="st2" x1="-27.1" y1="53.2" x2="-364.9" y2="53.2"/>
				<line class="st0" x1="-366.4" y1="53.2" x2="-367.9" y2="53.2"/>
			</g>
		</g>
	</g>
</g>
</svg>
