<svg id="Layer_1" data-name="Layer 1" xmlns="http://www.w3.org/2000/svg" viewBox="0 0 216 216"><defs><style>.cls-1{fill:#6b7183;}</style></defs><path class="cls-1" d="M182.48,81.52H157A23.56,23.56,0,0,1,133.48,58V32.52A23.56,23.56,0,0,1,157,9h25.47A23.56,23.56,0,0,1,206,32.52V58A23.56,23.56,0,0,1,182.48,81.52ZM157,29a3.53,3.53,0,0,0-3.53,3.53V58A3.53,3.53,0,0,0,157,61.52h25.47A3.53,3.53,0,0,0,186,58V32.52A3.53,3.53,0,0,0,182.48,29Zm8.1,165H139.64a23.56,23.56,0,0,1-23.53-23.53V145a23.56,23.56,0,0,1,23.53-23.53h25.47A23.56,23.56,0,0,1,188.64,145v25.47A23.56,23.56,0,0,1,165.11,194Zm-25.47-52.53a3.53,3.53,0,0,0-3.53,3.53v25.47a3.53,3.53,0,0,0,3.53,3.53h25.47a3.53,3.53,0,0,0,3.53-3.53V145a3.53,3.53,0,0,0-3.53-3.53ZM74,194H48.52A23.56,23.56,0,0,1,25,170.48V145a23.56,23.56,0,0,1,23.53-23.53H74A23.56,23.56,0,0,1,97.52,145v25.47A23.56,23.56,0,0,1,74,194ZM48.52,141.48A3.53,3.53,0,0,0,45,145v25.47A3.53,3.53,0,0,0,48.52,174H74a3.53,3.53,0,0,0,3.53-3.53V145A3.53,3.53,0,0,0,74,141.48ZM74,102.89H48.52A23.56,23.56,0,0,1,25,79.36V53.89A23.56,23.56,0,0,1,48.52,30.36H74A23.56,23.56,0,0,1,97.52,53.89V79.36A23.56,23.56,0,0,1,74,102.89ZM48.52,50.36A3.53,3.53,0,0,0,45,53.89V79.36a3.53,3.53,0,0,0,3.53,3.53H74a3.53,3.53,0,0,0,3.53-3.53V53.89A3.53,3.53,0,0,0,74,50.36Z"/></svg>