<svg id="Layer_1" data-name="Layer 1" xmlns="http://www.w3.org/2000/svg" viewBox="0 0 216 216"><defs><style>.cls-1{fill:#6b7183;}</style></defs><path class="cls-1" d="M185,213.22H33a10,10,0,0,1-10-10V13.78a10,10,0,0,1,10-10H133.57a10.9,10.9,0,0,1,1.5.1h0a8.55,8.55,0,0,1,.88.17h0a10,10,0,0,1,4.71,2.63h0l51.35,51.38h0l0,0h0a9.9,9.9,0,0,1,2.56,4.56h0a10,10,0,0,1,.21,1.09h0a11.16,11.16,0,0,1,.09,1.42v138A10,10,0,0,1,185,213.22Zm-142-20H175V75.16H133.65a10,10,0,0,1-10-10V23.78H43ZM143.65,55.16h17.22L143.65,37.93Zm6.44,109.33H68.3v-20h81.79Zm0-45.07H68.3v-20h81.79ZM100.62,74.35H68.3v-20h32.32Z"/></svg>