<svg id="Layer_1" data-name="Layer 1" xmlns="http://www.w3.org/2000/svg" viewBox="0 0 216 216"><defs><style>.cls-1{fill:#6b7183;}</style></defs><path class="cls-1" d="M174.14,206H112A31.6,31.6,0,0,1,80.4,174.45V112.28A31.6,31.6,0,0,1,112,80.71h62.17a31.6,31.6,0,0,1,31.57,31.57v62.17A31.6,31.6,0,0,1,174.14,206ZM112,100.71a11.58,11.58,0,0,0-11.57,11.57v62.17A11.58,11.58,0,0,0,112,186h62.17a11.58,11.58,0,0,0,11.57-11.57V112.28a11.58,11.58,0,0,0-11.57-11.57ZM65.46,147.9H41A11.6,11.6,0,0,1,29.4,136.29v-95A11.57,11.57,0,0,1,41,29.71h95a11.59,11.59,0,0,1,11.58,11.58V65.77h20V41.29A31.62,31.62,0,0,0,136,9.71H41A31.58,31.58,0,0,0,9.4,41.29v95A31.63,31.63,0,0,0,41,167.9H65.46Z"/></svg>