<svg id="Layer_1" data-name="Layer 1" xmlns="http://www.w3.org/2000/svg" viewBox="0 0 216 216"><defs><style>.cls-1{fill:#6b7183;}</style></defs><path class="cls-1" d="M168.8,204.06H114.7a10,10,0,1,1,0-20h54.1a11.62,11.62,0,0,0,11.6-11.61V115a10,10,0,1,1,20,0v57.45A31.65,31.65,0,0,1,168.8,204.06ZM25.6,200.4a10,10,0,0,1-9.84-11.79l6.54-35.89a10,10,0,0,1,2.77-5.28l99.54-99.51h0l29.31-29.39A10,10,0,0,1,161,15.6h0a10,10,0,0,1,7.07,2.93l29.4,29.4a10,10,0,0,1,0,14.15L168.06,91.4l-99.5,99.53a10,10,0,0,1-5.28,2.77l-35.89,6.54A9.77,9.77,0,0,1,25.6,200.4Zm15.82-41L38,178l18.6-3.39,90.23-90.26L131.68,69.14ZM145.81,55,161,70.19,176.25,55,161,39.75ZM25.6,111a10,10,0,0,1-10-10V43.55A31.68,31.68,0,0,1,47.2,12h54.11a10,10,0,0,1,0,20H47.2A11.63,11.63,0,0,0,35.6,43.58V101A10,10,0,0,1,25.6,111Z"/></svg>