<svg id="Layer_1" data-name="Layer 1" xmlns="http://www.w3.org/2000/svg" viewBox="0 0 216 216"><defs><style>.cls-1{fill:#6b7183;}</style></defs><path class="cls-1" d="M200.48,182.81H15.8a10,10,0,0,1-10-10V55.63a10,10,0,0,1,10-10H200.48a10,10,0,0,1,10,10V172.81A10,10,0,0,1,200.48,182.81Zm-174.68-20H190.48V65.63H25.8Zm138.67-18.59H133.58a10,10,0,0,1,0-20h30.89a10,10,0,0,1,0,20Zm-67.95,0H51.81a10,10,0,0,1,0-20H96.52a10,10,0,1,1,0,20Zm68-40H102.11a10,10,0,1,1,0-20h62.36a10,10,0,0,1,0,20Zm-97.42,0H51.81a10,10,0,0,1,0-20H67.05a10,10,0,0,1,0,20Z"/></svg>