<svg id="Layer_1" data-name="Layer 1" xmlns="http://www.w3.org/2000/svg" viewBox="0 0 216 216"><defs><style>.cls-1{fill:#6b7183;}</style></defs><path class="cls-1" d="M108,205.41a10,10,0,0,1-4.08-.87l-50.2-22.41a10,10,0,0,1,8.16-18.26L108,184.46l46.12-20.59a10,10,0,1,1,8.16,18.26l-50.2,22.41A10,10,0,0,1,108,205.41Zm87-59.18V98a10,10,0,0,0-10-10H31A10,10,0,0,0,21,98v48.28a10,10,0,0,0,10,10H185A10,10,0,0,0,195,146.23ZM41,108H175v28.28H41ZM168.21,70.34v-41a10,10,0,0,0-10-10H57.8a10,10,0,0,0-10,10v41a10,10,0,0,0,20,0v-31h80.41v31a10,10,0,0,0,20,0Z"/></svg>