<svg id="Layer_1" data-name="Layer 1" xmlns="http://www.w3.org/2000/svg" viewBox="0 0 432 432"><defs><style>.cls-1{fill:none;stroke:#000;stroke-miterlimit:10;stroke-width:6px;}</style></defs><path d="M227.54,21.79c1,16.78,1.25,33.58,1.3,50.39q0,6.42,0,12.85c0,4.25.27,8.51.37,12.77.22,8.53.26,17.06.18,25.59-.16,17.19-.8,34.38-1.53,51.55s-1.54,34.3-2.05,51.45c-.51,16.87-.72,33.75-.21,50.62.06,2.12.14,4.24.22,6.36l5.59-1.51,0-.09.41,1.52c0,.09-2,2.89-.79,1.94-.49.19-.6.24-.32.15s.14-.06-.53.06l-1.52-.41,0,0-1.49-2.59v0l.41-1.52.83-.85a3.28,3.28,0,0,1-.31.2,7.82,7.82,0,0,0-.8.45l4.1,1.08-.17-.37.4,1.51v-.32l-.41,1.51-.22.2-1.33.77.09,0a3,3,0,0,0,2.09-3.69,3.07,3.07,0,0,0-3.69-2.09c-2.58.47-2.86,3.64-1.95,5.52a3,3,0,0,0,4.11,1.08c1.33-.72,3-1.74,2.83-3.5a3,3,0,0,0-1.48-2.59c-3.07-1.44-7.13,1.64-5.46,5,1.33,2.67,5.71,1.39,5.59-1.51-.68-16.81-.61-33.64-.19-50.46.43-17.14,1.21-34.26,2-51.39s1.45-34.38,1.72-51.58c.14-8.55.17-17.09,0-25.64s-.5-17.08-.5-25.63c0-16.74-.15-33.49-1-50.21q-.15-3.34-.35-6.67a3.06,3.06,0,0,0-3-3,3,3,0,0,0-3,3Z"/><path d="M294.2,33.06l11.63,3.52L333.64,45l33.63,10.18L396.44,64c4.69,1.42,9.36,3,14.1,4.27a1.17,1.17,0,0,1,.2.06c3.71,1.12,5.29-4.67,1.6-5.79L400.7,59,372.89,50.6,339.26,40.42,310.1,31.6c-4.69-1.42-9.37-3-14.11-4.27l-.2-.06c-3.7-1.12-5.28,4.67-1.59,5.79Z"/><path d="M240.57,70.21c20.06,7,40.58,12.72,61.06,18.36,23.25,6.39,46.55,12.62,69.65,19.54,13.11,3.93,26.16,8.08,39.07,12.63a3,3,0,0,0,3.69-2.1A3.06,3.06,0,0,0,412,115c-23-8.09-46.34-14.93-69.79-21.47-22.4-6.25-44.89-12.15-67.22-18.67-11-3.22-22-6.59-32.77-10.39a3,3,0,0,0-1.6,5.79Z"/><path d="M237.07,129.36c22.23,7.63,44.84,14.06,67.52,20.18s45.27,11.9,67.75,18.43c12.76,3.7,25.45,7.64,38,11.95a3,3,0,0,0,1.6-5.78c-22.23-7.63-44.84-14.06-67.52-20.18s-45.28-11.9-67.76-18.43c-12.75-3.7-25.44-7.64-38-12a3,3,0,1,0-1.6,5.78Z"/><path d="M239.81,184.24l4.57,1.28L256.76,189l18.4,5.12,22.33,6.21,24.58,6.84L346.76,214l23.14,6.44,19.46,5.41,14.07,3.92c2.21.61,4.41,1.28,6.63,1.84l.29.08c3.73,1,5.32-4.75,1.6-5.78l-4.58-1.28L395,221.19l-18.4-5.12-22.33-6.21L329.68,203,305,196.15l-23.14-6.44-19.46-5.41-14.06-3.92c-2.21-.61-4.42-1.28-6.64-1.84l-.29-.08c-3.72-1-5.31,4.75-1.59,5.78Z"/><path d="M232.65,238.62c10,1.6,20,4.14,29.86,6.54,14.84,3.62,29.62,7.45,44.38,11.34q23.83,6.28,47.62,12.78,19.32,5.27,38.62,10.63c6.1,1.69,12.16,3.56,18.3,5.1l.24.07c3.73,1,5.32-4.75,1.6-5.79l-15-4.18Q379.94,270,361.55,265q-23.55-6.44-47.17-12.71c-15.1-4-30.21-7.95-45.37-11.7-10.71-2.65-21.45-5.35-32.3-7.32l-2.46-.42a3.09,3.09,0,0,0-3.69,2.09c-.4,1.43.48,3.43,2.09,3.69Z"/><path d="M239.81,286.49Q272.06,295,304.2,304q34.94,9.69,69.79,19.61,18.87,5.36,37.72,10.75c3.72,1.07,5.3-4.72,1.59-5.78q-34.2-9.8-68.44-19.45t-68.65-19.06q-17.38-4.74-34.81-9.35c-3.74-1-5.33,4.8-1.59,5.79Z"/><path d="M395.16,33.17c-.34,9-.09,17.93-.43,26.89a3,3,0,0,0,6,0c.34-9,.09-17.92.43-26.89a3,3,0,0,0-6,0Z"/><path d="M338,48.6c0,12,.7,24,.64,36,0,3.17-.07,6.33-.27,9.49a3,3,0,0,0,3,3,3.06,3.06,0,0,0,3-3c.82-12.65.08-25.43-.24-38.08-.06-2.47-.13-4.94-.13-7.41,0-3.86-6-3.86-6,0Z"/><path d="M257.68,23.16,256.27,64c-.14,3.86,5.86,3.86,6,0l1.41-40.84c.13-3.86-5.87-3.85-6,0Z"/><path d="M290,81.38c-.65,14.39-1.05,28.81-1,43.21,0,5,.1,10,.4,14.93a3.06,3.06,0,0,0,3,3,3,3,0,0,0,3-3c-.56-9.36-.46-18.77-.31-28.14q.19-12.52.69-25c.07-1.65.13-3.3.21-5a3,3,0,0,0-6,0Z"/><path d="M388.81,124.42c-.35,9.9-.56,19.8-.81,29.7-.13,4.86-.26,9.72-.44,14.58-.15,3.86,5.85,3.85,6,0,.45-12.2.54-24.4,1-36.59l.27-7.69c.14-3.86-5.86-3.85-6,0Z"/><path d="M331.38,164.32a202.65,202.65,0,0,1-1.17,42.78c-.29,2.19,2.79,3.84,4.51,2.59a5.7,5.7,0,0,0,2.42-6.2c-.91-3.75-6.7-2.16-5.79,1.59-.07-.31.15-.42.35-.57l4.51,2.59a202.65,202.65,0,0,0,1.17-42.78,3.08,3.08,0,0,0-3-3,3,3,0,0,0-3,3Z"/><path d="M256.57,135.4a133.12,133.12,0,0,1,.84,16.71c0,6.33-.1,12.67-.37,19-.13,2.89-.28,5.78-.49,8.66a3,3,0,0,0,3,3,3.06,3.06,0,0,0,3-3,315.69,315.69,0,0,0,.69-35.74c-.12-2.88-.29-5.76-.67-8.62a3.1,3.1,0,0,0-3-3c-1.46,0-3.21,1.38-3,3Z"/><path d="M288,205.27c-.48,14.45-.63,28.91-1.11,43.36-.13,3.86,5.87,3.85,6,0,.48-14.45.63-28.91,1.11-43.36.13-3.86-5.87-3.86-6,0Z"/><path d="M380.9,223.74c-1.42,13.18.35,26.54-1.07,39.72a3,3,0,0,0,3,3,3.07,3.07,0,0,0,3-3c1.42-13.18-.35-26.54,1.07-39.72a3,3,0,0,0-3-3,3.06,3.06,0,0,0-3,3Z"/><path d="M332.36,266.67c-1.14,11.89-1.41,23.84-2.55,35.73a3,3,0,0,0,3,3,3.06,3.06,0,0,0,3-3c1.14-11.89,1.41-23.84,2.55-35.73a3,3,0,0,0-3-3,3.06,3.06,0,0,0-3,3Z"/><path d="M230.26,117.08c-1.8.73-2.84,2.21-4,3.74-1.44,2-2.75,4.05-4,6.13-3.83,6.18-7.43,12.51-11,18.85q-5.62,10-11.05,20.16c-2.26,4.23-4.57,8.45-6.65,12.77-4.67,9.7-9.36,19.39-14.18,29a3.09,3.09,0,0,0,1.08,4.11,3,3,0,0,0,4.11-1.08c6.53-13.05,12.6-26.33,19.46-39.21,7-13.07,14.05-26.1,21.69-38.77,1.57-2.61,3.17-5.22,4.9-7.73.3-.45.61-.88.92-1.31l.22-.29c.2-.29.36-.14-.2.25a2.2,2.2,0,0,0,.37-.47c.21-.24.43-.47.65-.71,0,0,.26-.18.27-.24-.06.38-.77.54-.46.36s.53-.22-.54.22a3.1,3.1,0,0,0,2.09-3.7c-.39-1.42-2.18-2.7-3.69-2.09Z"/><path d="M195.89,229q12-24.16,24.07-48.32l12.69-25.46c.83-1.67,2.3-3.63,1.77-5.56-.16-.58-.38-1.15-.56-1.72l-2.18-6.68-4.27-13.06a3,3,0,0,0-5.89.79l-1.47,25-.21,3.57,5.12-2.12-8.15-8.18c-2.23-2.23-5.59.09-5,2.92l4.07,20.28,4.41-3.39-10-7.66c-1.29-1-3.36-.2-4.11,1.08a3.08,3.08,0,0,0,1.08,4.1l10,7.66a3,3,0,0,0,3.33-.23,3.09,3.09,0,0,0,1.07-3.16l-4.06-20.28-5,2.92,8.15,8.18a3,3,0,0,0,5.13-2.12l1.47-25,.21-3.57-5.89.8,6.17,18.91.89,2.74.3-2.31-29,58.17L190.71,226a3.06,3.06,0,0,0,1.08,4.1,3,3,0,0,0,4.1-1.07Z"/><path d="M171.05,207.36c-7,.73-14.13,2.67-21,1.7-4-.57-7.82-2.1-11.79-2.86a103.71,103.71,0,0,0-12.42-1.51c-3.62-.27-7.11-.53-10.66.37a19.17,19.17,0,0,0-8.4,4.46,12.31,12.31,0,0,0-3.94,8.53,17.9,17.9,0,0,0,3.61,10.56c4.54,6.37,11.41,11.2,18.07,15.14a122,122,0,0,0,21,9.54c7.42,2.67,15,4.93,22.44,7.42,7.14,2.38,14.27,5.6,22,5.13,3.85-.23,7.75-.74,10.29-3.94a26,26,0,0,0,4.17-9.12c.82-3.07.5-6.36.18-9.48a74.11,74.11,0,0,1-.74-10.52,15.32,15.32,0,0,1,.76-4.49,3,3,0,1,0-5.78-1.6c-2.07,6.47-.34,13.23,0,19.8q.06,1,.06,2c0,.37,0,.73,0,1.1,0,.16-.11,1,0,.52a20,20,0,0,1-1.17,3.79,18.6,18.6,0,0,1-1.71,3.73,3.58,3.58,0,0,1-2,1.66c-6.81,1.8-13.14-.43-19.57-2.68-7.05-2.47-14.21-4.64-21.3-7-13.38-4.46-26.88-10-37.44-19.61a23.53,23.53,0,0,1-5.94-7.56,10.74,10.74,0,0,1-.92-4.36c0-.15,0-.3,0-.46v.06c.05-.29.11-.57.19-.86,0-.14.35-1,.15-.5a8.35,8.35,0,0,1,.46-.89q.22-.36.48-.72c.2-.27,0,0,0,0,.12-.15.25-.29.38-.44.35-.37,1.06-1,1.25-1.15a15,15,0,0,1,7-2.68c-.42.05.33,0,.45,0,.36,0,.73,0,1.09,0,.85,0,1.69.06,2.54.11,3.68.25,7.38.47,11,1,3.91.59,7.6,1.75,11.43,2.7a35.37,35.37,0,0,0,10.2,1c3.41-.16,6.79-.73,10.17-1.22,1.78-.25,3.57-.48,5.36-.67a3.09,3.09,0,0,0,3-3,3,3,0,0,0-3-3Z"/><path d="M197.54,130.18l-12.21,6.61q-14.67,8-29.32,16-18.09,9.87-36.12,19.81c-10.8,6-21.6,11.95-32.32,18-6,3.43-12.31,6.69-18,10.69-.44.32-.88.65-1.3,1a3,3,0,0,0,0,4.25,3.08,3.08,0,0,0,4.24,0c.48-.4-.75.53-.25.18.16-.1.31-.21.46-.32.38-.26.76-.52,1.15-.77,1.12-.72,2.26-1.42,3.4-2.11,3.44-2.07,6.91-4.07,10.4-6.07C98,191.53,108.41,185.75,118.82,180q18-10,36.11-19.83,15.31-8.37,30.66-16.68c4.91-2.67,10-5.16,14.77-8l.21-.12c3.4-1.83.37-7-3-5.18Z"/><path d="M68.9,201.81c-18.05,11.07-33,26.41-42.79,45.28a130.14,130.14,0,0,0-6,13.45,59.79,59.79,0,0,0-3.35,15.69A71.6,71.6,0,0,0,20.86,307a83.57,83.57,0,0,0,16.78,27.71c4,4.37,8.72,8,13.39,11.6q6.72,5.18,13.84,9.8c19,12.42,39.9,21.8,61.26,29.47,21.09,7.57,42.72,13.47,64.32,19.35l8,2.18c3.73,1,5.32-4.77,1.59-5.79-21.19-5.79-42.45-11.41-63.28-18.4s-41.05-15.35-59.93-26.47a214.62,214.62,0,0,1-27.19-18.86,69.68,69.68,0,0,1-6.37-5.65A79.73,79.73,0,0,1,38,325.83a77,77,0,0,1-8.16-13,69,69,0,0,1-7.32-28.26,61,61,0,0,1,1.22-14.69,68.5,68.5,0,0,1,4.59-13.63A108.29,108.29,0,0,1,65,211.51c2.24-1.58,4.54-3.08,6.88-4.52,3.29-2,.28-7.2-3-5.18Z"/><path d="M183.58,270.55c-24.12,2.22-48.24,3.68-72.47,3.64-3.47,0-7,.06-10.43-.13-2.44-.13-5.15-.51-7-2.14L91.56,277A275.88,275.88,0,0,1,123.29,275c11.5-.08,23,.22,34.5.38l10.46.15a20.26,20.26,0,0,1,3.57.22l.64.17c.57.15,0-.07.48.17-.08,0,.78.48.48.28.09.06.09.09.24.35,2,3.31,7.17.29,5.18-3-3.07-5.12-10.24-4.16-15.32-4.23l-19.67-.28c-11-.16-22-.41-32.93.15-6.47.33-12.92.94-19.36,1.73a3.06,3.06,0,0,0-2.74,1.84,3,3,0,0,0,.62,3.28c4.68,4.14,11,4,16.87,4q9.69.07,19.36-.09c12-.23,24.09-.82,36.11-1.69,7.27-.53,14.54-1.16,21.8-1.83a3.08,3.08,0,0,0,3-3,3,3,0,0,0-3-3Z"/><path class="cls-1" d="M190.76,196.17c4.42,6.81,13.9,10.44,13.9,10.44"/><path d="M163.65,220.23a66.53,66.53,0,0,0,1.29,24.47c.94,3.74,6.73,2.16,5.78-1.59a62.24,62.24,0,0,1-1.07-22.88c.2-1.61-1.53-3-3-3a3.07,3.07,0,0,0-3,3Z"/><path d="M151.7,219.43a64.78,64.78,0,0,0-1.13,11.29,60.84,60.84,0,0,0,.4,10.1c.23,1.61,2.28,2.48,3.69,2.09,1.73-.47,2.32-2.07,2.1-3.69,0,.21.08.73,0,.22,0-.15,0-.3,0-.45,0-.3-.06-.6-.08-.9,0-.73-.08-1.46-.11-2.2-.05-1.72,0-3.44,0-5.17s.14-3.54.3-5.31c0-.46.09-.92.14-1.37,0-.23.05-.45.08-.67s0-.26,0,0c.12-.79.24-1.58.41-2.36a3,3,0,0,0-5.79-1.6Z"/><path d="M139.2,218.74a39.48,39.48,0,0,0-1.12,8.45,42.39,42.39,0,0,0,.52,9.21,3,3,0,0,0,3.69,2.1,3.08,3.08,0,0,0,2.09-3.69c0-.14,0-.28-.07-.42s-.09-.72,0-.24,0-.07,0-.15,0-.3,0-.46c-.06-.66-.11-1.33-.14-2-.06-1.45,0-2.9,0-4.35s.18-2.7.34-4c.05-.44-.09.56,0,.14,0-.15,0-.29.07-.43,0-.3.1-.61.15-.91.11-.54.23-1.08.37-1.61a3,3,0,0,0-5.79-1.6Z"/></svg>