<svg id="Layer_1" data-name="Layer 1" xmlns="http://www.w3.org/2000/svg" viewBox="0 0 432 432"><path d="M227.54,21.79c1,16.78,1.25,33.58,1.3,50.39q0,6.42,0,12.85c0,4.25.27,8.51.37,12.77.22,8.53.26,17.06.18,25.59-.16,17.19-.8,34.38-1.53,51.55s-1.54,34.3-2.05,51.45c-.51,16.87-.72,33.75-.21,50.62.06,2.12.14,4.24.22,6.36l5.59-1.51,0-.09.41,1.52c0,.09-2,2.89-.79,1.94-.49.19-.6.24-.32.15s.14-.06-.53.06l-1.52-.41,0,0-1.49-2.59v0l.41-1.52.83-.85a3.28,3.28,0,0,1-.31.2,7.82,7.82,0,0,0-.8.45l4.1,1.08-.17-.37.4,1.51v-.32l-.41,1.51-.22.2-1.33.77.09,0a3,3,0,0,0,2.09-3.69,3.07,3.07,0,0,0-3.69-2.09c-2.58.47-2.86,3.64-1.95,5.52a3,3,0,0,0,4.11,1.08c1.33-.72,3-1.74,2.83-3.5a3,3,0,0,0-1.48-2.59c-3.07-1.44-7.13,1.64-5.46,5,1.33,2.67,5.71,1.39,5.59-1.51-.68-16.81-.61-33.64-.19-50.46.43-17.14,1.21-34.26,2-51.39s1.45-34.38,1.72-51.58c.14-8.55.17-17.09,0-25.64s-.5-17.08-.5-25.63c0-16.74-.15-33.49-1-50.21q-.15-3.34-.35-6.67a3.06,3.06,0,0,0-3-3,3,3,0,0,0-3,3Z"/><path d="M299.76,25.21Q320.63,37,342.06,47.79t43.25,20.15q12.62,5.41,25.43,10.38a3,3,0,0,0,3.69-2.1,3.07,3.07,0,0,0-2.09-3.69q-22-8.49-43.42-18.43T326.4,33Q314.51,26.67,302.78,20c-3.36-1.9-6.39,3.28-3,5.18Z"/><path d="M240.57,64.21c21.19,6.5,41.91,14.49,62.5,22.64,22.91,9.06,45.68,18.45,68.62,27.42,12.82,5,25.69,9.88,38.66,14.47A3,3,0,0,0,412,123c-23.27-8.22-46.2-17.36-69.09-26.57-22.19-8.93-44.34-18-66.77-26.32-11.21-4.16-22.49-8.13-33.92-11.64-3.7-1.13-5.28,4.66-1.6,5.79Z"/><path d="M237.07,125.36l67.52,23.21,67.75,23.29,38,13.06a3,3,0,0,0,1.6-5.78l-67.52-23.21-67.76-23.29-38-13.06a3,3,0,1,0-1.6,5.78Z"/><path d="M239.09,178.94c21.56,11.25,44.81,18.63,68.22,24.94s46.93,11.66,69.89,19.27c1.64.54,3.29,1.1,4.93,1.67s3.24,1.41,4.87,2.09a43.44,43.44,0,0,0,7.78,2.47c5.32,1.12,10.42,1.28,15.57,2.31A3.07,3.07,0,0,0,414,229.6a3,3,0,0,0-2.09-3.69c-2.58-.52-5.18-.89-7.79-1.21-2.29-.27-4.1-.44-6-.77a41.43,41.43,0,0,1-6.68-1.71c-2.86-1-5.51-2.42-8.37-3.41-11.39-3.93-23-7.27-34.6-10.39-23.17-6.2-46.59-11.54-69.35-19.18a256.69,256.69,0,0,1-37-15.48,3.07,3.07,0,0,0-4.11,1.08,3,3,0,0,0,1.08,4.1Z"/><path d="M243.65,242.62c22.81,3.65,44.83,10.8,67.15,16.55,5.63,1.44,11.28,2.8,17,4s11.22,2,16.8,3.2a267.4,267.4,0,0,1,32.3,8.86A246.77,246.77,0,0,1,411,289.77a3,3,0,0,0,3-5.18,262,262,0,0,0-63.38-23c-5.52-1.24-11.08-2.18-16.63-3.24-5.71-1.09-11.38-2.37-17-3.77-11.27-2.78-22.42-6-33.63-9.05a363.24,363.24,0,0,0-38.08-8.64,3.09,3.09,0,0,0-3.69,2.09c-.4,1.43.48,3.43,2.09,3.69Z"/><path d="M239.81,286.49c21.49,5.67,42.89,11.69,64.27,17.79q34.88,10,69.68,20.12,19,5.49,37.95,10.94c3.72,1.07,5.3-4.72,1.59-5.78C390.51,323,367.75,316.4,345,309.81s-45.66-13.19-68.55-19.57q-17.49-4.87-35-9.54c-3.74-1-5.33,4.8-1.59,5.79Z"/><path d="M395.16,33.17l-1.43,36.89,5.13-2.12-1.94-1.84c-2.79-2.67-7,1.57-4.24,4.24l1.93,1.84a3,3,0,0,0,5.12-2.12l1.43-36.89a3,3,0,0,0-6,0Z"/><path d="M338,48.6c0,12,.7,24,.64,36,0,3.17-.07,6.33-.27,9.49a3,3,0,0,0,3,3,3.06,3.06,0,0,0,3-3c.82-12.65.08-25.43-.24-38.08-.06-2.47-.13-4.94-.13-7.41,0-3.86-6-3.86-6,0Z"/><path d="M257.68,23.16,256.27,64c-.14,3.86,5.86,3.86,6,0l1.41-40.84c.13-3.86-5.87-3.85-6,0Z"/><path d="M290.06,82.18c5.33,18.77-1.78,38.29-.7,57.34.11,2.07,2.53,4,4.51,2.59a5.65,5.65,0,0,0,1.95-7.26c-.64-1.49-2.82-1.82-4.1-1.08a3.08,3.08,0,0,0-1.08,4.11c-.09-.2-.08-.92-.15-.57s.2-.27.35-.38l4.52,2.59c-.87-15.39,3.32-30.54,2.54-45.92a58.61,58.61,0,0,0-2.06-13c-1-3.71-6.84-2.13-5.78,1.6Z"/><path d="M387.92,126.22c1.49,3.64.74,7.6.3,11.39q-.74,6.52-1.3,13.07T386,163.79c-.12,2.14-.23,4.29-.32,6.43a10.71,10.71,0,0,0,.08,3.53,3.58,3.58,0,0,0,3.36,2.39,3,3,0,0,0,3-3,3.07,3.07,0,0,0-3-3l-.26,0L391,171l-.2-.17.77,1.32a14.29,14.29,0,0,1,.16-2.67c.05-1.07.1-2.15.16-3.22q.15-3,.34-5.94.4-6.18,1-12.35c.37-4.1.81-8.18,1.28-12.27.43-3.69.71-7.55-.74-11.07a3.1,3.1,0,0,0-3.69-2.1c-1.41.39-2.71,2.18-2.09,3.69Z"/><path d="M331.38,164.32a202.65,202.65,0,0,1-1.17,42.78c-.29,2.19,2.79,3.84,4.51,2.59a5.7,5.7,0,0,0,2.42-6.2c-.91-3.75-6.7-2.16-5.79,1.59-.07-.31.15-.42.35-.57l4.51,2.59a202.65,202.65,0,0,0,1.17-42.78,3.08,3.08,0,0,0-3-3,3,3,0,0,0-3,3Z"/><path d="M255.57,137.4a158.45,158.45,0,0,1,1,32.36,3,3,0,0,0,3,3,3.06,3.06,0,0,0,3-3,158.45,158.45,0,0,0-1-32.36,3.1,3.1,0,0,0-3-3c-1.46,0-3.22,1.38-3,3Z"/><path d="M288,205.27l-1.11,33.36c-.13,3.86,5.87,3.85,6,0L294,205.27c.13-3.86-5.87-3.86-6,0Z"/><path d="M380.9,233.74c-1.06,9.87,0,19.84-1.07,29.72a3,3,0,0,0,3,3,3.07,3.07,0,0,0,3-3c1.06-9.88,0-19.85,1.07-29.72a3,3,0,0,0-3-3,3.06,3.06,0,0,0-3,3Z"/><path d="M332.36,266.67c-1.14,11.89-1.41,23.84-2.55,35.73a3,3,0,0,0,3,3,3.06,3.06,0,0,0,3-3c1.14-11.89,1.41-23.84,2.55-35.73a3,3,0,0,0-3-3,3.06,3.06,0,0,0-3,3Z"/><path d="M222.41,122.75c-6.75,2.67-10.18,9.89-13.92,15.65l-13.16,20.29a182.73,182.73,0,0,0-11.48,19.45c-3.33,6.87-5.69,14.14-8.91,21.05a75.06,75.06,0,0,1-13.3,19.71c-1.4,1.49-1,4.64,1.33,5a4.94,4.94,0,0,0,6-4.57c.18-1.61-1.51-3-3-3a3.07,3.07,0,0,0-3,3c.11-1,.58-1.37,1.59-1.21l1.32,5a79.66,79.66,0,0,0,12.42-17.26c3.49-6.58,5.86-13.64,8.79-20.46A139.25,139.25,0,0,1,198,165.68c4.22-6.59,8.51-13.13,12.76-19.69,2.4-3.69,4.79-7.4,7.2-11.09,1.57-2.41,3.46-5.33,6.1-6.37a3.08,3.08,0,0,0,2.09-3.69,3,3,0,0,0-3.69-2.09Z"/><path d="M228.3,130.47l-42.7,85.69-2.89,5.8-1.55,3.12a8.69,8.69,0,0,0-1.21,3.39,3.68,3.68,0,0,0,4.56,3.92c2.43-.71,3.77-3.95,1.67-5.81a3.08,3.08,0,0,0-4.24,0,3,3,0,0,0,0,4.25l.13.12-.77-1.32,0,.14v-1.59l1.38-1.54h1.59l.36.15,1.08,1.07c.44.76-.11,1.65.36.7l.45-.89,1.22-2.46,2.34-4.68,4.67-9.38,9.34-18.74,18.79-37.71,10.56-21.2a3,3,0,0,0-5.18-3Z"/><path d="M161.52,210.75A142,142,0,0,0,137,199.37c-8.55-3-17.69-5.59-26.83-4.23-7.51,1.12-14.76,5.82-17.85,12.93a16.83,16.83,0,0,0-.88,11.48A24.91,24.91,0,0,0,98,229.83c5.83,5.86,13.09,10.54,20.29,14.51a183.2,183.2,0,0,0,23,10.41c8,3.07,16.13,5.93,24.31,8.51a68.36,68.36,0,0,0,13.7,3.05c4.24.44,9,.36,13-1.19,3.52-1.35,6.94-3.76,8-7.56a10,10,0,0,0-2-8.69c-1.72-2.27-3.89-4.07-5.76-6.19-.2-.23-.39-.45-.58-.69.35.45-.07-.1-.18-.28s-.29-.47-.42-.7-.1-.21-.16-.31c-.15-.29.1.51,0,0,0-.12-.24-.92-.15-.46s0-.33,0-.49c0-.47-.14.46,0-.24a5.27,5.27,0,0,0,.21-1.85,4.38,4.38,0,0,0-1.74-3,8.56,8.56,0,0,0-1.17-.79,3.91,3.91,0,0,0-.6-.32c.55.11-1.38,6.5.47,1.7l-.77,1.32.12-.12-1.32.77c-1.09.18-2-.38-2.58-1.66l.3-2.31-.06.11,1.08-1.08-.14.11a3.08,3.08,0,0,0-1.08,4.1,3,3,0,0,0,4.1,1.08c1.69-1.23,2.37-3.56.71-5.17a4,4,0,0,0-4.65-.66,3.79,3.79,0,0,0-1,5.26,5.6,5.6,0,0,0,1.83,1.73,7.77,7.77,0,0,0,.9.48c.68.3-.14,0-.2-.35v-1.59a11.44,11.44,0,0,0-.23,4.28,9,9,0,0,0,1.36,3.21,38.27,38.27,0,0,0,5,5.56c.41.42.82.84,1.21,1.29.18.2.35.4.52.61s0,0-.07-.09c.13.17.26.34.38.52a10.5,10.5,0,0,1,.8,1.42c-.22-.48,0,0,0,.2s.19.91.14.56,0,.51,0,.68c0-.36-.07.35-.1.48a3.86,3.86,0,0,1-.63,1.15,8.08,8.08,0,0,1-3.28,2.25c-3,1.22-7,1.3-10.4,1a56.4,56.4,0,0,1-11.9-2.57c-7.54-2.31-15-5-22.41-7.72C132,245,118.09,238.75,106.47,229.34c-4.75-3.84-10.41-9.17-9.61-15.65.69-5.54,5.85-10.31,11.21-11.94,7.59-2.31,15.69-.35,23,2A131.52,131.52,0,0,1,153.31,213q2.63,1.4,5.18,2.9c3.34,2,6.36-3.22,3-5.18Z"/><path d="M229.54,102.55c-1.22.57-1.74,1.74-2.32,2.86l-1.55,3-3.44,6.74-6.76,13.26a3.06,3.06,0,0,0,1.07,4.1,3,3,0,0,0,4.11-1.07L227,119.1l3.11-6.09,1.55-3.05.78-1.52.44-.87c.37-.64.28-.59-.28.16a3,3,0,0,0,1.07-4.1,3.07,3.07,0,0,0-4.1-1.08Z"/><path d="M105.81,196.34a132.08,132.08,0,0,1-5.62,24.15c-.92,2.76,3.09,5.22,5,2.92q8.21-9.82,16.17-19.85l-5.12-2.12-2.56,29.61c-.26,3,4.25,4.06,5.59,1.51l9.48-18.07h-5.18c3.45,5.1,3,11.34,2.75,17.51-.28,6.65-.43,13.51,2.84,19.53,1.16,2.15,5,1.86,5.48-.71a100,100,0,0,1,16.93-40.27l-5.49-2.31a145.87,145.87,0,0,0-1.8,33.59,3.11,3.11,0,0,0,2.2,2.89,3,3,0,0,0,3.39-1.38l11.76-27.8-5.48-2.31a62.92,62.92,0,0,0-.75,34.63c.63,2.4,4.3,3,5.48.72L172,226.77h-5.18c.52,1,.15,2.3-.13,3.45a46,46,0,0,0-1.05,5.45,22.93,22.93,0,0,0,1,10.56c2.26,6.16,7.73,11,14.5,11.22,3.86.1,3.86-5.9,0-6a9,9,0,0,1-5.94-2.66,12.48,12.48,0,0,1-3.49-6.68,20.39,20.39,0,0,1,.34-8.69c.76-3.3,1.65-6.52-.08-9.68a3,3,0,0,0-5.18,0l-11.09,21.81,5.49.72a56.82,56.82,0,0,1,.74-31.45,3,3,0,0,0-1.74-3.54c-1.23-.5-3.15-.16-3.74,1.23l-11.76,27.8,5.59,1.52a138.25,138.25,0,0,1,1.59-32,3,3,0,0,0-5.48-2.31,104.14,104.14,0,0,0-17.53,41.7l5.48-.72c-2.88-5.31-2.2-11.87-2-18,.26-6.51.15-13.44-3.64-19-1.19-1.76-4.07-2.11-5.18,0l-9.48,18.07,5.59,1.52,2.56-29.61c.22-2.47-3.52-4.13-5.12-2.12q-8,10-16.18,19.84l5,2.92a138.24,138.24,0,0,0,5.83-25.74c.22-1.61-1.53-3-3-3-1.79,0-2.78,1.39-3,3Z"/><path d="M187.16,204.7a10.9,10.9,0,0,0-9.81-3.28c-1.82.25-2.85,3-1.8,4.41,1.57,2.12,3.22,4.18,5.8,5.07a6.71,6.71,0,0,0,6.8-1.52c2.18-2.32,1.44-5.3,1-8.12l-1.41-8.73-.3,2.31c-.21.34-.13,0,0,0-.5,0,.17.2,0,0,0,0-.47.09,0,0,0,0,.78-.14.45-.1s.29,0,.34,0l.61-.05c.49,0,1-.1,1.46-.17a6.77,6.77,0,0,0,5.48-3.51,7.89,7.89,0,0,0-.18-7c-1.14-2.24-3.22-3.77-5.2-5.21L189,184.42c3.78-.46,8.62-1.47,9.8-5.75,1-3.52-1.31-8.35-5.48-7.95v6A18.14,18.14,0,0,0,205,171.1c2.42-2.68,4-8.48-.36-10.33l-.72,5.49c4.67-1,10-2.56,12-7.37,1.74-4.19.19-9.65-4.46-11v5.79a38.65,38.65,0,0,0,13.08-5.3c2-1.29,3.85-3.1,3.85-5.65a7.06,7.06,0,0,0-2.34-4.84c-.46-.49-.95-1-1.4-1.45-.23-.26-.22-.25,0,0a3.18,3.18,0,0,1-.23-.4,1.05,1.05,0,0,1,.19.67c-.09.42-.09.46,0,.11-.4.6-.43.71-.08.34q-.27.25.18-.06c.29-.16.59-.3.88-.44A8.37,8.37,0,0,0,228,135a8.49,8.49,0,0,0,.25-11.24,3,3,0,0,0-4.24,0,3.08,3.08,0,0,0,0,4.25c-.36-.44.33.83.13.25,0,.11.2.93.13.39a2.11,2.11,0,0,1-.2,1.62c.17-.45-.19.32-.22.37.23-.35-.25.28-.31.33.31-.28-.42.25-.54.31-.34.19-.7.34-1,.52a5.83,5.83,0,0,0-3.24,3.91,5.67,5.67,0,0,0,1.59,4.89c.38.44.8.84,1.2,1.25.2.19.37.4.57.59s.24.26,0,0c.1.13.19.28.28.42.34.5-.13-.42,0,.19a2.74,2.74,0,0,0-.09-.49,14,14,0,0,1-1.62,1.12,34.68,34.68,0,0,1-10.89,4.22c-3,.63-2.7,5,0,5.79.35.11.36.11.06,0,.26.17.3.18.14.05-.3-.37.58.79.13.1,0,.07.41.81.19.25a7.32,7.32,0,0,1,.23.8c.07.35.07.37,0,0a5.42,5.42,0,0,1,0,.57c0,.14-.14.93,0,.36a6.28,6.28,0,0,1-.23.85c.18-.5-.18.34-.25.45s-.1.17,0,0a6.64,6.64,0,0,1-.51.55c-.15.14-.46.42-.55.48a9.33,9.33,0,0,1-1.78,1,27.24,27.24,0,0,1-5,1.34c-2.38.48-3.09,4.47-.72,5.48.53.23.06,0,0-.19-.23-.45-.28-.18-.13-.14,0-.32-.06-.37-.06-.14s0,.19,0-.09a5.27,5.27,0,0,1-.14.57c-.24.76.21-.29-.18.4a5.29,5.29,0,0,1-.32.5c.33-.45-.43.43-.43.43-.24.23-.48.46-.73.68a11.8,11.8,0,0,1-6.32,2.75,3.09,3.09,0,0,0-3,3,3,3,0,0,0,3,3c.45,0,.1.05,0-.08s-.31-.24,0,0c-.07-.05-.58-.53-.32-.26s-.16-.37,0,0c0,0,.16.6.1.26s0,.22,0,.29c0,.46.12-.41,0,0-.05.2.33-.15-.06.17.34-.28-.56.44-.36.3a3,3,0,0,1-.87.43,14.15,14.15,0,0,1-2.75.58,3,3,0,0,0-1.51,5.59,18,18,0,0,1,1.86,1.51,5.84,5.84,0,0,1,.8.85c0-.06.52,1,.34.59,0,.09.2.92.16.5,0,0,0,.93,0,.52-.08.46-.08.44-.45.59.52-.2-.38.05-.4.05-.36.06-.39.07-.1,0l-.46,0c-.82.07-1.64.14-2.45.26a6.13,6.13,0,0,0-4.16,2.31c-1.46,2-.34,5,0,7.22.34,2.09.81,4.2,1,6.31,0-.08.05.82,0,.82-.24-.05.27-.5.27-.5,0,.18-.23.12-.37.13.54-.06-.38,0-.42,0,.42,0-.11-.09-.17-.12a3,3,0,0,1-.76-.54,12.15,12.15,0,0,1-1.52-1.77l-1.79,4.41a4.84,4.84,0,0,1,4,1.73,3,3,0,0,0,4.24-4.24Z"/><path d="M180.84,212.88a4.34,4.34,0,0,0-3.9-2.07,5.27,5.27,0,0,0-3.67,1.8,5.33,5.33,0,0,0-1.23,4.64,8.36,8.36,0,0,0,2.13,3.87c.37.42.76.82,1.15,1.23a4.14,4.14,0,0,1,.62.7l.15.26c.07.1.12.2.18.3.15.31.14.28,0-.09a3.45,3.45,0,0,1,.12.43q-.06-.66,0-.15c0,.34,0,.29,0-.14-.11.32-.08.29.07-.1,0,.13-.32.53-.39.65a5.39,5.39,0,0,0-1,4.45c.46,1.71,2.1,3.35,4,3.12a3.07,3.07,0,0,0,3-3c-.07-1.46-1.33-3.2-3-3-.34,0-.21.08.4.17a1.44,1.44,0,0,1,.93.43l.29.35c.17.47.22.55.13.25l.07.46q-.14.74-.06.39c.08-.25-.3.5,0,0a9.31,9.31,0,0,0,1.33-2.63c.65-2.52-.59-4.87-2.2-6.72-.55-.62-1.13-1.22-1.69-1.82-.25-.27.29.45,0,0-.12-.18-.23-.36-.34-.55-.3-.52.15.55,0-.07s0,.45,0,.06,0,0-.05.23c.12-.57-.29.66,0,.14s-.46.52-.08.12-.46.31-.17.12-.07.08-.23.07l.21-.07c.24-.06.09,0-.45,0,.54,0-.77-.17-.26,0a2,2,0,0,1-1.16-.86,3,3,0,1,0,5.18-3Z"/><path d="M193.28,139.94a30.66,30.66,0,0,1,7.29-4.58l-3-5.18c-10.33,6.66-20.71,13.35-32,18.36a182.14,182.14,0,0,1-17.45,6.27,113,113,0,0,0-17,7,96.14,96.14,0,0,0-16.58,11.1,3,3,0,0,0-.47,3.63,3.1,3.1,0,0,0,3.39,1.38l4.25-.92a3,3,0,0,0,2.09-3.69,3.06,3.06,0,0,0-3.69-2.1l-4.25.93,2.92,5a93.35,93.35,0,0,1,30.08-16.26c6.09-2,12.19-3.92,18.1-6.44a150.19,150.19,0,0,0,16-8.13c6-3.46,11.83-7.21,17.65-11a3,3,0,0,0-3-5.18,36.06,36.06,0,0,0-8.5,5.52,3,3,0,0,0,4.24,4.24Z"/><path d="M73.59,210.41c-20.55.55-35.87,16.2-45.47,33-4.95,8.68-9.18,18.09-10.74,28a71.49,71.49,0,0,0,2.27,31.84,82.26,82.26,0,0,0,15.88,28.94,53.84,53.84,0,0,0,5.88,6.2q3.27,2.82,6.65,5.5,7.14,5.66,14.7,10.73C81.91,367.47,103,377.13,124.58,385s43.74,13.89,65.87,19.91l8,2.18c3.73,1,5.32-4.77,1.59-5.79-21.52-5.88-43.12-11.58-64.26-18.73S94.1,366.81,75,355.34a212.42,212.42,0,0,1-27.38-19.45,72.66,72.66,0,0,1-19-25.52,67.67,67.67,0,0,1-6.18-29,59.93,59.93,0,0,1,2.05-14.83,72.08,72.08,0,0,1,5-12.81A87.88,87.88,0,0,1,45,230.43C51.19,224,58.51,219,67.22,217.15a31.71,31.71,0,0,1,6.37-.74c3.85-.1,3.87-6.1,0-6Z"/><path d="M173.58,270.55c-24.12,2.22-48.24,3.68-72.47,3.64-3.47,0-7,.06-10.43-.13-2.44-.13-5.15-.51-7-2.14L81.56,277A275.88,275.88,0,0,1,113.29,275c11.5-.08,23,.22,34.5.38l10.46.15a20.26,20.26,0,0,1,3.57.22l.64.17c.57.15,0-.07.48.17-.08,0,.78.48.48.28.09.06.09.09.24.35,2,3.31,7.17.29,5.18-3-3.07-5.12-10.24-4.16-15.32-4.23l-19.67-.28c-11-.16-22-.41-32.93.15-6.47.33-12.92.94-19.36,1.73a3.06,3.06,0,0,0-2.74,1.84,3,3,0,0,0,.62,3.28c4.68,4.14,11,4,16.87,4q9.69.07,19.36-.09c12-.23,24.09-.82,36.11-1.69,7.27-.53,14.54-1.16,21.8-1.83a3.08,3.08,0,0,0,3-3,3,3,0,0,0-3-3Z"/></svg>