<svg id="Layer_1" data-name="Layer 1" xmlns="http://www.w3.org/2000/svg" viewBox="0 0 432 432"><path d="M193,196.35q-13.28,44.61-27,89t-28,88.5q-4,12.38-8,24.72l-4,12.24L124,417a20.49,20.49,0,0,0-.83,2.57l-.16.29a1,1,0,0,1,.24-.16c1.56-.29,2.52.09,2.86,1.15a2,2,0,0,1-.19,1.46l-1.07,1.08-1,.28a3,3,0,0,0,0-6c-4.62-.19-4.59,6.62-.61,7.7,2.07.56,4.14-.86,5.08-2.63a33.61,33.61,0,0,0,2-5.55q3.9-11.88,7.76-23.77,7.63-23.53,15.14-47.12t14.94-47.46q7.36-23.62,14.58-47.3T197,203.88l1.77-5.93c1.1-3.71-4.69-5.29-5.79-1.6Z"/><path d="M210.76,203.62q22.82,41.83,45,84c14.57,27.71,29.15,55.43,42.86,83.57Q310,394.62,320.2,418.62a3.1,3.1,0,0,0,3.69,2.09c1.41-.38,2.73-2.18,2.09-3.69-12.15-28.87-25.94-57-40.26-84.81Q264,289.9,241.52,248q-12.69-23.73-25.58-47.35c-1.85-3.39-7-.37-5.18,3Z"/><path d="M202.3,205l6.37,83.7,6.38,83.7,3.6,47.32a3.08,3.08,0,0,0,3,3,3,3,0,0,0,3-3l-6.37-83.69-6.38-83.7L208.3,205a3.09,3.09,0,0,0-3-3,3,3,0,0,0-3,3Z"/><path d="M326.19,41c-7.36,12.73-14.74,26.12-16.37,41a44.82,44.82,0,0,0,2.55,20.75,60.87,60.87,0,0,0,10.1,16.91,120,120,0,0,0,15.9,15.57,3.09,3.09,0,0,0,4.24,0,3,3,0,0,0,0-4.25c-9.37-7.85-18.6-16.67-23.71-28a39.41,39.41,0,0,1-3.3-18.37,60.87,60.87,0,0,1,4.84-19.38A173,173,0,0,1,331.37,44c1.94-3.35-3.24-6.37-5.18-3Z"/><path d="M333.38,35.65a12.55,12.55,0,0,1,2.41-.62c.75-.13-.75.07,0,0l.9-.08q.88-.06,1.77-.06a34.16,34.16,0,0,1,4.16.26c.69.07-.52-.09,0,0l.55.08,1.2.22c.81.15,1.62.34,2.42.54a43.79,43.79,0,0,1,5.33,1.77c.26.1.61.26.13,0l.65.28,1.4.65c1,.47,1.9,1,2.83,1.51S359,41.35,359.92,42c.48.33,1,.66,1.43,1l.66.49.33.25.05,0a53.11,53.11,0,0,1,5.55,5.05,61.34,61.34,0,0,1,9.92,14.07,68.15,68.15,0,0,1,6.92,19.45,48.1,48.1,0,0,1,.74,8.9q0,2.08-.21,4.17a34.87,34.87,0,0,1-.54,3.61,44,44,0,0,1-2.14,7.36l-.32.8c-.13.32,0,0,0,0l-.17.39c-.25.56-.51,1.11-.78,1.66q-.78,1.62-1.71,3.15c-.59,1-1.22,2-1.88,2.91l-.92,1.26c-.35.46.2-.24-.16.2l-.56.69a44.85,44.85,0,0,1-4.25,4.47c-.72.66-1.46,1.29-2.22,1.9l-.08.06-.51.38c-.36.27-.73.53-1.1.79a33.34,33.34,0,0,1-4.17,2.43l-.54.25c-.11.05-.65.29-.17.08s-.05,0-.16.06l-.51.2a3.09,3.09,0,0,0-2.1,3.69,3,3,0,0,0,3.69,2.09c7.69-2.84,14.08-8.72,18.79-15.31a48.14,48.14,0,0,0,8.54-31.61c-1.12-14-7.28-27.93-16.13-38.82a53,53,0,0,0-24-17c-5.68-1.9-12.4-3-18.32-1.54a11.77,11.77,0,0,0-1.15.36,3.08,3.08,0,0,0-2.09,3.69,3,3,0,0,0,3.69,2.1Z"/><path d="M38,163.48q-8.64,4.89-17.15,10a3,3,0,0,0,3,5.18q8.51-5.11,17.14-10a3,3,0,1,0-3-5.18Z"/><path d="M328.25,28.25c-15.66,7.31-31.3,14.68-47,22s-31.33,14.45-47.1,21.43q-11.94,5.28-24,10.39c-7.94,3.36-16,6.54-23.88,9.94-15.81,6.79-31.58,13.66-47.25,20.76-15.39,7-30.69,14.18-45.8,21.75q-2.75,1.38-5.48,2.77a3,3,0,1,0,3,5.18c15.05-7.65,30.28-14.92,45.62-21.94,15.53-7.11,31.17-14,46.86-20.73,15.91-6.86,32-13.32,47.86-20.28s31.65-14.14,47.38-21.42,31.35-14.63,47-22l5.72-2.67a3,3,0,0,0,1.07-4.1,3.06,3.06,0,0,0-4.1-1.08Z"/><path d="M54.57,191.09q29.21-6.43,58.48-12.51t58.64-11.78q29.35-5.72,58.78-11t58.92-10.31q29.49-5,59-9.56l7.35-1.14c1.6-.24,2.49-2.25,2.09-3.69a3.07,3.07,0,0,0-3.69-2.09q-29.55,4.54-59.05,9.47T236.2,148.65q-29.43,5.29-58.8,10.95t-58.65,11.68q-29.29,6-58.51,12.43L53,185.3c-3.76.83-2.17,6.62,1.6,5.79Z"/><path d="M266.35,176.6a3.94,3.94,0,0,0-.07-7.5c-2.33-.75-5.14.47-7.17,1.57-4,2.22-7,6.08-9.12,10.1a50.51,50.51,0,0,0-2.8,6.56,23.66,23.66,0,0,0-1.71,8.25c.12,4.93,3.12,8.93,7.31,11.31s8.91,3.24,13.59,3.75c5.43.59,11.24.21,16-2.63,7.8-4.61,12.1-14.77,9.45-23.53-3-10-14.1-16.22-24.24-14a3,3,0,1,0,1.59,5.79,14.46,14.46,0,0,1,8.55.93,15.46,15.46,0,0,1,7,5.92c3.2,5.22,2.18,12.16-1.83,16.74a14,14,0,0,1-8.7,4.78,32.42,32.42,0,0,1-12.05-.68c-.84-.19-1.68-.4-2.5-.66-.6-.18-1.75-.58-2-.7a17.53,17.53,0,0,1-2.24-1.15,8.51,8.51,0,0,1-1.59-1.16,6.59,6.59,0,0,1-2.07-3.1,10.27,10.27,0,0,1,.41-5.7,36.41,36.41,0,0,1,5.08-11.08,18.27,18.27,0,0,1,3.34-3.55,12.77,12.77,0,0,1,2.5-1.46c-.13,0-.36.13.23-.09.22-.08.44-.16.66-.22s.47-.11.68-.19l.33-.08c-1.18.47-1.62-.64-1.31-3.31l1.33-.77-.22.07a3,3,0,1,0,1.59,5.79Z"/><path d="M249.05,183.93a287.85,287.85,0,0,0-40.14-6.16c-3.41-.28-4,5-.79,5.89l2.76.74c3.73,1,5.33-4.8,1.59-5.79l-2.76-.73-.8,5.89a278.36,278.36,0,0,1,38.54,5.94,3.06,3.06,0,0,0,3.69-2.09,3,3,0,0,0-2.09-3.69Z"/><path d="M200.44,178c-8.83,4.52-17.6,9.16-26.54,13.46a131.65,131.65,0,0,1-26.38,9.89l3.38,4.41,1-1.38a3,3,0,0,0-1.07-4.1,3.06,3.06,0,0,0-4.11,1.07l-1,1.38c-1.61,2.25,1.05,5,3.39,4.41,9.52-2.28,18.6-6.07,27.41-10.3,9.08-4.35,18-9.07,26.95-13.66a3,3,0,0,0-3-5.18Z"/><path d="M140.44,189.82c-11.18.1-20.26,11.23-18.57,22.18a13,13,0,0,0,4.12,8,11.63,11.63,0,0,0,9,2.3,33.71,33.71,0,0,0,9.25-2.44,11.4,11.4,0,0,0,6.49-6.94c2.5-7.37-2.34-14.08-6.76-19.48a3,3,0,0,0-4.24,0,3.07,3.07,0,0,0,0,4.24c2.86,3.5,6.13,7.56,5.59,12.16a5.36,5.36,0,0,1-2.66,4.14,22.72,22.72,0,0,1-6.51,2.08c-1.86.4-4,.67-5.59-.14-1.77-.9-2.45-3.05-2.82-4.88a11.67,11.67,0,0,1-.12-2.3,9.28,9.28,0,0,1,.41-2.58,14.53,14.53,0,0,1,.78-2.2,17.73,17.73,0,0,1,1.69-2.84,13,13,0,0,1,9.92-5.32c3.86,0,3.87-6,0-6Z"/><path d="M25.69,177.27l-1.87-1.84a3,3,0,0,0-2.92-.77,3.13,3.13,0,0,0-2.09,2.09c-2.15,5.5,1.88,12.61,7.7,13.61a3.21,3.21,0,0,0,2.31-.31,3.06,3.06,0,0,0,1.38-1.79c.33-1.45-.44-3.41-2.1-3.69a7.59,7.59,0,0,1-1.46-.42l.72.3a7.1,7.1,0,0,1-1.21-.66c-.21-.15-.48-.45.21.17l-.25-.21c-.17-.15-.34-.31-.5-.48s-.28-.31-.42-.47c-.34-.39.44.63.16.2l-.22-.31a9.82,9.82,0,0,1-.66-1.24l.3.72a8.38,8.38,0,0,1-.57-2.07l.11.8a7.47,7.47,0,0,1,0-1.89l-.11.8a7.31,7.31,0,0,1,.39-1.46l-5,1.32,1.87,1.84a3,3,0,0,0,4.24-4.24Z"/><path d="M27.26,193.89a126.84,126.84,0,0,1,23.58-2.24c3.86,0,3.86-6,0-6a134.73,134.73,0,0,0-25.18,2.46,3,3,0,0,0-2.09,3.69,3.06,3.06,0,0,0,3.69,2.09Z"/><path d="M62.26,121.28l.35,36.23a3.06,3.06,0,0,0,3.8,2.9,178.68,178.68,0,0,1,32.26-2.34c3.86.06,3.86-5.94,0-6a188.28,188.28,0,0,0-33.86,2.55l3.8,2.89-.35-36.23c0-3.85-6-3.86-6,0Z"/><path d="M63.5,119.9a21,21,0,0,1-3.71,2.25c-.32.14-.33.15,0,0l-.51.2-1,.35a21.7,21.7,0,0,1-2.11.53c-.12,0-1.24.19-.55.1-.36.05-.72.08-1.08.1a19.64,19.64,0,0,1-2.17,0l-1.09-.08c-.35,0-.36,0,0,0l-.53-.08a19.24,19.24,0,0,1-2.12-.51A3,3,0,0,0,47,128.6a22.3,22.3,0,0,0,19.56-3.52c1.24-1,2-2.62,1.08-4.1-.79-1.22-2.78-2.1-4.11-1.08Z"/><path d="M67.44,125a8.37,8.37,0,0,0,0-7.7,10,10,0,0,0-5.67-4.86A15.6,15.6,0,0,0,53.9,112a28.49,28.49,0,0,0-7.85,2.53A3,3,0,0,0,45,118.62a3.07,3.07,0,0,0,4.1,1.07l.72-.33c.19-.08.19-.08,0,0l.29-.11c.49-.19,1-.38,1.49-.54a25,25,0,0,1,3.06-.79l.56-.1c.87-.15-.32,0,.19,0s.94-.09,1.42-.1a13.54,13.54,0,0,1,1.42,0c.13,0,.73.14.17,0,.23.05.46.09.68.15a7.24,7.24,0,0,1,1.2.37c-.5-.21.07.06.16.11a6.59,6.59,0,0,1,.57.34c.59.36-.21-.25,0,0s.29.27.43.42.47.58.22.24.17.28.18.29c.1.17.18.35.28.52.21.33-.18-.63,0,.05,0,.15.1.29.14.44s0,.79,0,.12c0,.15,0,.3,0,.46s-.1.71,0,.28-.07.17-.09.27c-.12.58.25-.45-.06.13a3,3,0,1,0,5.18,3Z"/><path d="M41.79,131.78a180.85,180.85,0,0,0-1.2,21.45c0,1.73,0,3.46.1,5.19s-.17,3.88.68,5.46a4.79,4.79,0,0,0,3.81,2.63,3.38,3.38,0,0,0,3.48-3.45,3,3,0,0,0-6,0l0-.44.77-1.33-.1.09,1.32-.77a3,3,0,0,1,1.85.29,2,2,0,0,1,.23.42,7.83,7.83,0,0,0,0-1.42c-.05-1.32-.09-2.63-.12-4q-.07-4.08,0-8.15.21-8,1.14-16c.19-1.61-1.51-3-3-3a3.07,3.07,0,0,0-3,3Z"/><path d="M84.42,169.72l-34.6.17c-3.86,0-3.87,6,0,6l34.6-.17c3.86,0,3.87-6,0-6Z"/><path d="M203.66,91.2c.26-3.59-4.17-5.56-7-3.86-2.45,1.46-3.6,4.67-4.86,7.09a108.7,108.7,0,0,0-7.39,16.71,47.74,47.74,0,0,0,10.24,48c2.64,2.83,6.88-1.42,4.25-4.24a41.88,41.88,0,0,1-10.71-22.65c-1.33-9.43,1.12-18.63,5-27.18,1.2-2.63,2.51-5.2,3.85-7.77.64-1.21,1.27-2.42,1.92-3.62.08-.15.66-1.23.74-1.16l0,0a.69.69,0,0,1-.65.19,1.53,1.53,0,0,1-1.37-1.48,3,3,0,1,0,6,0Z"/><path d="M230.8,77.09a3.34,3.34,0,0,0,4.93-2.21,3.54,3.54,0,0,0-3.57-4.39c-2.06.09-3.25,1.7-4.09,3.38s-1.55,3.29-2.24,5A71,71,0,0,0,221,98.5c-1.37,12.94.74,27,7.09,38.48,3.44,6.2,8.36,11.33,15,14.08l.8-5.89-2.67-.15a3,3,0,0,0,0,6l2.67.15a3,3,0,0,0,2.94-2.6,3.07,3.07,0,0,0-2.15-3.29c-8.5-3.55-13.11-13.26-15.54-21.73A65.23,65.23,0,0,1,228,92.17a66.89,66.89,0,0,1,2.42-8.57c.48-1.36,1-2.7,1.58-4,.29-.65.59-1.29.9-1.93.15-.32.31-.63.47-1s.19-.38.29-.57c.55-.82,0-.72-1.78.31l-1.33-.77.12.14-.77-1.32.61-2.07,1.32-.78-.14,0L234,72l-.16-.08A3.09,3.09,0,0,0,229.72,73a3,3,0,0,0,1.08,4.11Z"/><path d="M50.73,53.6c-.84.41-.25.11,0,0-.92.21-.15,0,.13,0l.62,0c-.85,0,.15,0,.35.08a14.93,14.93,0,0,1,1.74.48l1.06.38c.08,0,.81.34.35.14a30.92,30.92,0,0,1,4,2.07c.56.35,1.11.71,1.65,1.1l.43.31c-.26-.2-.26-.2,0,0l.64.55c.19.17.38.35.56.54s.64.87.16.13a13.06,13.06,0,0,1,.91,1.69,29.34,29.34,0,0,1,1.86,5.54,32.53,32.53,0,0,1,.64,11.84,3.1,3.1,0,0,0,2.09,3.69c1.4.38,3.48-.48,3.7-2.1,1-7.78.12-15.93-3.57-22.95-1.1-2.1-3.15-3.62-5.07-4.91a33.16,33.16,0,0,0-7.24-3.63c-2.56-.93-5.48-1.52-8-.25a3,3,0,0,0-1.08,4.1,3.07,3.07,0,0,0,4.11,1.08Z"/><path d="M90.34,47.86c-14.06,2.44-25.76,17.73-23.94,32a3.1,3.1,0,0,0,3,3c1.46,0,3.2-1.39,3-3-1.51-11.8,7.78-24.16,19.54-26.2A3,3,0,0,0,94,50a3.07,3.07,0,0,0-3.69-2.1Z"/><path d="M90.62,47.83a6.55,6.55,0,0,1-.89.27,4,4,0,0,1-.48.09c.38,0,.39,0,0,0a17.39,17.39,0,0,1-1.91,0c-.29,0-.57,0-.86-.08.63.07-.51-.09-.62-.12A16,16,0,0,1,84,47.49c-.12,0-1.14-.48-.54-.19L82.76,47c-.28-.15-.54-.33-.8-.5.48.33-.52-.42-.62-.5a31.17,31.17,0,0,1-3.52-3.47,13.62,13.62,0,0,1-1.22-1.61,6.63,6.63,0,0,0-.69-1.13c.3,0,.36,1,.25.57-.2-.68-.47-1.35-.7-2l-.87-2.62-.33-1c-.14-.44-.17-1.15-.07.18a3.08,3.08,0,0,0-3-3,3,3,0,0,0-3,3,16.62,16.62,0,0,0,1.14,4,28.52,28.52,0,0,0,1.39,3.92,25,25,0,0,0,5.86,7,16.53,16.53,0,0,0,6.88,3.85,15.33,15.33,0,0,0,8.75,0,3.08,3.08,0,0,0,2.1-3.69,3,3,0,0,0-3.69-2.1Z"/><path d="M50.21,53.23c2.75.14,5.51-1,7.94-2.14a35.73,35.73,0,0,0,7.15-4.57,32.31,32.31,0,0,0,6.43-7.32c1.68-2.57,3.09-5.73,2.79-8.88a3.08,3.08,0,0,0-3-3,3,3,0,0,0-3,3,7.14,7.14,0,0,1,0,.8c0,.18,0,.36,0,.54,0-.29,0-.33,0-.11a12.47,12.47,0,0,1-.5,1.84c-.18.54.1-.12-.18.45-.15.29-.29.58-.45.87-.33.6-.69,1.19-1.07,1.76a30,30,0,0,1-5.3,5.81c-.62.53.49-.35-.2.16l-.65.47c-.47.33-.94.65-1.42,1a36.52,36.52,0,0,1-3.4,1.91l-.81.37c-.56.27.28-.08-.35.16s-1,.39-1.57.55-1,.25-1.48.36.55,0-.23,0c-.25,0-.49,0-.74,0a3,3,0,0,0-3,3,3.06,3.06,0,0,0,3,3Z"/><path d="M136,24.09c-3,10.19-.64,21.21,4.42,30.34,1.75,3.15,3.78,6.06,6.88,8,4.75,3,11,3.87,16.53,3.76A40.25,40.25,0,0,0,183,60.87a3,3,0,0,0,1.22-3.75,3.05,3.05,0,0,0-3.54-1.74,17.89,17.89,0,0,1-2.62.15c-.43,0-.87,0-1.3-.08-1-.11.27,0-.31-.05l-.78-.15a12.27,12.27,0,0,1-4.79-2.06,19,19,0,0,1-3.8-3.54,7,7,0,0,1-.62-.81c-.26-.36-.5-.72-.74-1.1A27.29,27.29,0,0,1,164.15,45a33,33,0,0,1-3.07-11.48c-.06-1-.09-1.93-.06-2.9,0-.5,0-1,.07-1.51l.06-.66c.11-1-.09.54.07-.5a22.41,22.41,0,0,1,.57-2.68c.13-.45.27-.91.43-1.35a10.91,10.91,0,0,1,.4-1,18.61,18.61,0,0,1,1.53-2.67,13.31,13.31,0,0,1,1.74-1.95,14.6,14.6,0,0,1,5.18-3,3.08,3.08,0,0,0,2.21-2.89,3,3,0,0,0-2.21-2.89C164.3,8,157,6.55,150.18,8.76c-5.57,1.82-10.56,5.92-12.05,11.77-1,3.74,4.83,5.33,5.78,1.59a9.42,9.42,0,0,1,3.14-4.94,14.41,14.41,0,0,1,5.41-2.84c5.56-1.59,11.51-.25,17,.89V9.45a20.2,20.2,0,0,0-11.18,8.74A25.87,25.87,0,0,0,155,31.75c.14,9.63,4,20.13,12,26a20,20,0,0,0,15.31,3.42L180,55.69A33.48,33.48,0,0,1,165.9,60.1c-4.65.36-10,0-14.24-2.07A11.36,11.36,0,0,1,147.8,55c.4.48.21.27,0-.06s-.34-.48-.5-.73c-.42-.61-.81-1.23-1.18-1.87a39.35,39.35,0,0,1-4.4-10.59,30,30,0,0,1,.06-16c1.1-3.71-4.69-5.29-5.79-1.59Z"/><path d="M365.4,165.05c.11-.86,0,.22-.07.38s-.09.51-.14.76c-.12.6-.26,1.2-.4,1.79-.34,1.39-.74,2.75-1.17,4.11s-.91,2.75-1.43,4.11-.82,2.14-1.41,3.43a35,35,0,0,1-1.62,3.17c-.26.44-.56.86-.83,1.29s.44-.38,0,0c-.12.1-.21.24-.32.35-2.35,2.24-6.07,3.05-9.11,3.81-2.05.52-2.54,2.7-1.79,4.41l.87,2c.65,1.48,2.83,1.82,4.11,1.07a3.06,3.06,0,0,0,1.07-4.1l-.87-2L350.52,194c4-1,8.38-2.3,11.54-5.17a18.12,18.12,0,0,0,3.77-5.92,61.24,61.24,0,0,0,5.57-17.88c.2-1.61-1.52-3-3-3a3.08,3.08,0,0,0-3,3Z"/><path d="M351.32,189.41l-3.05,1.88c-2.8,1.72-1,6.61,2.31,5.48l.65-.19.31-.06c.52-.13.31.18-.3,0a9,9,0,0,0,1.64,0c.15,0,.72.08.06,0s0,0,.13,0c.33.08.65.15,1,.26l.45.15c.67.21-.61-.32-.1,0,.34.19.7.35,1,.55s1.23.93.5.3c.35.31.71.6,1.05.93s.71.74,1,1.13c.15.17.6.81.11.12.19.26.39.52.57.8a24.09,24.09,0,0,1,1.91,3.4c.16.34.32.69.47,1-.25-.58.15.39.2.52.31.81.6,1.63.86,2.46a72.47,72.47,0,0,1,2.82,14.6,3.09,3.09,0,0,0,3,3,3,3,0,0,0,3-3c-.85-8.28-2.18-17.36-6.74-24.54-2.29-3.6-5.71-6.87-10.08-7.55A11,11,0,0,0,349,191l2.31,5.49,3.05-1.88c3.28-2,.27-7.21-3-5.18Z"/><path d="M375.31,167.26a3.36,3.36,0,0,0-5.64-1.47,4.82,4.82,0,0,0-1.19,4.9,41.3,41.3,0,0,0,2.57,7.08c2.17,4.86,5.07,10,9.16,13.46,2.12,1.82,4.69,3.33,7.58,3.21l-.79-5.89a29.53,29.53,0,0,0-17.11,13.79A41.32,41.32,0,0,0,365,222.75c0,3.86,6,3.87,6,0a35.05,35.05,0,0,1,4-17.1,23.23,23.23,0,0,1,13.67-11.32c3.13-1,2.7-6-.8-5.89-.24,0-.48,0-.72,0s-.14,0,.28,0a3,3,0,0,1-.41-.09l-.62-.19c-.57-.16.43.3-.12-.06-.4-.26-.84-.46-1.23-.74l-.41-.29q.35.27.09.06l-.6-.53a23.76,23.76,0,0,1-2.46-2.65q-.33-.42-.09-.12l-.28-.38-.55-.77c-.39-.57-.78-1.15-1.14-1.74-.72-1.14-1.38-2.32-2-3.52-.31-.61-.62-1.23-.91-1.85l-.39-.85c0-.05-.37-.86-.18-.4-.47-1.12-.89-2.26-1.26-3.41-.15-.47-.29-.93-.42-1.41a3.63,3.63,0,0,0-.16-.65c-.1-.49-.12-.27-.07.68a1.48,1.48,0,0,1-1.23,1.07h-1.59l.14,0-1.33-.77.11.11-.77-1.33.06.2c1.1,3.69,6.89,2.12,5.78-1.6Z"/><path d="M360,75.74c-10.18,14-21.82,26.91-28.56,43a3,3,0,0,0,1.38,3.39,3.07,3.07,0,0,0,3.63-.47c6.65-6.11,12.21-13.23,18.05-20.08q9.5-11.15,19-22.25a3.07,3.07,0,0,0,0-4.24,3,3,0,0,0-4.24,0c-6.34,7.42-12.71,14.82-19,22.25-5.83,6.85-11.4,14-18,20.08l5,2.92c6.49-15.52,18.14-28.15,28-41.58a3,3,0,0,0-1.08-4.1,3.06,3.06,0,0,0-4.1,1.07Z"/><path d="M347.68,68.13c-3.62,6.2-8.39,11.54-12.89,17.09-4.76,5.89-9.08,12-11.69,19.19a3,3,0,0,0,.78,2.92c.11.12.23.35-.06-.1.25.39.28,1,.18,0,.25,2.47,3.14,4.1,5.12,2.12C339.19,99.24,348.25,88.21,358,77.8c2.64-2.81-1.6-7.06-4.24-4.24C344,84,334.94,95,324.88,105.09l5.12,2.12a6.73,6.73,0,0,0-1.88-4.12l.77,2.92c4.89-13.48,16.87-22.68,24-34.85,2-3.34-3.23-6.36-5.18-3Z"/><path d="M338.36,54A468.28,468.28,0,0,0,312,94c-1.06,1.8.27,4.75,2.59,4.51,7.13-.74,11.64-6.43,15.65-11.79,4.56-6.1,9.75-13,14.76-19.36a3.11,3.11,0,0,0,0-4.24c-1-1-3.24-1.29-4.25,0q-7.46,9.56-14.72,19.27a56.92,56.92,0,0,1-5.36,6.54,14.19,14.19,0,0,1-3.06,2.46,8.58,8.58,0,0,1-1.32.67,8.75,8.75,0,0,1-.91.28c-.12,0-1.19.21-.79.17L317.22,97a469.7,469.7,0,0,1,26.32-39.95,3,3,0,0,0-1.08-4.1,3.05,3.05,0,0,0-4.1,1.07Z"/><path d="M338.71,37.58a75.17,75.17,0,0,0-18,27.08c-1.08,2.8,3.1,5.1,5,2.92,5.71-6.49,11.09-13.29,17.41-19.21,2.83-2.65-1.42-6.89-4.24-4.25-6.32,5.93-11.7,12.73-17.42,19.22l5,2.92A68.28,68.28,0,0,1,343,41.82c2.79-2.68-1.46-6.92-4.24-4.24Z"/><path d="M380.55,71.24l3.31-1.51-4.51-2.59a24.52,24.52,0,0,1-2.57,13.23,127.47,127.47,0,0,1-7.73,12.43q-8.26,12.49-17.24,24.49c-1.65,2.2-3.31,4.4-5,6.57-1.82,2.35-3.81,5.26-1.92,8.2a3,3,0,0,0,4.71.61l34.37-37-5.12-2.12c.69,6.48-3.58,11.89-7.71,16.4-4.54,5-9.35,9.86-11.42,16.43a3.06,3.06,0,0,0,1.38,3.39,3.14,3.14,0,0,0,3.64-.47l1.79-1.46a3,3,0,0,0,0-4.24,3.07,3.07,0,0,0-4.25,0l-1.79,1.46,5,2.92c1.95-6.18,7.11-10.58,11.25-15.31,4.59-5.25,8.86-11.82,8.09-19.12A3.06,3.06,0,0,0,383,90.85a3,3,0,0,0-3.28.62l-34.37,37,4.71.61c.26.4-.33.91.19.21.23-.31.41-.65.65-.95.81-1.1,1.67-2.16,2.5-3.25q2.23-2.92,4.44-5.88,4.32-5.81,8.48-11.75t8.29-12.18a118.49,118.49,0,0,0,7.44-12,30.32,30.32,0,0,0,3.29-16.06,3,3,0,0,0-4.51-2.59l-3.32,1.51a3,3,0,0,0-1.07,4.1,3.06,3.06,0,0,0,4.1,1.08Z"/></svg>