<svg id="Layer_1" data-name="Layer 1" xmlns="http://www.w3.org/2000/svg" viewBox="0 0 555.98 324"><defs><style>.cls-1{fill:#fe3b1f;}.cls-2{fill:#fff;}</style></defs><path class="cls-1" d="M314.58,215.51l-23.05-53.69H266.65l-12-28.06h24.88L223.63,3.7h34.54l90.94,211.81Z"/><path class="cls-2" d="M271.16,287.35c0,11.49-5.32,20.08-22.13,20.08-17.06,0-22.14-8.83-22.14-20.08V237.88H208V291.7c0,21.29,14,32.3,41,32.3s41.12-11.25,41.12-32.9V237.88h-19ZM114.45,253.48h32.3v68.71h19.11V253.48h32.42v-15.6H114.45ZM71.5,270.29C55.9,267.51,50,265.45,50,259.53s5.2-9.2,14.64-9.2c10.64,0,20.44,3.75,26.85,10.29l12.46-10.29c-10.16-9.91-21.77-14.27-38-14.27-21.29,0-35,9.31-35,25.28,0,19.48,17.54,23,35.8,25.89,16.09,2.66,22.38,4.84,22.38,11.61,0,7.26-6.17,10.89-18.14,10.89-13.31,0-23.71-5-27.95-15.24l-18.62,3.75C30,313.48,41.62,324,70.9,324,96.54,324,108,312.87,108,297,108,277,86.74,273.08,71.5,270.29Zm38.26-51.08C50.57,219.21,0,169,0,109.45S50.57,0,109.76,0c59.81,0,109.75,50,109.75,109.45S169.57,219.21,109.76,219.21Zm78-109.76c0-43.78-35.45-80.78-78-80.78-42.24,0-78,37-78,80.78,0,44.08,35.76,81.08,78,81.08C152.31,190.53,187.76,153.53,187.76,109.45ZM535,3.7H495.25L395.36,114.07V3.7H364.22V215.51h31.14v-62l30.82-33,75.54,95h39.15L448.08,99Zm-139.55,277c0,26.85-16.21,41.49-45.6,41.49H307.41V237.88h42.7C378.78,237.88,395.47,253.36,395.47,280.7Zm-19.23-.49c0-20.92-14.15-26.73-28.43-26.73H326.53v53.1h19.71C355.8,306.58,376.24,304.53,376.24,280.21Zm164.7-.12c0,26.73-18.63,43.91-49.36,43.91s-49.23-17.3-49.23-43.91,18.51-44,49.23-44C522.67,236.06,540.94,253.24,540.94,280.09Zm-19.11,0c0-17.42-10.65-28.43-30.25-28.43s-30.36,11-30.36,28.43,10.89,28.31,30.36,28.31S521.83,297.39,521.83,280.09Zm-112.31,42.1h19.11V237.88H409.52Z"/></svg>