<svg id="Layer_1" data-name="Layer 1" xmlns="http://www.w3.org/2000/svg" viewBox="0 0 294.89 130.54"><path d="M65.27,130.54a65.27,65.27,0,1,1,65.27-65.27h0A65.34,65.34,0,0,1,65.27,130.54ZM65.27.66a64.61,64.61,0,1,0,64.61,64.61A64.61,64.61,0,0,0,65.27.66Zm0,125.81a61.2,61.2,0,1,1,61.18-61.22v0A61.25,61.25,0,0,1,65.27,126.47Zm0-121.73A60.54,60.54,0,1,0,125.8,65.29v0A60.61,60.61,0,0,0,65.27,4.74ZM32.45,61.91a18.05,18.05,0,0,1,12,6.83A19.52,19.52,0,0,1,49,81.56c0,5.67-1.57,10.56-4.71,14.19A16,16,0,0,1,32,100.94a14.07,14.07,0,0,1-10-3.76,11.84,11.84,0,0,1-3.81-8.63,6.43,6.43,0,0,1,1.51-4.36,4.75,4.75,0,0,1,3.74-1.76,5.3,5.3,0,0,1,3.84,1.43,5,5,0,0,1,1.46,3.71q0,3-3.41,5.09c-1.05.65-1.57,1.16-1.57,1.52A6,6,0,0,0,26,98.43,8.83,8.83,0,0,0,31,100.08c3.15.06,5.83-1.25,7.09-3.76S40,89.76,40,83.57C40,70,35.93,62.18,27.74,62.18H25v-.7h1.57c8,0,12.07-5.29,12.07-14.89,0-5.63-.47-10.27-1.62-12.86a6.13,6.13,0,0,0-6-3.92,7.42,7.42,0,0,0-4.54,1.62,6.07,6.07,0,0,0-2.08,4.13c0,.36.45.77,1.35,1.24a7.26,7.26,0,0,1,2.44,2,5,5,0,0,1,.65,2.76,4.73,4.73,0,0,1-1.38,3.52,5,5,0,0,1-3.6,1.36,4.79,4.79,0,0,1-3.65-1.52,5.35,5.35,0,0,1-1.44-3.84,11.54,11.54,0,0,1,3.84-8.42A14.42,14.42,0,0,1,33.14,28.9c4.09.1,7.84,1.24,10.42,4.22a17.25,17.25,0,0,1,3.87,11.53,17,17,0,0,1-3.79,11.2c-2.53,3.07-6.24,4.9-11.15,6.06Zm28.73,0q3.79-4.56,8.18-4.55c3.46,0,6.49,1.68,9.09,5.52s3.9,8.86,3.9,14.56c0,6.71-1.46,12.55-4.39,17s-6.53,6.47-10.82,6.47c-4.51,0-8.2-2.4-11.07-7.68s-4.3-12.49-4.3-21.12q0-16.34,6.36-27.92A31.22,31.22,0,0,1,76.67,28.77v.8C67,34.33,61.76,45.69,61,61.68ZM73.36,92.07V66.51A9.9,9.9,0,0,0,72,61.09,4.23,4.23,0,0,0,68.27,59a7.13,7.13,0,0,0-5.33,2.39,8.69,8.69,0,0,0-2.24,6.22V92.07a8.24,8.24,0,0,0,1.95,5.82,5.36,5.36,0,0,0,7.42,1.53A5.24,5.24,0,0,0,71.55,98a8.55,8.55,0,0,0,1.81-5.9ZM100.27,28.9c4.9,0,8.65,2.87,11.23,9.12s3.87,15.42,3.87,27-1.29,20.72-3.87,26.92S105.17,101,100.27,101s-8.64-2.86-11.21-9.07S85.22,76.6,85.22,65s1.28-20.8,3.84-27S95.36,28.9,100.27,28.9Zm6.11,58.2V42.91q0-13.32-6.11-13.32T94.15,42.91V87.1q0,13.31,6.12,13.31t6.11-13.31Zm47.15-1.83h7.41V86.5H139.65V85.27h5.55V59.35h-5.55V58.12h5.55V54.91a16.22,16.22,0,0,1,1.87-7.81,14,14,0,0,1,5.23-5.47,14.85,14.85,0,0,1,7.83-2,9.54,9.54,0,0,1,4.57,1,7.68,7.68,0,0,1,2.93,2.64,6.18,6.18,0,0,1,1,3.37,5,5,0,0,1-1.34,3.7,4.57,4.57,0,0,1-3.41,1.35,5.79,5.79,0,0,1-3.43-1.12,3.92,3.92,0,0,1-1.57-3.44,4.53,4.53,0,0,1,1.43-3.52,4.91,4.91,0,0,1,3.38-1.29,5.69,5.69,0,0,1,1.73.37,9.5,9.5,0,0,0-1.76-1.18,6.72,6.72,0,0,0-3.24-.67,5.47,5.47,0,0,0-5.3,3.23c-1.07,2.15-1.61,5.19-1.61,9.1v4.94H166.1a5.13,5.13,0,0,0-1.85,1.23H153.53ZM220,64a5.63,5.63,0,0,1-1.33,3.72,4.68,4.68,0,0,1-3.79,1.59,5.41,5.41,0,0,1-3.7-1.31,4.61,4.61,0,0,1-1.48-3.63,4.52,4.52,0,0,1,1.69-3.66,6.17,6.17,0,0,1,4.05-1.4,3.16,3.16,0,0,0-1.26-.4,10.81,10.81,0,0,0-1.39-.09,5.46,5.46,0,0,0-3.69,1.29,9.1,9.1,0,0,0-2.37,3.38,19.74,19.74,0,0,0-1.27,4.52,29.48,29.48,0,0,0-.39,4.69V85.27h4.32V86.5H190.69a14.57,14.57,0,0,1-3.77.62,10,10,0,0,1-5-1.24,4.41,4.41,0,0,1-2.17-4.19V81.1c-1.53,4-4.73,6-9.63,6a8.66,8.66,0,0,1-6-2.09,7,7,0,0,1-2.34-5.5A7.9,7.9,0,0,1,165.25,73q3.48-2.62,10-2.62h4.45V67.66a17.64,17.64,0,0,0-.51-4.34,6.19,6.19,0,0,0-1.77-3.13A5.15,5.15,0,0,0,173.83,59a9.45,9.45,0,0,0-2.59.29,5.65,5.65,0,0,0-1.66.75,6.52,6.52,0,0,1,1.85.46,4.12,4.12,0,0,1,1.7,1.25,3.51,3.51,0,0,1,.7,2.3,3.78,3.78,0,0,1-1.66,3.27,6,6,0,0,1-3.52,1.18,4.9,4.9,0,0,1-3.41-1.21,4,4,0,0,1-1.34-3.11,4.57,4.57,0,0,1,1.6-3.46,10.79,10.79,0,0,1,4.24-2.31,19.07,19.07,0,0,1,5.76-.83A18.6,18.6,0,0,1,183.37,59a7.85,7.85,0,0,1,3.87,3.63,11.59,11.59,0,0,1,1.09,5.08V82.53a2.14,2.14,0,0,0,.59,1.54,2.19,2.19,0,0,0,1.7.62A2.85,2.85,0,0,0,193.41,82h1.26A3.58,3.58,0,0,1,193,85.25h3.43V59.35h-4.32V58.12h13v6.26a11.58,11.58,0,0,1,2.72-4.93,7.76,7.76,0,0,1,8.62-1.13A6.94,6.94,0,0,1,219,60.6,6,6,0,0,1,220,64Zm-40.25,7.59h-2.26a5.77,5.77,0,0,0-4.56,2,7.15,7.15,0,0,0-1.73,4.86,7.82,7.82,0,0,0,.8,3.68,2.79,2.79,0,0,0,2.65,1.5,4.15,4.15,0,0,0,2.33-.78,5.86,5.86,0,0,0,2-2.61,12.43,12.43,0,0,0,.81-4.94Zm113.86,1a9.87,9.87,0,0,0-3.45-3,24,24,0,0,0-4.47-1.86c-1.58-.48-3.07-.93-4.47-1.33a14.71,14.71,0,0,1-3.44-1.4,2.37,2.37,0,0,1-1.34-2.11,3.2,3.2,0,0,1,.93-2.43,5.36,5.36,0,0,1,2.21-1.26,8.08,8.08,0,0,1,2.29-.38A8.66,8.66,0,0,1,286.25,60a11.7,11.7,0,0,1,3.27,2.8,16.57,16.57,0,0,1,2.12,3.3h1.23V57.44h-.93l-3.12,2.69a11.05,11.05,0,0,0-3.09-1.9,10.51,10.51,0,0,0-4-.73,10.29,10.29,0,0,0-5.07,1.21,9.19,9.19,0,0,0-3.2,12.6h0a9.62,9.62,0,0,0,3.34,3,23.27,23.27,0,0,0,4.35,2l4.3,1.3a12.65,12.65,0,0,1,3.33,1.5,2.73,2.73,0,0,1,1.29,2.37,3.22,3.22,0,0,1-1,2.52,6.31,6.31,0,0,1-2.64,1.37,12.72,12.72,0,0,1-3.3.43,9.22,9.22,0,0,1-6-2.3,16.06,16.06,0,0,1-4.38-5.91h-1.3v7.72H267.2V66.82a10.82,10.82,0,0,0-2-6.67c-1.32-1.76-3.47-2.65-6.47-2.65q-4.25,0-6.34,2.16a11.69,11.69,0,0,0-2.9,5.15,9.08,9.08,0,0,0-2.25-5.27c-1.25-1.36-3.17-2-5.78-2a8.34,8.34,0,0,0-6.35,2.3A13.12,13.12,0,0,0,232,65.29V58.16H219v1.23h4.43V85.27h-4.32V86.5h16.12V85.27H232V72.74a23.43,23.43,0,0,1,.76-6.07,13.78,13.78,0,0,1,2.12-4.74,4,4,0,0,1,3.23-1.84,2.23,2.23,0,0,1,2.3,1.76A21.46,21.46,0,0,1,241,67.5V85.27h-3.27V86.5h15.17V85.27h-3.27V72.74a28.77,28.77,0,0,1,.64-6.07,13.19,13.19,0,0,1,1.93-4.74,3.85,3.85,0,0,1,3.23-1.84,2.49,2.49,0,0,1,2.45,1.76,16.38,16.38,0,0,1,.7,5.65V85.27h-3.21V86.5h17l3.19-2.41a11.51,11.51,0,0,0,3.63,2.23,12.51,12.51,0,0,0,4.53.8A13.49,13.49,0,0,0,289.1,86a9.84,9.84,0,0,0,4.17-3.24,8.69,8.69,0,0,0,1.61-5.36,7.92,7.92,0,0,0-1.31-4.75Z"/></svg>