<svg xmlns="http://www.w3.org/2000/svg" viewBox="0 0 175.29 72"><g id="Layer_2" data-name="Layer 2"><g id="Layer_1-2" data-name="Layer 1"><path d="M5.75,23.4H5v6.91H7.19c2.81,0,4.13-1.58,4.43-4h.29v4.24H0v-.26H1.85V16.71H0v-.26H11.71v3.86h-.29a3.89,3.89,0,0,0-4-3.6H5v6.42h.74A2.61,2.61,0,0,0,8.22,21H8.5v4.61H8.22A2.71,2.71,0,0,0,5.75,23.4ZM17,30.57v-.26h1.85V16.71H17v-.26h6.86v.26H22v13.6h2.12c3,0,4.13-1.58,4.44-4h.28v4.24Zm16.74,0v-.26h1.85V16.71H33.72v-.26h6.57c4.89,0,7.81,2.86,7.81,7.06S45,30.57,40.29,30.57Zm5-13.86v13.6h1.56c3.16,0,4.19-3.09,4.19-6.8s-1.23-6.8-4.19-6.8Zm20,6.69H58v6.91h2.18c2.81,0,4.13-1.58,4.43-4h.29v4.24H53v-.26h1.85V16.71H53v-.26H64.67v3.86h-.29a3.89,3.89,0,0,0-4-3.6H58v6.42h.74A2.59,2.59,0,0,0,61.17,21h.29v4.61h-.29A2.69,2.69,0,0,0,58.71,23.4ZM72,30.31V16.71H69.94v-.26h7.19c3.41,0,5.75,1,5.75,3.48,0,2.19-1.68,3.2-4.6,3.39,4.2,0,4.77,4.22,6.07,6.87a6.58,6.58,0,0,0,5.92,3.65h0v.26H86.82c-7.57,0-5.25-10.65-10.31-10.65H75.16v6.86h2v.26H69.94v-.26Zm3.16-13.6v6.48H76.6c2,0,3-1,3-3.26s-1-3.22-3-3.22Zm14,13.86v-.26H91V16.71H89.18v-.26h7c3.41,0,5.54,1,5.54,3.48,0,2-1.33,3.05-3.86,3.37,2.59.23,4.48,1.23,4.48,3.5,0,2.73-2.14,3.77-5.75,3.77Zm5-13.86v6.48h1.57c1.45,0,2.67-.83,2.67-3.07s-1.22-3.41-2.67-3.41Zm0,6.74v6.86H96c1.66,0,2.88-1.45,2.88-3.69S97.62,23.45,96,23.45Zm18.75-.05h-.74v6.91h2.18c2.81,0,4.13-1.58,4.44-4h.28v4.24H107.19v-.26H109V16.71h-1.85v-.26H118.9v3.86h-.29a3.89,3.89,0,0,0-4-3.6H112.2v6.42h.74A2.61,2.61,0,0,0,115.41,21h.29v4.61h-.29A2.71,2.71,0,0,0,112.94,23.4Zm13.29,6.91V16.71h-2.06v-.26h7.19c3.41,0,5.75,1,5.75,3.48,0,2.19-1.68,3.2-4.6,3.39,6.78.08,2.69,7,5.3,7h.74v.26h-2.26c-5.4,0-.49-7.12-5.54-7.12h-1.36v6.86h2.06v.26h-7.28v-.26Zm3.16-13.6v6.48h1.44c2,0,3-1,3-3.26s-1-3.22-3-3.22Zm16.08,13.6V16.71h-2.05v-.26h7.18c3.41,0,5.75,1,5.75,3.48,0,2.19-1.68,3.18-4.6,3.39,6.68,0,2.65,7,5.18,7a2.92,2.92,0,0,0,1.07-.23l.08.26a6.54,6.54,0,0,1-2.46.38c-5.61,0-.5-7.27-5.55-7.27h-1.44v6.86h2.06v.26h-7.27v-.26Zm3.16-13.6v6.48h1.44c2,0,3-1,3-3.26s-1-3.22-3-3.22Zm17.91,13.6V23.79L162,16.71h-1.44v-.26h7.19v.26h-2.05L169.58,23l3.72-6.29H171v-.26h4.31v.26h-1.64l-3.91,6.65v7h2.06v.26h-7.11v-.26Z"/><path d="M74.78,1H72.55V0h5.72V1H76V6.31H74.78ZM87.12,0V6.31H85.87V3.6H82.39V6.31H81.14V0h1.25V2.6h3.48V0Zm8.8,5.32v1H90.86V0h4.92V1H92.11V2.62h3.26v1H92.11V5.32Z"/><path d="M22,42,18.28,53.2H16.61l-3-9-3,9H8.85L5.14,42H6.77l3,9.12L12.9,42h1.46l3.06,9.17L20.48,42Zm4.59,0h1.59V53.2H26.58ZM43.7,42V53.2H42.4l-6.67-8.37V53.2H34.15V42h1.3l6.67,8.37V42Zm14,9.83V53.2H49.69V42h7.84v1.39H51.27v3.45h5.57v1.36H51.27v3.63ZM69,47.59a5.65,5.65,0,0,1,5.89-5.74,5.42,5.42,0,0,1,4.22,1.75l-1,1a4.08,4.08,0,0,0-3.13-1.34,4.32,4.32,0,1,0,0,8.63,4.12,4.12,0,0,0,3.13-1.34l1,1a5.47,5.47,0,0,1-4.23,1.76A5.65,5.65,0,0,1,69,47.59Zm13.89,0a5.91,5.91,0,1,1,5.92,5.74A5.67,5.67,0,0,1,82.87,47.59Zm10.22,0a4.32,4.32,0,1,0-4.3,4.31A4.19,4.19,0,0,0,93.09,47.59Zm17,5.61L110,45l-4,6.82h-.72l-4-6.77V53.2H99.76V42h1.3l4.63,7.89L110.26,42h1.3l0,11.22Zm16.47-7.31c0,2.44-1.75,3.91-4.63,3.91h-2.75v3.4h-1.59V42h4.34C124.78,42,126.53,43.45,126.53,45.89Zm-1.59,0c0-1.61-1.06-2.52-3.09-2.52h-2.7v5h2.7C123.88,48.41,124.94,47.49,124.94,45.89ZM138,50.4h-5.91l-1.22,2.8h-1.64l5-11.22h1.57l5,11.22h-1.66Zm-.56-1.29-2.4-5.5-2.39,5.5ZM154.78,42V53.2h-1.3l-6.67-8.37V53.2h-1.59V42h1.31l6.66,8.37V42ZM165,49.32V53.2h-1.57V49.29L159,42h1.7l3.55,5.91L167.86,42h1.57Z"/><path d="M64.27,66.42C78.44,72,89.82,62.28,104,71.77,91,68.36,74.4,77.24,64.27,66.42Z"/></g></g></svg>