<svg id="Layer_1" data-name="Layer 1" xmlns="http://www.w3.org/2000/svg" viewBox="0 0 216 216"><defs><style>.cls-1{fill:#a82f2c;}.cls-2{fill:#24223e;}</style></defs><rect class="cls-1" width="216" height="216"/><path class="cls-2" d="M92,201.46c11.42,4.53,20.61-3.38,32,4.35C113.5,203,100.15,210.27,92,201.46Z"/><path class="cls-2" d="M72.74,87.91l-7.85-4.53.48-.83,8.63,5A8.09,8.09,0,0,1,72.74,87.91ZM79.32,83l-8.91-7.48-.61.74,9,7.51C78.94,83.5,79.13,83.23,79.32,83Zm82.5,25A53.82,53.82,0,1,1,108,54.18,53.89,53.89,0,0,1,161.82,108Zm-1,0A52.86,52.86,0,1,0,108,160.86,52.92,52.92,0,0,0,160.86,108Zm-2.15,0a50.87,50.87,0,0,1-47.15,50.58l-.51,0,0-14.82c1.3-3.83,6.69-17.07,21.47-27.35l-1.08-1.57A61.26,61.26,0,0,0,114,133.21l-1.53,2.51.65-2.87c2-8.54,5.53-20.31,11.55-28.27l-1.51-1.16c-4,5.28-7.4,12.65-10.1,21.91l-.67,2.32-.26-2.4c-.5-4.53-1.3-9-2.08-13.18q-.23-1.26-.45-2.46l-1.87.34c.15.8.3,1.62.45,2.45,1.33,7.2,2.83,15.35,2.41,22.95l-.76,3.91-.52-2.13a90.48,90.48,0,0,0-8.48-22.32l-1.65,1a86.85,86.85,0,0,1,7.67,19.53l.79,3-1.66-2.56c-4.93-7.63-13.14-18.15-24.36-25.18l-1,1.63c15.41,9.66,25.23,26.61,27.89,31.6l.06.23,0,14.73H108A50.69,50.69,0,1,1,158.71,108Zm-1,0a49.41,49.41,0,0,0-6.45-24.45L143.59,88c-.29-.18-.6-.37-.94-.56l8.17-4.72a50.79,50.79,0,0,0-4.39-6.28l-9.28,7.79a3.54,3.54,0,0,1-.66-.7l9.31-7.81a49.53,49.53,0,0,0-5.41-5.43L133,79.12c-.23-.22-.46-.44-.71-.65l7.39-8.8a50.16,50.16,0,0,0-6.27-4.42l-5.85,10.14c-.29-.14-.57-.29-.87-.42l5.89-10.2a48.89,48.89,0,0,0-6.94-3.27l-4.33,11.92c-.33,0-.65-.09-1-.12l4.42-12.14a50,50,0,0,0-7.41-2l-2.58,14.6c-.34.09-.69.2-1,.32L116.37,59a50.71,50.71,0,0,0-7.65-.7v18a8.69,8.69,0,0,1-1,.28V58.27a49.71,49.71,0,0,0-7.67.63L102.75,74c-.32-.09-.66-.18-1-.25L99.15,59.07a48.81,48.81,0,0,0-7.45,2l4.48,12.3c-.33,0-.67,0-1,.06l-4.38-12a49.45,49.45,0,0,0-7,3.24l5.67,9.82-.94.29L83,65.05a49.67,49.67,0,0,0-6.34,4.39l6.7,8a9.09,9.09,0,0,0-.72.64l-6.72-8a49.7,49.7,0,0,0,31.63,87.67l0-13.65c-2.74-5.12-12.57-22-27.9-31.39l-.41-.25,2-3.26.41.25C92,115.81,99.89,125.13,105,132.61a80.32,80.32,0,0,0-7-16.79l-.24-.41,3.31-1.91.24.41a87.86,87.86,0,0,1,8.25,20.75c.3-7.27-1.15-15.13-2.44-22.09-.18-1-.35-2-.53-2.92l-.09-.48,3.75-.68.09.47c.18,1,.36,1.93.54,2.93.65,3.5,1.33,7.2,1.82,11,2.69-8.58,6-15.44,9.89-20.42l.29-.38,3,2.34-.29.38c-5.47,7-8.94,17.31-11,25.54a63.07,63.07,0,0,1,16.66-16.51l.4-.27,2.16,3.14-.39.27C118.75,127.05,113.35,140.14,112,144v13.54A49.9,49.9,0,0,0,157.75,108Zm-90.48.59a3.06,3.06,0,0,1-.85.12,3.16,3.16,0,0,1-.85-6.2,3.16,3.16,0,1,1,1.7,6.08Zm14.11-22a3.16,3.16,0,1,1,5.8.7,3.09,3.09,0,0,1-1.9,1.49,3.17,3.17,0,0,1-3.9-2.19Zm15.76,2.47A3.16,3.16,0,0,1,95,93a3,3,0,0,1-.85.12,3.17,3.17,0,0,1-3-2.31,3.1,3.1,0,0,1,.29-2.4,3.16,3.16,0,0,1,4.3-1.2A3.09,3.09,0,0,1,97.14,89.11ZM76.31,96.82a3.13,3.13,0,0,1-.86.12,3.09,3.09,0,0,1-1.54-.41,3.16,3.16,0,1,1,4.59-3.6,3.16,3.16,0,0,1-2.19,3.89ZM90.13,82.24A3.16,3.16,0,1,1,94,84.43a3.15,3.15,0,0,1-3.9-2.19ZM117,79.87a3.12,3.12,0,0,1,1.88-1.51,3.16,3.16,0,0,1,2.41.25,3.11,3.11,0,0,1,1.51,1.88,3.16,3.16,0,1,1-5.8-.62ZM71.18,96.49a3.17,3.17,0,0,1-3.05,4,3.09,3.09,0,0,1-1.54-.41,3.14,3.14,0,0,1-1.5-1.9,3.19,3.19,0,0,1,.29-2.4,3.17,3.17,0,0,1,5.8.7ZM77,104.91a3.14,3.14,0,0,1,1.5,1.9h0a3.16,3.16,0,0,1-2.19,3.89,3.12,3.12,0,0,1-.85.12,3.16,3.16,0,0,1-.86-6.2A3.1,3.1,0,0,1,77,104.91Zm41.38-6.16a3.1,3.1,0,0,1-.29,2.4,3.14,3.14,0,0,1-1.9,1.5,3.41,3.41,0,0,1-.85.11,3.22,3.22,0,0,1-1.55-.4,3.16,3.16,0,0,1,.7-5.8h0a3.15,3.15,0,0,1,2.4.29A3.18,3.18,0,0,1,118.38,98.75ZM131,97.36a3.09,3.09,0,0,1-.26,2.4,3.16,3.16,0,1,1-3.66-4.54,3.14,3.14,0,0,1,2.4.25A3.18,3.18,0,0,1,131,97.36Zm11.6,10.12a3.16,3.16,0,1,1,3.67,4.54,3.06,3.06,0,0,1-.9.13,3.12,3.12,0,0,1-1.51-.39A3.16,3.16,0,0,1,142.57,107.48ZM111.7,89a3.05,3.05,0,0,1-1.5-.39,3.14,3.14,0,1,1,1.5.39Zm11.89,2.32a3.21,3.21,0,0,1-.26,2.41,3.16,3.16,0,1,1-3.67-4.55,3.21,3.21,0,0,1,2.41.26A3.16,3.16,0,0,1,123.59,91.27Zm7.77-4.45a3.16,3.16,0,1,1-1.26-4.29A3.16,3.16,0,0,1,131.36,86.82Zm2,6.89a3.16,3.16,0,0,1,6.06-1.78,3.17,3.17,0,0,1-3,4,3.12,3.12,0,0,1-1.51-.39A3.08,3.08,0,0,1,133.34,93.71ZM153,102.93a3.19,3.19,0,0,1-1.88,1.52,3.5,3.5,0,0,1-.9.13,3.06,3.06,0,0,1-1.51-.39,3.15,3.15,0,0,1-1.26-4.28,3.1,3.1,0,0,1,1.88-1.52,3.14,3.14,0,0,1,2.4.25A3.17,3.17,0,0,1,153,102.93Zm-12.87-3.41a3.13,3.13,0,0,1,1.52,1.88,3.09,3.09,0,0,1-.26,2.4,3.13,3.13,0,0,1-1.88,1.52,3,3,0,0,1-.9.13,3.22,3.22,0,0,1-1.51-.38,3.16,3.16,0,1,1,3-5.55Zm.46,11.09a3.13,3.13,0,0,1-2.14,3.92,3,3,0,0,1-.89.13,3.22,3.22,0,0,1-1.51-.38,3.16,3.16,0,0,1-1.52-1.88,3.17,3.17,0,0,1,2.14-3.93,3.18,3.18,0,0,1,2.4.26A3.13,3.13,0,0,1,140.54,110.61ZM143,92.85a3.16,3.16,0,1,1,1.27,4.29A3.18,3.18,0,0,1,143,92.85ZM91.35,105.33a3.12,3.12,0,0,1-.85.12,3.25,3.25,0,0,1-1.55-.4,3.2,3.2,0,0,1-1.49-1.91,3.1,3.1,0,0,1,.29-2.4,3.16,3.16,0,1,1,3.6,4.59Zm8,3.68a3.19,3.19,0,0,1-.29,2.4,3.1,3.1,0,0,1-1.91,1.49,3,3,0,0,1-.84.12,3.16,3.16,0,0,1-.86-6.2,3.09,3.09,0,0,1,2.4.29A3.14,3.14,0,0,1,99.35,109ZM87.18,95.21a3.18,3.18,0,0,1-2.76,1.61,3.21,3.21,0,0,1-1.54-.4,3.15,3.15,0,0,1-1.5-1.91,3.15,3.15,0,0,1,2.2-3.89,3.11,3.11,0,0,1,2.4.29,3.18,3.18,0,0,1,1.49,1.9h0A3.14,3.14,0,0,1,87.18,95.21ZM83.12,100a3.16,3.16,0,0,1-2.19,3.89,3,3,0,0,1-.85.12,3.17,3.17,0,0,1-3-2.31,3.1,3.1,0,0,1,.29-2.4,3.16,3.16,0,0,1,5.79.7Zm19.65-14.56a3,3,0,0,1-.85.11,3.15,3.15,0,0,1-2.75-4.7,3.09,3.09,0,0,1,1.9-1.49,3.16,3.16,0,0,1,1.7,6.08ZM110.49,92a3.16,3.16,0,0,1-2.19,3.89,3.06,3.06,0,0,1-.85.12,3.17,3.17,0,0,1-3-2.31,3.1,3.1,0,0,1,.29-2.4,3.16,3.16,0,0,1,5.79.7Zm-8.14,5.43a3.15,3.15,0,0,1-2.2,3.89,3,3,0,0,1-.85.12,3.16,3.16,0,0,1-.85-6.2h0a3.15,3.15,0,0,1,3.9,2.19Zm8.14,5.37a3.17,3.17,0,0,1-3,4,3.17,3.17,0,0,1-3-2.31,3.1,3.1,0,0,1,.29-2.4,3.16,3.16,0,0,1,1.9-1.49,3.1,3.1,0,0,1,2.4.29A3.16,3.16,0,0,1,110.49,102.77Zm38.9,18.56.6,0-.09.59c-1.94,13.21-13.75,23.87-26.38,23.87h-.77l.08-.55A28.37,28.37,0,0,1,149.39,121.33Zm-.53,1A27.42,27.42,0,0,0,124,144l18.2-16.64.65.71-18.31,16.74C136.15,144.21,146.78,134.45,148.86,122.34Zm-80.14-1a28.38,28.38,0,0,1,26.5,23.47l.12.11-.08.1,0,.19.08.55h-.78c-12.63,0-24.44-10.66-26.38-23.87l-.09-.59Zm.53,1c2.09,12.19,12.84,22,24.51,22.44l-18.88-17,.64-.71,18.53,16.68A27.44,27.44,0,0,0,69.25,122.34Z"/></svg>