<svg id="Layer_1" data-name="Layer 1" xmlns="http://www.w3.org/2000/svg" viewBox="0 0 216 216"><defs><style>.cls-1{fill:#f4ae62;}.cls-2{fill:#a82f2c;}</style></defs><rect class="cls-1" width="216" height="216"/><path class="cls-2" d="M92,201.46c11.42,4.53,20.61-3.38,32,4.35C113.5,203,100.15,210.27,92,201.46Z"/><path class="cls-2" d="M132.53,60.09a53.82,53.82,0,1,0,23.38,72.44A53.89,53.89,0,0,0,132.53,60.09Zm22.52,72a52.86,52.86,0,1,1-23-71.14A52.91,52.91,0,0,1,155.05,132.09ZM131.11,62.86a50.71,50.71,0,1,0-25.88,95.77l0,0h.35a50.87,50.87,0,0,0,5.24,0H111a50.71,50.71,0,0,0,20.14-95.76Zm-28,89.78L90.51,140.89l2.35-.11,9.65,9.17,0-1.16a11.52,11.52,0,0,1,.71-3.79l1.21-3.17,1.61.68-1.18,3.08a9.7,9.7,0,0,0-.2,6.23l0,.15a9.77,9.77,0,0,0,2.22,3.76l.55.59.3-.75a13.38,13.38,0,0,1,4-5.41l12.18-9.95h2.74l-13.81,11.3a11.35,11.35,0,0,0-2.91,3.57l-.69,1.31,18.48-8.21a10,10,0,0,0,3.59-2.72l9-13.66.87,1.72-7.49,12,5.44,1.07L137.3,148l-5-1-.2.21a11.93,11.93,0,0,1-3.63,2.56l-17.65,7.83-5.3,0-17.56-7.85a11.76,11.76,0,0,1-3.63-2.56l-.2-.21-5,1-1.83-1.43,5.44-1.07L75.24,133.6l.82-1.8,9,13.7a9.83,9.83,0,0,0,3.55,2.68l15,6.67Zm33.22-3.75a50.09,50.09,0,0,1-22.59,8.53l15.1-6.71a12.63,12.63,0,0,0,3.75-2.58Zm-56.6.05,4-.81a12.51,12.51,0,0,0,3.75,2.58l15.09,6.75a49.59,49.59,0,0,1-17.27-5.18A50.8,50.8,0,0,1,79.75,148.94Zm72.53-18.27a49.44,49.44,0,0,1-11.93,15.12l-5-1,7-11.24-1.94-3.81-9.91,15.09a8.77,8.77,0,0,1-3.19,2.4l-15.59,6.92a10.12,10.12,0,0,1,1.77-1.87l16-13.12h-6L111.1,149.37a14.4,14.4,0,0,0-3.92,5.06,8.49,8.49,0,0,1-1.46-2.73c0-.07,0-.15-.06-.2a8.79,8.79,0,0,1,.18-5.55l1.54-4-3.5-1.48-1.59,4.17a12.43,12.43,0,0,0-.7,3l-8.34-7.91L88,140,102,153l-13-5.77a8.63,8.63,0,0,1-3.15-2.36l-10-15.2-1.82,4,7,11.14-5.31,1a49.76,49.76,0,0,1-12-60.52c.3-.59.62-1.17,1-1.74l9.64,5.57c.27-.25.54-.48.83-.71l-10-5.75a51,51,0,0,1,4.37-6.26l11.12,9.33c.41-.1.83-.2,1.25-.28L70.2,75.66a49.08,49.08,0,0,1,5.39-5.4l8,9.6a9.25,9.25,0,0,1,.51-1L76.37,69.6a49.45,49.45,0,0,1,6.25-4.38L88.3,75c.31-.14.63-.28,1-.39l-5.74-10a50.52,50.52,0,0,1,6.91-3.24l4.72,13a12.57,12.57,0,0,1,1.23.39l-5-13.69a49.31,49.31,0,0,1,7.38-2l1.93,10.93c.29-.25.6-.49.91-.71L99.77,58.94a48.5,48.5,0,0,1,7.62-.68v8.88c.34,0,.68-.06,1-.06V58.26a49.74,49.74,0,0,1,43.86,72.41ZM127.17,74.73l-.57-.12,5.73-9.92.89.51-5.59,9.67Zm-6.91.64c-.19-.39-.4-.75-.61-1.12l4.79-13.16,1,.35-5.06,13.9Zm12.09,2.73,7.13-8.5.79.66L133,79Q132.67,78.52,132.35,78.1Zm-17.1-8.81c-.3-.22-.62-.41-.93-.6L116,58.92l1,.18Zm25.9,19,9.56-5.51.51.88L142,88.93C141.75,88.69,141.46,88.47,141.15,88.25Zm-6.67-3.18,11.19-9.39.66.78-11.05,9.27-.84-.17C134.46,85.4,134.47,85.23,134.48,85.07Zm16.58,11.57-.29-.52-.44.41a28.36,28.36,0,0,0-6.12,35.18l.28.48.43-.34.17-.14C155,123.91,157.7,108.22,151.06,96.64Zm-5.75,33.66,4-24.47-.94-.16-4,24.33a27.42,27.42,0,0,1,6.15-32.35C156.39,108.45,154.06,122.7,145.31,130.3ZM65.91,96.53l-.44-.41-.3.52c-6.64,11.58-4,27.27,6,35.07l.18.14.43.34.28-.48A28.38,28.38,0,0,0,65.91,96.53ZM71.85,130l-4-24.33-1,.16,4,24.47c-8.76-7.6-11.08-21.85-5.22-32.65A27.41,27.41,0,0,1,71.85,130Zm40.07-27.54a6.64,6.64,0,1,1-7-.55A6.65,6.65,0,0,1,111.92,102.46ZM86,119.34c-2.28,1.16-5.07.82-6.47-.88s-.82-4.52,1.53-6a5.24,5.24,0,0,1,.51-.3c2.27-1.16,5.07-.82,6.47.88a3.45,3.45,0,0,1,.49.79l0-.07,5.32-1.69.29.92-5.31,1.7,0-.1A4.46,4.46,0,0,1,86.5,119Q86.25,119.21,86,119.34Zm16.82-4.43a5.29,5.29,0,0,0-3.18-1,10,10,0,0,0-4.43,1.2,18.63,18.63,0,0,0-6.26,5.54c-4.19,5.72-4.77,12.43-1.31,15a5.29,5.29,0,0,0,3.18,1,9.9,9.9,0,0,0,4.43-1.21,18.51,18.51,0,0,0,6.27-5.53,17.61,17.61,0,0,0,3.52-8.79C105.24,118.31,104.45,116.12,102.81,114.91Zm1.25,6.11a16.65,16.65,0,0,1-3.34,8.29,17.55,17.55,0,0,1-5.92,5.24,9,9,0,0,1-4,1.1,4.32,4.32,0,0,1-2.61-.79c-1.84-1.34-1.93-3.91-1.83-5.32a16.74,16.74,0,0,1,3.34-8.29A17.58,17.58,0,0,1,95.65,116a8.91,8.91,0,0,1,3.95-1.09,4.74,4.74,0,0,1,1.66.28l.58.21-5.74,7.84.79.58,5.74-7.85.38.5A6.85,6.85,0,0,1,104.06,121Zm22.88-.21c-3-4.13-7.18-6.81-10.7-6.81a5.47,5.47,0,0,0-2.52.57,4.78,4.78,0,0,0-.61.38c-1.66,1.19-2.46,3.38-2.27,6.16a17.75,17.75,0,0,0,3.46,8.82c3,4.13,7.19,6.8,10.7,6.8h0a5.44,5.44,0,0,0,2.52-.57,4.83,4.83,0,0,0,.62-.37c1.65-1.19,2.45-3.38,2.26-6.17A17.66,17.66,0,0,0,126.94,120.81Zm.63,14.19a4.94,4.94,0,0,1-.49.3,4.42,4.42,0,0,1-2,.45c-3.24,0-7.14-2.51-9.94-6.39a16.72,16.72,0,0,1-3.28-8.31,6.89,6.89,0,0,1,1.1-4.56l.39-.49,5.7,7.9.79-.56-5.71-7.91.6-.21a5,5,0,0,1,1.54-.23c3.23,0,7.13,2.51,9.93,6.39a16.63,16.63,0,0,1,3.28,8.31C129.53,131.1,129.42,133.67,127.57,135Zm13.22-37.69c-.88-2.75-4.2-4.46-8.66-4.46a20,20,0,0,0-6,1,21.12,21.12,0,0,0-3.09,1.28c-5,2.58-7.83,6.72-6.76,10.07.89,2.75,4.2,4.46,8.66,4.46h0a20,20,0,0,0,6-1,20.67,20.67,0,0,0,3.09-1.28C139.08,104.79,141.86,100.65,140.79,97.31Zm-7.2,9.21a20.26,20.26,0,0,1-3,1.21,18.72,18.72,0,0,1-5.66.93,13.61,13.61,0,0,1-3.26-.38,6.85,6.85,0,0,1-4-2.45l-.34-.51,9.3-3-.29-.93-9.32,3v-.62c0-2.71,2.48-5.77,6.45-7.81a20.26,20.26,0,0,1,3-1.21,18.72,18.72,0,0,1,5.66-.93,13.61,13.61,0,0,1,3.26.38c1.37.34,3.78,1.24,4.47,3.41C140.77,100.44,138.13,104.19,133.59,106.52ZM120,90.89a4.49,4.49,0,0,1-.7-4.84,6.14,6.14,0,0,1,2.87-3.21,4.4,4.4,0,0,1,3.12-.42c2.29.59,3.32,3.17,2.3,5.77a6.1,6.1,0,0,1-2.87,3.21,4.37,4.37,0,0,1-3.11.42,3.27,3.27,0,0,1-.84-.33L117,96.15l-.76-.61Zm-12,8.19h0a5,5,0,0,0,2.29-.57c3.29-1.68,5.51-6.6,5.53-12.25a17.56,17.56,0,0,0-2.32-9.17c-1.46-2.38-3.39-3.69-5.44-3.7a5,5,0,0,0-2.29.57c-3.29,1.68-5.51,6.61-5.53,12.25a17.71,17.71,0,0,0,2.31,9.18C104.05,97.76,106,99.08,108,99.08Zm-1.77-24.25a4,4,0,0,1,1.85-.47h0c2.28,0,3.86,2,4.6,3.24a16.56,16.56,0,0,1,2.18,8.66c0,5.21-2.08,9.89-5,11.39a4.31,4.31,0,0,1-.76.29l-.6.17,0-9.77h-1l0,9.78-.6-.18a6.89,6.89,0,0,1-3.54-3.06,16.72,16.72,0,0,1-2.17-8.67C101.26,81,103.31,76.32,106.24,74.83ZM91.09,109.51h0a12.35,12.35,0,0,0,5.6-1.19,5.67,5.67,0,0,0,3-3.21c.64-1.94,0-4.18-1.79-6.32a17.6,17.6,0,0,0-8-5.09,19.57,19.57,0,0,0-6.07-1,12.27,12.27,0,0,0-5.59,1.19,5.69,5.69,0,0,0-3,3.21c-.63,1.94,0,4.18,1.8,6.32a17.57,17.57,0,0,0,8,5.09A19.57,19.57,0,0,0,91.09,109.51Zm-13.3-6.73c-.91-1.09-2.33-3.23-1.61-5.39a4.71,4.71,0,0,1,2.49-2.66,11.44,11.44,0,0,1,5.13-1.07,18.83,18.83,0,0,1,5.79,1c5.43,1.78,9.44,5.69,9.33,9.07l0,.63-9.25-3-.31.92,9.26,3-.35.52a5.24,5.24,0,0,1-2,1.7,11.41,11.41,0,0,1-5.13,1.07,18.72,18.72,0,0,1-5.78-1A16.68,16.68,0,0,1,77.79,102.78Zm33.89,29.41c.7,2.55-.32,5.29-2.29,6.34l-.33.15c-2.19.9-4.56-.55-5.3-3.24s.32-5.3,2.29-6.34l.33-.16a3.55,3.55,0,0,1,.86-.23l.24-6.12,1,0-.23,6.09A4.5,4.5,0,0,1,111.68,132.19Zm25.91-15.58a3.6,3.6,0,0,1-2.07,3.45,5.25,5.25,0,0,1-2.71.53c-2.78-.17-5.16-2.21-5.31-4.57a3.61,3.61,0,0,1,.1-1l-5.71-2.19.34-.91,5.73,2.2a3.9,3.9,0,0,1,1.61-1.5,5.29,5.29,0,0,1,2.71-.53C135.07,112.2,137.44,114.25,137.59,116.61ZM89.11,83.3a3.51,3.51,0,0,1,1.34-1.23,4.5,4.5,0,0,1,4.86.83c2.16,1.77,2.87,4.82,1.61,6.81a3.77,3.77,0,0,1-.8.88l.14-.1,3.38,5.19-.82.53L95.45,91l.11-.07a4.51,4.51,0,0,1-4.85-.83C88.56,88.35,87.84,85.3,89.11,83.3Z"/></svg>