<svg id="Layer_1" data-name="Layer 1" xmlns="http://www.w3.org/2000/svg" viewBox="0 0 259.2 259.2"><path d="M206.21,121.16v57.38c0,18.51-16.09,33.11-40.27,35.87s-45.34-8.81-47.34-25.89,16.09-33.12,40.28-35.87q3-.33,6.11-.36V130C179.5,126.44,193.08,123.29,206.21,121.16Zm0-43.75v-33H165V85.6c-5.41,1.28-10.83,2.6-16.33,4-11.19,2.74-22.53,5.48-34.17,8v39c15.24-3.07,29.61-6.58,43.25-9.93,29.31-7.19,54.63-13.4,79.84-13.4V94.74A18.72,18.72,0,0,0,218.92,76c-.61,0-1.22,0-1.82.09q-5.5.51-10.9,1.32Zm-138.07-33v60.7a327.14,327.14,0,0,1-35.4,2V126a18.78,18.78,0,0,0,18.83,18.73c.38,0,.75,0,1.12,0q7.86-.47,15.45-1.22v8.86q-3.06,0-6.11.36c-24.2,2.75-42.23,18.81-40.29,35.87s23.13,28.64,47.32,25.89,40.27-17.36,40.27-35.87V44.39Z"/></svg>