<?xml version="1.0" encoding="utf-8"?>
<!-- Generator: Adobe Illustrator 25.3.1, SVG Export Plug-In . SVG Version: 6.00 Build 0)  -->
<svg version="1.1" id="Layer_1" xmlns="http://www.w3.org/2000/svg" xmlns:xlink="http://www.w3.org/1999/xlink" x="0px" y="0px"
	 viewBox="0 0 432 432" style="enable-background:new 0 0 432 432;" xml:space="preserve">
<style type="text/css">
	.st0{fill:#FFFFFF;}
	.st1{opacity:0.32;fill:#C7B299;enable-background:new    ;}
	.st2{fill:#736357;}
	.st3{enable-background:new    ;}
	.st4{fill:#534741;}
</style>
<rect x="-1651.5" y="-141.1" class="st0" width="2240.4" height="1814.7"/>
<path d="M588.3-140.6V1673H-1651V-140.6H588.3 M589.3-141.6H-1652V1674H589.3V-141.6z"/>
<path id="Icon" class="st1" d="M202.1,182.9c-3.9-4.1-6.7-9.2-7.8-14.8c-1.6-8.2,0.3-16.7,3.4-24.3c2.9-6.7,6.5-13.2,10.7-19.2
	c0.3,7.1,1.9,14.3,3.5,21.2c1.5,6.7,3.1,13.4,4.9,20c0.4,1.4,0.7,2.7,1.1,4.1c1.6-3.6,2.9-7.4,4.2-11.1c2.6-7.3,4.5-14.8,5.5-22.5
	c0.6-3.9,0.5-7.8-0.3-11.6c5.1,4.6,9.2,10.3,11.8,16.6c2.2,5.3,3.2,11,3.1,16.7c-0.1,5-1,9.9-2.7,14.6c-1.3,3.7-3.2,7.2-5.8,10.2
	c-4.2,4.9-7.4,10.5-9.5,16.6c-0.5,1.3-0.9,2.6-1.2,3.9c-0.3,1-0.5,2-0.7,3.1c0,1.2,0.1,2.3,0.4,3.4c0.1,0.4,0.4,2.1,1,2
	c0.4,0,0.7-1.1,0.9-1.4c0.3-0.5,0.6-1,1-1.5c0.8-1,1.6-1.9,2.5-2.8c2.1-2.2,4.4-4.2,6.4-6.5c7-7.9,10.9-17.8,13.5-27.8
	c0.5-2,0.9-3.9,1.3-5.9c5.6,9.7,10,20.7,9.6,32.1c-0.4,8-3.2,15.7-8,22.1c-4.3,5.8-9.8,10.7-15.4,15.2c-2.5,2-5,3.9-7.4,5.9
	c-1,0.9-2.1,1.7-3,2.7c-0.8,0.6-1.5,1.3-1.9,2.2c-0.4,1.4-0.6,2.8-0.7,4.2c-0.2,2-0.4,4-0.5,6.1c-0.2,3.3-0.4,6.7-0.5,10.1
	c0,0.2,0,0.4,0,0.6c0.9-3.5,2.7-6.7,5.3-9.2c2.9-2.7,6.1-5.3,9.4-7.6c4-2.9,7.8-6.2,11.4-9.7c4.5-4.7,8.3-10,11.3-15.8
	c4.1-8,7.1-16.6,9-25.4c0.3-1.3,0.6-2.7,0.9-4c2.6,7.2,4.4,14.6,5.4,22.2c0.8,6,0.8,12.1,0.1,18.1c-0.7,5-2.1,9.9-4.1,14.6
	c-1.9,4.2-4.3,8.1-7.1,11.7c-2.7,3.4-5.7,6.5-9,9.3c-3.1,2.7-6.4,5.2-9.7,7.5c-3.1,2.2-6.2,4.2-9.3,6.3c-2.7,1.8-5.2,3.7-7.7,5.7
	c-2,1.6-3.7,3.5-4.9,5.7c-0.9,1.8-1.5,3.7-1.9,5.6c-0.8,3-1.5,6.1-2.1,9.1c-0.1,0.6-0.2,1.1-0.4,1.7c-0.4-2-0.8-4-1.3-6.1
	c-0.6-3.1-1.4-6.1-2.5-9c-1-2.1-2.4-3.9-4.1-5.3c-2.2-1.9-4.5-3.6-7-5.1c-2.9-1.9-5.9-3.7-8.8-5.6c-3.2-2.1-6.5-4.3-9.5-6.7
	c-3.3-2.6-6.3-5.4-9.1-8.5c-3-3.3-5.6-7-7.7-10.9c-2.4-4.4-4.1-9.1-5.2-14c-1.3-5.8-1.9-11.7-1.7-17.7c0.3-7.4,1.3-14.8,3-21.9
	c0.5-2.1,1-4.1,1.6-6.2c1.6,8.6,4.3,17,8.1,24.8c3,6,6.8,11.6,11.4,16.6c3.7,4,7.7,7.5,12.1,10.7c3.5,2.5,7.1,4.8,10.6,7.2
	c2.4,1.7,5.1,3.5,6.6,6c0.2,0.2,0.3,0.5,0.4,0.8c0.1-3,0.1-5.9,0-8.9c0-1.9-0.1-3.8-0.4-5.7c0-0.6-0.2-1.1-0.4-1.6
	c-0.3-0.4-0.6-0.7-1-1c-3.8-3.4-8.5-5.9-12.8-8.6c-5.2-3.4-10.3-7.1-14.4-11.8c-4.7-5.5-7.8-12.2-8.8-19.4
	c-1.6-10.6,0.7-21.4,4.1-31.5c0.5-1.6,1.1-3.3,1.7-4.9c2.6,9.3,6.1,18.9,12.5,26.3c1.9,2.2,4,4.2,6.3,6c1.9,1.6,4,3.1,5.8,4.8
	c2.2,2.1,4,4.5,5.2,7.2c-0.4-3.1-0.9-6.2-1.6-9.2c-1-4.8-2.5-9.5-4.6-14C205.4,187.2,203.9,184.9,202.1,182.9z M333,212.5
	c-0.1-9.8-1.4-19.6-3.8-29.1c-2.5-9.6-6.2-18.8-11.1-27.3c-4.8-8.4-10.8-16.1-17.7-22.9c-7.2-7.1-15.4-13.2-24.4-18.1
	c-8.3-4.6-17.3-8-26.6-10c-1.3-0.3-2.6-0.5-3.9-0.7c11.1,6.6,21.4,14.6,30.5,23.8c4.4,4.5,8.5,9.2,12.3,14.3
	c3.8,5.3,7.2,10.8,10.2,16.5c5.9,11.4,9.7,23.8,11.3,36.5c1.3,9.3,1.5,18.8,0.7,28.2c-1.1,12.1-4.7,23.9-10.7,34.5
	c-0.8,1.4-1.6,2.8-2.5,4.1c3.7-9.7,6.1-19.9,6.9-30.2c0.9-9.4,0.4-18.9-1.3-28.2c-1.8-9.3-5-18.3-9.5-26.7
	c-4.8-8.6-10.5-16.6-17.2-23.9c-6.8-7.3-13.9-14.2-21.5-20.6l-3.1-2.7c3,7,7,13.5,10.7,20.1s7.5,13.3,10.7,20.2
	c3.3,6.8,6.1,13.9,8.2,21.1c2,7.3,3.1,14.9,3.3,22.4c0.5,15-1.7,30.2-7.3,44.2c-2.7,6.7-6.1,13.1-10.2,19c-2,2.9-4.2,5.7-6.6,8.4
	c-2.5,2.6-5.3,5-8.3,7c-2.5,1.8-5.1,3.4-7.7,4.9c-3,1.7-6.1,3.2-9,5c-5.8,3.5-12,7.8-15.6,13.8c-0.9,1.6-1.6,3.3-2,5
	c-1.4-7.1-7.7-12.3-13.3-16.1c-3.1-2.1-6.3-4-9.6-5.8c-2.4-1.3-4.7-2.5-6.9-3.9c-3.2-2-6.2-4.2-9.1-6.5c-2.7-2.3-5.1-5-7.3-7.8
	c-4.4-5.7-8.2-11.8-11.2-18.3c-3.2-6.8-5.6-14-7.1-21.4c-1.5-7.5-2.3-15.2-2.3-22.9c-0.1-7.5,0.6-15,2.2-22.4
	c1.8-7.4,4.2-14.5,7.4-21.4c3-6.8,6.5-13.4,10.1-19.9c3.7-6.6,7.6-13.1,11.1-19.9c0.8-1.6,1.6-3.2,2.3-4.8
	c-7.6,6.7-15.2,13.3-22.2,20.7c-6.9,7.2-13,15.1-18,23.7c-4.7,8.1-8.3,16.9-10.4,26.1c-2,9.1-2.8,18.5-2.2,27.8
	c0.5,10.3,2.4,20.4,5.8,30.2c0.4,1.2,0.9,2.5,1.4,3.7c-6.7-10.4-11.1-22.1-12.8-34.4c-1.1-9.1-1.2-18.4-0.3-27.5
	c1.1-12.9,4.4-25.4,9.8-37.1c5.4-11.6,12.5-22.2,21.2-31.5c8.8-9.5,18.7-17.8,29.7-24.7c1.4-0.9,2.8-1.8,4.2-2.6
	c-10.6,1.8-20.8,5.4-30.2,10.6c-9.8,5.3-18.7,12-26.4,19.9c-7.6,7.7-13.9,16.6-18.8,26.3c-4.8,9.6-8.2,19.8-10.2,30.4
	c-1.9,10.7-2.5,21.6-1.7,32.4c0.8,10.7,3.4,21.2,7.7,31c4.3,9.7,10.2,18.6,17.5,26.3c7.1,7.5,15.3,14,24.3,19.1
	c9.8,5.5,20.3,9.6,31.2,12.1c4.6,1.1,9.3,2.1,14,3.3c5.4,1.4,11.2,2.9,15.8,6.1c2.1,1.3,3.6,3.3,4.2,5.7c0.5-2.8,2.8-4.9,5.2-6.3
	c2.6-1.5,5.4-2.7,8.4-3.6c6.1-2,12.3-3.3,18.5-4.7c4.8-1.1,9.6-2.4,14.2-3.9c16.8-5.8,32-15.6,44.1-28.6c7.8-8.5,14-18.4,18.3-29.2
	c4.1-10.9,6.3-22.5,6.5-34.1C333.1,215.5,333,214,333,212.5z"/>
<g id="Wordmark">
	<path class="st2" d="M102.6,249.2l4.2-12.5c1.2,0.7,2.6,1,3.9,1c2.1,0,3.6-1.5,3.6-5v-41h16.6V233c0,11.2-6.7,18.4-17.6,18.4
		C109.6,251.5,106,250.8,102.6,249.2z"/>
	<ellipse class="st2" cx="122.6" cy="179.5" rx="9.4" ry="8.9"/>
	<path class="st2" d="M179.3,191.8v43.4h-15.8v-4.1c-3.1,3.2-7.4,5-11.9,4.9c-8.5,0-16.9-6.1-16.9-20.2v-24h16.6v20.9
		c0,6.2,2.1,8.2,5.5,8.2c3,0,5.9-2.3,5.9-8.7v-20.4L179.3,191.8z"/>
	<path class="st2" d="M228,176.3v58.9h-15.8v-3.6c-2.6,2.9-6.3,4.4-11.6,4.4c-11,0-19.5-7.7-19.5-22.5c0-14.6,8.5-22.5,19.5-22.5
		c4.6,0,8.2,1.2,10.7,3.7v-18.4H228z M211.7,213.4c0-5.6-3-8.5-6.9-8.5s-7.4,2.1-7.4,8.5s3.6,8.5,7.4,8.5S211.7,219.1,211.7,213.4
		L211.7,213.4z"/>
	<path class="st2" d="M262.7,219.5l9,9.4c-4.1,4.6-10,7-18.1,7c-15.3,0-23.9-10.1-23.9-22.5c0-12.4,10-22.5,22.4-22.5
		c0.1,0,0.1,0,0.2,0c12.1,0,22.6,7.8,22.6,22.2l-28.4,5.7c1.4,2.7,3.9,3.8,7.7,3.8C257.2,222.8,260.3,221.7,262.7,219.5z
		 M245.2,210.4l13.3-2.7c-0.8-2.7-3.4-4.6-6.2-4.5C248.4,203.2,245.8,205.5,245.2,210.4L245.2,210.4z"/>
	<path class="st2" d="M292.4,198c0,2.1-0.1,4.1-2.8,10l-4,9h-10l2.7-10.5c-3-1.5-4.8-4.5-4.8-8.5c0-5.8,4-9.8,9.4-9.8
		S292.4,192.1,292.4,198z"/>
	<path class="st2" d="M292.2,231.7l4.8-11.8c4.5,2.5,9.6,3.9,14.7,3.9c4.2,0,5.4-0.8,5.4-2.1c0-4.4-24.3,1.5-24.3-15.9
		c0-8.2,7.4-14.9,21.6-14.9c6.2,0,12.7,1.2,17.2,3.6l-4.8,11.8c-3.7-2.1-7.9-3.2-12.2-3.2c-4.5,0-5.7,1-5.7,2.1
		c0,4.5,24.2-1.4,24.2,16c0,7.9-7.2,14.7-21.8,14.7C304,236,296.5,234.2,292.2,231.7z"/>
	<g class="st3">
		<path class="st2" d="M333,191.3h4.6v1H336v3.8h-1.3v-3.8H333V191.3z M343,196.1l0-2.8l-1.5,2.3h-0.6l-1.5-2.2v2.7h-1.2v-4.8h1.1
			l1.9,2.9l1.9-2.9h1.1l0,4.8H343z"/>
	</g>
	<g class="st3">
		<path class="st4" d="M142.1,242v8.5h-1.2v-3.8h-4.8v3.8h-1.2V242h1.2v3.7h4.8V242H142.1z"/>
	</g>
	<g class="st3">
		<path class="st4" d="M153.3,249.4v1.1h-6.1V242h6v1.1h-4.8v2.6h4.2v1h-4.2v2.8H153.3z"/>
	</g>
	<g class="st3">
		<path class="st4" d="M163,248.4h-4.5l-0.9,2.1h-1.2l3.8-8.5h1.2l3.8,8.5H164L163,248.4z M162.6,247.4l-1.8-4.2l-1.8,4.2H162.6z"/>
	</g>
	<g class="st3">
		<path class="st4" d="M169.9,242h1.2v7.5h4.6v1.1h-5.8V242z"/>
	</g>
	<g class="st3">
		<path class="st4" d="M180.5,243h-2.9V242h7v1.1h-2.9v7.5h-1.2V243z"/>
	</g>
	<g class="st3">
		<path class="st4" d="M195.8,242v8.5h-1.2v-3.8h-4.8v3.8h-1.2V242h1.2v3.7h4.8V242H195.8z"/>
	</g>
	<g class="st3">
		<path class="st4" d="M212.2,250.6l-1.1-1.1c-0.7,0.7-1.7,1.1-2.8,1.1c-0.6,0-1.1-0.1-1.5-0.3s-0.8-0.4-1.1-0.8
			c-0.3-0.3-0.4-0.7-0.4-1.2c0-0.5,0.2-1,0.5-1.4c0.3-0.4,0.8-0.8,1.6-1.2c-0.4-0.4-0.6-0.7-0.8-1c-0.2-0.3-0.2-0.6-0.2-0.9
			c0-0.6,0.2-1,0.6-1.4c0.4-0.3,1-0.5,1.7-0.5c0.6,0,1.2,0.2,1.5,0.5c0.4,0.3,0.6,0.8,0.6,1.3c0,0.4-0.1,0.8-0.4,1.2
			c-0.3,0.3-0.7,0.7-1.4,1.1l2.1,2.1c0.2-0.5,0.4-1,0.5-1.5l0.9,0.3c-0.1,0.7-0.4,1.4-0.7,1.9l1.1,1.1L212.2,250.6z M210.3,248.8
			l-2.4-2.4c-0.6,0.3-1,0.6-1.2,0.9c-0.2,0.3-0.3,0.6-0.3,0.9c0,0.4,0.2,0.7,0.5,1c0.3,0.3,0.8,0.4,1.4,0.4
			C209.1,249.6,209.8,249.4,210.3,248.8z M207.7,243c-0.2,0.2-0.3,0.4-0.3,0.7c0,0.2,0.1,0.4,0.2,0.6c0.1,0.2,0.3,0.5,0.7,0.8
			c0.6-0.3,0.9-0.6,1.2-0.8c0.2-0.2,0.3-0.5,0.3-0.7c0-0.3-0.1-0.5-0.3-0.7c-0.2-0.2-0.5-0.3-0.8-0.3
			C208.2,242.8,207.9,242.8,207.7,243z"/>
	</g>
	<g class="st3">
		<path class="st4" d="M222.3,250.3c-0.4-0.2-0.8-0.5-1-0.9l0.7-0.8c0.5,0.7,1.1,1,1.8,1c0.5,0,0.8-0.1,1.1-0.4s0.4-0.7,0.4-1.3V243
			h-3V242h4.2v5.8c0,0.9-0.2,1.7-0.7,2.1c-0.4,0.5-1.1,0.7-2,0.7C223.2,250.6,222.8,250.5,222.3,250.3z"/>
	</g>
	<g class="st3">
		<path class="st4" d="M236.8,248.4h-4.5l-0.9,2.1h-1.2l3.8-8.5h1.2l3.8,8.5h-1.3L236.8,248.4z M236.3,247.4l-1.8-4.2l-1.8,4.2
			H236.3z"/>
		<path class="st4" d="M249.4,242l-3.7,8.5h-1.2l-3.7-8.5h1.3l3,7l3.1-7H249.4z"/>
	</g>
	<g class="st3">
		<path class="st4" d="M259.5,248.4h-4.5l-0.9,2.1h-1.2l3.8-8.5h1.2l3.8,8.5h-1.3L259.5,248.4z M259.1,247.4l-1.8-4.2l-1.8,4.2
			H259.1z"/>
	</g>
	<g class="st3">
		<path class="st4" d="M278.5,242v8.5h-1.2v-3.8h-4.8v3.8h-1.2V242h1.2v3.7h4.8V242H278.5z"/>
	</g>
	<g class="st3">
		<path class="st4" d="M285.2,250c-0.7-0.4-1.2-0.9-1.6-1.6c-0.4-0.7-0.6-1.4-0.6-2.2s0.2-1.6,0.6-2.2c0.4-0.7,0.9-1.2,1.6-1.6
			c0.7-0.4,1.5-0.6,2.3-0.6c0.8,0,1.6,0.2,2.3,0.6c0.7,0.4,1.2,0.9,1.6,1.6c0.4,0.7,0.6,1.4,0.6,2.2s-0.2,1.6-0.6,2.2
			c-0.4,0.7-0.9,1.2-1.6,1.6c-0.7,0.4-1.4,0.6-2.3,0.6C286.7,250.6,285.9,250.4,285.2,250z M289.2,249.1c0.5-0.3,0.9-0.7,1.2-1.2
			c0.3-0.5,0.4-1.1,0.4-1.7s-0.1-1.2-0.4-1.7c-0.3-0.5-0.7-0.9-1.2-1.2c-0.5-0.3-1.1-0.4-1.7-0.4s-1.2,0.1-1.7,0.4
			c-0.5,0.3-0.9,0.7-1.2,1.2c-0.3,0.5-0.4,1.1-0.4,1.7s0.1,1.2,0.4,1.7c0.3,0.5,0.7,0.9,1.2,1.2c0.5,0.3,1.1,0.4,1.7,0.4
			S288.7,249.4,289.2,249.1z"/>
	</g>
	<g class="st3">
		<path class="st4" d="M297.3,249.6c-0.6-0.6-0.9-1.6-0.9-2.8V242h1.2v4.8c0,1.8,0.8,2.7,2.4,2.7c0.8,0,1.4-0.2,1.8-0.7
			c0.4-0.5,0.6-1.1,0.6-2.1V242h1.2v4.8c0,1.2-0.3,2.2-0.9,2.8s-1.5,1-2.6,1C298.8,250.6,298,250.3,297.3,249.6z"/>
	</g>
	<g class="st3">
		<path class="st4" d="M309.2,250.3c-0.6-0.2-1.1-0.5-1.4-0.8l0.4-1c0.3,0.3,0.7,0.5,1.2,0.7c0.5,0.2,1,0.3,1.5,0.3
			c0.7,0,1.2-0.1,1.6-0.4c0.3-0.2,0.5-0.6,0.5-1c0-0.3-0.1-0.5-0.3-0.7c-0.2-0.2-0.4-0.3-0.7-0.4c-0.3-0.1-0.7-0.2-1.2-0.3
			c-0.6-0.2-1.1-0.3-1.5-0.5s-0.7-0.4-1-0.7c-0.3-0.3-0.4-0.8-0.4-1.3c0-0.5,0.1-0.9,0.4-1.2c0.2-0.4,0.6-0.7,1.1-0.9
			c0.5-0.2,1.1-0.3,1.8-0.3c0.5,0,1,0.1,1.5,0.2s0.9,0.3,1.2,0.6l-0.4,1c-0.4-0.2-0.7-0.4-1.1-0.5c-0.4-0.1-0.8-0.2-1.2-0.2
			c-0.7,0-1.2,0.1-1.5,0.4c-0.3,0.3-0.5,0.6-0.5,1c0,0.3,0.1,0.5,0.3,0.7c0.2,0.2,0.4,0.3,0.7,0.4s0.7,0.2,1.2,0.3
			c0.6,0.2,1.1,0.3,1.5,0.5s0.7,0.4,1,0.7s0.4,0.7,0.4,1.3c0,0.4-0.1,0.9-0.4,1.2c-0.2,0.4-0.6,0.7-1.1,0.9
			c-0.5,0.2-1.1,0.3-1.8,0.3C310.4,250.6,309.8,250.5,309.2,250.3z"/>
	</g>
	<g class="st3">
		<path class="st4" d="M324.9,249.4v1.1h-6.1V242h6v1.1h-4.8v2.6h4.2v1h-4.2v2.8H324.9z"/>
	</g>
</g>
</svg>
