<svg id="Layer_1" data-name="Layer 1" xmlns="http://www.w3.org/2000/svg" viewBox="0 0 345.29 184.51"><defs><style>.cls-1{fill:#697d78;}.cls-2{opacity:0.75;}.cls-3,.cls-4{fill:none;stroke:#627772;stroke-miterlimit:10;stroke-width:0.25px;}.cls-4{stroke-dasharray:3.04 3.04;}</style></defs><path class="cls-1" d="M192.14,77.6V63.32a10.12,10.12,0,0,0-10.09-10.11H153.14V77.6Zm-10.09,26.83a10.1,10.1,0,0,0,10.09-10.11V80h-39v24.39Zm10.09,26.83V117a10.13,10.13,0,0,0-10.09-10.12H153.14v24.39Z"/><g class="cls-2"><line class="cls-3" x1="266.93" y1="77.6" x2="265.43" y2="77.6"/><line class="cls-4" x1="262.38" y1="77.6" x2="81.38" y2="77.6"/><line class="cls-3" x1="79.86" y1="77.6" x2="78.36" y2="77.6"/><line class="cls-3" x1="266.93" y1="80.04" x2="265.43" y2="80.04"/><line class="cls-4" x1="262.38" y1="80.04" x2="81.38" y2="80.04"/><line class="cls-3" x1="79.86" y1="80.04" x2="78.36" y2="80.04"/><line class="cls-3" x1="266.93" y1="104.43" x2="265.43" y2="104.43"/><line class="cls-4" x1="262.38" y1="104.43" x2="81.38" y2="104.43"/><line class="cls-3" x1="79.86" y1="104.43" x2="78.36" y2="104.43"/><line class="cls-3" x1="266.93" y1="106.87" x2="265.43" y2="106.87"/><line class="cls-4" x1="262.38" y1="106.87" x2="81.38" y2="106.87"/><line class="cls-3" x1="79.86" y1="106.87" x2="78.36" y2="106.87"/><line class="cls-3" x1="266.93" y1="131.29" x2="265.43" y2="131.29"/><line class="cls-4" x1="262.38" y1="131.29" x2="81.38" y2="131.29"/><line class="cls-3" x1="79.86" y1="131.29" x2="78.36" y2="131.29"/><line class="cls-3" x1="266.93" y1="53.21" x2="265.43" y2="53.21"/><line class="cls-4" x1="262.38" y1="53.21" x2="81.38" y2="53.21"/><line class="cls-3" x1="79.86" y1="53.21" x2="78.36" y2="53.21"/></g></svg>