<svg id="Layer_1" data-name="Layer 1"
  xmlns="http://www.w3.org/2000/svg" viewBox="0 0 256.12 100.22">
  <path class="cls-1" d="M202.45,78.05H188.18a10.11,10.11,0,0,1-10.12-10.11V0h14.28a10.11,10.11,0,0,1,10.11,10.11Zm26.83-67.94A10.11,10.11,0,0,0,219.17,0H204.89V67.94A10.11,10.11,0,0,0,215,78.05h14.27Zm26.84,57.83V0H241.84a10.12,10.12,0,0,0-10.12,10.11V78.05H246A10.11,10.11,0,0,0,256.12,67.94Zm-146.36,0a10.11,10.11,0,0,0,10.12,10.11h14.28V10.11A10.12,10.12,0,0,0,124,0H109.76Zm-2.44,0V0H93.05A10.12,10.12,0,0,0,82.93,10.11V78.05H97.21A10.1,10.1,0,0,0,107.32,67.94Zm58.19-43.55a10.11,10.11,0,0,0,10.11-10.11V0H146.71A10.11,10.11,0,0,0,136.6,10.11V24.39Zm-3,26.83a10.11,10.11,0,0,0,10.11-10.11V26.83H146.71A10.11,10.11,0,0,0,136.6,37V51.22Zm-15.8,26.83h28.91V63.78a10.12,10.12,0,0,0-10.11-10.12H136.6V67.94A10.1,10.1,0,0,0,146.71,78.05ZM70.38,24.39A10.11,10.11,0,0,0,80.49,14.28V0H51.58A10.11,10.11,0,0,0,41.47,10.11V24.39Zm-3,26.83A10.11,10.11,0,0,0,77.49,41.11V26.83H51.58A10.11,10.11,0,0,0,41.47,37V51.22ZM51.58,78.05H80.49V63.78A10.11,10.11,0,0,0,70.38,53.66H41.47V67.94A10.1,10.1,0,0,0,51.58,78.05ZM39,24.39V10.11A10.12,10.12,0,0,0,28.91,0H0V24.39ZM28.91,51.22A10.11,10.11,0,0,0,39,41.11V26.83H0V51.22ZM39,78.05V63.78A10.12,10.12,0,0,0,28.91,53.66H0V78.05Z"/>
  <path class="cls-1" d="M64.25,80.55A5.18,5.18,0,0,1,68,81.81a5.07,5.07,0,0,1,1.31,3.85v.13a7,7,0,0,1-.26,2,5,5,0,0,1-.68,1.48,3.23,3.23,0,0,1-.94.91,2.42,2.42,0,0,1-1,.37v.22a2.1,2.1,0,0,1,1,.38,3.91,3.91,0,0,1,.94,1A5,5,0,0,1,69,93.61a6.37,6.37,0,0,1,.26,1.94v.24c0,.79,0,1.49,0,2.11a9.94,9.94,0,0,0,.24,1.77H65.21A10.75,10.75,0,0,1,65,97.83c0-.65,0-1.35,0-2.09V93.33a1.29,1.29,0,0,0-.15-.72.68.68,0,0,0-.59-.21h-.46v7.27H59.39V80.55ZM63.73,89h.46a.68.68,0,0,0,.59-.22,1.44,1.44,0,0,0,.15-.77V84.92a1.24,1.24,0,0,0-.15-.72.68.68,0,0,0-.59-.21h-.46Z"/>
  <path class="cls-1" d="M74.94,84v3.93h2.65v3.42H74.94v4.89h2.7v3.44h-7V80.55h7V84Z"/>
  <path class="cls-1" d="M89.23,80.55V99.67H84.5L82.32,87.54h-.25L83,99.67H79V80.55h4.7L86,92.73h.25l-1-12.18Z"/>
  <path class="cls-1" d="M95.05,84v3.93H97.7v3.42H95.05v4.89h2.71v3.44H90.71V80.55h7V84Z"/>
  <path class="cls-1" d="M103.24,80.55l.25,11.66h.3l.68-11.66h3l.74,11.66h.24l.3-11.66h4l-1.61,19.12h-4.7l-.52-9h-.27l-.55,9h-4.69L98.87,80.55Z"/>
  <path class="cls-1" d="M124.88,87.21V84.62a1.16,1.16,0,0,0-.17-.67.53.53,0,0,0-.46-.23.54.54,0,0,0-.46.23,1.16,1.16,0,0,0-.17.67V86.4a2.22,2.22,0,0,0,.07.61,1.36,1.36,0,0,0,.3.51,3.93,3.93,0,0,0,.68.53c.3.19.72.42,1.25.69l.82.39A5,5,0,0,1,128,90a3.35,3.35,0,0,1,.76,1.08,5,5,0,0,1,.41,1.46,12.94,12.94,0,0,1,.13,2v.38A5,5,0,0,1,128,98.63a5.07,5.07,0,0,1-3.75,1.31,4.92,4.92,0,0,1-3.69-1.29,5.19,5.19,0,0,1-1.26-3.76V93h4.37V95.6a1.14,1.14,0,0,0,.17.67.52.52,0,0,0,.46.23.56.56,0,0,0,.49-.22,1.11,1.11,0,0,0,.17-.68V93.77a2.8,2.8,0,0,0-.06-.63,1.17,1.17,0,0,0-.27-.48,3.88,3.88,0,0,0-.64-.49l-1.14-.64-1-.46a6.68,6.68,0,0,1-1.25-.88,3.47,3.47,0,0,1-.79-1.1,5.68,5.68,0,0,1-.41-1.49,14.72,14.72,0,0,1-.12-2V85.3a5.09,5.09,0,0,1,1.27-3.74,4.89,4.89,0,0,1,3.65-1.28,4.57,4.57,0,0,1,5,5v1.91Z"/>
  <path class="cls-1" d="M139.22,84H136.6V99.67h-4.37V84h-2.62V80.55h9.61Z"/>
  <path class="cls-1" d="M144.55,80.55v15a1.29,1.29,0,0,0,.06.42,1.7,1.7,0,0,0,.12.29.4.4,0,0,0,.19.15.71.71,0,0,0,.24,0,.61.61,0,0,0,.24,0,.45.45,0,0,0,.19-.15.59.59,0,0,0,.12-.29,1.67,1.67,0,0,0,0-.42v-15h4.37V94.89a6.65,6.65,0,0,1-.34,2.2,4.13,4.13,0,0,1-1,1.57,4.2,4.2,0,0,1-1.6,1,6.34,6.34,0,0,1-2.1.32,6.42,6.42,0,0,1-2.09-.31,4,4,0,0,1-1.54-.94,4.08,4.08,0,0,1-1-1.59,6.72,6.72,0,0,1-.33-2.21V80.55Z"/>
  <path class="cls-1" d="M156.48,80.55a7,7,0,0,1,2.13.29,4.23,4.23,0,0,1,1.59.87,4,4,0,0,1,1,1.49,5.94,5.94,0,0,1,.35,2.13v9.59a5.85,5.85,0,0,1-.35,2.1,4,4,0,0,1-1,1.49,4.23,4.23,0,0,1-1.59.87,7,7,0,0,1-2.13.29h-4.89V80.55ZM156,96.23h.52a1.39,1.39,0,0,0,.3,0,.41.41,0,0,0,.23-.13.66.66,0,0,0,.14-.29,1.92,1.92,0,0,0,0-.45V84.89a1.92,1.92,0,0,0,0-.45.53.53,0,0,0-.37-.41,1,1,0,0,0-.3,0H156Z"/>
  <path class="cls-1" d="M167.31,84v3.93H170v3.42h-2.65v4.89H170v3.44H163V80.55h7V84Z"/>
  <path class="cls-1" d="M181.61,80.55V99.67h-4.73L174.7,87.54h-.25l.87,12.13h-3.93V80.55h4.7l2.27,12.18h.24l-.95-12.18Z"/>
  <path class="cls-1" d="M192.13,84H189.5V99.67h-4.37V84h-2.62V80.55h9.62Z"/>
  <path class="cls-1" d="M198.06,87.21V84.62a1.14,1.14,0,0,0-.17-.67.52.52,0,0,0-.46-.23A.53.53,0,0,0,197,84a1.14,1.14,0,0,0-.16.67v1.77a2.25,2.25,0,0,0,.07.62,1.06,1.06,0,0,0,.3.5,3.21,3.21,0,0,0,.68.54c.3.19.72.42,1.24.69l.82.39a5.12,5.12,0,0,1,1.25.83,3.51,3.51,0,0,1,.76,1.08,5.35,5.35,0,0,1,.41,1.46,14.36,14.36,0,0,1,.12,2v.38a5,5,0,0,1-1.32,3.74,5.11,5.11,0,0,1-3.76,1.31,4.93,4.93,0,0,1-3.69-1.29,5.23,5.23,0,0,1-1.25-3.76V93h4.37V95.6a1.17,1.17,0,0,0,.16.67.62.62,0,0,0,1,0,1.12,1.12,0,0,0,.16-.68V93.77a3.65,3.65,0,0,0-.05-.63,1.1,1.1,0,0,0-.28-.48,3.18,3.18,0,0,0-.64-.49c-.28-.17-.66-.39-1.13-.64l-1-.46a6.93,6.93,0,0,1-1.24-.88,3.26,3.26,0,0,1-.79-1.11,5.5,5.5,0,0,1-.41-1.48,14.77,14.77,0,0,1-.12-2V85.3a5.09,5.09,0,0,1,1.27-3.74,4.87,4.87,0,0,1,3.64-1.28,4.58,4.58,0,0,1,5.06,5v1.91Z"/>
</svg>