<svg id="Layer_1" data-name="Layer 1" xmlns="http://www.w3.org/2000/svg" viewBox="0 0 936 432"><circle cx="50.05" cy="51.04" r="28.12" fill="#ea1130"/><path d="M50.05,25.43A25.62,25.62,0,1,1,24.44,51,25.61,25.61,0,0,1,50.05,25.43m0-5A30.62,30.62,0,1,0,80.67,51,30.64,30.64,0,0,0,50.05,20.43Z" fill="#ff7d87"/><line x1="38.05" y1="63.04" x2="62.05" y2="39.04" fill="none" stroke="#fff" stroke-linecap="round" stroke-linejoin="round" stroke-width="5"/><line x1="38.05" y1="39.04" x2="62.05" y2="63.04" fill="none" stroke="#fff" stroke-linecap="round" stroke-linejoin="round" stroke-width="5"/><rect x="571.38" y="150.53" width="299.26" height="299.26" rx="12.53" fill="none" stroke="#333" stroke-miterlimit="10" stroke-width="2"/><rect x="571.38" y="-16.68" width="299.26" height="149.63" rx="8.86" fill="none" stroke="#333" stroke-miterlimit="10" stroke-width="2"/><rect x="655.32" y="171.66" width="191.99" height="23.75" fill="#333"/><rect x="655.32" y="202.84" width="83.63" height="12.87" fill="#333"/><circle cx="614.5" cy="193.68" r="28.95" fill="none" stroke="#333" stroke-miterlimit="10" stroke-width="2"/><path d="M626.14,191.82a5.73,5.73,0,0,0-1.33,2.12,5.65,5.65,0,0,0-.31,2.48l0,0a6.74,6.74,0,0,1-.39,2.92,6.82,6.82,0,0,1-7,4.46l0,0a5.74,5.74,0,0,0-5.76,3.3,5.79,5.79,0,0,0,1.14,6.54,5.78,5.78,0,0,0,9.84-4.63l0,0a6.79,6.79,0,0,1,2-5.4,7,7,0,0,1,2.48-1.59,6.9,6.9,0,0,1,2.92-.39l0,0a5.79,5.79,0,0,0,5.09-2.22,5.77,5.77,0,0,0-.77-7.86,5.75,5.75,0,0,0-7.89.27Z" fill="#b3b3ff"/><path d="M613.92,199.48l0,0a5.7,5.7,0,0,0,5.94-3.76,5.5,5.5,0,0,0,.3-2.48l0,0a6.75,6.75,0,0,1,.4-2.92,6.81,6.81,0,0,1,7-4.46l0,0a5.76,5.76,0,0,0,5.77-3.29,5.8,5.8,0,0,0-1.14-6.55,5.78,5.78,0,0,0-9.84,4.63l0,0a6.92,6.92,0,0,1-.39,2.92,6.72,6.72,0,0,1-1.59,2.48,6.83,6.83,0,0,1-2.48,1.58,6.74,6.74,0,0,1-2.92.39l0,0a5.75,5.75,0,0,0-4.6,1.64,5.63,5.63,0,0,0-1.34,2.12,5.71,5.71,0,0,0-.31,2.49l0,0a6.74,6.74,0,0,1-.39,2.92,6.85,6.85,0,0,1-7,4.46l0,0a5.81,5.81,0,0,0-5.78,3.3,5.79,5.79,0,0,0,1.15,6.55,5.79,5.79,0,0,0,9.84-4.63l0,0a6.9,6.9,0,0,1,.39-2.92,6.83,6.83,0,0,1,4.07-4.07,6.9,6.9,0,0,1,2.92-.39Z" fill="#7878ff"/><path d="M602.66,195.63a5.81,5.81,0,0,0,1.33-2.12,5.71,5.71,0,0,0,.31-2.49l0,0a6.9,6.9,0,0,1,.39-2.92,6.72,6.72,0,0,1,1.59-2.48,7,7,0,0,1,2.48-1.59,6.9,6.9,0,0,1,2.92-.39l0,0a5.8,5.8,0,0,0,5.77-3.3A5.78,5.78,0,0,0,607.2,175a5.77,5.77,0,0,0-.74,3.4l0,0a6.75,6.75,0,0,1-.4,2.92,6.81,6.81,0,0,1-7,4.46l0,0A5.76,5.76,0,0,0,594,188a5.77,5.77,0,0,0,8.66,7.59Z" fill="#4a4aff"/><rect x="113.38" y="150.53" width="299.26" height="299.26" rx="12.53" fill="none" stroke="#333" stroke-miterlimit="10" stroke-width="2"/><rect x="113.38" y="-16.68" width="299.26" height="149.63" rx="8.86" fill="none" stroke="#333" stroke-miterlimit="10" stroke-width="2"/><rect x="197.32" y="171.66" width="191.99" height="23.75" fill="#333"/><rect x="197.32" y="202.84" width="83.63" height="12.87" fill="#333"/><circle cx="156.5" cy="193.68" r="28.95" fill="none" stroke="#333" stroke-miterlimit="10" stroke-width="2"/><path d="M168.24,191.78a5.75,5.75,0,0,0-1.65,4.6l0,0a6.9,6.9,0,0,1-.39,2.92,7,7,0,0,1-1.59,2.49,6.83,6.83,0,0,1-2.48,1.58,6.9,6.9,0,0,1-2.92.39l0,0a5.78,5.78,0,1,0,1.92,11,5.78,5.78,0,0,0,3.3-5.77l0,0a6.84,6.84,0,0,1,7.37-7.38l0,0a6,6,0,0,0,2.83-.46,5.76,5.76,0,0,0,2.26-1.77,5.83,5.83,0,0,0,1.13-2.64,5.78,5.78,0,0,0-7.32-6.42,5.89,5.89,0,0,0-2.47,1.47Z" fill="#999"/><path d="M156,199.44l0,0a5.66,5.66,0,0,0,4.6-1.64,5.74,5.74,0,0,0,1.35-2.11,5.86,5.86,0,0,0,.3-2.49l0,0a6.9,6.9,0,0,1,.39-2.92,6.83,6.83,0,0,1,4.07-4.07,6.9,6.9,0,0,1,2.92-.39l0,0a5.76,5.76,0,0,0,3.4-.73,5.79,5.79,0,0,0-1.87-10.72,5.79,5.79,0,0,0-6.75,6.24l0,0a6.84,6.84,0,0,1-7.37,7.38l0,0a5.75,5.75,0,0,0-4.61,1.65,5.59,5.59,0,0,0-1.34,2.11,5.7,5.7,0,0,0-.3,2.49l0,0a6.9,6.9,0,0,1-.39,2.92,6.9,6.9,0,0,1-4.07,4.07,6.9,6.9,0,0,1-2.92.39l0,0a5.78,5.78,0,1,0,1.92,11,5.76,5.76,0,0,0,3.29-5.77l0,0a6.9,6.9,0,0,1,.39-2.92,7,7,0,0,1,1.59-2.48,6.72,6.72,0,0,1,2.48-1.59,6.9,6.9,0,0,1,2.92-.39Z" fill="#999"/><path d="M144.75,195.59a5.84,5.84,0,0,0,1.34-2.12,5.69,5.69,0,0,0,.3-2.49l0,0a6.79,6.79,0,0,1,2-5.4,6.83,6.83,0,0,1,5.4-2l0,0a5.78,5.78,0,0,0,5.77-3.3,5.79,5.79,0,0,0-1.14-6.54,5.79,5.79,0,0,0-9.11,1.22,5.76,5.76,0,0,0-.73,3.4l0,0a6.79,6.79,0,0,1-4.46,7,6.74,6.74,0,0,1-2.92.39l0,0a5.74,5.74,0,0,0-2.83.46,5.84,5.84,0,0,0-2.26,1.77,5.77,5.77,0,0,0,.78,7.85,5.72,5.72,0,0,0,5.42,1.2,5.67,5.67,0,0,0,2.46-1.46Z" fill="#999"/><path d="M508.05,79.16A28.12,28.12,0,1,1,536.17,51,28.14,28.14,0,0,1,508.05,79.16Z" fill="#00d355"/><path d="M508.05,25.43A25.62,25.62,0,1,1,482.44,51a25.61,25.61,0,0,1,25.61-25.61m0-5A30.62,30.62,0,1,0,538.67,51a30.64,30.64,0,0,0-30.62-30.61Z" fill="#88ffa1"/><polyline points="494.31 54.32 503.95 63.77 520.61 38.22" fill="none" stroke="#fff" stroke-linecap="round" stroke-linejoin="round" stroke-width="5"/></svg>