<svg id="Layer_1" data-name="Layer 1" xmlns="http://www.w3.org/2000/svg" viewBox="0 0 936 432"><path d="M508.05,79.16A28.12,28.12,0,1,1,536.17,51,28.14,28.14,0,0,1,508.05,79.16Z" fill="#00d355"/><path d="M508.05,25.43A25.62,25.62,0,1,1,482.44,51a25.61,25.61,0,0,1,25.61-25.61m0-5A30.62,30.62,0,1,0,538.67,51a30.64,30.64,0,0,0-30.62-30.61Z" fill="#88ffa1"/><polyline points="494.31 54.32 503.95 63.77 520.61 38.22" fill="none" stroke="#fff" stroke-linecap="round" stroke-linejoin="round" stroke-width="5"/><path d="M50.05,79.16A28.12,28.12,0,1,1,78.17,51,28.14,28.14,0,0,1,50.05,79.16Z" fill="#ea1130"/><path d="M50.05,25.43A25.62,25.62,0,1,1,24.44,51,25.61,25.61,0,0,1,50.05,25.43m0-5A30.62,30.62,0,1,0,80.67,51,30.64,30.64,0,0,0,50.05,20.43Z" fill="#ff7d87"/><line x1="38.05" y1="63.04" x2="62.05" y2="39.04" fill="none" stroke="#fff" stroke-linecap="round" stroke-linejoin="round" stroke-width="5"/><line x1="38.05" y1="39.04" x2="62.05" y2="63.04" fill="none" stroke="#fff" stroke-linecap="round" stroke-linejoin="round" stroke-width="5"/><rect x="571.38" y="150.53" width="299.26" height="299.26" rx="12.53" fill="none" stroke="#333" stroke-miterlimit="10" stroke-width="2"/><rect x="571.38" y="-16.68" width="299.26" height="149.63" rx="8.86" fill="none" stroke="#333" stroke-miterlimit="10" stroke-width="2"/><rect x="655.32" y="171.66" width="191.99" height="23.75" fill="#333"/><rect x="655.32" y="202.84" width="83.63" height="12.87" fill="#333"/><circle cx="614.5" cy="193.68" r="28.95" fill="none" stroke="#333" stroke-miterlimit="10" stroke-width="2"/><path d="M626.14,192.12a5.77,5.77,0,0,0-1.33,2.11,5.71,5.71,0,0,0-.31,2.49l0,0a6.74,6.74,0,0,1-.39,2.92,6.83,6.83,0,0,1-1.58,2.48,7,7,0,0,1-2.49,1.59,6.85,6.85,0,0,1-2.91.39l0,0a5.78,5.78,0,0,0-1.52,11.45,5.7,5.7,0,0,0,3.45-.46,5.78,5.78,0,0,0,3.29-5.77l0,0a6.79,6.79,0,0,1,2-5.4,6.72,6.72,0,0,1,2.48-1.59,6.9,6.9,0,0,1,2.92-.39l0,0a5.78,5.78,0,0,0,6.22-4.86,5.87,5.87,0,0,0-.28-2.85,5.76,5.76,0,0,0-7-3.57,5.69,5.69,0,0,0-2.46,1.47Z" fill="#b3b3ff"/><path d="M613.92,199.78l0,0a5.69,5.69,0,0,0,4.6-1.64,5.63,5.63,0,0,0,1.34-2.12,5.5,5.5,0,0,0,.3-2.48l0,0a6.83,6.83,0,0,1,7.38-7.37l0,0a5.8,5.8,0,0,0,3.41-.74,5.79,5.79,0,0,0,1.22-9.1,5.77,5.77,0,0,0-9.11,1.22,5.76,5.76,0,0,0-.73,3.4l0,0a6.87,6.87,0,0,1-.39,2.91,6.83,6.83,0,0,1-7,4.46l0,0a5.86,5.86,0,0,0-2.49.3,5.71,5.71,0,0,0-2.11,1.34,5.63,5.63,0,0,0-1.34,2.12,5.69,5.69,0,0,0-.31,2.49l0,0a6.82,6.82,0,0,1-7.37,7.37l0,0a5.77,5.77,0,1,0,5.21,5.22l0,0a6.79,6.79,0,0,1,4.46-7,6.74,6.74,0,0,1,2.92-.39Z" fill="#7878ff"/><path d="M602.66,195.92a5.77,5.77,0,0,0,1.33-2.11,5.71,5.71,0,0,0,.31-2.49l0,0a6.9,6.9,0,0,1,.39-2.92,6.9,6.9,0,0,1,4.07-4.07,6.9,6.9,0,0,1,2.92-.39l0,0a5.69,5.69,0,0,0,3.4-.73,5.76,5.76,0,0,0,2.37-2.56,5.77,5.77,0,0,0-1.15-6.54,5.78,5.78,0,0,0-9.84,4.62l0,0a6.75,6.75,0,0,1-.4,2.92,6.83,6.83,0,0,1-1.58,2.48,6.72,6.72,0,0,1-2.48,1.59,6.9,6.9,0,0,1-2.92.39l0,0a5.77,5.77,0,0,0-1.76,11.38,5.94,5.94,0,0,0,2.87-.1,5.85,5.85,0,0,0,2.46-1.47Z" fill="#4a4aff"/><rect x="113.38" y="150.53" width="299.26" height="299.26" rx="12.53" fill="none" stroke="#333" stroke-miterlimit="10" stroke-width="2"/><rect x="113.38" y="-16.68" width="299.26" height="149.63" rx="8.86" fill="none" stroke="#333" stroke-miterlimit="10" stroke-width="2"/><rect x="197.32" y="171.66" width="191.99" height="23.75" fill="#333"/><rect x="197.32" y="202.84" width="83.63" height="12.87" fill="#333"/><circle cx="156.5" cy="193.68" r="28.95" fill="none" stroke="#333" stroke-miterlimit="10" stroke-width="2"/><path d="M138.32,193a1.62,1.62,0,0,0-.36.57,1.57,1.57,0,0,0-.08.68h0a1.79,1.79,0,0,1-.11.79,1.77,1.77,0,0,1-1.09,1.09,1.79,1.79,0,0,1-.79.11h0a1.56,1.56,0,0,0-.92.2,1.58,1.58,0,0,0-.64.69,1.56,1.56,0,0,0-.13.93,1.59,1.59,0,0,0,.44.84,1.66,1.66,0,0,0,.83.43,1.6,1.6,0,0,0,.94-.13,1.55,1.55,0,0,0,.89-1.55h0a2,2,0,0,1,.11-.79,1.83,1.83,0,0,1,.43-.67,1.81,1.81,0,0,1,.67-.42,1.77,1.77,0,0,1,.79-.11h0a1.52,1.52,0,0,0,.76-.12,1.59,1.59,0,0,0,.61-.48,1.52,1.52,0,0,0,.23-1.48,1.5,1.5,0,0,0-.44-.64,1.56,1.56,0,0,0-.69-.35,1.44,1.44,0,0,0-.77,0,1.62,1.62,0,0,0-.67.39Z" fill="#b3b3ff"/><path d="M135.19,195.23h0a1.74,1.74,0,0,0,.68-.08,1.62,1.62,0,0,0,.57-.36,1.66,1.66,0,0,0,.36-.58,1.51,1.51,0,0,0,.08-.67h0a1.91,1.91,0,0,1,.1-.79,1.87,1.87,0,0,1,1.1-1.1,1.91,1.91,0,0,1,.79-.1h0a1.56,1.56,0,0,0,.92-.2,1.55,1.55,0,0,0,.33-2.46,1.55,1.55,0,0,0-.83-.43,1.6,1.6,0,0,0-.94.12,1.58,1.58,0,0,0-.69.64,1.55,1.55,0,0,0-.19.92h0a1.92,1.92,0,0,1-.11.79,1.83,1.83,0,0,1-.43.67,1.75,1.75,0,0,1-.67.43,1.9,1.9,0,0,1-.78.11h0a1.56,1.56,0,0,0-.67.09,1.49,1.49,0,0,0-.57.36,1.42,1.42,0,0,0-.36.57,1.38,1.38,0,0,0-.08.67h0a1.92,1.92,0,0,1-.11.79,1.83,1.83,0,0,1-.43.67,1.75,1.75,0,0,1-.67.43,1.9,1.9,0,0,1-.78.11h0a1.56,1.56,0,0,0-.92.2,1.5,1.5,0,0,0-.63.69,1.52,1.52,0,0,0-.13.94,1.66,1.66,0,0,0,.43.83,1.51,1.51,0,0,0,.84.43,1.49,1.49,0,0,0,.93-.12,1.58,1.58,0,0,0,.69-.64,1.56,1.56,0,0,0,.2-.92h0a1.77,1.77,0,0,1,.11-.79,1.81,1.81,0,0,1,.42-.67,1.83,1.83,0,0,1,.67-.43,1.78,1.78,0,0,1,.79-.1Z" fill="#7878ff"/><path d="M132.35,194.38a1.57,1.57,0,0,0,.44-1.25h0a1.91,1.91,0,0,1,.1-.79,1.87,1.87,0,0,1,1.1-1.1,1.94,1.94,0,0,1,.79-.1h0a1.56,1.56,0,0,0,.92-.2,1.55,1.55,0,0,0,.33-2.46,1.57,1.57,0,0,0-1.76-.31,1.61,1.61,0,0,0-.7.64,1.63,1.63,0,0,0-.19.92h0a1.92,1.92,0,0,1-.11.79,1.83,1.83,0,0,1-.43.67,1.68,1.68,0,0,1-.67.43,1.9,1.9,0,0,1-.78.11h0a1.53,1.53,0,0,0-.76.13,1.55,1.55,0,0,0-.91,1.19,1.55,1.55,0,0,0,.07.77,1.64,1.64,0,0,0,.44.64,1.62,1.62,0,0,0,.69.35,1.67,1.67,0,0,0,.77,0,1.62,1.62,0,0,0,.67-.39Z" fill="#4a4aff"/><path d="M143.85,190.14h1.26v6.14h-1.26Z" fill="#333"/><path d="M145.57,194.18a2.24,2.24,0,0,1,1.37-2.07,2.22,2.22,0,0,1,2.43.48,2.25,2.25,0,0,1,.49,2.43,2.35,2.35,0,0,1-.82,1,2.28,2.28,0,0,1-1.24.37,2.07,2.07,0,0,1-.85-.16,2.11,2.11,0,0,1-.73-.48,2.07,2.07,0,0,1-.48-.72A2.26,2.26,0,0,1,145.57,194.18Zm3.2,0a1,1,0,0,0-.18-.53,1,1,0,0,0-.44-.35,1,1,0,0,0-.56,0,.93.93,0,0,0-.48.27.87.87,0,0,0-.26.49.9.9,0,0,0,.06.56,1,1,0,0,0,.35.43,1,1,0,0,0,.54.16,1,1,0,0,0,.38-.07.87.87,0,0,0,.32-.22,1,1,0,0,0,.21-.32A1.21,1.21,0,0,0,148.77,194.18Z" fill="#333"/><path d="M154.79,192.08v4a2,2,0,0,1-2.21,2,2.13,2.13,0,0,1-1.14-.23,2.09,2.09,0,0,1-.85-.79l1.07-.62a1,1,0,0,0,.4.42,1,1,0,0,0,.56.11.78.78,0,0,0,.37,0,.8.8,0,0,0,.32-.19,1,1,0,0,0,.21-.31.92.92,0,0,0,0-.37v-.38a1.62,1.62,0,0,1-.55.42,1.44,1.44,0,0,1-.68.12,2.12,2.12,0,0,1-2.07-2.13,2.18,2.18,0,0,1,.6-1.49,2.16,2.16,0,0,1,1.47-.64,1.58,1.58,0,0,1,.68.12,1.62,1.62,0,0,1,.55.42v-.43Zm-1.22,2a1.09,1.09,0,0,0-.15-.58,1.06,1.06,0,0,0-.45-.39,1,1,0,0,0-.59-.07,1,1,0,0,0-.53.26,1.08,1.08,0,0,0-.3.53,1,1,0,0,0,.06.59.93.93,0,0,0,.37.46,1,1,0,0,0,.57.18.86.86,0,0,0,.39-.06.81.81,0,0,0,.34-.21,1,1,0,0,0,.22-.32A1,1,0,0,0,153.57,194.09Z" fill="#333"/><path d="M155.25,194.18a2.23,2.23,0,0,1,.37-1.24,2.22,2.22,0,0,1,2.29-1,2.27,2.27,0,0,1,1.14.61,2.25,2.25,0,0,1,.49,2.43,2.35,2.35,0,0,1-.82,1,2.28,2.28,0,0,1-1.24.37,2.07,2.07,0,0,1-.85-.16,2.21,2.21,0,0,1-.73-.48,2.07,2.07,0,0,1-.48-.72A2.26,2.26,0,0,1,155.25,194.18Zm3.2,0a1,1,0,0,0-.18-.53.94.94,0,0,0-1-.39.92.92,0,0,0-.49.27.94.94,0,0,0-.26.49,1.07,1.07,0,0,0,.06.56,1,1,0,0,0,.36.43,1,1,0,0,0,.53.16,1,1,0,0,0,.38-.07.87.87,0,0,0,.32-.22,1,1,0,0,0,.21-.32A1.21,1.21,0,0,0,158.45,194.18Z" fill="#333"/><path d="M160,191a.7.7,0,0,1,.13-.42.72.72,0,0,1,.34-.28.71.71,0,0,1,.43,0,.77.77,0,0,1,.39.2.79.79,0,0,1,.21.39.82.82,0,0,1,0,.44.84.84,0,0,1-.28.34.8.8,0,0,1-.42.13.85.85,0,0,1-.54-.23A.75.75,0,0,1,160,191Zm.13,1.13h1.26v4.2h-1.26Z" fill="#333"/><path d="M166.62,194.18a2.25,2.25,0,0,1-.12.81,2.15,2.15,0,0,1-.43.71,1.87,1.87,0,0,1-.66.49,2,2,0,0,1-.8.2,1.48,1.48,0,0,1-.69-.11,1.6,1.6,0,0,1-.56-.4V198H162.1v-5.88h1.26v.39a1.6,1.6,0,0,1,.56-.4,1.48,1.48,0,0,1,.69-.11,2.11,2.11,0,0,1,1.46.69,2.15,2.15,0,0,1,.43.71A2.27,2.27,0,0,1,166.62,194.18Zm-1.26,0a1,1,0,0,0-.64-.91,1,1,0,0,0-.57-.05,1,1,0,0,0-.51.28,1,1,0,0,0-.27.51,1.14,1.14,0,0,0,.06.58,1.06,1.06,0,0,0,.37.44,1,1,0,0,0,.56.17.87.87,0,0,0,.39-.07,1,1,0,0,0,.34-.22,1,1,0,0,0,.21-.34A1,1,0,0,0,165.36,194.18Z" fill="#333"/><path d="M170.25,195c0,1-.84,1.37-1.75,1.37a1.83,1.83,0,0,1-1.8-1l1.09-.62a.68.68,0,0,0,.71.5c.3,0,.46-.1.46-.26,0-.47-2.07-.22-2.07-1.67,0-.92.77-1.38,1.65-1.38a1.94,1.94,0,0,1,.94.22,1.74,1.74,0,0,1,.69.68l-1.07.58a.61.61,0,0,0-.23-.27.56.56,0,0,0-.33-.1c-.22,0-.36.08-.36.23C168.18,193.78,170.25,193.46,170.25,195Z" fill="#333"/><path d="M174.6,192.08v4.2h-1.26v-.4a1.41,1.41,0,0,1-.54.4,1.36,1.36,0,0,1-.66.11,1.57,1.57,0,0,1-1.57-1.74v-2.57h1.26v2.39a.77.77,0,0,0,0,.3.67.67,0,0,0,.16.25.74.74,0,0,0,.25.17.7.7,0,0,0,.29,0c.46,0,.78-.27.78-.86v-2.29Z" fill="#333"/><path d="M181.57,193.7v2.58h-1.26v-2.47c0-.42-.2-.69-.6-.69s-.66.29-.66.79v2.37h-1.26v-2.47c0-.42-.2-.69-.6-.69s-.66.29-.66.79v2.37h-1.26v-4.21h1.26v.39a1.2,1.2,0,0,1,.5-.39,1.24,1.24,0,0,1,.63-.11,1.22,1.22,0,0,1,.62.13,1.3,1.3,0,0,1,.48.42,1.26,1.26,0,0,1,.54-.43A1.31,1.31,0,0,1,180,192,1.57,1.57,0,0,1,181.57,193.7Z" fill="#333"/><path d="M182.38,192.05a.94.94,0,1,0-.93-.94A.94.94,0,0,0,182.38,192.05Z" fill="#333"/></svg>