<svg id="Layer_1" data-name="Layer 1" xmlns="http://www.w3.org/2000/svg" viewBox="0 0 432 432"><path d="M206.31,58.92c-17.76,2.26-35.52,5.16-53,9-7.53,1.65-15.46,3.25-22.47,6.58-5.35,2.54-10.51,5.67-15.64,8.63-4.63,2.66-9.19,5.42-13.59,8.44A130.63,130.63,0,0,0,78.36,112.1c-4.3,4.8-8.48,9.76-12.42,14.85-2.53,3.26-5.31,6.88-5.94,11.08s1,8,3.32,11.42a141.08,141.08,0,0,0,11.43,14.38,91,91,0,0,0,27.63,21c12.27,6.19,25.53,10,38.91,13a220.79,220.79,0,0,0,45.51,5.52c12.09.1,24.21-1.4,36.17-3.08,11.79-1.66,23.53-3.72,35.22-6a135.47,135.47,0,0,0,24.37-7.68,222.86,222.86,0,0,0,27.7-13.4c8.1-4.65,16.07-9.86,22.95-16.22,4.94-4.57,10.11-10.38,10.86-17.36.42-3.92-1.29-7.89-2.77-11.42a70.37,70.37,0,0,0-8.95-15.38c-7.91-10.4-18-18.91-29.08-25.8A235.88,235.88,0,0,0,268.75,69.5c-12.6-5.21-25.76-9.24-39.36-10.69a78.68,78.68,0,0,0-18.72.11,3.09,3.09,0,0,0-3,3c0,1.45,1.38,3.21,3,3,12.75-1.68,25.62.29,37.89,3.81A199.25,199.25,0,0,1,284.4,83.35c20.7,10.62,42.19,24.84,51.39,47.09a45.1,45.1,0,0,1,2.27,6.79c0,.15,0,.32.09.46-.25-.71,0-.58,0-.33s0,.63,0,.95,0,.53,0,.8,0,.32-.05.48c0-.32.12-.66,0-.14s-.27,1.22-.46,1.82c-.09.28-.21.55-.31.83-.2.62.31-.63,0,0-.08.17-.15.35-.23.51a24.58,24.58,0,0,1-2.37,3.9c-.1.15-.21.29-.32.44-.44.61.41-.49-.08.1-.24.29-.47.59-.72.88-.61.73-1.25,1.44-1.91,2.14q-2,2.06-4.13,3.93c-.73.65-1.47,1.27-2.23,1.89l-1.22,1-.57.45c-.16.12-.15.12,0,0l-.47.36c-1.77,1.35-3.59,2.64-5.44,3.89A191.49,191.49,0,0,1,292,175.92a184.52,184.52,0,0,1-25.23,10c-9,2.76-18.38,4.23-27.63,5.82-12.1,2.09-24.26,3.91-36.49,4.95a183.8,183.8,0,0,1-38.31-.83,223.69,223.69,0,0,1-42.19-9.29c-11.25-3.7-22.12-8.82-31.56-16A80.39,80.39,0,0,1,79,159.59a124.64,124.64,0,0,1-10.65-13.42,25.27,25.27,0,0,1-1.51-2.56c-.07-.15-.57-1.3-.29-.57a13.15,13.15,0,0,1-.43-1.25c-.12-.39-.19-.8-.28-1.2.17.76,0,0,0-.39s0-.65,0-1c0-.67-.17.67,0,0,.05-.23.09-.47.14-.7s.22-.74.34-1.11c0,0,.27-.71.09-.26s.12-.25.13-.28a25.57,25.57,0,0,1,1.52-2.7,62.39,62.39,0,0,1,4.22-5.65c7.11-8.73,14.43-17.38,23-24.7,7.43-6.34,16.18-11.74,25-16.72,4.67-2.65,9.33-5.47,14.2-7.74.17-.08.76-.31-.07,0l.51-.2.9-.35c.77-.29,1.53-.55,2.31-.81,1.75-.58,3.52-1.09,5.31-1.58,8.92-2.44,18-4.22,27.11-5.88s18.2-3.15,27.34-4.49l4.93-.7,1.14-.16.5-.06c-.9.12-.22,0,0,0l1.9-.24a3.1,3.1,0,0,0,3-3c0-1.47-1.38-3.21-3-3Z"/><path d="M206.31,32a252.45,252.45,0,0,0-29.89,3.64,311.16,311.16,0,0,0-30.63,6.66A110.47,110.47,0,0,0,134.56,46a112.12,112.12,0,0,0-13,6.66C112.4,57.71,103.35,63,95.07,69.45A139.75,139.75,0,0,0,73.39,91c-7.91,9.6-13,21.29-13.53,33.81a54.21,54.21,0,0,0,10.79,33.93,86.1,86.1,0,0,0,25,22.41c10.55,6.36,22.23,10.7,34.1,13.87a246.25,246.25,0,0,0,43.18,7.69c29.34,2.43,58.94-2.26,87.46-8.94A223.34,223.34,0,0,0,298,181.82c11.24-4.84,22.14-11.18,30.73-20C337,153.4,343,142.65,344.89,131a55.12,55.12,0,0,0-5-32.75c-5-10.42-12.7-19.46-21.41-26.94-8.9-7.64-18.91-13.57-29.21-19.09A193.21,193.21,0,0,0,261.07,39.6a144.16,144.16,0,0,0-34.85-7.21A161.3,161.3,0,0,0,206.31,32c-3.85.16-3.87,6.16,0,6a140.75,140.75,0,0,1,66.84,12.8,241.07,241.07,0,0,1,26.33,14,104.29,104.29,0,0,1,26.7,22.86c6.53,8.08,11.37,17.5,13,27.79a47.56,47.56,0,0,1-5.53,29.84c-11.61,21.19-35.73,31.54-57.78,38.16a359.28,359.28,0,0,1-38.79,9,277.91,277.91,0,0,1-43.14,4.85,205.22,205.22,0,0,1-42.2-3.47c-13-2.39-26-5.54-38.24-10.5A93.9,93.9,0,0,1,86,166.69c-8.23-7.34-15.16-16.33-18.31-27a46.17,46.17,0,0,1,2.19-32c4.51-10,12.29-18.41,20.13-26A124.6,124.6,0,0,1,112.12,65c4.71-2.88,9.52-5.58,14.36-8.24,2.39-1.32,4.76-2.7,7.21-3.92.58-.29,1.18-.55,1.77-.82-.79.35.29-.11.49-.19l1.29-.5c8.34-3.13,17.12-5.15,25.81-7,10-2.14,20.49-4,30.42-5.15,4.27-.51,8.55-.93,12.84-1.14a3,3,0,0,0,0-6Z"/><path d="M195,71.83c-1.14,5.44,1.11,11.18,4.33,15.51A21.87,21.87,0,0,0,205.11,93a31.24,31.24,0,0,0,6.59,3,68.85,68.85,0,0,0,17.71,3.21A54.68,54.68,0,0,0,245.75,98c4.6-1.1,9.75-2.8,13.22-6.18,3.73-3.63,3.82-9.32,2-13.9C256.05,65.72,243.14,61.19,231,60s-25.28-.13-34.89,8.32a3,3,0,0,0,4.24,4.24,26.73,26.73,0,0,1,10.53-5.54,47.83,47.83,0,0,1,14.61-1.37c9.8.32,21.76,2.06,27.74,10.52A15.29,15.29,0,0,1,256,82a8.41,8.41,0,0,1,.17,2.59,5.49,5.49,0,0,1-.55,1.84c-.1.19-.21.36-.32.54-.22.37.49-.48,0,0-.29.3-.57.61-.88.89l-.41.34c.44-.34-.05,0-.17.1-.45.29-.9.58-1.37.85a25.55,25.55,0,0,1-5.63,2.29A46.82,46.82,0,0,1,240.36,93l-.6.09c.55-.08-.07,0-.2,0l-1.22.11c-1.45.1-2.92.13-4.38.13a70.59,70.59,0,0,1-16.06-1.84c-1.32-.32-2.64-.68-3.94-1.1-.6-.19-1.2-.4-1.79-.62l-.77-.29-.45-.19c.23.1.18.07-.15-.07A21,21,0,0,1,208,87.71c-.18-.11-1.14-.83-.6-.39a19.49,19.49,0,0,1-1.5-1.37,20.57,20.57,0,0,1-4.09-6.09,17.43,17.43,0,0,1-1.1-3.69,11.47,11.47,0,0,1,0-2.75,3.07,3.07,0,0,0-2.09-3.69,3,3,0,0,0-3.69,2.1Z"/><path d="M163.89,69.84c-2.92,2.77-6.4,6.85-5.31,11.21,1.24,5,7,6.12,11.32,6.9,8.12,1.45,17.86,3,25.63-.74,2.88-1.37,5.18-4,5.05-7.37A25.35,25.35,0,0,0,198,70.47c-1.14-2.47-2.87-5.43-5.67-6.2-2.39-.65-5.19-.06-7.56.35-6.57,1.14-12.94,3.25-19.5,4.45a3,3,0,0,0-2.1,3.69,3.07,3.07,0,0,0,3.69,2.1c5-.91,9.84-2.37,14.77-3.49,1.3-.29,2.61-.57,3.92-.81.58-.11,1.15-.21,1.73-.3.24,0,1-.13.31-.05q.41-.06.81-.09c.29,0,2.37-.34,2.53-.06,0,0-.81-.18-.19,0,.25.07.75.27-.25-.13.35.14.29.25,0-.06l.6.59c.38.36-.2-.33.11.14.17.25.34.5.5.75a19.55,19.55,0,0,1,1,1.74,11.93,11.93,0,0,1,.59,1.36c.26.66.49,1.33.69,2s.34,1.19.47,1.8c.07.29.12.6.18.9.12.53,0-.44,0,.26,0,.43,0,.84,0,1.27,0,0,.1-.8,0-.34,0,.11-.13.2,0,0s-.22.37-.3.5c.32-.52-.12.09-.26.24l-.28.26c.1-.1.45-.28,0,0l-.71.43c-.16.08-1,.46-.63.32A19.26,19.26,0,0,1,188,83.18c-.33,0-1.26.13-1.89.17-.84.06-1.69.08-2.53.08a53.24,53.24,0,0,1-5.5-.34q-3.57-.36-7.1-1c-1.9-.36-4.22-.59-5.87-1.67-.6-.39-.7-.45-.79-1a.72.72,0,0,1,0-.23,4.76,4.76,0,0,1,.27-.85,15,15,0,0,1,3.48-4.29c2.81-2.66-1.44-6.9-4.25-4.25Z"/><path d="M136.05,79.9c-5.4,2.28-5.36,9.88-1.54,13.55,4.34,4.15,11.36,4.29,17,3.94s12.23-1.82,15.52-6.88c2.17-3.34.31-6.79-2.61-8.82a29.8,29.8,0,0,0-8.67-3.78c-6.89-2-14.18-2.27-21.31-2.52-3.86-.13-3.85,5.87,0,6a106.77,106.77,0,0,1,14.74,1.17c4.38.77,9.31,1.94,12.78,4.85-.14-.12.65-.12.16.27-.06,0-.86-1.59-.06-.63.11.13-.31.55-.31.55a7.27,7.27,0,0,1-2.1,1.73,16.34,16.34,0,0,1-5.88,1.85c-3.87.56-8.74.68-12.61-.63a6.91,6.91,0,0,1-2.38-1.34,5.62,5.62,0,0,1-.41-.44c.32.39-.15-.27-.2-.36-.28-.47-.14-.22-.07-.07a8,8,0,0,1-.26-.83c-.17-.51-.06-.23,0-.05a8,8,0,0,1,0-.85c0-.14.1-.55,0,0a5.45,5.45,0,0,1,.22-.79c-.11.27-.19.21.05,0s-.1.09.11-.15.56-.41.15-.15a5.43,5.43,0,0,1,.8-.4c1.49-.63,1.82-2.83,1.08-4.1a3.09,3.09,0,0,0-4.11-1.08Z"/><path d="M104.5,97.43a2.6,2.6,0,0,1,.1.4l-.11-.8a2.7,2.7,0,0,1,0,.57l.11-.8a4.67,4.67,0,0,1-.27.9l.3-.72c-.38.9-.87,1.74-1.17,2.67a5,5,0,0,0,.39,4c1.07,1.88,3.24,2.61,5.28,2.72a8.94,8.94,0,0,0,5-1.22,5.47,5.47,0,0,0,2.06-2.1,5.61,5.61,0,0,0,.43-4.14,7.29,7.29,0,0,0-2.11-3.26,12.38,12.38,0,0,0-3.82-2.29,3,3,0,0,0-2.31.3,3.11,3.11,0,0,0-1.38,1.8,3.06,3.06,0,0,0,.31,2.31l.46.61a3.13,3.13,0,0,0,1.33.77l.22.09-.72-.31a8.89,8.89,0,0,1,1.86,1.09l-.6-.47a6.25,6.25,0,0,1,1.1,1.08l-.47-.61a4.38,4.38,0,0,1,.53.88l-.3-.72a3.13,3.13,0,0,1,.21.74l-.11-.8a3,3,0,0,1,0,.67l.1-.8a2.83,2.83,0,0,1-.15.59l.3-.72a2.29,2.29,0,0,1-.31.55l.47-.61a3.26,3.26,0,0,1-.46.45l.6-.47a4.37,4.37,0,0,1-.92.52l.72-.3a6.71,6.71,0,0,1-1.58.42l.79-.11a6.19,6.19,0,0,1-1.72,0l.79.11a4.76,4.76,0,0,1-1.11-.28l.72.3a2.91,2.91,0,0,1-.62-.35l.61.47a2.73,2.73,0,0,1-.35-.33l.47.6a2.85,2.85,0,0,1-.23-.37l.31.71a1.83,1.83,0,0,1-.14-.47l.11.8a2.1,2.1,0,0,1,0-.56l-.11.8a4,4,0,0,1,.27-.89l-.31.72c.36-.83.79-1.62,1.1-2.47a5,5,0,0,0,.1-3.26A3.18,3.18,0,0,0,108.91,94a3.09,3.09,0,0,0-2.32-.3,3,3,0,0,0-2.09,3.69Z"/><path d="M111,93.25a11.56,11.56,0,0,0,3.46,7A11.38,11.38,0,0,0,122,103c3-.08,5.89-1.5,6.88-4.48a5,5,0,0,0-.45-4A5.62,5.62,0,0,0,125,92c-2.24-.64-4.56-.19-6.84-.46l.8.11-.56-.1-.26-.08c-.29-.07-.25-.27.38.18-.13-.09-.59-.39-.1,0s.19.15.09,0c-.29-.29.48.69.25.31a3,3,0,0,0-5.18,3c2.09,3.46,6.42,2.26,9.74,2.68l-.79-.11c.29.05.59.1.88.18.11,0,.23.09.35.12-.5-.23-.61-.27-.34-.14l.16.09c.53.27-.48-.48-.18-.14s.3.5-.19-.27c.31.5-.14-.35-.12-.35s.1.35.11.39l-.11-.8a2.08,2.08,0,0,1,0,.61l.11-.8c0,.14-.07.28-.1.41-.08.43.41-.79.08-.22s.46-.47.13-.14l-.31.3c-.12.14.71-.47.15-.13-.29.18-.72.2.11,0-.41.1-.8.24-1.23.31l.8-.11a8.07,8.07,0,0,1-2.14,0l.8.11a11,11,0,0,1-1.29-.28l-.62-.21c-.5-.17.71.34,0,0a9.91,9.91,0,0,1-1-.61c-.43-.28.6.52,0,0-.17-.15-.33-.32-.49-.49a3.23,3.23,0,0,1-.23-.27c.29.38.34.45.16.2s-.25-.38-.36-.58a6.63,6.63,0,0,0-.31-.59c.2.46.23.55.12.26l-.12-.31a15.62,15.62,0,0,1-.59-2.52,3,3,0,0,0-1.37-1.79,3.13,3.13,0,0,0-2.32-.3A3.09,3.09,0,0,0,111,93.25Z"/><path d="M118.78,86.46A6,6,0,0,0,117,91.12a7.7,7.7,0,0,0,2.23,4.62,11.92,11.92,0,0,0,9.17,3.43c1.26-.11,2.85-.29,3.8-1.22a11.57,11.57,0,0,0,1.87-2.62,14.77,14.77,0,0,0,1.85-6,12.61,12.61,0,0,0-.73-5.61c-.5-1.35-1.09-3-2.51-3.61a7.44,7.44,0,0,0-3.17-.5,9.85,9.85,0,0,0-6,2.39,5.38,5.38,0,0,0-1.71,5.8,3.31,3.31,0,0,0,1.37,1.79,3,3,0,0,0,2.32.3c1.39-.45,2.73-2.13,2.09-3.69,0-.1-.19-.38-.15-.49,0,.1.07.89.09.31,0,.92-.09.61,0,.32.13-.46-.37.79,0,.14.23-.43-.51.55-.14.17l.3-.31c.57-.53-.44.26,0,0l.4-.25.44-.23c.5-.26-.7.21,0,0,.36-.1.74-.17,1.09-.28-.81.25-.31,0,0,0s.41,0,.62,0l.26,0c.24,0,.12,0-.35,0a4.82,4.82,0,0,0,.68.16l-1.79-1.38c.13.24.26.49.38.74s.12.24.17.37c-.17-.41-.19-.46-.07-.16.16.51.33,1,.44,1.52,0,.13.05.26.08.39,0,.33,0,.26,0-.22a3,3,0,0,0,.07.78,13.38,13.38,0,0,1-.05,1.55c0,.33,0,.26,0-.21,0,.13-.05.25-.07.38s-.11.52-.18.77-.15.51-.24.76-.09.25-.13.38c-.13.3-.1.25.06-.16,0,.16-.28.59-.36.74s-.27.49-.41.72-.32.47-.47.71-.17.23.08-.09l-.28.34,1.32-.77c-.33.1-.66.17-1,.25-.6.13.74,0,.12,0l-.51,0c-.31,0-.62,0-.93,0-.68,0,.44.09.13,0l-.41-.07a8.55,8.55,0,0,1-1-.26l-.47-.16c-.57-.19.66.32.12,0a17,17,0,0,1-1.55-.91c-.31-.18.55.47.19.15l-.33-.29c-.2-.19-.37-.44-.58-.62.16.14.44.61.15.18a3.79,3.79,0,0,1-.2-.34c0-.09-.09-.19-.15-.28-.15-.26.26.82.13.26,0-.09,0-.2-.08-.29-.16-.47,0,.8,0,.33,0-.1,0-.23,0-.34s0-.16,0,.16,0,.38,0,.17c0-.05,0-.32.09-.34s-.42.78-.1.27l.17-.28c.14-.19,0-.08-.26.34a2,2,0,0,1,.19-.22,3,3,0,1,0-4.24-4.24Z"/><path d="M339.13,123.89q2,41,2.94,82.12.93,40.83.82,81.68-.06,23.16-.45,46.32c-.07,3.86,5.93,3.86,6,0q.69-41.08.35-82.18-.36-40.85-1.74-81.66-.8-23.14-1.92-46.28a3,3,0,1,0-6,0Z"/><path d="M57.86,129.59c.72,29.39,1.63,58.78,2.47,88.17.76,26.84,1.44,53.68,1.73,80.53q.24,22.54.08,45.1c0,3.87,6,3.87,6,0,.22-26.75-.09-53.51-.66-80.26C66.89,235.54,66,208,65.24,180.38q-.73-25.4-1.38-50.79c-.09-3.85-6.09-3.87-6,0Z"/><path d="M62.55,344.91A60.94,60.94,0,0,0,71.77,359a91.93,91.93,0,0,0,17,15.29,130.15,130.15,0,0,0,26,14A186.61,186.61,0,0,0,151,398.77a289.23,289.23,0,0,0,48.34,4.71,307.64,307.64,0,0,0,50.84-3A183.25,183.25,0,0,0,288,391a124.64,124.64,0,0,0,27.59-14.32,100.34,100.34,0,0,0,18.72-16.92,102.18,102.18,0,0,0,12.05-17.61c.71-1.32,1.4-2.66,2.06-4a3.09,3.09,0,0,0-1.08-4.11,3,3,0,0,0-4.1,1.08,103,103,0,0,1-10.16,16.66l-.43.57c-.34.45.32-.41,0,0s-.59.76-.89,1.13c-.57.71-1.15,1.4-1.73,2.09q-1.86,2.18-3.84,4.24a97.51,97.51,0,0,1-8.95,8.17L316,369l.12-.09-.39.3-.7.52c-.87.66-1.76,1.3-2.65,1.92q-2.85,2-5.82,3.8a120.43,120.43,0,0,1-13.37,7c-2.35,1.05-4.52,1.94-7.21,3s-5.41,1.94-8.15,2.79a180.27,180.27,0,0,1-18.74,4.73,262,262,0,0,1-46.34,4.61,309.75,309.75,0,0,1-49.83-2.78,206.67,206.67,0,0,1-38.49-9.13,139.39,139.39,0,0,1-14.56-5.94,126.34,126.34,0,0,1-12.62-6.89q-2.77-1.73-5.43-3.61-1.25-.88-2.46-1.8l-.55-.42c-.34-.26.4.32.07,0l-.27-.2-1.14-.91a89.18,89.18,0,0,1-8.13-7.41q-1.71-1.79-3.32-3.67c-.49-.58-1-1.17-1.45-1.77l-.37-.47c-.12-.15.41.54,0,.07l-.7-.93A58.84,58.84,0,0,1,69.25,345c-.54-1-1-2-1.52-3.07a3,3,0,0,0-4.1-1.08,3.08,3.08,0,0,0-1.08,4.11Z"/><path d="M352,135c.56-.59-.57.27-.12.07a1.38,1.38,0,0,0,.29-.17c.39-.25.42,0-.31.12.55-.09,1.12-.34,1.68-.45l.22,0c.49-.11-.82.08-.44.06.18,0,.36,0,.54-.06l1.2-.06a26,26,0,0,1,2.65.11l.73.08c.88.09-.53-.09.06,0s1.09.17,1.63.27c1.13.22,2.25.49,3.36.8s2.47.76,3.68,1.21l.86.33c.32.13,1.31.56.45.18.64.29,1.29.56,1.92.86a54.14,54.14,0,0,1,8,4.67l1,.72.46.34c.1.08.67.51.31.23s.22.18.31.25l.46.37,1.06.88c1.36,1.16,2.67,2.38,3.91,3.65s2.64,2.81,3.85,4.3c.29.35.57.71.85,1.07s-.11-.14-.12-.16l.28.37.48.64c.6.83,1.19,1.66,1.75,2.51a73.67,73.67,0,0,1,6.35,11.8c-.21-.49.12.29.18.43s.2.51.31.77c.22.57.44,1.14.65,1.71.46,1.22.89,2.45,1.28,3.69.82,2.52,1.52,5.08,2.12,7.67a107.92,107.92,0,0,1,2.55,17.43,147,147,0,0,1-2.37,39.46,104.52,104.52,0,0,1-4.44,15.59c-.21.57-.44,1.15-.66,1.72l-.32.78c0,.13-.1.25-.16.38-.13.32.15-.33-.07.18-.47,1.07-.94,2.14-1.45,3.2q-1.44,3-3.13,5.91t-3.46,5.37c-.29.41-.59.82-.89,1.22-.13.19-.27.37-.41.56l-.32.42-.32.41-.42.52-.92,1.11a70,70,0,0,1-7.71,7.79c-.66.57-1.34,1.13-2,1.68l-.45.36-.23.18-.29.22-.53.4c-1.29,1-2.62,1.87-4,2.75a85,85,0,0,1-7.59,4.34c-1.16.58-2.33,1.14-3.51,1.69a17.14,17.14,0,0,1-3.35,1.47c.22,0,.7-.29.24-.11l-.36.15-.81.34-1.45.59-2.67,1.08c-.95.39-1.89.78-2.83,1.2-1.48.65-1.83,2.82-1.07,4.1a3.06,3.06,0,0,0,4.1,1.08l.52-.23.25-.11c.48-.21-.77.32-.29.12l1.24-.5L357.1,306c2.4-1,4.78-2,7.12-3.05a83,83,0,0,0,15.5-9.22,74.91,74.91,0,0,0,16.44-17.27,88.51,88.51,0,0,0,12.09-26.94c3.49-12.88,4.69-26.4,4.52-39.71C412.61,197.45,411,185,407,173.3a76.79,76.79,0,0,0-13.65-24.58,60.62,60.62,0,0,0-16.68-13.9A49.48,49.48,0,0,0,361.06,129c-3.73-.65-8.13-1.13-11.66.57a5.51,5.51,0,0,0-1.63,1.16c-2.66,2.79,1.57,7,4.24,4.24Z"/><path d="M344.33,153.77c.86.49,1.68,1,2.49,1.58l.7.51.37.28c.48.34-.58-.47-.11-.09s1,.84,1.55,1.27a53.94,53.94,0,0,1,6.84,7.09l.44.55c.49.6-.25-.33,0,0l.81,1.08c.65.89,1.27,1.8,1.88,2.72a63,63,0,0,1,3.18,5.45,60.89,60.89,0,0,1,2.81,6.15A74.14,74.14,0,0,1,367.8,188a92.91,92.91,0,0,1,1.76,37,83.25,83.25,0,0,1-3.89,15.93c-.39,1.07-.8,2.14-1.23,3.2l-.09.21-.35.78c-.26.59-.53,1.18-.81,1.76q-1.35,2.8-3,5.45c-1,1.71-2.17,3.35-3.36,4.94-.09.12-.55.7-.05.07l-.52.65-.9,1.1c-.54.63-1.08,1.25-1.65,1.86a64,64,0,0,1-6,5.66,3,3,0,0,0,0,4.24,3.07,3.07,0,0,0,4.24,0c12.35-10.31,19.78-24.88,22.72-40.58,4.25-22.67,1.79-48.37-12.24-67.39-4.08-5.53-9.08-10.86-15.13-14.27-3.37-1.89-6.4,3.29-3,5.18Z"/><path d="M95.71,108.31l56.14-2.19,15.92-.62c3.34-.13,4.13-5,.8-5.9a73.65,73.65,0,0,0-29.72-2.17,3.09,3.09,0,0,0-3,3,3,3,0,0,0,3,3,554.23,554.23,0,0,0,56-3.62,3,3,0,0,0,2.94-2.61,3,3,0,0,0-2.15-3.29,61.92,61.92,0,0,0-20.17-1.37,3.09,3.09,0,0,0-3,3,3,3,0,0,0,3,3A209.52,209.52,0,0,1,204,100.32l-.8-5.89L161.67,107.1c-3.15,1-2.68,6,.8,5.89l47.92-1.36c13.31-.38,27-.34,39.9-4a52.42,52.42,0,0,0,19.37-9.86c1.94-1.6.4-5.37-2.12-5.12a536.7,536.7,0,0,0-64.16,10.21l2.31,5.48c8.81-3.82,18.68-4.27,28.15-4.44,9.86-.18,19.85.06,29.56-2a46.06,46.06,0,0,0,15.18-6.09c2.1-1.35,1.88-4.82-.72-5.48L265.8,87.28l1.33,5L272.7,87a3,3,0,0,0,0-4.24,20.13,20.13,0,0,0-10.31-5.12,3,3,0,0,0-2.31,5.48,61,61,0,0,0,28.6,9.38l-.8-5.9-20.55,3.08a3,3,0,0,0-2.15,3.3,3,3,0,0,0,2.95,2.6l34.32,2.26-.8-5.89L241.4,104.18l-17.18,3.49c-3.35.68-2.55,5.93.8,5.89,12.2-.16,24.39-.37,36.6-.33,14.34,0,28.74.27,43,1.58,1.7.16,3.41.33,5.11.53l1.15.14.57.07.44.06.29,0,.68.1,1.06.16a72.46,72.46,0,0,1,8.14,1.66l.8-5.89c-12.79-.31-25.59,0-38.38.23-15.17.26-30.34.61-45.52.76-6.42.06-12.84.11-19.26,0l.8,5.9c22-5.85,44.92-7.72,67.64-7.44q9.54.11,19.07.75l-1.51-5.59c-24.91,10.52-51.83,16.41-78.69,19a314.46,314.46,0,0,1-40.83,1.27,421,421,0,0,1-43.39-4.2c-16.48-2.31-32.91-5-49.45-6.86l.79,5.89a470.7,470.7,0,0,1,56.69-9.43q14.23-1.48,28.56-2.09c8.85-.38,17.88-.87,26.74-.25a34.75,34.75,0,0,1,10.73,2.21,13.74,13.74,0,0,1,7.11,6.15l1.79-4.41c-16.89,2.69-34,1.67-51,1-9.19-.34-18.4-.18-27.54-1.32s-17.87-3-26.84-4.34c-10.29-1.48-20.64-2.14-30.92-.2-2.93.55-2.8,5.14,0,5.78a308.81,308.81,0,0,0,59.93,7.86l-.79-5.89a416.63,416.63,0,0,1-53.8,11.39q-7.68,1.1-15.39,1.88a3,3,0,1,0,0,6,152.7,152.7,0,0,0,39.43-3.25,3,3,0,0,0,2.15-3.29,3.06,3.06,0,0,0-3-2.6l-17.42-2.06-8.58-1c-2.46-.29-5.12-.91-7.57-.24a5.62,5.62,0,0,0-4.22,5.57c.1,2.55,2.08,4.53,4.09,5.83,2.18,1.42,4.87,2,7.31,2.86l8.2,2.73,18.88,6.3v-5.78a88.26,88.26,0,0,1-32.94-1.79l-.8,5.89c29-1.82,57.91-3.84,86.89-5.42s57.9-2.72,86.88-2.78q24.35,0,48.68,1v-6c-25.07-.47-50,3-74.95,4.46a274.3,274.3,0,0,1-37.49,0,372,372,0,0,1-37-5.2c-14-2.54-28-5.18-42-7.78l-.8,5.89,103-2.89,51-1.43c10.06-.28,20-.32,30.06.24,5.87.32,11.73.76,17.57,1.47l.87.11.57.07c-.32,0-.3,0,.05,0,.55.08,1.1.15,1.64.24,1.17.18,2.33.37,3.49.61,1,.19,2,.41,2.92.68.41.11.81.23,1.22.36s1.47.59.44.14l1.51-5.59a279,279,0,0,0-29.35-.8,297.85,297.85,0,0,0-33.9,2.18,91.08,91.08,0,0,0-15.19,3l2.92,5c12.37-10,25.69-20.53,41.47-24.35a45.87,45.87,0,0,1,13.21-1.22l-1.52-5.59a182.58,182.58,0,0,0-35.08,21.7c-1.79,1.4-.72,4.55,1.32,5a273.35,273.35,0,0,0,49.41,6.6v-6L287.08,130c-3.24.13-4.24,5.14-.8,5.89a198.57,198.57,0,0,0,51.34,4.41l-.8-5.89c-15.12,4.71-30.89,6.26-46.66,6.81-16.06.56-32.13.5-48.18,1.08-33.28,1.19-66.56,2.58-99.87,2.65-18.72,0-37.44-.34-56.13-1.42v6q43.21-.74,86.43.58,12.21.38,24.42.92v-6q-47.69,2.26-95.44,1.39-13.45-.25-26.92-.75a3,3,0,0,0,0,6q41,2.52,82.15,3.94t82.24,1.74q23.05.18,46.1,0l-.79-5.89q-39.93,6.07-80.32,8.13-40.22,2.06-80.5.15-22.68-1.08-45.29-3.43v6q47,.79,94.06,1.18,46.77.38,93.54.32,26.26,0,52.55-.19c2.52,0,4.05-3.31,2.12-5.12A22,22,0,0,0,301.72,153l2.32,5.48a44.88,44.88,0,0,1,19.49-6.67l-.8-5.89A234.72,234.72,0,0,1,276,158.36a382,382,0,0,1-48,4.44c-16.46.61-32.93.53-49.39.39s-32.84-.34-49.25,0c-5.52.13-11.05-.14-16.57.09s-11.72.69-16.66,3.5a13.42,13.42,0,0,0-3,2.28,3,3,0,0,0,2.13,5.13c23.73-.09,47.46.4,71.18,1.15,24.32.76,48.63,1.82,72.94,3q19.62.91,39.23,1.89v-6q-32.65.41-65.32,1-33.56.54-67.1,1.06-18.1.27-36.2.5v6c28.93-.85,58-1.9,86.85.07,7.63.52,15.25,1.25,22.82,2.4v-5.79L159.1,190l-17.28,3c-3.38.59-2.51,5.9.8,5.89l60.76-.15,17.29,0-.8-5.89a50.08,50.08,0,0,1-29.82-5.45l-.71,5.48a123.48,123.48,0,0,1,32.74-8.37c11.28-1.23,22.54-.24,33.84-.65a66.7,66.7,0,0,0,18.72-3c2.63-.87,3.07-5.13,0-5.78a352.37,352.37,0,0,0-59.22-7.37v6c10.67-1.2,21.56-1.06,32.28-1.18,13.41-.14,26.83-.11,40.25-.05,5,0,10.05.06,15.07.06L301.51,167a26.9,26.9,0,0,1-3.65,2.09c-.69.34-1.39.64-2.09,1s.62-.24-.1,0l-.63.25c-.51.21-1,.41-1.54.6-4,1.52-8.12,2.77-12.26,3.91-9.86,2.72-19.89,4.84-30,6.71q-7.33,1.35-14.71,2.5-3.39.51-6.78,1c-.09,0-1,.14-.26,0l-.78.1-1.28.17c-1,.13-2,.25-3,.36-12,1.4-24.26,1.58-36.37,1.68q-27.66.24-55.27-2.18l.8,5.89a50.48,50.48,0,0,1,16.08-3.55,3,3,0,0,0,0-6A55.46,55.46,0,0,0,132,185.3a3,3,0,0,0,.79,5.89q25,2.17,50,2.21,12.27,0,24.52-.52c5-.21,10-.42,14.95-.95,9-1,18-2.37,27-4,10.25-1.82,20.47-3.92,30.55-6.56,4.82-1.26,9.62-2.65,14.3-4.36a45.47,45.47,0,0,0,10.36-4.89c2.35-1.63,1.63-5.59-1.52-5.59-10.61,0-21.22-.1-31.83-.1-13.45,0-26.92,0-40.38.41-5.13.15-10.29.29-15.39.86a3.09,3.09,0,0,0-3,3,3,3,0,0,0,3,3A342.62,342.62,0,0,1,273,180.89v-5.78c-10.62,3.51-21.87,2.87-32.9,2.71A139.38,139.38,0,0,0,206,181.27a127.31,127.31,0,0,0-18.27,5.84,3.08,3.08,0,0,0-2.15,2.5,3,3,0,0,0,1.44,3,57,57,0,0,0,34.44,6.05c1.45-.19,2.34-2,2.14-3.29a3,3,0,0,0-2.94-2.6l-60.77.15-17.28,0,.8,5.9L204,188.23l17.27-3c2.83-.5,2.9-5.35,0-5.79-28.87-4.37-58.34-4-87.46-3.35-7.93.19-15.86.44-23.8.67-3.85.12-3.87,6,0,6q32.67-.41,65.32-1,33.56-.54,67.1-1.06,18.1-.27,36.2-.5c3.88,0,3.84-5.81,0-6-23.71-1.15-47.42-2.32-71.13-3.32-24.31-1-48.63-1.89-73-2.35q-19.64-.37-39.26-.33l2.12,5.12c.16-.18.34-.34.51-.51s.57-.45.16-.15a13.48,13.48,0,0,1,1.54-.94l.74-.36c-.45.21.17-.06.32-.12.6-.22,1.21-.42,1.83-.59a36,36,0,0,1,7.83-1.23c5.53-.38,11.06-.13,16.59-.17,7.71-.06,15.43-.27,23.15-.27,8.15,0,16.3.07,24.44.14,16.32.15,32.63.29,48.94-.2A421.57,421.57,0,0,0,272,165a244.18,244.18,0,0,0,46.56-11.21q2.9-1,5.76-2.15a3,3,0,0,0,2.15-3.29,3,3,0,0,0-2.94-2.6A51.31,51.31,0,0,0,301,153.25a3,3,0,0,0-1.23,3.74,3.06,3.06,0,0,0,3.54,1.74,15.55,15.55,0,0,1,12.76,4l2.13-5.12q-47,.28-94.07.15-46.77-.13-93.53-.7-26.28-.32-52.55-.76a3,3,0,0,0,0,6q40.44,4.18,81.16,4.34,40.51.15,80.92-3.73,22.89-2.2,45.62-5.68a3,3,0,0,0-.8-5.89q-41.11.3-82.25-.5t-82.21-2.71q-23-1.06-46-2.48v6q47.7,1.76,95.44.39,13.47-.39,26.92-1a3,3,0,0,0,0-6q-43.17-1.91-86.41-1.75-12.23,0-24.44.25c-3.88.07-3.83,5.78,0,6,33.41,1.92,66.89,1.63,100.33.68,16.73-.47,33.46-1.11,50.18-1.71,8.23-.3,16.45-.64,24.68-.78,8-.14,16-.16,24-.36,17.93-.43,36-1.8,53.24-7.17,3.11-1,2.7-6.05-.8-5.89a191.5,191.5,0,0,1-49.74-4.2l-.8,5.9,35.73-1.46a3,3,0,0,0,0-6A262.93,262.93,0,0,1,275,122.17l1.32,5a176.28,176.28,0,0,1,33.87-20.77,3,3,0,0,0,1.38-3.39,3.1,3.1,0,0,0-2.89-2.2c-17.55-.92-33.48,8-47.14,18.13-4,3-7.91,6.06-11.78,9.2-2.38,1.92.19,5.86,2.92,5a82.36,82.36,0,0,1,12.65-2.63l.78-.11.48-.06c.65-.08,1.3-.17,2-.24,1.34-.16,2.68-.31,4-.44q4.23-.42,8.49-.7c11.21-.74,22.46-1,33.69-.71,4.93.11,9.86.3,14.77.75,2.88.27,4.23-4.41,1.52-5.59a42.89,42.89,0,0,0-11.14-2.64c-5.23-.72-10.49-1.21-15.76-1.57-9-.62-18.05-1-27.08-.76l-103.54,2.91L115.18,123a3,3,0,0,0-3,2.61,3,3,0,0,0,2.15,3.29q18.86,3.5,37.72,7c12.53,2.3,25.09,4.48,37.78,5.74,25.11,2.5,50.16,0,75.2-2.09a416.3,416.3,0,0,1,42.37-1.89c3.88.07,3.85-5.82,0-6-28.94-1.35-57.93-1.27-86.89-.39s-57.94,2.57-86.88,4.41c-16.22,1-32.45,2.12-48.68,3.14a3,3,0,0,0-.79,5.89,95.94,95.94,0,0,0,36.12,1.79,3,3,0,0,0,2.21-2.89,3.09,3.09,0,0,0-2.21-2.89L91.51,131.1c-1.73-.58-3.53-1-4.85-2.24-.06-.06-.55-.52-.48-.6s0,.61-.05.65c0,.25-.46.13,0,0-.15,0,.29,0,.48,0a43.25,43.25,0,0,1,6.7.69l7.54.9,17.16,2-.79-5.89a146.57,146.57,0,0,1-37.84,3v6a422.26,422.26,0,0,0,55.5-9.49q7.68-1.84,15.28-4c3.3-.92,2.58-5.78-.8-5.89a301.13,301.13,0,0,1-58.34-7.64v5.78c17.85-3.37,35.83,2,53.44,4.4a128.2,128.2,0,0,0,13.84,1.25c4.67.13,9.34.18,14,.34,8.72.3,17.45.76,26.18.82a175.12,175.12,0,0,0,28.85-2c2-.32,2.62-2.87,1.8-4.41-3.54-6.6-10.74-9.66-17.82-10.75-8.57-1.31-17.43-.81-26.06-.54a479.51,479.51,0,0,0-59.58,5.56q-16.68,2.59-33.14,6.39a3,3,0,0,0-2.15,3.29,3.06,3.06,0,0,0,2.95,2.6c29.45,3.33,58.6,9.33,88.25,10.86a313.14,313.14,0,0,0,83.05-6.91,254.27,254.27,0,0,0,44.09-13.93,3,3,0,0,0,1.38-3.39,3.1,3.1,0,0,0-2.9-2.2c-23.15-1.51-46.54-1-69.47,2.85q-9.51,1.59-18.84,4c-3.31.88-2.56,5.81.8,5.89,12.78.31,25.59,0,38.38-.23,15.17-.26,30.34-.61,45.52-.75,6.42-.07,12.84-.12,19.26,0,3.4.08,4.05-5,.8-5.9a103.11,103.11,0,0,0-16.29-2.7c-6.83-.72-13.7-1.11-20.56-1.37-14.39-.57-28.79-.56-43.19-.4-6.22.06-12.43.17-18.64.25l.79,5.89,60.26-12.23,17.18-3.49a3,3,0,0,0,2.14-3.29,3,3,0,0,0-2.94-2.6l-34.32-2.26.79,5.89,20.55-3.08a3,3,0,0,0,2.15-3.29,3,3,0,0,0-2.94-2.6,54.7,54.7,0,0,1-25.58-8.56l-2.31,5.48A14.63,14.63,0,0,1,268.46,87V82.76l-5.58,5.29a3,3,0,0,0,1.33,5l12.06,3.06-.72-5.48c-8,5.14-17.43,6.56-26.77,7-9.86.45-19.77-.06-29.58,1.2a60.67,60.67,0,0,0-16.54,4.36,3,3,0,0,0-1.23,3.75,3,3,0,0,0,3.54,1.74,523,523,0,0,1,62.57-10l-2.12-5.12c-9.36,7.69-21.79,10.18-33.56,11.16-6.62.55-13.26.67-19.9.86l-23.3.66-26.19.75.8,5.89,41.51-12.67a3,3,0,0,0,2.14-3.29,3.05,3.05,0,0,0-2.94-2.6,209.52,209.52,0,0,0-28.54-1.78v6A56.62,56.62,0,0,1,194,99.7l.8-5.89a554.23,554.23,0,0,1-56,3.62v6a69.4,69.4,0,0,1,28.13,2l.79-5.89-56.13,2.18-15.93.63c-3.84.15-3.86,6.15,0,6Z"/><path d="M86,197.53c-.37,5.87-.4,11.77-.49,17.65q-.22,14.87-.23,29.75,0,17.47.13,34.95c.1,11.05.26,22.1.56,33.14.22,8.24.46,16.5,1.09,24.72,0,.72.11,1.43.18,2.15a3.08,3.08,0,0,0,3,3,3,3,0,0,0,3-3c-.7-7.7-.93-15.45-1.17-23.17-.33-10.86-.5-21.73-.62-32.59q-.2-17.56-.17-35.12,0-15.31.18-30.64c.09-6.51.15-13,.47-19.53,0-.44.05-.88.07-1.31a3,3,0,0,0-3-3,3.06,3.06,0,0,0-3,3Z"/><path d="M339,334.48a117.43,117.43,0,0,1-15.94,13.13,113.81,113.81,0,0,1-17.77,9.88l-1.12.5c-.18.08-1,.43-.69.3l-2.43,1q-2.38.95-4.82,1.8-5.17,1.83-10.46,3.29c-7.57,2.1-15.27,3.71-23,5.05-10.11,1.75-20.28,3-30.47,4.16a3.09,3.09,0,0,0-3,3c0,1.48,1.38,3.18,3,3,17.62-1.95,35.33-4.23,52.51-8.73,13.86-3.64,27.36-9,39.41-16.8a127.43,127.43,0,0,0,19-15.32c2.77-2.7-1.47-6.94-4.24-4.25Z"/></svg>