<svg id="Layer_1" data-name="Layer 1" xmlns="http://www.w3.org/2000/svg" viewBox="0 0 432 432"><path d="M280.75,156.73a69.61,69.61,0,0,0-21.61-.2,39,39,0,0,0-13,3.88,56.25,56.25,0,0,0-10.63,7.35c-3.27,2.82-6.57,6.17-8.42,10.14a3,3,0,0,0,4.11,4.1,84.2,84.2,0,0,1,49.64-9.38,79.89,79.89,0,0,1,14.1,3l.8-5.9c-16.13,1.82-32.59,6.22-46.84,14.11a64.06,64.06,0,0,0-10.76,7.41c-2.6,2.24.76,6.45,3.64,4.72,7.18-4.33,15.25-6.73,23.55-8.43a174,174,0,0,1,26.77-3.07q7.13-.33,14.28-.32l-.8-5.89a139.88,139.88,0,0,0-47.1,17.26,137.76,137.76,0,0,0-11.88,7.85,3.1,3.1,0,0,0-1.07,4.11,3,3,0,0,0,4.1,1.07,102.85,102.85,0,0,1,49.85-14.81l-.8-5.89a227.75,227.75,0,0,0-45.92,21.31q-6.15,3.75-12.05,7.88l3,5.18a98.48,98.48,0,0,1,61.88-19.88l-1.52-5.59q-21.66,11.53-42.54,24.48-5.94,3.67-11.79,7.47l3,5.18c7.2-4.74,15.23-7.79,23.49-10.14,4.22-1.21,8.49-2.25,12.76-3.24a72.23,72.23,0,0,1,12.11-2c4.48-.27,9,.16,13.06,2.26l1.51-5.59A131.05,131.05,0,0,0,264.46,231a125.32,125.32,0,0,0-12.67,8.1,3,3,0,0,0,3,5.18,109.55,109.55,0,0,1,48.05-11v-6A73.25,73.25,0,0,0,257,246.58c-2.47,2.28.78,6.62,3.64,4.71A59.68,59.68,0,0,1,307.88,243l.8-5.9a77.62,77.62,0,0,0-44.06,18.21c-2.59,2.2.8,6.6,3.63,4.72a42.84,42.84,0,0,1,31.45-6.57l-2.1-2.1c0-.08,0-.36.11-.41-.16.09-.16.29-.23.38a4.66,4.66,0,0,1-1.1.94c-1.38.92-2.83,1.74-4.25,2.6l-8.87,5.38L265.54,271a3,3,0,0,0-1.23,3.75,3,3,0,0,0,3.54,1.74c4.42-1.7,8.56-4,12.95-5.77a35,35,0,0,1,10.66-2.46c1-.06,2-.11,3-.07.36,0,.71,0,1.07.07.59,0-.35-.07-.28,0a3,3,0,0,0,.45.08c.53.13.72.28,0-.07.73.35-.2-.26-.08-.14a2.63,2.63,0,0,1-.51-.91,1.76,1.76,0,0,1,0-1.12l-.06.21c-.05.18.46-.76.19-.45a1.09,1.09,0,0,0-.14.23c-.27.46-.21-.12.22-.25-.29.09-.79.84-1,1.06l-.61.51c-.4.33,0,.14.17-.12a2.12,2.12,0,0,1-.48.35c-.56.42-1.15.81-1.74,1.2-2.56,1.67-5.26,3.14-8,4.55-1.18.61-2.37,1.2-3.56,1.78l-1.09.51c-.65.31-.21,0,.27-.1L282.7,280h0l-1.08,1.08a25.83,25.83,0,0,1,4.2-1.95l-3-5.18a45.41,45.41,0,0,0-8.64,5.65c-1.54,1.37-2.87,3.22-2.59,5.38a5.36,5.36,0,0,0,3.07,3.94,23.79,23.79,0,0,0,2.19,1l.84.33.41.16c.69.27-.68-.32-.13,0s1,.53,1.46.78-.7-.56-.27-.21a1,1,0,0,1,.21.21c.34.43-.49-.73-.22-.28s-.28-.84-.14-.35-.06-.91-.05-.43.16-.8.07-.4c0,.1-.05.21-.09.31.42-1.09.19-.43,0-.17-.4.64,0-.15.12-.1s-.37.43-.39.45a13.77,13.77,0,0,1-1.11,1c-.11.09-.81.64-.46.38s-.46.33-.59.42a26.77,26.77,0,0,1-2.3,1.51,6,6,0,0,1-2.15.81c-.51.12.65,0-.22,0h-.56c-.56,0-.14,0,0,0-.25-.07-.7-.28-.25,0,0,0-.72-.37-.33-.19s-.17-.43.07.07c-.08-.18-.2-.32-.28-.5.18.4,0-.11,0-.17s-.09-.39-.13-.58c-.13-.61-.25-1.21-.38-1.82l-3.37-16.44-1.19-5.77a6.8,6.8,0,0,0-1.49-2.67c-1.72-2.27-3.38-4.58-5-6.93a217.79,217.79,0,0,1-16.77-28.71c-4.33-8.91-8.2-18.1-10.51-27.76-3.9-16.31-3.45-36.53,12.06-46.53a36.39,36.39,0,0,1,25.49-4.91c9.4,1.61,17.91,6.5,24.81,13,13.72,12.86,21.37,31.25,22.77,49.7a88.63,88.63,0,0,1-13.15,53.83c-9.84,15.6-24.45,27.8-41,35.85a110.18,110.18,0,0,1-26.41,8.84c-9.19,1.85-19.21,3-28.59,1.08a32.48,32.48,0,0,1-12.86-5.44,3,3,0,0,0-4.1,1.08,3.06,3.06,0,0,0,1.07,4.1c8.76,6.34,20.08,7.63,30.59,7a113.08,113.08,0,0,0,29.25-5.72c18.63-6.27,35.88-17.25,48.7-32.24a94.66,94.66,0,0,0,22.5-54.6c1.48-19.73-3.34-40.29-14.86-56.53-6-8.5-13.76-16-23.05-20.83a47.05,47.05,0,0,0-29.77-4.9,37.48,37.48,0,0,0-24.5,15.31c-5.35,7.69-7.25,17.29-7.06,26.53a89.39,89.39,0,0,0,5.8,28.47,199.28,199.28,0,0,0,14.46,30.64Q248.1,254,253,261.21q2.42,3.53,5,7a10.85,10.85,0,0,0,1.35,1.8c.21.17.48.55.25,0a2.88,2.88,0,0,1,.1.51l3.16,15.35,1.51,7.36c.51,2.47,1.24,4.8,3.59,6.18,4,2.35,8.73-.14,12-2.55,1.94-1.42,4.08-3.07,4.82-5.47,1.3-4.18-3-6-6.08-7.24l-.42-.16c-.6-.24.76.35.18.07-.28-.13-.56-.25-.83-.4a7.31,7.31,0,0,0-.64-.39c-.19-.07.7.59.25.18-.23-.22-.41-.6.2.3-.45-.66.17.62,0,.13-.08-.3.06,1,.08.4,0,1.08-.13.7,0,.36.06-.18-.49.79-.09.24a1.7,1.7,0,0,0,.25-.39c-.06.25-.46.51,0,.09.19-.18.36-.37.56-.55l.55-.49.35-.29c.33-.27-.62.44-.06.05s1.12-.8,1.69-1.18c1.66-1.09,3.39-2.07,5.13-3a3,3,0,0,0,1.08-4.1,3.08,3.08,0,0,0-4.11-1.08c-1.1.5-2.21,1-3.31,1.52a3.43,3.43,0,0,0-2,1.5,3,3,0,0,0,3.38,4.41,8.47,8.47,0,0,0,2-.89c1.09-.51,2.16-1,3.23-1.6a90.83,90.83,0,0,0,8.54-4.83c2.27-1.47,5.47-3.42,6.25-6.23a4.05,4.05,0,0,0-2-4.67,10.82,10.82,0,0,0-5.18-.93,38.61,38.61,0,0,0-11.7,1.73c-5.46,1.77-10.41,4.74-15.75,6.79l2.31,5.48,19.84-12.05,9.71-5.89c3.08-1.87,6.26-4.45,5.28-8.49a3,3,0,0,0-2.09-2.1,49,49,0,0,0-36.08,7.17l3.64,4.72a70.69,70.69,0,0,1,39.82-16.46,3,3,0,0,0,2.94-2.6,3,3,0,0,0-2.14-3.29,65.88,65.88,0,0,0-41.43,3.28,63.15,63.15,0,0,0-10.47,5.62l3.64,4.71a66.76,66.76,0,0,1,41.64-17.48c3.83-.18,3.88-6,0-6a116.16,116.16,0,0,0-51.07,11.78l3,5.18a125.18,125.18,0,0,1,46.83-21,119.62,119.62,0,0,1,14.07-2.2,3.11,3.11,0,0,0,2.89-2.2,3,3,0,0,0-1.38-3.39c-8.45-4.41-18.08-3.38-27.07-1.45a168.83,168.83,0,0,0-26.3,7.46,75.89,75.89,0,0,0-14.1,7.14,3.08,3.08,0,0,0-1.08,4.11,3,3,0,0,0,4.11,1.07q20.61-13.32,42.07-25.28,6.11-3.39,12.26-6.67c2.71-1.44,1.35-5.52-1.51-5.59a105.51,105.51,0,0,0-52.16,12.56A100.49,100.49,0,0,0,240.69,217a3.09,3.09,0,0,0-1.07,4.1,3,3,0,0,0,4.1,1.08A221.17,221.17,0,0,1,287,198.55q6.55-2.67,13.28-4.92a3,3,0,0,0,2.15-3.3,3,3,0,0,0-2.94-2.6,109.15,109.15,0,0,0-52.88,15.63l3,5.18a135.38,135.38,0,0,1,43.86-21.44A138.64,138.64,0,0,1,307.15,184a3,3,0,0,0,2.15-3.29,3,3,0,0,0-2.94-2.6,264.93,264.93,0,0,0-26.58,1.22,130.62,130.62,0,0,0-27.57,5.4,66.42,66.42,0,0,0-13.48,6l3.63,4.72c5.24-4.51,12.07-8.15,18.67-10.86a133.39,133.39,0,0,1,22.81-6.94c4-.85,8.13-1.55,11.88-2a3,3,0,0,0,.8-5.89,89.3,89.3,0,0,0-68.37,7l4.1,4.11c1.51-3.23,3.6-5.4,6.29-7.86a49.49,49.49,0,0,1,9.3-6.76c.76-.43,1.53-.84,2.31-1.22.37-.18.75-.36,1.13-.52s-.36.14.1,0l.67-.26a37.1,37.1,0,0,1,6.57-1.62,65.4,65.4,0,0,1,14-.74c1.71.07,3.43.21,5.14.41.53.06.88.13.28,0l.58.09.55.08a3.08,3.08,0,0,0,3.69-2.09,3,3,0,0,0-2.09-3.69Z"/><path d="M382.73,220.89a67.79,67.79,0,0,0-20.11-.4c-4.72.59-9.45,1.41-13.6,3.85a44.07,44.07,0,0,0-9.74,8.06,42.82,42.82,0,0,0-7.73,10.88c-1.22,2.66,1.32,5.62,4.11,4.11,14.51-7.88,30.86-12.11,47.41-10.46a72.59,72.59,0,0,1,13.83,2.85l.8-5.9c-16.13,1.82-32.58,6.22-46.84,14.11a64.52,64.52,0,0,0-10.76,7.42c-2.6,2.24.76,6.44,3.64,4.71,7.18-4.33,15.26-6.73,23.56-8.42a172.7,172.7,0,0,1,26.76-3.08c4.76-.22,9.52-.31,14.28-.32l-.8-5.89a164.23,164.23,0,0,0-28.12,7.81,210,210,0,0,0-28.8,12.83,116.55,116.55,0,0,0-13.21,8.29,3.11,3.11,0,0,0-1.08,4.11,3,3,0,0,0,4.11,1.07,119,119,0,0,1,22.17-10.09,169.59,169.59,0,0,1,26.2-7.1,81.63,81.63,0,0,1,12.63-1.43l-.8-5.9c-15.95,5.38-30.42,14.05-44.27,23.47-4,2.69-7.89,5.44-11.81,8.19l3,5.18c14.71-11,32.71-18,50.86-20.52a91.67,91.67,0,0,1,14.81-.86l-1.52-5.59C397.17,269.6,381.6,275.2,367,282.75c-4.15,2.14-8.21,4.44-12.14,7l3,5.18c6.5-4.27,13.67-6.29,21.22-7.78,4.07-.81,8.13-1.58,12.16-2.52a71.1,71.1,0,0,1,12.12-2c4.41-.24,8.87.2,12.84,2.27l1.51-5.59a131.22,131.22,0,0,0-51.25,15.89,128.92,128.92,0,0,0-12.67,8.1,3,3,0,0,0,3,5.18,78.47,78.47,0,0,1,9.62-3.87c3.85-1.31,7.76-2.43,11.71-3.41a174.57,174.57,0,0,1,24.21-4.31,117.38,117.38,0,0,1,12.43-.69v-6a101.3,101.3,0,0,0-22.83,4.07,106.61,106.61,0,0,0-22.79,9.25A54,54,0,0,0,359,310.74c-2.48,2.28.77,6.62,3.63,4.71a59.72,59.72,0,0,1,47.27-8.29l.8-5.9a77.66,77.66,0,0,0-44.06,18.22c-2.58,2.19.8,6.59,3.64,4.71a42.83,42.83,0,0,1,31.44-6.57l-2.09-2.1c0-.08,0-.35.11-.41-.16.09-.17.3-.24.38a4.82,4.82,0,0,1-1.09.94c-1.39.92-2.84,1.74-4.26,2.6l-8.86,5.39-17.73,10.76a3,3,0,0,0-1.23,3.75,3,3,0,0,0,3.54,1.74c.42-.15.85-.26,1.28-.39,0,0,.51-.1.18,0s.23,0,.31,0c.31,0,.61,0,.92,0-.65-.06.17.07.4.13s1,.41.38.12l.74.37c.54.3,1.07.63,1.61.95,2.79,1.65,5.79,2.46,9,1.49,2.46-.75,4.45-2.43,6.41-4,1.12-.91,2.23-1.84,3.34-2.76l1.56-1.26c.11-.09.79-.62.39-.32l1-.73a23.9,23.9,0,0,1,3.48-2.14c.36-.18-.55.18-.17.08.15,0,.29-.11.44-.15.47-.14.58,0,0-.06.54.06.42,0-.07-.08.69.15-.57-.38,0,0L400,327.74a315.18,315.18,0,0,1-34.5,40.35l5,2.92,3.35-9.59c1.3-3.73,2.81-7.44,3.93-11.23.52-1.79-.52-2.94-1.56-4.25-1.24-1.56-2.45-3.13-3.65-4.72-2.68-3.55-5.27-7.18-7.79-10.85-5-7.34-9.77-14.88-14.15-22.62-7.75-13.67-14.35-27.56-16.8-43.24-1.1-7-1.17-14.66.65-21.52a30.71,30.71,0,0,1,11.23-17.13,35.14,35.14,0,0,1,21.43-6.46,43.06,43.06,0,0,1,22.15,7C402.65,234.9,412,249,416.71,263.92a87.46,87.46,0,0,1,1.3,46.81,88.49,88.49,0,0,1-22.63,40.58,104.89,104.89,0,0,1-39,25.08,112,112,0,0,1-23,5.79c-7.84,1.09-16.5,1.51-24.38-.51a31.14,31.14,0,0,1-10.69-4.95,3,3,0,1,0-3,5.18c13,9.44,31.15,8,46.07,5a114.57,114.57,0,0,0,41-17,102.81,102.81,0,0,0,31-32.07,94.07,94.07,0,0,0,13.07-43,89.57,89.57,0,0,0-8.56-44.16c-6.63-13.7-17.58-26.24-31.56-32.7-13.76-6.36-31-6.47-43.61,2.72a36.82,36.82,0,0,0-12.89,17.25,50.9,50.9,0,0,0-2.58,20.93c1,14.58,6.11,28.48,12.62,41.43a289.92,289.92,0,0,0,25.69,41.45q3.56,4.85,7.33,9.52l-.78-2.91-6.44,18.45-.92,2.62c-1,2.92,3,4.93,5,2.92a325.81,325.81,0,0,0,35.43-41.57c1-1.36.18-3.29-1.08-4.1-2.35-1.52-5.27-.45-7.47.82a54.4,54.4,0,0,0-7.24,5.42q-1.67,1.39-3.36,2.76c-.1.08-.46.36,0,0l-.37.28-.63.46c-.42.29-.84.58-1.29.83-.11.06-.83.39-.27.16s-.56.16-.74.21l-.61.14c.49-.09.06,0-.06,0h-.53c-.09,0-.8-.08-.37,0s-.43-.12-.55-.16-1-.41-.39-.11c-.56-.28-1.1-.58-1.64-.9a16.82,16.82,0,0,0-4.3-2.05,10.22,10.22,0,0,0-6,.36l2.31,5.49,19.84-12.06,9.71-5.89c3.08-1.87,6.25-4.45,5.27-8.49a2.94,2.94,0,0,0-2.09-2.1A49,49,0,0,0,367.21,319l3.63,4.71a70.76,70.76,0,0,1,39.82-16.46,3,3,0,0,0,.8-5.89A65.89,65.89,0,0,0,370,304.66a62.36,62.36,0,0,0-10.47,5.61L363.2,315a42.94,42.94,0,0,1,7.8-5.62,84.53,84.53,0,0,1,10-5,118.73,118.73,0,0,1,22.59-6.79,73.67,73.67,0,0,1,11.18-1.42c3.84-.18,3.89-6,0-6a143.21,143.21,0,0,0-24.09,2.28A167.38,167.38,0,0,0,366,298.4a98,98,0,0,0-12.25,4.88l3,5.18a125.11,125.11,0,0,1,46.83-21,119.13,119.13,0,0,1,14.06-2.2,3.13,3.13,0,0,0,2.9-2.2,3,3,0,0,0-1.38-3.39c-8.39-4.38-17.94-3.4-26.87-1.49-4.25.91-8.48,1.88-12.75,2.71A114.66,114.66,0,0,0,368,283.58a51.59,51.59,0,0,0-13.21,6.14,3.07,3.07,0,0,0-1.07,4.11,3,3,0,0,0,4.1,1.07c13.88-8.94,29.36-14.84,44.32-21.68,4.25-1.94,8.47-4,12.61-6.17,2.71-1.44,1.35-5.52-1.51-5.59-19.14-.44-38.61,5-55.46,13.86a99.89,99.89,0,0,0-13.24,8.34,3.11,3.11,0,0,0-1.08,4.11,3,3,0,0,0,4.11,1.07c13.45-9.43,27-18.94,41.91-25.93a118.84,118.84,0,0,1,12.74-5.12,3,3,0,0,0,2.15-3.29,3,3,0,0,0-2.95-2.6A116.12,116.12,0,0,0,376.07,256a179.25,179.25,0,0,0-26.59,9.18,102.88,102.88,0,0,0-12.07,6.14l3,5.18a139.55,139.55,0,0,1,25-14.16,207.18,207.18,0,0,1,28.67-10.63,138.49,138.49,0,0,1,15-3.53,3,3,0,0,0,2.14-3.3,3,3,0,0,0-2.94-2.6,265.06,265.06,0,0,0-26.58,1.22,130.62,130.62,0,0,0-27.57,5.4,65.91,65.91,0,0,0-13.48,6l3.64,4.71c5.23-4.5,12.07-8.15,18.67-10.86a134.18,134.18,0,0,1,22.8-6.94c4-.85,8.13-1.54,11.88-2a3,3,0,0,0,.8-5.89,81.75,81.75,0,0,0-51.87,1.86,105.6,105.6,0,0,0-14,6.36l4.1,4.1a35.5,35.5,0,0,1,5.68-8.44,42.89,42.89,0,0,1,8.37-7.56c.73-.48,1.47-.93,2.24-1.34q.54-.28,1.11-.54c.06,0,.53-.22.1-.05l.67-.25a39.5,39.5,0,0,1,6.88-1.52,67.13,67.13,0,0,1,13.14-.54c1.64.09,3.28.22,4.91.41l.38.05c.66.08-.72-.11-.13,0l.56.09.49.08a3.09,3.09,0,0,0,3.69-2.1,3,3,0,0,0-2.09-3.69Z"/><path d="M124.18,228.78a66.16,66.16,0,0,0,18.36,5.76,41.49,41.49,0,0,0,14.1.3,53.35,53.35,0,0,0,12.26-4c4-1.77,8.11-4.06,11-7.37a3,3,0,0,0-2.92-5,81,81,0,0,1-48.4-4.65,79.76,79.76,0,0,1-12.49-6.7l-2.32,5.49c15.46,2.67,31.9,3,47.27-.43a62.37,62.37,0,0,0,12.2-4.05,3,3,0,0,0-2.31-5.49c-7.81,2.07-16.06,2.1-24.19,1.43A168.76,168.76,0,0,1,121,199.69c-4.45-1.07-8.86-2.27-13.25-3.54L107,202a135.56,135.56,0,0,0,48.44-3.31,133.09,133.09,0,0,0,13.23-4.1,3,3,0,0,0-1.6-5.78,99.41,99.41,0,0,1-50.26.25L116,195a221.37,221.37,0,0,0,48.41-7.38q6.78-1.83,13.42-4.09l-1.6-5.78a96.08,96.08,0,0,1-48.93,5,97.29,97.29,0,0,1-13.88-3.31v5.79q29.88-6.24,59.15-15l-1.6-5.78c-8.63,2.65-17.63,3.18-26.61,3q-6.47-.12-12.93-.56a57,57,0,0,1-10.87-1.59A22.63,22.63,0,0,1,110.41,160l-2.92,5a127.23,127.23,0,0,0,52-.92,125.1,125.1,0,0,0,14-4.11,3,3,0,0,0-1.6-5.79,105.89,105.89,0,0,1-47.54-2.84l-1.6,5.78a71,71,0,0,0,48-5.52c3-1.51.92-6.5-2.32-5.48a57.69,57.69,0,0,1-46.1-5.13L120,146.5a75.29,75.29,0,0,0,46-5.07,3,3,0,0,0-2.31-5.48,41.37,41.37,0,0,1-30.92-2.45l1.48,2.59c0,.43-.49.5,0,.27-.28.14.48-.29.59-.35a16,16,0,0,1,2.25-.71c2.3-.65,4.58-1.39,6.84-2.18,4.3-1.51,8.52-3.22,12.8-4.8l3-1.07c1.22-.42,2.75-.69,3.69-1.63a3.49,3.49,0,0,0,.55-4,3.54,3.54,0,0,0-3.88-1.69c-4.2.72-8.26,2.07-12.51,2.48a30.72,30.72,0,0,1-6,.12,5.93,5.93,0,0,1-4.25-2.07v4.25c12.11-9.44,27.62-12.08,41-19.25l-4.41-3.39-4.65,20.46-1,4.36c-.07.3-.15.6-.21.9-.33,1.71.65,3.4,1.23,5a208.75,208.75,0,0,1,7.49,25.35c3.34,14.64,5.74,30,4.19,45.08-.17,1.66-.31,2.69-.6,4.37s-.59,3.15-1,4.71-.82,3.05-1.32,4.55a42,42,0,0,1-1.52,3.92,44.36,44.36,0,0,1-2.1,4.05c-.36.6-.73,1.2-1.12,1.78l-.64.93c-.12.18-.25.35-.37.52l-.12.16a31.76,31.76,0,0,1-3,3.36,29.85,29.85,0,0,1-3.12,2.67c-11.91,8.57-28.05,6.55-39.58-1.71S108,210.66,105.14,197.16a79.64,79.64,0,0,1,2.38-40.47,85.22,85.22,0,0,1,21.22-34.82,94.42,94.42,0,0,1,36.32-22,98.77,98.77,0,0,1,42.52-4.56,89.17,89.17,0,0,1,10.08,1.79,3,3,0,0,0,1.6-5.79,102.11,102.11,0,0,0-39.56-1.22,104.91,104.91,0,0,0-36.88,13.43,93.92,93.92,0,0,0-28.58,26.27A91.55,91.55,0,0,0,99.31,164.5a83.78,83.78,0,0,0,.87,37.7c3.35,12.64,10.07,25,20.35,33.35,10.69,8.66,25.38,12.79,38.8,8.59,11.77-3.69,19.85-13.3,23.95-24.63,4-11,4.55-23.22,3.58-34.79a207.88,207.88,0,0,0-9.36-46q-1.78-5.51-3.86-10.91v1.6l5.14-22.58.72-3.2a3,3,0,0,0-4.4-3.39c-6.79,3.65-14,6.1-21.21,8.83a79.39,79.39,0,0,0-21,11.35c-1.35,1.06-.94,3.14,0,4.25,3.15,3.72,8.4,4.12,12.94,3.83a58.12,58.12,0,0,0,8.09-1.14c1.24-.25,2.46-.54,3.69-.82.61-.15,1.23-.29,1.84-.42.27-.07.55-.13.82-.18.08,0,1.06-.12.69-.14l-1.51-.41.16.12-1.07-1.08.09.18-.41-1.52v.21l.41-1.52-.09.18,1.08-1.07c.17-.11-.73.24-.78.26l-.86.3c-.79.27-1.57.55-2.34.83-1.48.54-2.94,1.1-4.41,1.66-2.86,1.09-5.71,2.2-8.6,3.23s-5.88,1.81-8.82,2.76-5.51,2.82-5.65,6.14a2.94,2.94,0,0,0,1.49,2.59,47.6,47.6,0,0,0,35.55,3.06l-2.31-5.49a68.34,68.34,0,0,1-41.37,4.46c-3.23-.66-5.36,3.7-2.31,5.49A63.76,63.76,0,0,0,170,151.92l-2.31-5.48a64.51,64.51,0,0,1-43.33,4.92c-3.76-.9-5.31,4.69-1.6,5.78A112.78,112.78,0,0,0,173.48,160l-1.6-5.79a121.12,121.12,0,0,1-49.1,6.81,114.85,114.85,0,0,1-13.7-1.78,3.1,3.1,0,0,0-3.38,1.38,3.05,3.05,0,0,0,.46,3.64c6.09,5.84,14.4,7.69,22.54,8.45a161.5,161.5,0,0,0,27.55.48,75.2,75.2,0,0,0,16.3-3c3.68-1.13,2.12-6.89-1.6-5.78q-29.23,8.75-59.15,15c-3,.64-2.66,4.95,0,5.79a102.36,102.36,0,0,0,51.88,2.43,97.74,97.74,0,0,0,14.13-4.14,3.08,3.08,0,0,0,2.09-3.69,3,3,0,0,0-3.69-2.09A213.72,213.72,0,0,1,129.73,188c-4.57.48-9.16.8-13.75,1-3.29.13-4.18,5-.8,5.89a105.83,105.83,0,0,0,53.46-.25l-1.6-5.78a130.67,130.67,0,0,1-46.48,8A134.16,134.16,0,0,1,107,196a3,3,0,0,0-2.94,2.6,3,3,0,0,0,2.15,3.29A254.24,254.24,0,0,0,131.29,208a126.16,126.16,0,0,0,27.14,2.42,63.89,63.89,0,0,0,14.1-2L170.22,203a56,56,0,0,1-9.5,3.14A81.22,81.22,0,0,1,150,208a128.6,128.6,0,0,1-23,.27,113.53,113.53,0,0,1-11.55-1.39,3,3,0,0,0-2.31,5.48,86.5,86.5,0,0,0,65.52,12l-2.92-5a16.1,16.1,0,0,1-1.61,1.59,11.53,11.53,0,0,1-1.65,1.26,38.23,38.23,0,0,1-5.09,2.91,48.55,48.55,0,0,1-11,3.76c-.82.18-1.65.34-2.48.44.55-.07-.55,0-.66.06-.45,0-.91.07-1.37.08a40.54,40.54,0,0,1-6.6-.46,67.66,67.66,0,0,1-12.45-3.09c-.87-.31-1.74-.63-2.6-1l-1-.38-.39-.16c-.36-.15.59.26.11,0s-1.13-.49-1.68-.76a3.07,3.07,0,0,0-4.1,1.07,3,3,0,0,0,1.07,4.11Z"/><path d="M27.44,165.55a66.29,66.29,0,0,0,16.39,6.87c4.34,1.22,9.11,2.35,13.64,1.81a41.59,41.59,0,0,0,12.58-3.84,42.06,42.06,0,0,0,11.51-7.57,3,3,0,0,0,.62-3.28,2.93,2.93,0,0,0-2.74-1.84c-15.83,2-32.2.37-46.56-6.95a70.14,70.14,0,0,1-11.46-7.26l-2.92,5a136.77,136.77,0,0,0,22.72,3.88A107.07,107.07,0,0,0,65,152.1a60.7,60.7,0,0,0,12.43-2.83,3,3,0,0,0-1.59-5.78c-7.57,1.32-16,.66-23.83-.7a174.54,174.54,0,0,1-25.64-6.72c-4.34-1.45-8.63-3-12.89-4.67l-1.6,5.79a162.88,162.88,0,0,0,28.56,2.88,198,198,0,0,0,30.5-1.54,115.62,115.62,0,0,0,15.21-2.92,3,3,0,1,0-1.59-5.78c-.84.15-1.68.28-2.52.4l-.37.05-.54.07-1.44.16c-2,.21-4,.36-5.92.47-4.24.22-8.49.25-12.74.12a156,156,0,0,1-25.69-2.72A88,88,0,0,1,23,125.16l-.8,5.89c16.3.72,32.47-2.14,48.29-5.8,4.49-1,9-2.15,13.45-3.26l-1.59-5.78c-17,4.75-35.54,4.71-52.65.67a91.89,91.89,0,0,1-14-4.49l-.8,5.89c16-1.89,32.06-1.49,48-3.22,4.67-.5,9.31-1.18,13.91-2.12l-1.6-5.79c-8,1.71-15.8.58-23.72-.85-7.61-1.37-15.55-1.9-22.86-4.56a22.54,22.54,0,0,1-9.4-6.23l-2.92,5A127.26,127.26,0,0,0,68.1,104a123.75,123.75,0,0,0,14.41-2.9c3.19-.83,2.65-6.18-.79-5.89a108.88,108.88,0,0,1-22.46-.85,169.79,169.79,0,0,1-23.41-4.66,115.55,115.55,0,0,1-11.48-3.73l-1.59,5.79a97.52,97.52,0,0,0,21.75,4.2,102.83,102.83,0,0,0,23.91-.4,50,50,0,0,0,11.29-2.79A3.1,3.1,0,0,0,81.82,89a3.06,3.06,0,0,0-3.69-2.1,57.8,57.8,0,0,1-45.46-9.27l-2.31,5.48a74.73,74.73,0,0,0,45.52-1,3,3,0,0,0-1.6-5.79,41.36,41.36,0,0,1-30.56-5.3l1.48,2.59a5.06,5.06,0,0,1-.18.61c0-.16.42-.21.08-.07a5.55,5.55,0,0,1,1.19-.48c1.47-.4,3-.58,4.51-.85l10.07-1.79,20.39-3.64a3,3,0,0,0,2.14-3.29,3,3,0,0,0-2.94-2.6l-18.87-.13a54.87,54.87,0,0,1-7-.24,14.81,14.81,0,0,1-2.79-.71,4.58,4.58,0,0,1-2-1.47l-1.08,4.11A308.83,308.83,0,0,1,94.61,38.37L90.5,34.26,81,54.51l-5,10.6-.46,1c-.71,1.57-.27,2.71.3,4.23q2.61,7,4.72,14.11A211.39,211.39,0,0,1,87,113.24a126.58,126.58,0,0,1,1.57,23.65,65.51,65.51,0,0,1-3.85,20.62,34.77,34.77,0,0,1-2,4.41,39.91,39.91,0,0,1-2.58,4.31A32,32,0,0,1,73.78,173c-12.79,9.75-31.21,6.6-42.95-3.65s-18.16-26.09-19.55-41.21A83.22,83.22,0,0,1,19.8,83.69,85.17,85.17,0,0,1,50.7,49.48,100.65,100.65,0,0,1,96,34.64a106.51,106.51,0,0,1,24,.72c7.86,1.17,15.91,3,22.83,7.11a28.74,28.74,0,0,1,8.29,7,3.11,3.11,0,0,0,4.11,1.08c1.25-.74,2.07-2.81,1.07-4.1-9.18-11.89-24.56-15.77-38.8-17.45a111.33,111.33,0,0,0-42.71,3.33A101,101,0,0,0,37,52.1,91.15,91.15,0,0,0,5.07,125.15c.74,14,5.06,28.18,13.46,39.52a52.2,52.2,0,0,0,15.94,14.56A43.19,43.19,0,0,0,56,184.9a35.36,35.36,0,0,0,20.3-6.39,38.37,38.37,0,0,0,11.76-13.85c5.8-11.41,7.08-24.77,6.41-37.38a196.49,196.49,0,0,0-9.31-48.5Q83.28,72.81,81,67l-.31,2.32,13.07-28,1.88-4a3,3,0,0,0-4.1-4.11A310.68,310.68,0,0,0,45.69,57.93,3,3,0,0,0,44.61,62c3.49,4.92,9.44,5.34,15,5.38l20.86.14-.8-5.89L56.82,65.74c-3.73.66-7.48,1.26-11.2,2-3.3.66-6,2.43-6.42,5.94a3,3,0,0,0,1.49,2.59,47.58,47.58,0,0,0,35.19,5.91l-1.6-5.79a69,69,0,0,1-42.32,1,3,3,0,0,0-3.54,1.74,3,3,0,0,0,1.23,3.75,63.73,63.73,0,0,0,50.08,9.88l-1.6-5.79c-6.55,2.58-13.2,3.27-20.13,3.45a110.25,110.25,0,0,1-22.53-1.7,81.46,81.46,0,0,1-11.1-2.76A3,3,0,0,0,20.68,88a3.09,3.09,0,0,0,2.1,3.7,134.64,134.64,0,0,0,21.87,6.2,167.85,167.85,0,0,0,24.85,3.34,89,89,0,0,0,12.22-.09l-.8-5.89a119.78,119.78,0,0,1-49.1,2.52,122.48,122.48,0,0,1-13.89-3.06c-3-.85-4.82,2.84-2.92,5,5.29,6,13.22,8.66,20.9,10.06,4.15.76,8.34,1.26,12.49,2,4.35.78,8.7,1.62,13.11,2a50.22,50.22,0,0,0,15.32-.9,3,3,0,0,0,2.09-3.69,3.06,3.06,0,0,0-3.69-2.1c-19.85,4.08-40.28,2.76-60.33,5.13a3,3,0,0,0-.8,5.89,101.8,101.8,0,0,0,26.66,6.71A115.56,115.56,0,0,0,68.7,125,100.08,100.08,0,0,0,84,122c3.72-1,2.16-6.71-1.59-5.78-19.72,4.87-39.68,9.75-60.15,8.84a3,3,0,0,0-2.94,2.6,3,3,0,0,0,2.14,3.29c7.85,2.76,16.18,4.12,24.41,5.07a168.33,168.33,0,0,0,26.84,1,102.77,102.77,0,0,0,13.44-1.42l-1.59-5.78a129.8,129.8,0,0,1-26.93,3.95,206.13,206.13,0,0,1-29.82-.39,122.2,122.2,0,0,1-14.33-2,3,3,0,0,0-1.6,5.79c16.38,6.33,33.68,12,51.35,12.89a63.71,63.71,0,0,0,14.2-.81l-1.59-5.78a66.74,66.74,0,0,1-21,3.39A124.39,124.39,0,0,1,32,145.23q-6-1-11.86-2.51a3.07,3.07,0,0,0-3.39,1.38,3,3,0,0,0,.47,3.64A79.65,79.65,0,0,0,64.82,164.5a96.57,96.57,0,0,0,14.62-.8l-2.12-5.12a35.56,35.56,0,0,1-8.8,5.9,38.82,38.82,0,0,1-10.9,3.72c-.06,0-.59.09-.15,0l-.63.07c-.4,0-.8.07-1.2.08a18,18,0,0,1-2.65-.15,50.78,50.78,0,0,1-6.58-1.33,65.7,65.7,0,0,1-10.7-3.82,52.94,52.94,0,0,1-5.24-2.71c-3.31-2-6.33,3.17-3,5.18Z"/></svg>