<svg id="Layer_1" data-name="Layer 1" xmlns="http://www.w3.org/2000/svg" viewBox="0 0 432 432"><path d="M24.39,32.16c1,15.28,1.47,30.6,2,45.9q1.06,31.68,1.79,63.37c.4,17,.8,34,.88,51,0,5-.07,9.91-.35,14.88-1,17.64-1.41,35.31-1.6,53-.2,17.84-.17,35.68-.24,53.51,0,9.05-.1,18.09-.23,27.13-.11,7.54-.73,15-1.26,22.5-.31,4.27-.51,8.55-.53,12.84,0,3.86,6,3.87,6,0,0-8.07.84-16.08,1.41-24.12.6-8.36.47-16.78.53-25.16.15-18,.1-36,.21-54.06.11-17.69.36-35.38,1.1-53.06.33-7.86,1-15.69,1-23.56,0-15.8-.37-31.6-.72-47.39q-.7-31.83-1.72-63.65c-.53-16.47-1-32.95-2-49.4-.07-1.23-.14-2.46-.23-3.69-.26-3.83-6.26-3.86-6,0Z"/><path d="M26.9,34c-.81,1.05.13,0,.42-.31.45-.43-.74.48,0,0,.21-.13.42-.28.64-.41.48-.28,1-.5,1.48-.75s-.65.25-.22.09c.15,0,.3-.12.45-.18l1-.35A59.41,59.41,0,0,1,41.2,29.76l.86-.12.33-.05c.43-.06-.56.07-.12,0l1.85-.23c1.28-.16,2.56-.29,3.84-.42q4.36-.42,8.75-.7c7.27-.47,14.56-.73,21.85-.89,18.38-.43,36.82-.56,55.19.41,15.3.81,30.38,2.27,45.21,6.24,3.11.83,6.19,1.78,9.22,2.88.65.23,1.3.48,1.95.73l1.09.43.63.26c1.35.57,2.68,1.18,4,1.83a63.32,63.32,0,0,1,7.23,4.17q.81.54,1.59,1.11l.83.61.1.08c-.31-.24.24.19.29.24,1,.8,2,1.65,2.94,2.54s1.81,1.78,2.66,2.73a3,3,0,1,0,4.24-4.24c-7.95-8.88-19.09-14.23-30.3-17.75-14.61-4.58-30.05-6.41-45.27-7.47-18.71-1.3-37.52-1.23-56.27-.91-13.64.23-27.39.54-40.94,2.26a81.44,81.44,0,0,0-12.41,2.3A19.46,19.46,0,0,0,23,29.5a9.63,9.63,0,0,0-1.26,1.44c-1,1.29-.2,3.36,1.08,4.11A3.08,3.08,0,0,0,26.9,34Z"/><path d="M216.06,57.09c.18-.34.47-.64.64-1s-.52.63-.17.22c.1-.11.19-.24.29-.35s.41-.47.61-.7a43.58,43.58,0,0,1,3.3-3.22c.66-.58,1.32-1.15,2-1.71l1.1-.89.39-.3.66-.5c1.83-1.38,3.73-2.69,5.66-3.93a86.17,86.17,0,0,1,13.81-7.26,94.45,94.45,0,0,1,17.4-4.88A360.39,360.39,0,0,1,342,26.27a455.28,455.28,0,0,1,45.48,3.58c1.61.2,3-1.53,3-3a3.06,3.06,0,0,0-3-3A428.15,428.15,0,0,0,304.92,21a351.16,351.16,0,0,0-41,5.13,113.59,113.59,0,0,0-18.72,4.65,90.56,90.56,0,0,0-15.25,7.32,89.22,89.22,0,0,0-12.67,9.09c-2.29,2-4.94,4.22-6.38,6.92-1.82,3.41,3.36,6.44,5.18,3Z"/><path d="M390.45,42.17c3.38,23,4.63,46.33,4.94,69.6.3,22.62-.28,45.24-.34,67.86,0,11.38.08,22.77.5,34.14s1.36,22.67,1.67,34c.53,19.61-.51,39.18-1.8,58.75-1.32,20.06-2.48,40.11-2.2,60.22,0,2.91.11,5.81.2,8.72.12,3.85,6.12,3.87,6,0-.64-20.77.21-41.48,1.56-62.2,1.26-19.34,2.57-38.67,2.38-58.07-.11-11.22-.91-22.38-1.47-33.59-.57-11.38-.79-22.78-.83-34.18-.09-22.69.52-45.39.4-68.08-.13-23.31-1.06-46.63-4-69.77q-.59-4.51-1.24-9c-.23-1.6-2.26-2.49-3.69-2.09a3.07,3.07,0,0,0-2.09,3.69Z"/><path d="M30,389.37A104.73,104.73,0,0,1,64.14,370.1c12.56-4.34,25.72-6.76,38.9-8.27,6.84-.79,13.71-1.35,20.58-1.83a197.15,197.15,0,0,1,21.19-.57,126,126,0,0,1,37.3,7.16c12.4,4.4,24.07,10.73,35.19,17.78,1.53,1,3,1.95,4.55,2.94a3,3,0,0,0,3-5.18c-11.63-7.65-23.77-14.55-36.75-19.67a131.51,131.51,0,0,0-38.33-8.74c-14.13-1.07-28.42.21-42.48,1.64-13.78,1.41-27.59,3.53-40.84,7.66a115.33,115.33,0,0,0-36.59,18.7q-2.13,1.65-4.18,3.41a3,3,0,0,0,0,4.24,3.07,3.07,0,0,0,4.25,0Z"/><path d="M226.32,387.44A111.29,111.29,0,0,1,255,372.26a168.51,168.51,0,0,1,35.53-8.73,162.16,162.16,0,0,1,35.89-.92c1.47.14,2.94.29,4.41.48,1.15.14,2.28.3,3.7.53,2.75.45,5.49,1,8.21,1.64s5.32,1.38,7.93,2.25c1.21.4,2.42.84,3.62,1.3.62.23,1.23.48,1.84.73l.39.16,1,.43c6.48,2.9,12.85,6.14,19.11,9.5a161.06,161.06,0,0,1,17.06,10.47c1.44,1,2.87,2.07,4.27,3.15s3.36.2,4.11-1.08a3.07,3.07,0,0,0-1.08-4.1c-11.29-8.63-23.83-15.13-36.58-21.29a98.66,98.66,0,0,0-16.17-6.3,116.72,116.72,0,0,0-17.2-3.37,156.12,156.12,0,0,0-36.6-.05,176.51,176.51,0,0,0-36.91,8,124.34,124.34,0,0,0-31,14.94q-1.6,1.11-3.15,2.28a3.1,3.1,0,0,0-1.08,4.1c.75,1.28,2.81,2.06,4.11,1.08Z"/><path d="M212.74,69.47c.14,6.81.26,13.56.77,20.36q1.14,15,2,30.1,1.68,29.82,2.41,59.67.78,30,.91,60c.12,19.92.08,39.83,0,59.75s-.23,40-.33,60.06l0,7.4c0,3.86,6,3.86,6,0q.12-30,.32-60.07.15-29.87.08-59.75c-.08-20-.3-40-.77-60s-1.16-39.79-2.19-59.67q-.78-14.91-1.82-29.81c-.52-7.43-1.16-14.82-1.24-22.27q0-2.88-.09-5.76c-.08-3.85-6.08-3.87-6,0Z"/><path d="M333.28,83.43c-10.56.45-21.13.61-31.69.8-5.24.1-10.49.2-15.72.35-4.82.13-9.82.79-14.59,0-4.36-.72-9-1.91-13.3-.21-1,.41-1.93,1-2.92,1.47.1,0-.58.21-.81.28s-.39.11-.59.15-.83.15-.45.1a6.41,6.41,0,0,0-.7,0c-.34,0-.68,0-1,0-.65,0-1.31,0-2,0-3.61.12-6,2.31-6.62,5.85a109.16,109.16,0,0,0-1.29,11c-1.38,16.38-1,32.88-.58,49.29.21,8.39.48,16.78.68,25.18.09,3.83.16,7.66.18,11.49,0,4.1-.54,8.84,2.8,11.92,1.85,1.71,4.3,2.16,6.74,2.21s5.17,0,7.75,0l16,0,31.44-.06,54.12-.1c4.34,0,9.64.76,13.34-2a11.25,11.25,0,0,0,4.16-5.75A31.63,31.63,0,0,0,379,189c.77-8.89,1.17-17.82,1.39-26.74.46-18.77.15-37.55,0-56.33q0-6.8,0-13.58c0-2.1.15-4.24,0-6.34a3.9,3.9,0,0,0-1.28-2.74c-1.31-1.2-3.17-1.51-4.86-1.74a54.8,54.8,0,0,0-6.53-.43c-12.1-.16-24.3,1-36.32,2.33-2.34.26-4.68.53-7,.84a3.09,3.09,0,0,0-3,3c0,1.45,1.38,3.21,3,3,11.2-1.47,22.5-2.47,33.78-3a100,100,0,0,1,14.69.06l.67.07c.53.06-.73-.12-.1,0,.36.07.73.13,1.09.21s.55.17.82.24c.52.12-.38-.18-.31-.15a2,2,0,0,1,.32.18c.3.23-.67-.6-.35-.28s-.48-.71-.3-.4c0,.05-.35-1.24-.31-1.21s0,1,0,1.3c0,2.17,0,4.35,0,6.52,0,18,.35,36.06.23,54.09-.06,8.86-.23,17.71-.65,26.56q-.29,6.27-.79,12.54c-.16,2-.27,4-.53,5.9a5.08,5.08,0,0,1-2.21,3.46c-1.65,1-3.9.72-5.75.72h-5.58l-8.53,0-28.74.05-61.14.1H253.2c-1.46,0-3.58.3-4.53-.71s-.75-2.87-.75-4.32c0-1.8,0-3.6,0-5.39-.09-7.76-.32-15.51-.54-23.26-.46-16.27-1-32.57-.4-48.84.14-3.69.33-7.37.63-11,.14-1.75.31-3.49.51-5.23s.28-2.62.56-4.29a11.88,11.88,0,0,1,.27-1.32c0-.14.09-.27.14-.41.12-.39,0,.36,0,0a.72.72,0,0,1,.17-.29c-.39.25-.28.33-.09.14s.31-.1-.18.13c.38-.18-.13,0-.23.06a6.15,6.15,0,0,0,.71-.18c-.58.14-.27,0,.1,0,.61,0,1.22,0,1.83,0a15.11,15.11,0,0,0,4.78-.63c1.79-.58,3.27-1.79,5.1-2.18,3.73-.77,8.13.85,11.95,1.21a53.77,53.77,0,0,0,7.18-.09c2.5-.09,5-.16,7.49-.23,10.15-.27,20.3-.37,30.45-.61,5-.12,10-.27,15-.48a3.06,3.06,0,0,0,3-3,3,3,0,0,0-3-3Z"/><path d="M301.4,109.54c2.73-1.3,6.62-4.8,4.79-8.12-1.72-3.13-5.66-2.43-8.31-1.2-5.38,2.49-9.17,7.51-11.34,12.9-2.48,6.17-2.53,13.17-1.71,19.69a23.64,23.64,0,0,0,2.65,9.19,13.9,13.9,0,0,0,7.33,5.86,27.16,27.16,0,0,0,9,1.36,57.16,57.16,0,0,0,9.86-.76,54.45,54.45,0,0,0,18.2-6.43c5.29-3,10.37-7,13.4-12.38,3.16-5.62,3.9-12.87.57-18.6s-10.12-8.88-16.49-10.3a48.19,48.19,0,0,0-23.35.6c-3.72,1-2.14,6.82,1.59,5.79a42.68,42.68,0,0,1,16.22-1.29,29.21,29.21,0,0,1,13.34,4.5,11.15,11.15,0,0,1,4.79,10.79c-.55,4.53-3.36,8.33-6.69,11.27-7.4,6.54-17.79,10.15-27.55,10.73-4.26.25-9.69.5-13.27-2.16s-3.71-8.08-4-12c-.36-5.61.16-11.51,2.92-16.4a17.75,17.75,0,0,1,4.44-5.32,15.46,15.46,0,0,1,2.75-1.71,7,7,0,0,0,.65-.3c-.12,0,.83-.19.41-.13s.31,0,.34,0c.23,0,.19,0-.11,0a1.78,1.78,0,0,1-1.17-1.71l.41-1.51a5.84,5.84,0,0,1-2.74,2.45,3,3,0,0,0-1.08,4.1,3.08,3.08,0,0,0,4.11,1.08Z"/><path d="M263.06,192.21c.28.71,0,.07.16,0s.48-.49-.05,0l5,1.32c-.82-4.81,1.79-9.5,4.56-13.23a45.89,45.89,0,0,1,10-9.85,53.55,53.55,0,0,1,11.17-5.87,66.34,66.34,0,0,1,14.57-4.33,38.37,38.37,0,0,1,15,.72,39.09,39.09,0,0,1,6.88,2.6,27.16,27.16,0,0,0,7.14,1.93c2,.36,4.16.68,5.76,1.83a13.09,13.09,0,0,1,1.35,1.24c.29.31.56.62.83.94.12.13.22.27.33.4.54.67-.32-.48.18.24a42.06,42.06,0,0,1,2.81,4.52c.43.81.84,1.64,1.24,2.48.2.42.39.85.58,1.28s.33.76.45,1a81.4,81.4,0,0,1,3.89,12.21c.2.85.38,1.7.54,2.56.08.44.15.87.22,1.3l.09.56c.1.63-.06-.6,0,.06a16.8,16.8,0,0,1,.12,3.47,3,3,0,0,0,3,3,3.06,3.06,0,0,0,3-3c.3-2.79-.38-5.78-1-8.49a79,79,0,0,0-3.43-11.49c-2.8-7.37-6.88-16.89-15.18-19.25-2.38-.67-4.86-.84-7.25-1.47s-4.81-2.09-7.38-3a42.4,42.4,0,0,0-17-1.95,61.5,61.5,0,0,0-16.55,4.11A66,66,0,0,0,281,164.35a53,53,0,0,0-13.06,12.37c-4.05,5.33-6.69,11.59-5.55,18.37.41,2.37,3.5,2.69,5,1.32a5.4,5.4,0,0,0,1.44-5.79,3.1,3.1,0,0,0-3.69-2.1c-1.43.4-2.7,2.18-2.1,3.69Z"/><path d="M252.93,229.82l-2.76-2.25-1.33,5c12.94-4.12,26.91-2.7,40.18-5a3,3,0,0,0,2.09-3.69,3.06,3.06,0,0,0-3.69-2.09c-13.18,2.29-27.2.88-40.17,5-2,.62-3.18,3.5-1.33,5l2.76,2.25a3.1,3.1,0,0,0,4.25,0,3,3,0,0,0,0-4.24Z"/><path d="M242,258.71l-.21.11,1.51-.41-.22,0,1.52.41.82,1v1.59c-.29,1.38-1.17.86-.49.93a5.47,5.47,0,0,0,1.4-.33l2.82-.63q3.06-.67,6.12-1.29,5.79-1.17,11.6-2.13,11.6-1.92,23.31-3a348,348,0,0,1,47.12-1.26q13.23.54,26.39,2.1c1.61.19,3-1.52,3-3a3.08,3.08,0,0,0-3-3,347.47,347.47,0,0,0-51.9-2.21,353,353,0,0,0-52,5.57q-7.1,1.29-14.14,2.88c-2.33.53-5.31.94-6,3.68a3.73,3.73,0,0,0,5.36,4.22,3,3,0,1,0-3-5.18Z"/><path d="M257.07,283.82l-8.61,3a3,3,0,0,0,1.6,5.78A473.43,473.43,0,0,1,332.38,282q11.79-.46,23.59-.35c3.86,0,3.86-6,0-6a481.78,481.78,0,0,0-84.11,6.64q-11.75,2-23.4,4.53l1.6,5.78,8.6-3a3.08,3.08,0,0,0,2.1-3.69,3,3,0,0,0-3.69-2.09Z"/><path d="M53.8,217.68c-1.59,10.49-1.35,21.17-1.53,31.74-.08,5.24-.21,10.48-.7,15.7-.2,2.19-.42,3.49-.71,5.6-.25,1.78-.47,3.58-.66,5.37-.9,8.25-1.42,16.55-1.77,24.84-.3,7.34-.55,14.74-.12,22.07.19,3.31.07,8.32,4,9.35a39.87,39.87,0,0,0,8.31.78c10.91.43,21.84.22,32.75,0q21.42-.44,42.83-1.51c12.42-.62,24.86-1.33,37.24-2.65,4.11-.44,8.25-.89,12.3-1.73a21.12,21.12,0,0,0,3.23-.88,14.91,14.91,0,0,0,6.34-4.23c2.22-2.73,2.45-6.09,2.87-9.45A500.7,500.7,0,0,0,201.73,232c-.12-3.18-.19-6.38-.46-9.56a17.52,17.52,0,0,0-2-7.54,9.12,9.12,0,0,0-7.37-4.38,89.6,89.6,0,0,0-9.83.14l-40.85,1c-5.86.15-11.68.17-17.53-.1s-11.57-.71-17.36-1c-11.55-.69-23.22-1.05-34.67.92a64.87,64.87,0,0,0-15.59,4.74A3,3,0,0,0,55,220.23a3.08,3.08,0,0,0,4.11,1.07c9.69-4.35,20.55-5.36,31.06-5.39,11.34,0,22.63,1.1,33.94,1.62,12.34.56,24.71-.1,37.05-.4l19.93-.49c3.24-.08,6.51-.28,9.75-.22a5.9,5.9,0,0,1,1.73.2c1.11.36,0,0,.51.22.09,0,.61.45.3.18a1.93,1.93,0,0,1,.72.86,4.75,4.75,0,0,1,.51,1.08,24.56,24.56,0,0,1,.9,7.08q.24,4.92.38,9.86.3,9.85.2,19.72-.19,19.74-1.95,39.4c-.59,6.54-1.2,13.11-2.14,19.61-.35,2.43-1,4-3.11,5.19-.55.32-1.13.59-1.7.86.62-.29.24-.09.09,0s-.43.15-.65.21a29.47,29.47,0,0,1-3.72.85c-.83.16-1.66.29-2.5.42l-1.4.2-.29,0c-.58.08.8-.1.21,0l-.76.1c-11.18,1.43-22.46,2.11-33.71,2.76q-21,1.19-41.94,1.73c-11.85.32-23.72.55-35.57.37-3.61-.06-7.23-.12-10.83-.43l-.9-.08c-.4,0-1.28-.34,0,0-.38-.1-.79-.11-1.18-.21a3,3,0,0,0-.4-.11c-.44-.06.9.46.42.16-.25-.15.79.68.5.37.62.65.47.66.29.33.41.75.16.43,0-.14-.09-.37-.14-.75-.21-1.13-.14-.72.07.7,0,0,0-.28-.07-.57-.09-.85-.13-1.25-.2-2.51-.25-3.77-.14-3.37-.14-6.74-.09-10.11.11-8.25.5-16.5,1.11-24.72.28-3.78.61-7.56,1-11.32.09-.81.19-1.63.29-2.44l.06-.46c.1-.76-.06.48,0,0s.11-.79.17-1.19c.34-2.26.64-4.53.84-6.82.91-10.47.58-21,.92-31.51a125.17,125.17,0,0,1,1-13.62,3.09,3.09,0,0,0-2.09-3.69c-1.42-.39-3.45.48-3.69,2.09Z"/><path d="M112.93,257.57l1.28-2.4a3,3,0,0,0-.77-3.87,3,3,0,0,0-3.94.23,514.3,514.3,0,0,0-41.12,54.24q-5.28,8-10.25,16.25c-1.25,2.07.88,5.4,3.39,4.4l2.89-1.15a3.09,3.09,0,0,0,2.09-3.69c-.39-1.43-2.18-2.7-3.69-2.1l-2.89,1.16,3.39,4.4a501.52,501.52,0,0,1,38.26-54.71q5.94-7.4,12.17-14.56L109,252.14l-1.28,2.41a3,3,0,1,0,5.18,3Z"/><path d="M112.64,248.52c3.58,5.51,8.49,10,12.33,15.27s6.89,11.52,9.85,17.53q9.68,19.62,19.33,39.23c1.43,2.9,3.73,10,8.31,7.52a3.54,3.54,0,0,0,1.19-5,3.27,3.27,0,0,0-5.7,0,3.07,3.07,0,0,0,1.08,4.1,3,3,0,0,0,4.1-1.08l.08-.15L162.13,327l.1-.06-2.31.31-1.4-3.41,1.07-1.07-.16.08,1.52-.41c1.29-.12,1.07.82,1,.35a4.93,4.93,0,0,0-.53-1.05l-.88-1.79-2.21-4.48-4-8.07-8.17-16.59c-2.68-5.43-5.32-10.87-8-16.28A96.45,96.45,0,0,0,129.61,260c-3.73-5-8.39-9.29-11.79-14.53a3.08,3.08,0,0,0-4.11-1.08,3,3,0,0,0-1.07,4.11Z"/><path d="M139.41,276.22l18.72-15.36-4.71-.61,17.09,26.06c5.43,8.27,11.06,16.45,16,25a101.43,101.43,0,0,1,7,14.5,3.08,3.08,0,0,0,3.69,2.09,3,3,0,0,0,2.09-3.69c-3.5-9.26-8.5-17.78-13.85-26.08-5.63-8.72-11.38-17.37-17.07-26.05l-9.77-14.9a3.05,3.05,0,0,0-4.71-.6L135.17,272a3,3,0,0,0,0,4.25,3.07,3.07,0,0,0,4.24,0Z"/><path d="M51.75,85.2a439.1,439.1,0,0,0-.87,51.43c.18,4.21.56,8.42.67,12.64.09,3.27-.08,6.54-.19,9.8-.21,5.83-.37,12.2,2.57,17.45,3.33,5.94,9.77,8.14,16.15,8.86s12.94.23,19.4-.1c14.81-.76,29.64-1.18,44.46-1.71s29.86-1.11,44.74-2.31c3.53-.29,7.27-.35,10.72-1.16a10.92,10.92,0,0,0,7.87-7.39c1.19-3.38,1.09-7.13,1.11-10.67,0-4.43,0-8.87-.09-13.31q-.47-27-3.31-53.89c-.48-4.49-1-9-1.58-13.47-.52-4.08-.78-8.41-3.61-11.65-2.63-3-6.9-3.71-10.61-4.43-4.32-.84-8.68-1.51-13.05-2.07-16.41-2.08-33-1.95-49.48-1.18-16.67.79-33.32,2.1-50,2.16q-6.51,0-13-.21a3,3,0,0,0-2.89,3.8c.09.35.17.71.24,1.06s.06.37,0,.05l.06.59c.06.71.09,1.42.1,2.13,0,1.59,0,3.18.2,4.76.39,3.69,1.67,6.73,5.27,8.23,1.5.62,3.3-.67,3.69-2.1a3.08,3.08,0,0,0-2.09-3.69c.77.33-.45-.4-.06-.07s-.53-.77,0,0c-.14-.2-.25-.41-.37-.62.33.57,0,0-.07-.22a9.3,9.3,0,0,1-.26-1c0-.13-.13-.93-.06-.32-.08-.65-.11-1.3-.14-2-.12-2.79,0-5.65-.7-8.38L53.61,70c16.48.6,32.94-.28,49.38-1.22,15.82-.9,31.68-1.75,47.52-.93a197,197,0,0,1,24.22,2.71c2.06.36,4.13.74,6.17,1.21a10,10,0,0,1,4,1.54,6.17,6.17,0,0,1,1.85,3.7c.39,1.77.55,3.52.79,5.35q3.28,25.94,4.35,52.08.52,13.06.5,26.14c0,2,0,3.9-.07,5.85a15.59,15.59,0,0,1-.62,4.05,5.06,5.06,0,0,1-1.82,3,8.49,8.49,0,0,1-3.66,1.12c-13.93,1.61-28.06,2-42.07,2.61-14.72.58-29.46,1-44.19,1.61-6.37.26-12.75.72-19.13.91a82.51,82.51,0,0,1-9.82-.23,21.44,21.44,0,0,1-7.69-2,9.28,9.28,0,0,1-2.93-2.23l-.41-.46-.35-.49a14.17,14.17,0,0,1-.95-1.7c-.15-.31,0,0,0,.07-.06-.13-.11-.26-.16-.39-.11-.32-.22-.63-.32-.95-.2-.64-.36-1.3-.5-2l-.15-.88a1.76,1.76,0,0,1-.06-.41c-.07-.72-.13-1.45-.17-2.18-.31-6.15.5-12.3.14-18.46A470.08,470.08,0,0,1,57,97.8q.31-6.3.78-12.6a3,3,0,1,0-6,0Z"/><path d="M122.41,103.33a16.14,16.14,0,0,0-14.61-7.21,14.78,14.78,0,0,0-13.31,10.16A16.39,16.39,0,0,0,98,122.53c4.07,4.18,10.61,5.32,16,3.5a15.75,15.75,0,0,0,7.87-5.67,6.47,6.47,0,0,0,1.24-5.22,4,4,0,0,0-5-3.17,3,3,0,1,0,1.6,5.78c-.47.14-.82-.11-1.26-.29s-.81-.24-1.07-.69c0,0-.22-.63-.14-.31s0-.32,0-.32a3.3,3.3,0,0,1,0,.63s.11-.6,0-.28.3-.41.08-.15a6.93,6.93,0,0,0-.44.7c-.29.48.26-.26-.11.16a14.15,14.15,0,0,1-1.07,1.12c-.18.17-.37.31-.55.47s.11-.08.14-.1-.19.14-.29.21c-.44.28-.88.56-1.34.8l-.65.32c-.13.06-.52.17,0,0l-.34.13c-.5.16-1,.33-1.5.45-.24.06-.47.11-.71.15s-.7.09-.16,0c-.53,0-1,.09-1.57.1s-1-.07-1.45-.07.17,0,.2,0l-.47-.07-.82-.18c-.47-.12-.91-.31-1.37-.44s.13.06.16.08l-.32-.15c-.25-.12-.5-.25-.74-.39s-.42-.24-.62-.38-.57-.43-.17-.1A10.8,10.8,0,0,1,102,118c-.16-.18-.32-.37-.47-.56.32.41,0,0-.11-.18a15.7,15.7,0,0,1-.78-1.38c-.06-.11-.11-.23-.16-.34s.17.48.06.15-.17-.46-.25-.69c-.16-.51-.3-1-.41-1.55,0-.12-.15-1-.11-.57s0-.35,0-.47a14.24,14.24,0,0,1,0-1.6c0-.25,0-.5,0-.75.05-.59-.08.41,0-.18s.21-1.05.36-1.56c.07-.24.14-.47.22-.7s.42-.89.12-.31c.25-.47.46-.94.75-1.4.13-.2.29-.4.41-.61s-.07.09-.1.12l.23-.28c.36-.4.75-.76,1.14-1.14s-.31.19.15-.13l.6-.4a11.53,11.53,0,0,1,1.48-.77c-.48.21-.06,0,.18,0s.45-.15.68-.21.47-.12.7-.17a5,5,0,0,0,.55-.12c-.36.07.41,0,.56,0s.56,0,.84,0a15.56,15.56,0,0,1,1.81.1c-.62-.06,0,0,.28.06l.83.19c.55.14,1.07.34,1.6.53-.55-.2.07,0,.28.13s.5.26.74.4.48.28.71.44l.3.2c.47.31-.19-.2.06,0,.4.39.83.74,1.21,1.15.15.17.56.7.22.23.19.26.37.53.55.8a3,3,0,1,0,5.18-3Z"/><path d="M126.63,102a18.59,18.59,0,0,0-7.91-5.34l1.8,1.38c-1.27-2.48-2.57-5.17-2.62-8A11.69,11.69,0,0,1,120,83.42c3-4.55,8.23-7,13.16-8.86,1.34-.5,2.69-1,4.06-1.45.27-.08.56-.15.82-.24.73-.25.42.24.09-.11a4.67,4.67,0,0,1,.68,1.09,12.08,12.08,0,0,1,.76,7.05c-1,5.64-4.7,10.12-8.63,14-2.09,2.08-4.25,4.59-6.85,6a5.33,5.33,0,0,1-1.8.61c.35-.06-.58-.1-.11,0-.08,0-.88-.24-.56-.11a3.23,3.23,0,0,1-.72-.42s-.35-.4-.2-.16c-.14-.22-.29-.2-.12-.1-.09-.36-.11-.39-.07-.1v-.13a3.07,3.07,0,0,0-2.1-3.69A3,3,0,0,0,114.74,99c-.92,4.09,2.18,7.81,6.19,8.45,4.34.7,7.87-2.13,10.83-4.91,5.87-5.53,12.12-11.74,13.62-20,.73-4.09.47-8.52-1.64-12.2a6.27,6.27,0,0,0-5.64-3.45c-2.09.06-4.18,1.06-6.11,1.78-7.42,2.74-15.16,6.68-18.53,14.31a17.28,17.28,0,0,0-.27,13.41c.46,1.2,1,2.38,1.55,3.54a6.72,6.72,0,0,0,1.06,1.79,5,5,0,0,0,1.74.91,13.24,13.24,0,0,1,4.85,3.66,3,3,0,0,0,4.24,0,3.07,3.07,0,0,0,0-4.25Z"/><path d="M129.5,104a41.55,41.55,0,0,1,1.11-4.79,11.86,11.86,0,0,1,1.5-3.2,17.19,17.19,0,0,1,10.34-7.24,12.2,12.2,0,0,1,3-.48c.53,0,1.07,0,1.61,0l.8,0c.12,0,1.09.13.65.06A11.8,11.8,0,0,1,154.8,91c2,1.78,2,4.28,1.37,6.76a32.67,32.67,0,0,1-4.15,8.47c-1.4,2.23-3,5.16-5.31,6.62-2.7,1.72-6.45-.73-8.87-2C136.2,110,134.57,109,133,108c-.79-.49-1.58-1-2.36-1.51l-1.16-.79-.77-.54c.54.28.68.84.44,1.68l-.77,1.32-2.59.36-1.08-1.08.07.14-.41-1.52,0,.19a3,3,0,0,0,3,3,3.06,3.06,0,0,0,3-3c.29-2.83-3.2-4.23-5.37-3-2.5,1.43-2.13,4.71-.17,6.41a42.63,42.63,0,0,0,5.56,3.75q2.9,1.77,5.92,3.32c4.13,2.12,8.92,3.91,13.31,1.37,3.57-2.08,6-6.21,8.1-9.65,2.27-3.73,4.36-7.75,4.82-12.15a11.59,11.59,0,0,0-5.09-10.86c-5.59-4-13.47-4-19.63-1.45a23,23,0,0,0-9.16,6.65c-2.82,3.48-4.08,7.38-4.9,11.73a3.08,3.08,0,0,0,2.09,3.69A3,3,0,0,0,129.5,104Z"/><path d="M129.2,103.41l-.4,1.53c.17.91-.07,1.47-.74,1.69,0,0-.6.15-.21,0a1.21,1.21,0,0,1,.38,0c-.8,0,0,0,0,0s-.52-.51,0,0c-.05-.06-.28-.21.05,0s.79.69,1.17,1a26.25,26.25,0,0,1,3.54,4,28.72,28.72,0,0,1,4.55,9.75c.44,1.8.53,2.89-.86,4.17a9.1,9.1,0,0,1-4,2,9.54,9.54,0,0,1-8.16-1.73,10.22,10.22,0,0,1-2.89-4.07,9.75,9.75,0,0,1-.56-4.88,3.09,3.09,0,0,0-2.09-3.69,3,3,0,0,0-3.69,2.1,16,16,0,0,0,4.6,14.42,15.54,15.54,0,0,0,14.91,3.49,14.43,14.43,0,0,0,6.78-4.09c2.36-2.7,2.57-5.74,1.76-9.12a34.16,34.16,0,0,0-7.49-14.29c-1.82-2.09-4.07-4.68-7-5.08-3.47-.47-6.53,2.14-4.87,5.7a3,3,0,0,0,4.1,1.07,3.07,3.07,0,0,0,1.08-4.1Z"/><path d="M118,117.74a20.44,20.44,0,0,0-9.32,6.47,22.79,22.79,0,0,0-4.62,11.57,139.92,139.92,0,0,0-.44,28c.38,5.48,1,10.93,1.91,16.34.26,1.6,2.25,2.49,3.69,2.1a3.07,3.07,0,0,0,2.1-3.69,163.77,163.77,0,0,1-2.1-25.5q0-6.48.42-12.95c.26-3.61.67-7.32,2.5-10.4a14.37,14.37,0,0,1,7.45-6.13,3.08,3.08,0,0,0,2.1-3.69,3,3,0,0,0-3.69-2.1Z"/><path d="M160.58,174.59l-.14.19,1.08-1.07c.78-.56,2.48-.21,2.66.87,0,.06-.31,2-.57,1.78,0,0,1.3-.32,1.57-.36a3,3,0,0,0,2.09-3.69A46.48,46.48,0,0,0,141,146.79l-.79,5.89,2.7.15a3,3,0,0,0,0-6l-2.7-.15a3,3,0,0,0-3,2.61,3,3,0,0,0,2.15,3.29,39.94,39.94,0,0,1,22.05,21.33l2.09-3.7c-2.89.43-6.12,2.59-5.18,6a4.58,4.58,0,0,0,2.7,3,3.78,3.78,0,0,0,4.66-1.54,3,3,0,0,0-1.07-4.1,3.07,3.07,0,0,0-4.11,1.07Z"/><path d="M167.76,172.87a2.1,2.1,0,0,1-.42-1.6,7.79,7.79,0,0,1,1.07-2.83,50.37,50.37,0,0,1,4.26-6c1.47-1.93,3-3.82,4.55-5.68.86-1,1.73-2.06,2.61-3.07.4-.46.79-.93,1.2-1.37.09-.09.33-.37.33-.35.06-.33-2.78-.24-2.66-1.6l.41-1.52.19-.25a3,3,0,0,0,0,4.24,3.07,3.07,0,0,0,4.25,0,3.86,3.86,0,0,0-.11-5.59c-1.75-1.71-4.32-1.25-6,.22a33.19,33.19,0,0,0-3.52,4c-1.27,1.5-2.52,3-3.75,4.57a77.51,77.51,0,0,0-6.81,9.25c-1.87,3.25-2.91,7.29-.75,10.66a3.07,3.07,0,0,0,4.11,1.08,3,3,0,0,0,1.07-4.1Z"/><path d="M162.75,179.07l4.7-33.5a3.1,3.1,0,0,0-2.09-3.69c-1.41-.38-3.47.48-3.7,2.1L157,177.47a3.09,3.09,0,0,0,2.1,3.69c1.4.39,3.46-.48,3.69-2.09Z"/><path d="M26.32,384.66c-6.15,3-11.2,7.92-16.48,12.2-1.17.94-2.22,1.76-3.47,2.63-1.57,1.1-3.53,2-4.13,4a3.56,3.56,0,0,0,3.41,4.67c2.54,0,4.52-2.8,3-5.09a3,3,0,0,0-5.18,3l.09.14L3.2,404.7v.13l.41-1.52-.07.12,1.07-1.08a2.57,2.57,0,0,1,1.48-.17l1.32.77.26.33.41,1.52-.51,1.11q-.29.16,0,0a4.19,4.19,0,0,0,.7-.45c.44-.29.87-.59,1.3-.89,1.05-.74,2.07-1.52,3.08-2.31,1.9-1.48,3.74-3,5.59-4.58,3.49-2.91,7-5.82,11.14-7.84a3,3,0,0,0-3-5.18Z"/><path d="M6.85,409.07c7.42-.18,14.83-.14,22.25,0a11.8,11.8,0,0,0,6.78-1.6,112.93,112.93,0,0,1,13-6.49l1.76-.75c.2-.09,1.19-.5.51-.21l1.32-.56c1.69-.7,3.39-1.4,5.1-2.08q6.13-2.46,12.36-4.69a205.29,205.29,0,0,1,28-8.21,85.16,85.16,0,0,1,13.64-1.64c6.72-.32,13.46-.33,20.19,0A208.26,208.26,0,0,1,169,388.42a154.08,154.08,0,0,1,15.91,4.65c2.67.94,5.32,2,7.94,3.06,1.29.54,2.57,1.1,3.85,1.68.63.28,1.25.57,1.85.91l.74.47q.25.19,0,0l.45.38c.18.17,1,1.08.56.55a6.91,6.91,0,0,1,.54.86c.09.15.15.31.24.47.32.6-.18-.47,0-.07l.36,1a8.32,8.32,0,0,0,3.18,4.42c3.29,2.11,7.95,1.7,11.7,1.57,8.65-.31,17.5-1.46,26.13-.34-.64-.08.58.1.76.13l1.2.25,1,.27c.21.07,1.38.53.55.17a3.09,3.09,0,0,0,4.1-1.08c.74-1.26.42-3.46-1.07-4.1-3.67-1.58-7.72-1.9-11.68-2-4.61-.13-9.23.11-13.84.35-3.89.2-7.8.51-11.69.4a19.52,19.52,0,0,1-2.47-.21,9.3,9.3,0,0,1-1.37-.39c.8.3.06,0,.08,0l-.37-.22c.34.28.39.31.15.11a3.13,3.13,0,0,0-.25-.26c-.39-.31.09.33.09.12s-.54-1-.29-.49-.15-.43-.21-.57c-.12-.33-.24-.66-.38-1a11.67,11.67,0,0,0-4-5.22c-2.37-1.74-5.37-2.73-8.07-3.86a150.51,150.51,0,0,0-16.24-5.75,212.6,212.6,0,0,0-35.9-6.95,191.37,191.37,0,0,0-19.89-1.11,144.78,144.78,0,0,0-18,.78c-9.64,1.16-19.06,3.8-28.27,6.81-8.35,2.73-16.57,5.84-24.68,9.2A155.47,155.47,0,0,0,35.1,401c-1.09.61-2.13,1.31-3.24,1.89l-.26.13c-.39.22-.17-.22.42-.17a2.52,2.52,0,0,0-.55.18c-.18.06-.88.14-.14.05s-.12,0-.32,0c-1.6.09-3.23,0-4.84-.07q-5.45-.13-10.89-.09-4.21,0-8.43.15c-3.85.09-3.87,6.09,0,6Z"/><path d="M247.08,407.71c14.34-11.68,33.47-18.3,51.79-20.62,19.14-2.43,38.88-.93,56.79,6.46,11.9,4.91,23.18,13.12,35.64,17.69a3,3,0,0,0,3.69-2.1,3.07,3.07,0,0,0-2.09-3.69C381.38,401.23,371.31,394,360.14,389a103.71,103.71,0,0,0-28.61-7.85,128,128,0,0,0-59.87,6.35,98.23,98.23,0,0,0-28.82,16,3,3,0,0,0,0,4.24,3.07,3.07,0,0,0,4.24,0Z"/><path d="M395.34,390.53c3.92,2.89,7.93,6.56,11.73,10,2,1.8,4,3.6,6.07,5.36.93.79,1.86,1.58,2.81,2.35l1.48,1.17.69.53.29.25a6.44,6.44,0,0,1,1.67-2.74l1.52.41-.23-.13c-3.33-2-6.36,3.22-3,5.18a4,4,0,0,0,5.74-2.4,4.31,4.31,0,0,0-.49-3.39,8.46,8.46,0,0,0-2.06-2c-2.54-2-5-4.11-7.38-6.24-5.17-4.59-10.22-9.35-15.79-13.45a3,3,0,0,0-4.1,1.08,3.07,3.07,0,0,0,1.07,4.1Z"/><path d="M421.79,409.32c-7.48-.47-14.9-1.51-22.39-2v6a3,3,0,0,0,1.65-5.64,9.91,9.91,0,0,0-2.71-.84l-3.39-.79c-.47-.11-.94-.21-1.4-.34l-.46-.12a1.59,1.59,0,0,0-.2-.07,3.06,3.06,0,0,1,1.16.7l.77,2.92v0l-1.38,1.8c-1.46.26-1.9.39-1.35.39,3.86,0,3.87-6,0-6a3.05,3.05,0,0,0-1.65,5.65,10.23,10.23,0,0,0,2.72.84l3.39.78,1.4.34c.15,0,.3.1.45.13a1.52,1.52,0,0,0,.2.06,3.19,3.19,0,0,1-1.16-.69l-.77-2.92h0l1.38-1.79c1.45-.27,1.9-.4,1.34-.4a3,3,0,0,0,0,6c7.49.46,14.91,1.5,22.39,2a3,3,0,0,0,0-6Z"/><path d="M392.72,30.43c4.85,3,10,5.35,15.08,8a46.47,46.47,0,0,1,13.13,9.71,3,3,0,0,0,4.24-4.24,51,51,0,0,0-14-10.48c-5.15-2.72-10.46-5.09-15.42-8.17-3.29-2-6.3,3.15-3,5.18Z"/><path d="M423,43.24c-1.57,48.24-2.38,96.5-2.89,144.77-.51,47.75-.72,95.5-1.1,143.25q-.33,40.73-.91,81.45c-.05,3.86,5.95,3.86,6,0,.74-48.26,1-96.53,1.36-144.8.32-47.75.67-95.5,1.53-143.25q.72-40.71,2-81.42c.12-3.86-5.88-3.86-6,0Z"/><path d="M29.72,31a5.07,5.07,0,0,0-.15-1.24,3,3,0,0,0-4.4-1.79h0l4.41,1.79c.08.72.1.84.07.36A3,3,0,0,0,24.5,28C18.39,34,10.77,38,3.36,42.39L7,47.11A3.57,3.57,0,0,1,9.39,46c1.6-.25,2.49-2.26,2.09-3.7a3.07,3.07,0,0,0-3.69-2.09,9.27,9.27,0,0,0-5,2.65c-2.39,2.4.68,6.47,3.64,4.72C14.2,43,22.24,38.67,28.74,32.21l-5.12-2.12a5.68,5.68,0,0,0,.14,1.24,3,3,0,0,0,4.41,1.79h0l-4.4-1.8c-.08-.71-.1-.83-.07-.35a3,3,0,0,0,6,0Z"/><path d="M5.5,46.25C4.18,71.68,3.86,97.14,3.91,122.59s.45,50.93.53,76.4c.08,23.82-.39,47.61-1,71.42q-.7,26.71-.95,53.46c-.18,21.16-.13,42.32,0,63.47,0,3.19,0,6.38.07,9.57,0,3.86,6,3.87,6,0-.17-22-.26-44-.13-65.94q.16-26.89.83-53.79c.56-22.84,1.2-45.66,1.21-68.5,0-25.49-.39-51-.51-76.48s0-50.88,1.1-76.29c.13-3.22.29-6.44.45-9.66.2-3.86-5.8-3.84-6,0Z"/></svg>