<svg id="scribble"
  xmlns="http://www.w3.org/2000/svg" viewBox="0 0 216 72">
  <path id="scribble_path" d="M32.72,3.5l-28,26.17L44.89,3.78S3.81,46.88,3.84,46.9L52.66,5.21,5.6,59.46S66.82,2.65,68.66,3.33L14.77,63.4c2,.75,65.74-59.65,65.74-59.65L31.91,56.82s59.71-53.95,61-53.47c0,0-55.53,64.1-55.53,64.1S97.24,10.61,99.05,11.27L52.47,66.75s64.54-65,69-63.36L68,65.77,135.67,3.44c.15.05-56.88,61.79-56.79,61.82,4.29,1.58,61.34-60.32,62.32-60C141.25,5.32,86.3,67,86.3,67l60.47-52.21L96.58,67.45l58.53-56.56-45.86,56.6L169.43,6.11,124,61.64,181.23,3.28,132.54,66.06,192.15,6,147.06,66.83,206.27,3.6,158.71,69.07l52.91-54.7L169.43,69.09l41.1-40.35-29.1,38.81,30.19-25.27L193.94,69.09" fill="none" />
</svg>