<svg id="Layer_1" data-name="Layer 1" xmlns="http://www.w3.org/2000/svg" viewBox="0 0 432 432"><path d="M46.63,21.13c-3.08.15-6.78,0-9.75.94-3.79,1.26-2.86,5.66.44,6.74.54.18,1.1.28,1.64.43.24.06.49.16.73.2.73.11-.72-.43-.22-.1-1.75-1.15-.85-5.49.49-5.5-.15,0-.34.15-.49.12A1.82,1.82,0,0,0,39,24c1-.17-.14,0-.35,0-2.16.2-4.34.32-6.51.43-4.12.2-4.15,6.31,0,6.42q45.6,1.2,91.2,2.67,31.86,1,63.72,2.19c18,.63,35.89,1.24,53.85,1.72q30.78.84,61.57,1.25,43.44.61,86.9.78l13.47.06c4.13,0,4.13-6.38,0-6.42-24.17-.25-48.34-.44-72.5-.43q-28.41,0-56.81.46-25.69.44-51.37,1.35-27.74,1-55.46,2.25-34.9,1.53-69.82,3.13l-10.23.45c-4.11.18-4.16,6.39,0,6.43l113.3.91,113.3.91,63.55.52V42.72c-53.34,2.74-106.7,5.25-160,8.27Q157,54.37,97.53,61C72.77,63.84,48,66.9,23.3,69.88c-4,.48-4.25,6.4,0,6.43q39.86.22,79.7.53,32.15.25,64.29.55l58.34.54q31.51.28,63,.54,38.59.3,77.2.54l11.11.07V72.65q-46.59,1.83-93.19,3.61c-20,.74-40.08,1.45-60.12,1.93q-24,.57-48,.64c-19.13,0-38.25-.08-57.38-.23q-44.23-.33-88.46-.69L16,77.81v6.43q44.85.18,89.71.45,32.06.21,64.11.46l54.73.46q30.93.24,61.87.45,42.82.27,85.64.46l13.08,0-.85-6.31L283.89,95.32l-100,15-56.6,8.49c-3.63.54-2.69,6.34.85,6.31q56.61-.52,113.22-1.21,50.63-.6,101.24-1.2,33.78-.36,67.55-.68c4.13,0,4.14-6.4,0-6.42-48.41-.2-96.84.63-145.19,3.25-44.16,2.39-88.21,6.31-132.18,11-27.93,3-55.84,6.26-83.73,9.61a3.3,3.3,0,0,0-3.21,3.21,3.25,3.25,0,0,0,3.21,3.21q42.86-.73,85.71-1.51c19.31-.33,38.62-.66,57.94-.89q24-.28,48.09-.3,28,0,56,.32,40.56.38,81.12.91l12.63.15v-6.42c-32.24.87-64.48,1.88-96.69,3.42-18.33.87-36.65,2-54.95,3.39-13.45,1.06-26.88,2.31-40.33,3.41-17.3,1.41-34.61,2.51-51.93,3.4-30,1.53-60,2.54-90,3.4q-7.48.22-15,.42V162c25.59-3,51.12-6.47,76.72-9.37,19.37-2.2,38.8-3.58,58.28-4.38,16.84-.68,33.7-1.08,50.55-1.44V140.4q-76.92,6.78-153,20.65-20.81,3.82-41.48,8.22c-3.62.77-2.69,6.24.85,6.31q74.86,1.38,149.74,1.94t149.77.28q42.25-.15,84.51-.58V170.8c-46.3,5.13-92.74,8.88-139.23,11.8-46.77,2.94-93.58,5-140.4,6.83q-39.42,1.51-78.83,2.84c-4.12.14-4.15,6.41,0,6.42q46.17.09,92.34.23,27.52.09,55.05.23l41.74.24q26.06.13,52.1.23,43.23.15,86.46.23l14.2,0-.85-6.31c-27.16,3.93-54.3,7.94-81.47,11.8-15.16,2.16-29.57,4.21-44.87,5.84-11,1.17-22,1.94-33,2.39-14.65.59-29.32.83-44,1.18q-38.94.91-77.88,2.27l-13.22.48V224c42.91-2.9,85.79-6.35,128.69-9.42,39-2.79,78-5.06,117.1-6.14q38.22-1.06,76.47-.83v-6.43q-45.58,3.42-91.11,7.67-37.74,3.54-75.41,7.66c-23.35,2.52-46.68,5.15-70,7.7q-36.9,4-73.84,7.63-44.46,4.28-89,7.69l-12.34.94a3.22,3.22,0,0,0,0,6.43c21.05,1.58,42.09,3.48,63.2,3.83,28.87.48,57.76.21,86.63.26q35.2.06,70.39.14l62.23.13q40.71.09,81.42.14h13v-6.42c-25.09.41-50.18,1.08-75.24,2.29q-29.87,1.44-59.63,4.08c-17.83,1.61-35.63,3.61-53.39,5.83-19.32,2.41-38.61,5.05-57.9,7.65q-35.5,4.79-71,9.3L65.7,275.38a3.31,3.31,0,0,0-3.21,3.21,3.25,3.25,0,0,0,3.21,3.21q37.08-1.21,74.15-2.78,29.09-1.25,58.15-2.76c17.59-.91,35.17-1.87,52.76-2.78q28.59-1.5,57.17-2.78,35.83-1.59,71.68-2.78l10.28-.34v-6.42Q343,263.05,296.17,265c-19.46.81-38.93,1.62-58.39,2.26q-22.82.75-45.62,1c-18.52.22-37,.23-55.56.21q-44.19,0-88.38-.23l-14.21,0v6.42q42.31-.06,84.62-.15l57.06-.14,47-.15,54.68-.14,80.22-.15,12.64,0v-6.42Q326,273,281.82,278.86c-20.74,2.78-41.47,5.66-62.17,8.8q-26,4-51.9,8.44c-19.62,3.38-39.21,6.9-58.79,10.41q-41.25,7.39-82.52,14.67l-12.62,2.21c-3.65.64-2.66,6.26.85,6.31q43.17.6,86.35.86,33.18.15,66.37-.2Q197,330,226.7,329.1c21.6-.65,43.18-1.47,64.77-2.33q41.36-1.63,82.72-3.38l12.28-.5c4.12-.16,4.15-6.32,0-6.42-46.07-1.13-92.15-1.57-138.22-.81-43.08.71-86.14,2.49-129.15,5q-40,2.37-80,5.39c-4.08.3-4.17,6.61,0,6.42q38.58-1.73,77.19-2.91,34.63-1,69.26-1.48c23.38-.33,46.76-.48,70.14-.57q37.5-.15,75-.18,9.34,0,18.69-.06c2,0,4,.08,5.92-.05a4.3,4.3,0,0,0,1.76-.46,3.2,3.2,0,0,0,1.59-2.77h0a3.12,3.12,0,0,0-1.59-2.77,7.94,7.94,0,0,0-3.66-.5l-1.48,0c-1.44,0,0-.06.81.4l1.59,2.78h0l-1.59,2.77c-1.37.68-2.08.43-.49.4l3.49,0L373.1,327l18,0v-6.43q-47.43,2.94-94.88,5.35c-19.88,1-39.77,1.86-59.66,2.8-15.65.73-31.3,1.55-46.93,2.66-18.88,1.33-37.73,3-56.57,4.91-29.21,2.91-58.4,6.17-87.57,9.48l-14.35,1.64c-4,.46-4.23,6.5,0,6.42q41.9-.75,83.78-1.72,34-.8,68.07-1.72l62.68-1.73q33.42-.92,66.83-1.73,40.65-1,81.3-1.72l11.52-.21c4.14-.08,4.13-6.28,0-6.42-49.11-1.75-98.27-2.42-147.4-1-45.22,1.34-90.36,4.55-135.38,8.94-28.35,2.76-56.66,5.95-84.94,9.3A3.32,3.32,0,0,0,34.35,359c0,1.6,1.48,3.4,3.22,3.21q60.25-6.36,120.61-11.76,60.52-5.4,121.14-9.83,34.11-2.49,68.23-4.67l-.85-6.31c-40.6,8-81.63,13-122.87,16.11-38.37,2.91-76.82,4.65-115.14,8.24q-36.78,3.44-73.3,9.13c-3.66.58-2.65,6.27.86,6.31q43.74.56,87.49,1,35.73.33,71.45.45,32.91.11,65.82-.07,35.26-.18,70.53-.61,42.34-.48,84.68-1.13l11.95-.18v-6.42q-41.49,3.34-83,5.92-37.72,2.3-75.5,3.81-36.43,1.44-72.9,2.21-37.62.81-75.23,1.12-41.05.39-82.09.54l-11.16.06c-4.14,0-4.14,6.4,0,6.42q44.76.24,89.52.5c20.66.11,41.33.19,62,.11q25.93-.1,51.87-.66c19.92-.44,39.82-1.1,59.73-1.83,28.33-1,56.66-2.21,85-3.38l13-.54c4.11-.17,4.16-6.42,0-6.42q-51.36-.06-102.71,0-30.6.09-61.18.41c-15.47.19-30.93.48-46.39.79q-29.07.6-58.14,1.17-48,.9-95.91,1.54l-15.81.22v6.42q38-.59,76.06-1.1,31.32-.42,62.64-.66,28.69-.23,57.39-.22,30.61,0,61.24.24,36.93.26,73.85.68l10.71.12c4.14,0,4.14-6.38,0-6.43q-38-.42-76.07-.73-31.32-.24-62.64-.29-28.69,0-57.4.15-30.61.21-61.23.61-36.93.45-73.84,1l-10.71.17c-4.13.06-4.14,6.48,0,6.42q51.35-.69,102.68-1.59,30.58-.56,61.17-1.21c15.46-.32,30.92-.63,46.39-.84q29.07-.39,58.15-.45,48-.18,95.94-.09l15.81,0v-6.42q-44.64,1.85-89.3,3.6c-20.62.77-41.24,1.49-61.87,2q-25.94.65-51.87.79c-19.94.11-39.88,0-59.82,0q-42.6-.19-85.2-.47l-13-.07v6.42q41.85-.19,83.71-.51,37.92-.33,75.85-1,36.46-.72,72.92-2,37.49-1.39,74.92-3.58,40.75-2.38,81.44-5.61l11.06-.88c4.06-.33,4.19-6.48,0-6.42q-43.76.64-87.49,1.2-35.73.44-71.45.67-32.91.19-65.82.14-35.26-.06-70.53-.39-42.34-.37-84.69-.93L36.25,363l.85,6.31c41.28-6.5,82.85-10.27,124.53-13,38.26-2.52,76.56-4.61,114.66-9.13q36.25-4.29,72.11-11.34c3.53-.7,2.77-6.54-.85-6.31q-60.74,3.88-121.39,8.74Q165.67,343.13,105.24,349q-33.85,3.27-67.67,6.84v6.42c48.4-5.73,96.87-11,145.5-14.45Q250.92,343,319,343.18c28.78.07,57.55.74,86.31,1.76v-6.42q-41.9.75-83.78,1.72-34,.79-68.07,1.72l-62.68,1.73q-33.42.92-66.83,1.72-40.65,1-81.29,1.73l-11.53.21v6.42c31.18-3.57,62.36-7.09,93.58-10.27,19.64-2,39.3-3.86,59-5.33,15.62-1.17,31.26-2.05,46.9-2.81,19.05-.92,38.11-1.74,57.16-2.66q44.41-2.18,88.8-4.87l14.54-.89c4.09-.26,4.17-6.43,0-6.43-12.91,0-25.83-.07-38.75.13a6.09,6.09,0,0,0-2.79.47,3.22,3.22,0,0,0-1.59,2.78h0a3.18,3.18,0,0,0,1.59,2.77,8.13,8.13,0,0,0,3.67.5l1.48,0c1.43,0,0,.05-.82-.41L352.27,324h0l1.59-2.77c.23-.11,2.15-.36,1.34-.42-.24,0-.49,0-.73,0-1.08,0-2.16,0-3.24,0-5.26,0-10.53.05-15.79.06q-36.18.09-72.38.16-35,.1-70.1.5-34.11.42-68.23,1.34-37.67,1-75.32,2.7l-10.27.45v6.42c45.81-3.39,91.65-6.38,137.55-8.31q64.62-2.7,129.33-2.46,40.23.13,80.45,1.17v-6.42q-43.08,1.75-86.17,3.53c-22.09.89-44.18,1.75-66.28,2.45q-29.64.93-59.31,1.39-32.42.46-64.85.33c-27.63-.08-55.26-.37-82.88-.73l-12.31-.17.86,6.31q43.32-7.57,86.6-15.35c20.12-3.6,40.24-7.23,60.39-10.73q25.89-4.5,51.85-8.57c19.75-3.06,39.54-5.87,59.34-8.56,27.85-3.77,55.74-7.32,83.63-10.82l12.88-1.62a3.31,3.31,0,0,0,3.22-3.21,3.26,3.26,0,0,0-3.22-3.21l-84.62.15-57.06.14-47,.15-54.67.14-80.23.15-12.64,0c-4.14,0-4.14,6.41,0,6.42q47,.12,93.95.26c19.5,0,39,.05,58.51-.13q22.82-.22,45.63-.92c18.49-.57,37-1.32,55.45-2.08q44.08-1.81,88.16-3.65l14.18-.58c4.11-.17,4.14-6.56,0-6.42q-37.08,1.2-74.16,2.78-29.07,1.24-58.14,2.76-26.38,1.37-52.76,2.78-28.59,1.49-57.17,2.78Q111.82,273.84,76,275l-10.27.35v6.42q37-4.56,74-9.58c19.54-2.63,39.07-5.32,58.62-7.81,17.75-2.26,35.53-4.34,53.34-6q29.11-2.79,58.34-4.31c24.22-1.28,48.47-2,72.72-2.51l10.61-.19c4.13-.06,4.14-6.41,0-6.42q-43.05,0-86.08-.13l-63.13-.14-67.92-.14c-29.73-.05-59.47.08-89.2-.18-19.55-.18-39-1.53-58.46-3l-12.09-.92v6.43q45.6-3.42,91.12-7.67,37.72-3.54,75.4-7.66c23.35-2.53,46.68-5.15,70-7.7q36.9-4,73.85-7.63,44.44-4.27,89-7.7l12.34-.93c4.07-.31,4.19-6.41,0-6.43q-64.68-.28-129.3,2.94c-39,2-78,5-116.93,8-25.34,1.91-50.68,3.79-76,5.5-4.09.27-4.17,6.57,0,6.42q42-1.53,84-2.58c15.63-.38,31.26-.64,46.88-1.19,11.12-.39,22.23-1.05,33.3-2.14,14.5-1.44,28.95-3.44,43.37-5.46,25.27-3.55,50.5-7.29,75.75-11L402,199.76c3.64-.52,2.67-6.3-.86-6.3q-46.17-.09-92.34-.24-27.52-.09-55-.23L212,192.76q-26.05-.15-52.1-.23-43.23-.17-86.46-.24l-14.2,0v6.42c46.88-1.63,93.76-3.26,140.62-5.43,46.71-2.16,93.4-4.85,140-8.62q39-3.15,77.83-7.42c4-.44,4.23-6.46,0-6.42q-74.88.73-149.77.66t-149.77-1q-42.24-.51-84.48-1.3l.85,6.31q74.16-15.74,149.58-24.27,21.57-2.46,43.2-4.36c4.05-.36,4.2-6.52,0-6.43-26,.57-52.08,1.09-78.06,2.94-19.37,1.38-38.64,3.77-57.9,6.17q-24.78,3.11-49.59,6.08a3.32,3.32,0,0,0-3.21,3.21A3.26,3.26,0,0,0,41.74,162c32.24-.88,64.48-1.88,96.7-3.42,18.33-.88,36.65-2,54.94-3.39,13.45-1.06,26.89-2.31,40.34-3.41q25.93-2.12,51.93-3.4c30-1.54,60-2.54,90-3.41l15-.42c4.13-.11,4.15-6.37,0-6.42q-42.87-.53-85.73-1c-19.32-.19-38.63-.35-57.94-.38q-24.06,0-48.1.22c-18.67.19-37.35.5-56,.82l-81.1,1.43-12.63.22v6.42c47.63-5.71,95.3-11.24,143.09-15.42q66.26-5.81,132.77-7.6c28.41-.74,56.83-1,85.24-.85V115.6q-56.61.53-113.22,1.21-50.62.6-101.24,1.19-33.78.38-67.55.68L129,125l100.41-15,100-15L386,86.46c3.65-.55,2.67-6.29-.85-6.31q-44.85-.2-89.71-.46-32.06-.19-64.12-.45l-54.73-.46q-30.93-.25-61.86-.45Q71.91,78,29.08,77.87L16,77.81c-4.14,0-4.14,6.4,0,6.43q46.69.32,93.4.72c20.07.15,40.15.32,60.23.3q24,0,48-.51c19.1-.41,38.2-1,57.29-1.74q44.13-1.59,88.26-3.39l13.8-.54c4.12-.17,4.15-6.4,0-6.43q-39.84-.23-79.69-.54-32.14-.24-64.29-.54L174.65,71q-31.52-.28-63-.54Q73,70.19,34.41,70L23.3,69.88v6.43c41-4.94,82-10.19,123.13-13.88,46.67-4.19,93.48-6.26,140.26-8.66l90.07-4.62c4.11-.21,4.17-6.39,0-6.43l-113.3-.91-113.3-.91-63.55-.52v6.43q36.15-1.61,72.31-3.25c18.9-.84,37.81-1.66,56.71-2.35q25.68-.95,51.37-1.47,27.76-.54,55.54-.57c23.33-.05,46.66.1,70,.32l10.27.1V33.17q-45.65-.2-91.29-.72-31.89-.41-63.77-1.19-26.93-.69-53.85-1.66-30.76-1.07-61.53-2.14Q88.95,26,45.54,24.86L32.09,24.5v6.42c3.07-.15,6.77,0,9.74-.94,3.79-1.25,2.87-5.66-.44-6.74-.53-.17-1.09-.28-1.64-.42a4.52,4.52,0,0,0-.72-.2c-.74-.11.72.42.22.09,1.74,1.16.85,5.5-.5,5.5.16,0,.34-.14.49-.11a2.35,2.35,0,0,0,.53-.09c-1,.18.13,0,.34,0,2.17-.2,4.34-.32,6.52-.42,4.11-.2,4.13-6.63,0-6.43Z"/><path d="M41.22,404.44c-2.17-.1-4.35-.22-6.52-.42-.2,0-1.36-.21-.34,0a2.36,2.36,0,0,0-.52-.09c-.15,0-.34-.11-.49-.11,1.34,0,2.23,4.34.49,5.5.48-.32-1,.2-.22.09a5,5,0,0,0,.73-.2c.54-.14,1.1-.25,1.64-.42,3.31-1.09,4.23-5.49.44-6.74-3-1-6.67-.79-9.75-.94v6.42q45.6-1.2,91.2-2.67,31.86-1,63.72-2.19,26.93-.94,53.85-1.72,30.78-.84,61.57-1.25,43.46-.62,86.9-.77l13.47-.07v-6.42c-24.16.25-48.33.44-72.5.43q-28.41,0-56.8-.46-25.69-.45-51.37-1.36c-18.49-.64-37-1.43-55.47-2.24q-34.91-1.54-69.81-3.13l-10.24-.46v6.43l113.31-.92,113.3-.91,63.55-.51c4.15,0,4.11-6.22,0-6.43-53.34-2.74-106.7-5.24-160-8.26q-59.76-3.37-119.21-10c-24.76-2.82-49.48-5.88-74.22-8.86v6.43q39.84-.24,79.69-.54,32.14-.25,64.29-.54,29.18-.27,58.34-.54,31.51-.3,63-.55,38.6-.3,77.2-.54l11.11-.06c4.14,0,4.12-6.26,0-6.43q-46.6-1.83-93.19-3.61c-20-.74-40.08-1.44-60.13-1.92q-24-.58-48-.64c-19.13-.06-38.26.08-57.39.23q-44.22.33-88.46.69l-13.83.09c-4.13,0-4.14,6.44,0,6.43q44.85-.19,89.71-.46,32.06-.19,64.12-.46l54.73-.45q30.93-.26,61.86-.46,42.83-.27,85.65-.45l13.07-.06c3.49,0,4.54-5.76.86-6.31L280.19,330.49l-100-15L123.59,307l-.86,6.31q56.61.51,113.22,1.2,50.63.62,101.25,1.2,33.76.38,67.55.68V310c-48.42.2-96.84-.63-145.19-3.25-44.16-2.39-88.22-6.31-132.18-11-27.94-3-55.84-6.26-83.74-9.6v6.42q42.87.74,85.72,1.51,29,.51,57.93.9,24,.29,48.09.29c18.68,0,37.36-.14,56-.31q40.56-.37,81.12-.92l12.64-.15c4.13-.05,4.13-6.31,0-6.42-32.24-.88-64.48-1.88-96.7-3.42-18.33-.88-36.65-2-54.94-3.39-13.45-1.06-26.89-2.31-40.34-3.41q-25.93-2.11-51.93-3.4c-30-1.54-60-2.54-90-3.41l-15-.42a3.26,3.26,0,0,0-3.21,3.22,3.29,3.29,0,0,0,3.21,3.21c25.58,3,51.12,6.46,76.71,9.36,19.38,2.2,38.8,3.59,58.28,4.38,16.85.68,33.7,1.08,50.56,1.45,4.19.09,4.06-6.07,0-6.43q-76.08-6.69-151.3-20.42-20.79-3.83-41.48-8.21l-.85,6.31q74.85-1.39,149.73-1.94t149.78-.29q42.26.17,84.5.58c4.23,0,4-6,0-6.42C366,249.65,319.53,245.89,273,243c-46.76-2.94-93.57-5-140.4-6.83q-39.4-1.52-78.83-2.84v6.42q46.17-.09,92.35-.23,27.53-.09,55-.23L243,239q26-.15,52.09-.24,43.23-.15,86.47-.23l14.2,0c3.48,0,4.53-5.77.85-6.3-27.15-3.93-54.3-7.94-81.46-11.81-15.37-2.18-30.75-4.37-46.18-6-11.05-1.19-22.14-2-33.24-2.42-14.63-.6-29.27-.84-43.91-1.18q-39-.93-78.09-2.29l-13.23-.47c-4.15-.15-4.09,6.15,0,6.42,42.92,2.9,85.79,6.35,128.69,9.42,39,2.79,78,5.06,117.1,6.15q38.24,1.05,76.47.83c4.18,0,4.08-6.12,0-6.43q-45.58-3.41-91.11-7.66-37.73-3.54-75.4-7.66c-23.35-2.53-46.69-5.15-70-7.7q-36.9-4-73.85-7.63-44.44-4.28-89-7.7L11,185.15v6.43c21-1.59,42.08-3.49,63.2-3.84,28.87-.47,57.76-.21,86.63-.26l70.39-.13,62.23-.14q40.71-.08,81.41-.13l13,0c4.14,0,4.14-6.36,0-6.42-25.09-.41-50.17-1.08-75.24-2.29-19.9-1-39.79-2.29-59.63-4.09-17.83-1.61-35.62-3.6-53.39-5.82-19.15-2.39-38.27-5-57.4-7.59q-35.75-4.82-71.54-9.36L60.3,150.2v6.42q37.08,1.22,74.15,2.78,29.07,1.26,58.14,2.77c17.59.9,35.18,1.86,52.77,2.78q28.58,1.49,57.17,2.77,35.84,1.59,71.68,2.78l10.27.34c4.14.14,4.12-6.25,0-6.42q-46.86-1.89-93.72-3.87c-19.46-.81-38.92-1.62-58.39-2.26q-22.8-.75-45.62-1c-18.52-.22-37-.23-55.56-.21q-44.19,0-88.38.23l-14.21,0c-4.13,0-4.14,6.42,0,6.42l84.63.15,57.06.14,47,.15,54.67.14q40.11.09,80.23.15l12.64,0a3.21,3.21,0,0,0,0-6.42c-29.48-3.69-59-7.41-88.4-11.35-20.32-2.72-40.62-5.56-60.88-8.64q-26-4-51.9-8.45c-19.56-3.37-39.1-6.88-58.64-10.38q-41.13-7.36-82.26-14.62l-12.62-2.21-.85,6.31c28.78-.4,57.56-.74,86.34-.87q33.2-.15,66.37.21,29.67.34,59.32,1.26c21.59.64,43.18,1.46,64.76,2.32q41.37,1.65,82.73,3.38l12.27.5v-6.42c-46.06,1.12-92.14,1.56-138.22.81-43.08-.71-86.13-2.49-129.14-5q-40-2.36-80-5.38v6.42q38.42,1.72,76.85,2.9,34.29,1,68.6,1.48,34.66.5,69.33.58,37.59.15,75.2.18,9.75,0,19.49.05c2.17,0,4.44.24,6.6.06.84-.07-1.26-.38-1.34-.42L346.87,108h0l1.59-2.77c.86-.46,2.25-.42.81-.41l-1.48,0a8.21,8.21,0,0,0-3.66.5,3.17,3.17,0,0,0-1.6,2.77h0a3.25,3.25,0,0,0,1.6,2.78c1.64.81,4,.49,5.78.5,5.76,0,11.53,0,17.3.06l18.46,0c4.16,0,4.09-6.17,0-6.43q-47.43-2.93-94.89-5.34c-19.88-1-39.77-1.86-59.65-2.8-15.65-.74-31.3-1.56-46.94-2.66-18.88-1.33-37.73-3-56.56-4.92-29.22-2.91-58.4-6.16-87.58-9.48L25.71,78.23v6.42q41.88.76,83.77,1.72,34,.8,68.07,1.73,31.35.84,62.69,1.73,33.4.92,66.83,1.72,40.64,1,81.29,1.72l11.52.21V87.06c-49.11,1.75-98.27,2.42-147.39,1-45.23-1.34-90.36-4.55-135.39-8.94-28.35-2.77-56.65-6-84.94-9.3V76.2Q92.42,82.58,152.78,88q60.53,5.42,121.14,9.83,34.09,2.49,68.23,4.67c3.57.23,4.41-5.6.85-6.31-40.72-8-81.88-13.07-123.25-16.23-38.33-2.93-76.75-4.66-115-8.21-24.43-2.26-48.78-5.22-73-9L30.84,69q43.76-.56,87.5-1,35.72-.34,71.44-.46,32.91-.09,65.83.07,35.26.18,70.53.61,42.33.48,84.68,1.13l11.94.18c4.18.06,4.07-6.09,0-6.42q-41.47-3.35-83-5.92-37.73-2.3-75.49-3.81-36.45-1.45-72.91-2.21-37.6-.81-75.23-1.12-41-.4-82.08-.55l-11.17-.05v6.42q44.76-.22,89.53-.5c20.66-.1,41.32-.19,62-.11q25.95.11,51.88.66c19.91.45,39.82,1.1,59.72,1.83q42.5,1.56,85,3.38l13,.54V55.24q-51.36.06-102.72,0-30.58-.08-61.18-.41-23.19-.28-46.38-.79-29.07-.59-58.14-1.16-48-.9-95.92-1.54L3.83,51.08C-.3,51-.3,57.44,3.83,57.5q38,.59,76.07,1.11,31.3.41,62.63.66,28.69.21,57.39.21,30.63,0,61.25-.24Q298.08,59,335,58.56l10.71-.11c4.13-.05,4.14-6.47,0-6.43q-38,.43-76.08.74-31.32.24-62.64.29-28.69,0-57.39-.16-30.63-.2-61.24-.6-36.91-.47-73.84-1L3.83,51.08V57.5q51.35.69,102.69,1.59,30.58.55,61.17,1.21c15.46.32,30.92.63,46.38.84q29.07.39,58.15.46,48,.18,95.94.08l15.82,0c4.14,0,4.12-6.25,0-6.42q-44.66-1.86-89.3-3.6c-20.62-.78-41.25-1.49-61.88-2q-25.92-.63-51.86-.78c-19.94-.12-39.89-.06-59.83,0q-42.6.2-85.2.47l-13,.07c-4.13,0-4.14,6.4,0,6.42q41.87.2,83.71.51,37.94.33,75.86,1,36.47.72,72.92,2.05,37.47,1.41,74.92,3.59,40.74,2.37,81.43,5.6l11.06.88V63.1q-43.74-.66-87.49-1.21-35.72-.42-71.44-.67Q230.92,61,198,61.09q-35.26.06-70.54.39-42.34.38-84.69.93l-11.94.15c-3.47,0-4.55,5.72-.85,6.31,41.4,6.51,83.09,10.38,124.9,13.15,38.23,2.52,76.51,4.58,114.58,9q36.12,4.25,71.82,11.29l.86-6.31q-60.73-3.89-121.39-8.74T99.83,76.62Q66,73.35,32.16,69.78C30.43,69.59,29,71.38,29,73a3.29,3.29,0,0,0,3.21,3.21c48.4,5.74,96.88,11,145.5,14.45q67.86,4.81,135.92,4.59c28.77-.07,57.55-.73,86.3-1.76,4.12-.14,4.15-6.34,0-6.42q-41.88-.77-83.77-1.72-34-.8-68.07-1.72l-62.69-1.73q-33.4-.92-66.83-1.73-40.63-1-81.29-1.72l-11.52-.21c-4.23-.08-4,6,0,6.42,31.17,3.57,62.36,7.09,93.58,10.28,19.64,2,39.29,3.86,59,5.32,15.62,1.17,31.25,2,46.9,2.81,19.05.92,38.11,1.74,57.16,2.67q44.42,2.16,88.8,4.87l14.54.89v-6.43c-12.83,0-25.65,0-38.48-.12-.35,0-.71,0-1.06,0-1,0,1,.29,1.24.42l1.59,2.77h0l-1.59,2.78c-.86.46-2.26.41-.82.4.5,0,1,0,1.48,0a8,8,0,0,0,3.67-.5,3.16,3.16,0,0,0,1.59-2.77h0a3.2,3.2,0,0,0-1.59-2.77c-1.52-.76-3.63-.49-5.27-.5-4.94,0-9.88,0-14.81-.06q-36.06-.09-72.11-.15-35.47-.12-70.94-.5-34.29-.41-68.55-1.33Q82,101.63,44,100l-10.28-.45c-4.15-.19-4.08,6.12,0,6.42,45.81,3.4,91.65,6.39,137.55,8.31q64.64,2.7,129.33,2.47c26.82-.09,53.64-.53,80.45-1.18,4.15-.1,4.13-6.26,0-6.42q-43.08-1.76-86.16-3.53c-22.1-.89-44.19-1.75-66.28-2.45q-29.66-.94-59.31-1.39-32.43-.46-64.85-.33c-27.63.07-55.26.36-82.89.73l-12.3.16c-3.48,0-4.54,5.67-.86,6.31Q51.73,116.19,95,124c20.27,3.63,40.53,7.28,60.81,10.81q25.88,4.5,51.84,8.56,29.82,4.6,59.74,8.6c28.15,3.81,56.34,7.4,84.53,10.94l12.89,1.62v-6.42q-42.31-.06-84.62-.15-28.53-.06-57.06-.15l-47-.14q-27.33-.09-54.67-.15-40.11-.09-80.23-.14l-12.64,0v6.42q47-.12,93.95-.26c19.51,0,39,0,58.52.14q22.82.21,45.62.91c18.49.57,37,1.32,55.46,2.08q44.07,1.81,88.16,3.66l14.17.57v-6.42q-37.08-1.21-74.15-2.78-29.08-1.24-58.14-2.76-26.38-1.37-52.77-2.78-28.57-1.48-57.17-2.78-35.84-1.59-71.68-2.78L60.3,150.2a3.21,3.21,0,1,0,0,6.42q36.77,4.55,73.49,9.52c19.69,2.65,39.38,5.36,59.08,7.87,17.76,2.26,35.53,4.34,53.35,6.05q29.11,2.77,58.34,4.3c24.22,1.29,48.46,2,72.71,2.51l10.61.19v-6.42q-43,0-86.07.13l-63.14.14-67.91.13c-29.74.05-59.48-.07-89.21.19-19.55.17-39,1.53-58.46,3L11,185.15a3.22,3.22,0,0,0,0,6.43q45.59,3.42,91.11,7.66,37.72,3.54,75.4,7.67c23.35,2.52,46.69,5.14,70,7.69q36.92,4,73.85,7.63,44.44,4.28,89,7.7l12.33.94v-6.43q-64.68.3-129.3-2.93c-39-2-78-5-116.93-8-25.33-1.91-50.67-3.79-76-5.5v6.42q42,1.54,84,2.58c15.58.38,31.16.64,46.74,1.19,11,.39,22.06,1,33,2.11,14.37,1.41,28.21,3.32,42.26,5.3,25.19,3.54,50.36,7.26,75.53,10.92l12.85,1.86.86-6.31q-46.17.09-92.35.23-27.53.09-55,.24l-41.75.23q-26,.13-52.09.23-43.23.15-86.47.23l-14.2,0c-4.14,0-4.12,6.28,0,6.42,46.88,1.63,93.76,3.26,140.62,5.43,46.71,2.16,93.4,4.85,140,8.63q39,3.15,77.83,7.41v-6.42q-74.88-.75-149.77-.66t-149.76,1q-42.24.52-84.48,1.3c-3.51.07-4.51,5.54-.86,6.31q75,15.91,151.28,24.51,21.58,2.46,43.21,4.36v-6.43c-26-.56-52.09-1.09-78.06-2.93-19.37-1.38-38.64-3.77-57.9-6.18C69.4,274,52.88,271.94,36.34,270v6.43c32.24.87,64.48,1.87,96.69,3.41,18.33.88,36.65,2,54.95,3.4,13.45,1,26.88,2.3,40.33,3.4q26,2.11,51.93,3.41c30,1.53,60,2.53,90,3.4,5,.15,10,.28,15,.42v-6.42q-42.87.52-85.74,1c-19.31.19-38.62.35-57.94.38q-24,0-48.09-.22-28-.3-56-.82l-81.11-1.43-12.63-.22a3.21,3.21,0,0,0,0,6.42c47.64,5.71,95.3,11.24,143.1,15.43q66.26,5.79,132.77,7.59c28.4.75,56.82,1,85.24.85,4.13,0,4.13-6.39,0-6.42q-56.61-.53-113.22-1.21-50.62-.6-101.25-1.2-33.76-.36-67.55-.68c-3.5,0-4.51,5.76-.85,6.31l100.41,15.06,100,15,56.61,8.49.85-6.31q-44.85.18-89.71.45-32.05.19-64.11.46l-54.73.45q-30.93.25-61.87.46-42.82.27-85.64.46l-13.08.05v6.43q46.69-.31,93.4-.72c20.08-.16,40.16-.32,60.23-.31q24,0,48,.51c19.1.41,38.19,1.05,57.28,1.74q44.14,1.59,88.27,3.39l13.8.55v-6.43q-39.85.24-79.7.54-32.14.26-64.29.55l-58.34.54q-31.52.29-63,.54-38.61.3-77.2.54l-11.11.06c-4.24,0-4,5.95,0,6.43,41,4.93,82,10.18,123.13,13.88,46.66,4.18,93.48,6.25,140.26,8.65l90.07,4.63v-6.43l-113.3.92-113.31.91-63.55.51c-4.15,0-4.12,6.25,0,6.43q36.17,1.59,72.32,3.24c18.9.84,37.8,1.66,56.71,2.35q25.67.94,51.36,1.47,27.77.56,55.55.57,35,.08,70-.32l10.26-.1c4.13,0,4.14-6.44,0-6.42q-45.64.19-91.28.72-31.89.4-63.77,1.19c-18,.45-35.91,1-53.85,1.66Q157.72,397,127,398.11q-43.4,1.45-86.81,2.61l-13.46.36c-4.14.11-4.12,6.22,0,6.42,2.18.11,4.35.23,6.52.43.2,0,1.36.2.34,0a3.12,3.12,0,0,0,.52.08c.16,0,.34.12.5.12-1.35,0-2.24-4.35-.5-5.5-.48.32.95-.21.22-.1-.24,0-.49.14-.72.2-.55.15-1.11.25-1.64.43-3.31,1.08-4.24,5.49-.44,6.74,3,1,6.66.79,9.74.94,4.13.2,4.12-6.23,0-6.43Z"/></svg>