<svg id="Layer_1" data-name="Layer 1" xmlns="http://www.w3.org/2000/svg" viewBox="0 0 432 432"><path d="M77.5,95c16.24-11.8,37.83-7.61,54.43,1.31,15.93,8.55,28.92,21.72,38.85,36.73a168,168,0,0,1,22.54,52.7c5.23,21.22,6.81,43.39,7,65.19A314.11,314.11,0,0,1,198.64,289c-.07.65-.07.17.05-.31-.13.49.11-.31.27-.53l5.48.71c0,.05.07,1.15.12.64a3,3,0,0,0-3-3,3.06,3.06,0,0,0-3,3,2,2,0,0,0,.1,1,3,3,0,0,0,5.48.72c.65-.92.55-2.55.66-3.64q.33-3.17.55-6.34c.58-7.71.88-15.44,1-23.18.11-11-.23-22-1.08-32.9a268.53,268.53,0,0,0-4.66-34.6,178,178,0,0,0-21.71-56c-9.89-16.24-23-30.82-39.3-40.81C122.38,83.22,100,77.07,80.88,86a39.77,39.77,0,0,0-6.41,3.8,3.1,3.1,0,0,0-1.08,4.11A3,3,0,0,0,77.5,95Z"/><path d="M192.84,274.05c3.66-.14,7,1.56,10.18,3.4,3.57,2.06,7.06,4.28,11,5.54a31,31,0,0,0,32.31-9.65,3.08,3.08,0,0,0,0-4.25,3,3,0,0,0-4.24,0,25.42,25.42,0,0,1-16.93,9.1,23.1,23.1,0,0,1-9.72-1c-3.37-1.1-6.56-3.25-9.76-5.08-3.95-2.25-8.22-4.2-12.86-4a3,3,0,1,0,0,6Z"/><path d="M187.27,271.53a12.08,12.08,0,0,0-8.63-3,18.18,18.18,0,0,0-8.69,3.19c-5.41,3.66-8.66,8.9-11.92,14.39-2.84,4.8-5.81,10-10.83,12.33-2.46,1.14-6.16,1.17-9.13,1.64a16.47,16.47,0,0,0-9.43,4.94c-3.36,3.42-6.69,6.86-9.06,11.06a119.35,119.35,0,0,0-6,13c-1.86,4.5-3.28,8.23-5.16,12.28a42.06,42.06,0,0,1-2.58,4.88c-.19.31-.4.6-.6.9s-.53.59.06-.07c-.1.11-.19.24-.29.36l-.6.61c-.62.64.54-.29-.18.13s.71-.17,0,0c-.41.1.71.13.41-.06s-1.3,0-1.62.06a24.35,24.35,0,0,0-4.8.75,15.1,15.1,0,0,0-6.87,4.13,68.87,68.87,0,0,0-4.74,6.15c-.58.77.35-.44-.26.33-.26.33-.53.65-.8,1-.5.59-1,1.17-1.57,1.72a31.08,31.08,0,0,1-3.82,3.34A3.08,3.08,0,0,0,79,369.7a3,3,0,0,0,4.1,1.08,37.9,37.9,0,0,0,7-6.48c1.52-1.85,2.85-3.82,4.3-5.71-.43.55.07-.1.14-.17s.31-.38.47-.56c.31-.35.64-.7,1-1,.16-.15,1-.88.48-.46a11.35,11.35,0,0,1,1.44-.92l.69-.34c-.61.28.22-.08.3-.1a14.46,14.46,0,0,1,1.71-.48,25,25,0,0,1,3.93-.38c3.4-.24,5.47-3.13,7-5.86a97.33,97.33,0,0,0,5.28-11.57c1.91-4.66,3.37-8.42,5.41-12.81.9-1.91,1.85-3.81,2.93-5.63q.7-1.2,1.5-2.34c.09-.11.18-.23.26-.35.41-.6-.42.48,0-.06.3-.34.59-.7.91-1,2-2.09,3.89-4.39,6.06-6.3,2.4-2.12,5.55-2.29,8.6-2.63a21.14,21.14,0,0,0,9.33-2.88,26,26,0,0,0,6.47-6.22,82.47,82.47,0,0,0,5.35-8.25,45.09,45.09,0,0,1,5.32-7.87,19.77,19.77,0,0,1,7.18-5.19,7.63,7.63,0,0,1,3.91-.59c-.58-.05.4.07.43.08a6.3,6.3,0,0,1,1.19.37c-.47-.2.47.27.44.25.18.1.82.54.78.51a3.1,3.1,0,0,0,4.24,0,3,3,0,0,0,0-4.25Z"/><path d="M241.46,273.78a39.64,39.64,0,0,1,15,10.61A46.13,46.13,0,0,1,266,302c2.24,7.4,4,15,9,21.15a18.39,18.39,0,0,0,8.32,5.87c1.6.52,3.29.63,4.91,1.07a3.57,3.57,0,0,1,1.44.63c.09.06.63.71.28.23a7.39,7.39,0,0,1,.47.76c.31.57,0-.08.16.37s.22.69.31,1.05.14.64.2,1c0,.14.05.28.08.42s.12.82.07.46c0-.2.07.57.09.75l.12,1c.1.87.21,1.75.35,2.61.53,3.24,2,5.9,5.18,7.13l-1.33-5-8.21,10.41c-2.6,3.28-5.47,6.36-5.56,10.79a18.17,18.17,0,0,0,.3,3.21c.06.44.14.87.22,1.31a4.59,4.59,0,0,0,.1.51c.08.26,0-.74,0-.26s0,1,.07.13a1.86,1.86,0,0,1-.1.39c0,.1.37-.75.09-.29s.54-.61.17-.24.4-.22.28-.2-.24.15-.33.19c-.34.15.76-.17.22-.1a7.15,7.15,0,0,1-.82.19s.88-.07.24-.05l-.61,0a16.36,16.36,0,0,1-2.21-.11l-.64-.07c-.62-.06.24.05,0,0-.46-.07-.92-.13-1.37-.21-1.82-.29-3.64-.66-5.46-.95-3.12-.51-7.25-1.35-10.11.5a5.56,5.56,0,0,0-2.37,5.66,4.13,4.13,0,0,0,4.86,3.46,4.71,4.71,0,0,0,4-4.73,3,3,0,0,0-6,0,1.28,1.28,0,0,1,1.65-1.13l1.31,1.36c.06.54.08.66.05.34a3,3,0,0,0,0-.42c-.08-.67-.23.75,0,0,.07-.21.23-.47-.18.42.12-.26.5-.63-.18.17.52-.61-.56.35,0,0s-.61.1,0,0c.2,0,.43-.09.63-.15.51-.16-.8,0-.25,0,.2,0,.4,0,.6,0,.61,0,1.22,0,1.82.05l1.09.11c.19,0,.86.12,0,0l.77.11c1.56.24,3.1.54,4.65.81,3.11.55,6.5,1.29,9.64.57a5.76,5.76,0,0,0,3.72-2.61c1-1.75.69-3.57.36-5.45a6.89,6.89,0,0,1,.39-4.74,33.39,33.39,0,0,1,3.18-4.3l8.22-10.41a3.05,3.05,0,0,0-1.33-5c.48.19.1,0-.12-.12.48.35.06,0-.13-.19s.12.14.13.17l-.18-.29c-.32-.58,0,.23-.13-.25s-.32-1.05-.43-1.6c-.06-.26-.1-.53-.15-.8l-.06-.41c.09.58,0-.07,0-.18-.32-2.76-.53-5.56-1.77-8.09-1.61-3.32-4.87-4.49-8.27-5.1a12.3,12.3,0,0,1-7.58-4.2c-4.87-5.42-6.15-13.13-8.25-19.87A52.56,52.56,0,0,0,261.41,281a45.65,45.65,0,0,0-18.36-13,3,3,0,0,0-3.69,2.09,3.06,3.06,0,0,0,2.1,3.69Z"/><path d="M268.66,310.57a12.94,12.94,0,0,0,6.25,10.07,24.17,24.17,0,0,0,11.27,3.22c3.82.25,7.63-.25,11.45.16.64.07.33,0,.19,0l.64.11c.48.08,1,.17,1.43.29s.92.24,1.37.38l.59.21c.55.2-.15-.1.42.17.37.18.73.37,1.08.58.07.05,1,.67.63.4a7.36,7.36,0,0,1,1.7,1.83,32,32,0,0,1,2.08,5.12c.87,2.22,2.1,4.39,4.32,5.51,2.39,1.2,4.92.77,7.48,1l.61.06c-.46,0,.06,0,.13,0,.45.08.91.17,1.36.29s.89.24,1.33.39l.59.2c.08,0,.86.37.43.17,6.77,3,11.22,9.65,12.57,16.93a22.29,22.29,0,0,1,.17,6.22c0-.14.07-.44,0,.2-.05.34-.11.67-.18,1-.12.55-.26,1.1-.41,1.65a8.42,8.42,0,0,0-.32,4.22c.84,3.28,5,4.62,7,1.47a4.39,4.39,0,0,0,.55-3.44,3.29,3.29,0,0,0-4.18-2.21,3.07,3.07,0,0,0-2.09,3.69,3,3,0,0,0,3.69,2.1l-1.2,0-1.32-.78.07.09-.77-1.33a1.55,1.55,0,0,1,0-.77c.05-.29.05-.31,0-.06.14-.37,1.2-1.22.74-1l1.51-.41,1.74.94.1.16c.22-.1-.36,1,.07-.17,0,.07-.12.63.07-.22.05-.22.12-.43.17-.65a26.52,26.52,0,0,0,.6-2.64,27,27,0,0,0,.34-5.82,30.35,30.35,0,0,0-2.89-11c-3.07-6.54-8.71-12.15-15.67-14.35a20.41,20.41,0,0,0-5.2-.91c-.93,0-1.87,0-2.8,0a3.66,3.66,0,0,1-1.16-.14l-.38-.12v0l-.27-.17c.17.12.17.11,0,0a4.93,4.93,0,0,1-1-1.63c.07.15-.25-.7-.31-.87-.17-.49-.34-1-.5-1.48a17.8,17.8,0,0,0-2.75-5.38c-4.7-5.95-13.19-6.07-20.11-5.83-3.78.13-6.72,0-10.23-1.51a7.2,7.2,0,0,0-.78-.39c-.38-.21-.76-.43-1.13-.67a7.07,7.07,0,0,1-1.55-1.36c-.1-.1-.19-.21-.28-.31s.17.27-.12-.18a10.58,10.58,0,0,1-.62-1.09c-.21-.44.13.38,0-.08-.08-.23-.16-.46-.22-.69s-.1-.39-.14-.58c-.13-.62,0,.27-.07-.44a3.08,3.08,0,0,0-3-3,3,3,0,0,0-3,3Z"/><path d="M190,307.3c.55-.48-.52.38,0,0s-.63.2,0,0c-.63.18-.53.06-.27,0s.53.21-.08,0a3.47,3.47,0,0,0,.55.16c-.64-.17-.33-.17-.16-.05s.39.21.57.32.92.67.37.23a36.06,36.06,0,0,1,4.41,4.5c3,3.37,6.31,7.79,11.3,7.55a15.44,15.44,0,0,0,3.31-.6c.45-.13.9-.26,1.35-.37l.6-.13c-.78.16.14,0,.34,0-.95,0,0-.1,0,0l.11,0c-.36-.15-.39-.14-.08,0l-.2-.14a4.07,4.07,0,0,1,.41.42c-.25-.31.21.38.23.42.88,1.44,1.72,2.9,2.54,4.38,3,5.44,5.67,11.49,6.25,17.67.56,5.9-.38,12.43-4.29,17-1,1.16-1.31,3.12,0,4.24a18.21,18.21,0,0,0,12.86,4.59,3.06,3.06,0,0,0,3-3,3,3,0,0,0-3-3,12.07,12.07,0,0,1-8.62-2.83v4.24c4.47-5.25,6.35-12.1,6.19-18.92-.16-7.3-2.67-14.27-6-20.71-.8-1.57-1.66-3.11-2.55-4.64a15.84,15.84,0,0,0-3-4.31c-2.22-1.9-4.83-1.68-7.47-.93-.51.15-1,.26-1.55.4-.78.21.55,0-.28,0-.28,0-.55,0-.83,0,.63,0-.26-.06-.35-.09-.78-.22.29.23-.48-.19-.23-.13-.44-.29-.67-.42s-.24-.18.05.05l-.37-.32a56.6,56.6,0,0,1-4.75-5c-3.31-3.76-8.59-9.45-13.68-5A3,3,0,0,0,190,307.3Z"/><path d="M181.29,353.84l-12.08-15c-1.52-1.89-4.37-.6-5,1.32-1.95,5.76-6.46,10.86-12,12.93l3.39,1.38a14.86,14.86,0,0,1-2.12-9.48c.17-1.76-1.52-2.81-3-3-9.18-1.18-18.22,4.06-22.88,11.83-2,3.32,3.19,6.34,5.18,3a18,18,0,0,1,17.7-8.86l-3-3a20.16,20.16,0,0,0,2.94,12.51,3,3,0,0,0,3.38,1.38A27.41,27.41,0,0,0,170,341.72L165,343l12.09,15a3,3,0,0,0,4.24,0,3.07,3.07,0,0,0,0-4.24Z"/><path d="M230.33,272.61c-.46.44-.17.18-.09.08.33-.43-.22.21,0,0s-.35,0-.06,0-.24-.06-.32-.08c-.5-.14.56.34-.26-.09a4.86,4.86,0,0,1-.54-.33c.12.09.3.27-.12-.13s-.05.07-.34-.39c-1.1-1.7-.78-4.15-.57-6.06.25-2.27.52-4.51.61-6.8.2-5.47.05-10.95,0-16.41-.09-7-.12-14,.11-21a213.24,213.24,0,0,1,1.91-23c2.3-15.7,6.74-31.11,16.2-43.92,10.3-14,24.62-25.21,39.28-34.48A284.9,284.9,0,0,1,331,97.32q2.44-1,4.9-1.93A3.1,3.1,0,0,0,338,91.7a3,3,0,0,0-3.69-2.1,302.23,302.23,0,0,0-46.7,22.51c-15.91,9.57-31.23,21.06-42.95,35.59a84.47,84.47,0,0,0-12.81,22.1,118.41,118.41,0,0,0-6.45,24.13c-2.57,15.53-2.87,31.27-2.7,47,.06,5.78.23,11.57.05,17.35,0,1.08-.08,2.15-.17,3.23,0,.48-.07.95-.12,1.43,0,.22-.06.45-.08.67,0,.49.19-1.38,0,0-.06.47-.13.95-.19,1.43-.64,5.16.15,11.26,5.74,13.28a6.43,6.43,0,0,0,6.69-1.43c2.8-2.66-1.45-6.9-4.25-4.24Z"/><path d="M302.15,108.94c11.19,0,22.38,0,33.56-.17,9.8-.14,19.71-.68,29.27-3a60.65,60.65,0,0,0,26.1-13.23c7.21-6.33,12.84-14.32,17.8-22.47,6.22-10.23,11.76-20.89,17.52-31.38a3,3,0,0,0-3.38-4.4c-20.17,3.8-41,1.54-61,6.54-8.73,2.19-17.29,5.73-24.49,11.2-7.92,6-13.65,14-19,22.25q-10.06,15.36-20,30.79a3,3,0,0,0,1.07,4.11,3.07,3.07,0,0,0,4.11-1.08l17.5-26.9c5.19-8,10.32-16.24,17.62-22.52,13.75-11.83,32.63-14.4,50.07-15.42,12-.71,24-1,35.81-3.19l-3.39-4.4c-5.1,9.28-10.07,18.64-15.4,27.8-4.62,7.94-9.68,15.75-16.23,22.25a53.43,53.43,0,0,1-23.22,13.48c-9,2.57-18.41,3.27-27.74,3.5-12.15.29-24.32.17-36.48.22-3.86,0-3.87,6,0,6Z"/><path d="M94.57,87.44c-9,1.27-14.85,9.83-18.31,17.49-2,4.39-3.59,9-5.76,13.28a40.68,40.68,0,0,1-24.1,20.72,36.2,36.2,0,0,1-20.53.7,21.51,21.51,0,0,1-5.66-2.19c-1.64-1-2.42-2.62-3.33-4.25a16.69,16.69,0,0,0-3.41-4.81,5.26,5.26,0,0,0-6.38-.58,3,3,0,0,0,2.31,5.48c6.91-1.51,12.82-5.69,18.4-9.83,5.92-4.4,11.62-9.09,17.25-13.86C55.81,100.45,66.32,91,77.91,82.85c10.9-7.63,22.79-14.18,35.82-17.25,6-1.42,12.62-2.4,18.75-1a21.17,21.17,0,0,1,8,3.57,23.92,23.92,0,0,1,2.24,2c.37.37.73.75,1.07,1.15a14.29,14.29,0,0,1,1.1,1.38c6.71,9.34,7.73,22.47,6.19,33.43a3.1,3.1,0,0,0,2.09,3.69c1.41.39,3.46-.48,3.69-2.1,1.61-11.42.92-23.78-4.44-34.2a28.78,28.78,0,0,0-10.76-11.73c-6.13-3.61-13.47-4.24-20.41-3.48-29.06,3.17-52.42,23-73.73,41.34-6.36,5.45-12.71,10.92-19.32,16.06-6.11,4.74-12.69,10.15-20.41,11.84L10.12,133c.55-.36,0,0-.06,0,.34.11.08,0-.16,0-.07,0-.74-.06-.2,0,0,0-.71-.17-.15,0-.11,0-.43-.45-.05,0,.11.13.24.24.35.37s.3.35.11.12.24.34.28.4c.95,1.42,1.69,3,2.58,4.43,2.4,3.94,6.36,5.75,10.64,7a42.25,42.25,0,0,0,22.26.18A47.31,47.31,0,0,0,65.5,134.64,46.42,46.42,0,0,0,73,125.81a71.57,71.57,0,0,0,6.14-12.52c3.26-7.92,7.5-18.72,17-20.06,1.6-.23,2.48-2.27,2.09-3.69a3.08,3.08,0,0,0-3.69-2.1Z"/></svg>