<svg id="Layer_1" data-name="Layer 1" xmlns="http://www.w3.org/2000/svg" viewBox="0 0 432 432"><defs><style>.cls-1{fill:#7f2629;}</style></defs><path class="cls-1" d="M173.7,202l.69-1.35-7-3.54-.68,1.35-1.52-.76,4.18-8.28,2.95,1.49-.89,1.76-1.43-.72-1.65,3.25,2.73,1.37,1.9-3.77,1.52.76-1.91,3.78,2.77,1.4,1.67-3.3-1.5-.76.9-1.78,3,1.53-4.21,8.34Zm4.82-9.61.9-1-3.65-7.64-1,1.13-1.25-1.15,3.1-3.39,9.65,3.59.91-1,1.26,1.15-3.4,3.72-1.26-1.14,1-1.09-1.53-.6-3.12,3.41.74,1.47,1-1.09,1.26,1.14-3.3,3.62Zm3-8.07-4.26-1.64,2,4.08Zm7.56-.89-1.51-2.37,1.62-1,.8,1.25a8.43,8.43,0,0,0,1.76-.84c1-.65,1.8-1.5,1.21-2.44-1.38-2.16-5.73,2.26-8-1.23-1.27-2-.07-3.83,1.8-5a12.06,12.06,0,0,1,3.34-1.41l1.49,2.32L190,173.68l-.81-1.27a9.92,9.92,0,0,0-1.4.72c-.92.58-1.69,1.45-1.13,2.32,1.29,2,5.69-2.32,8,1.3,1.32,2.07,0,3.82-1.85,5A16.26,16.26,0,0,1,189.08,183.42Zm9.83-7.08,1.57-.54L198,168.37l-2,.68.55,1.63-1.84.62-1.1-3.24,9.69-3.29,1.1,3.23-1.83.63L202,167l-2,.68,2.53,7.43,1.57-.53.55,1.61L199.45,178ZM215.08,173l1.66.06.32-7.84-2.11-.09-.07,1.72-1.93-.08.13-3.41,10.23.41-.14,3.41-1.94-.08.07-1.71-2.1-.09-.32,7.85,1.67.06-.07,1.7L215,174.7Zm9.42.62,1.45.44,2.27-7.52-1.45-.43.49-1.63,8.88,2.68-1,3.16-1.89-.57.47-1.54-3.49-1.05-.88,2.92,4.05,1.22-.49,1.63-4-1.22-.9,3,3.54,1.07.48-1.61,1.91.57L233,178l-9-2.7Zm10.39,3.23,1.06.66,5.05-1.61-.63-5-1.05-.66.88-1.41,4.34,2.72-.88,1.39-1.22-.76.35,3.12,3-1-1.19-.75.87-1.39,4.19,2.63-.89,1.43-1-.66L243,177.1l.7,5.32,1,.65-.87,1.39-4.37-2.74.88-1.39,1.22.76-.4-3.4-3.28,1.1,1.19.74-.88,1.39L234,178.26Zm10.76,6.81.87,1,8-2.78-1-1.16,1.28-1.12,3,3.46-4.63,9.2.88,1-1.27,1.12-3.33-3.79,1.28-1.12,1,1.11.77-1.45-3.05-3.48-1.54.57,1,1.11-1.28,1.12-3.23-3.68Zm7.69,3.87,2.1-4-4.28,1.56Zm0,7.62,2.53-1.23.84,1.72-1.33.65a8.87,8.87,0,0,0,.64,1.85c.53,1.08,1.29,2,2.29,1.47,2.3-1.13-1.6-5.94,2.11-7.76,2.13-1.05,3.82.35,4.79,2.34a11.49,11.49,0,0,1,1,3.48l-2.47,1.21-.86-1.75,1.36-.67a10.79,10.79,0,0,0-.56-1.48c-.48-1-1.25-1.83-2.18-1.37-2.15,1,1.67,5.91-2.18,7.79-2.2,1.08-3.8-.37-4.8-2.4A16.36,16.36,0,0,1,253.39,195.16ZM167,213.74l0,1.52,7.85-.13,0-1.51,1.69,0,.15,9.27-3.3,0,0-2,1.6,0-.05-3.64-3,0,.07,4.23-1.7,0-.07-4.23-3.1.05.06,3.69,1.68,0,0,2-3.38.05-.15-9.34Zm.81,13.91.43,1.45,7.53-2.22-.43-1.45L177,225l1.53,5.23-1.63.48-.5-1.72-7.54,2.21,1,3.5,1.74-.51.55,1.89-3.36,1-2.62-8.9Zm4.43,13,.85,1.26,6.51-4.39-.85-1.26,1.41-.95,3,4.43c2.29,3.38,1.48,6.29-1.29,8.16s-5.75,1.51-8-1.87l-3-4.43Zm3,4.43c1.49,2.2,3.38,2.36,5.4,1s2.6-3.17,1.12-5.38l-.94-1.39-6.51,4.38Zm6.46,8.13,1.18,1,4.92-6.12-1.18-.95,1.07-1.32,7.22,5.82-2.08,2.57-1.53-1.24,1-1.25-2.83-2.28-1.91,2.37,3.29,2.66-1.06,1.32-3.3-2.65-1.94,2.41,2.87,2.32,1.06-1.31,1.55,1.25-2.12,2.64-7.28-5.87Zm11.42,8.38,1.41.56,2.89-7.3-1.41-.56.62-1.58,5.06,2c3.09,1.23,3.58,3.39,2.95,5a3.08,3.08,0,0,1-3.22,2l.47,3.41,1.29.51-.62,1.58-2.65-1.05-.63-4.68-1.87-.74-.89,2.25,1.41.56-.63,1.58-4.81-1.91Zm6.59-1.78c1.66.66,2.54,0,2.91-.87s.12-2-1.53-2.63l-1.68-.67-1.39,3.5Zm8,6.7,1.52.1.52-7.83-1.52-.1.12-1.7,5.58.37c2.49.17,4.12,1.35,4,3.21a2.58,2.58,0,0,1-2.29,2.4c1.69.54,2.36,1.62,2.27,2.89-.12,1.83-1.69,2.93-4.47,2.74l-5.83-.38Zm5.77.4c1.37.09,2.23-.41,2.3-1.44s-.65-1.67-2.14-1.77l-2.1-.14-.21,3.21Zm0-4.85c1.4.09,2.25-.41,2.32-1.4s-.72-1.55-2-1.63l-2-.13-.2,3Zm8.74,4.73,1.48-.33-1.72-7.66-1.48.33-.37-1.66,9-2,.72,3.23-1.93.43-.35-1.57-3.55.8.67,3,4.13-.92.37,1.66-4.13.92.68,3,3.61-.81-.37-1.64,1.94-.44.75,3.3-9.12,2.05Zm13.67-3.73,1.32-.75-3.93-6.8-1.31.75-.85-1.47,4.71-2.71c2.88-1.66,4.88-.71,5.74.78a3.08,3.08,0,0,1-.47,3.74l3,1.75,1.2-.69.85,1.47-2.46,1.42-4.06-2.42-1.75,1,1.21,2.1,1.32-.76.84,1.47-4.48,2.59Zm2.7-6.26c1.55-.9,1.61-2,1.13-2.83s-1.47-1.33-3-.44l-1.57.9,1.88,3.27Zm10.27-2.12,1-1.12L244,248.32l-1,1.13-1.26-1.14,3.63-4c2.23-2.47,4.43-2.17,5.71-1a3.08,3.08,0,0,1,.71,3.7l3.36.74.93-1,1.26,1.14-1.9,2.11-4.61-1-1.35,1.5,1.8,1.62,1-1.13,1.27,1.14-3.47,3.84Zm.63-6.79c1.2-1.33.92-2.38.2-3s-1.81-.81-3,.51l-1.21,1.34,2.8,2.52Zm8.69-4.87.71-1.34-6.95-3.65-.71,1.34-1.5-.79,2.4-4.58,1.51.79-.71,1.34,6.95,3.65.71-1.34,1.5.79-2.4,4.58Zm4.13-8.39.37-1.47L255,231.25l-.37,1.47L253,232.3l2.28-9,3.2.81-.49,1.92-1.55-.4-.9,3.53,3,.75,1-4.1,1.64.41-1,4.1,3,.77.91-3.58-1.63-.42.49-1.93,3.28.83-2.3,9.06Zm4.06-14-2.81.08-.05-1.92,1.48-.05a8.17,8.17,0,0,0,.18-1.94c0-1.2-.36-2.32-1.47-2.29-2.57.08-1,6.08-5.14,6.19-2.37.07-3.33-1.9-3.39-4.11a12.08,12.08,0,0,1,.5-3.6l2.75-.08.06,2-1.51,0a10.87,10.87,0,0,0-.11,1.57c0,1.09.38,2.19,1.41,2.16,2.41-.07.94-6.07,5.22-6.19,2.46-.07,3.31,1.92,3.38,4.17A16.13,16.13,0,0,1,266.32,220.67Z"/><path class="cls-1" d="M194.5,195.89l-1.76,2L188,193.6l1.76-2Zm-12.77,8.59-.81,2.51,6,2,.81-2.51ZM216,190.4a26.63,26.63,0,0,0-25.68,19.7H193a24,24,0,0,1,45.88,0h2.74A26.63,26.63,0,0,0,216,190.4Zm-13.61-7.22L200,184.25l2.58,5.8,2.41-1.07Zm14.93-2.61h-2.64v6.34h2.64Zm32.92,23.91-6,2L245,209l6-2Zm-8.05-12.84-4.72,4.25,1.77,2,4.72-4.25Zm-12.58-8.46L227,189l2.41,1.07,2.58-5.8Zm10.35,33.32h-2.87l-.35.29,10.83,12.58c.38-.93.71-1.89,1-2.87Zm-10.25,0h-2.81l-.21.12,14.24,23.21c.63-.68,1.23-1.38,1.8-2.11Zm-42.76,0h-3l-2,1.84a32.94,32.94,0,0,0,.32,3.33l5.06-4.78Zm60.75,0h-3l-.38.39,5.35,5.05a32.63,32.63,0,0,0,.34-3.3Zm-37.53,0-7.37,31.6c.82.34,1.65.64,2.49.92l7.58-32.52Zm11.22,0h-2.68l5.83,33.15c.86-.23,1.7-.49,2.54-.78Zm-26.88,0h-2.87l-8.37,9.71c.28,1,.62,2,1,2.9l10.6-12.32Zm10.19,0h-2.81l-12.88,21c.57.73,1.16,1.45,1.79,2.13l14.11-23Z"/></svg>