<svg id="Layer_1" data-name="Layer 1" xmlns="http://www.w3.org/2000/svg" viewBox="0 0 432 432"><defs><style>.cls-1{fill:#fff;}.cls-2,.cls-3{fill:#736357;}.cls-3{font-size:13.38px;font-family:Montserrat-Bold, Montserrat;font-weight:700;}.cls-4{fill:#534741;}.cls-5{fill:#c7b299;}</style></defs><rect class="cls-1" x="-139.54" y="-645.11" width="2240.39" height="1814.65"/><path d="M2100.35-644.61V1169H-139V-644.61H2100.35m1-1H-140V1170H2101.35V-645.61Z"/><g id="Inline"><path class="cls-2" d="M167.31,249.47l3.85-11.54a7.66,7.66,0,0,0,3.64,1c1.92,0,3.34-1.4,3.34-4.63v-38h15.37v38.13c0,10.36-6.23,17-16.29,17A22.2,22.2,0,0,1,167.31,249.47Z"/><ellipse class="cls-2" cx="185.83" cy="184.92" rx="8.67" ry="8.26"/><path class="cls-2" d="M238.28,196.28v40.18H223.7v-3.82a14.85,14.85,0,0,1-11,4.56c-7.84,0-15.65-5.66-15.65-18.74V196.28h15.36V215.6c0,5.73,1.93,7.64,5.06,7.64,2.78,0,5.49-2.13,5.49-8.08V196.28Z"/><path class="cls-2" d="M283.34,182v54.51H268.76v-3.3c-2.35,2.72-5.84,4-10.69,4-10.19,0-18.06-7.09-18.06-20.83,0-13.52,7.87-20.83,18.06-20.83,4.28,0,7.55,1.1,9.9,3.46V182Zm-15.08,34.38c0-5.21-2.78-7.86-6.34-7.86s-6.88,2-6.88,7.9,3.31,7.9,6.88,7.9S268.26,221.55,268.26,216.33Z"/><path class="cls-2" d="M315.46,222l8.29,8.74c-3.8,4.27-9.2,6.47-16.79,6.47-14.13,0-22.11-9.39-22.11-20.83a20.76,20.76,0,0,1,20.91-20.83c11.17,0,20.87,7.2,20.87,20.57l-26.28,5.29c1.27,2.5,3.66,3.53,7.1,3.53A11.41,11.41,0,0,0,315.46,222Zm-16.16-8.45,12.29-2.5a5.85,5.85,0,0,0-5.76-4.18C302.25,206.86,299.79,209,299.3,213.54Z"/><path class="cls-2" d="M343,202c0,2-.14,3.82-2.58,9.25l-3.7,8.31h-9.26l2.51-9.7c-2.78-1.4-4.43-4.19-4.43-7.86,0-5.37,3.7-9,8.73-9S343,196.64,343,202Z"/><path class="cls-2" d="M342.73,233.23l4.42-10.94a27.63,27.63,0,0,0,13.61,3.59c3.92,0,5-.73,5-1.9,0-4.12-22.45,1.39-22.45-14.7,0-7.57,6.84-13.74,20-13.74,5.7,0,11.76,1.1,15.89,3.31l-4.42,11a22.51,22.51,0,0,0-11.26-2.94c-4.13,0-5.27.95-5.27,1.91,0,4.18,22.37-1.25,22.37,14.84,0,7.27-6.62,13.59-20.16,13.59C353.71,237.2,346.72,235.58,342.73,233.23Z"/><text class="cls-3" transform="translate(380.58 205.65)">™</text><path class="cls-4" d="M203.63,242.68v7.89h-1.12v-3.51H198v3.51h-1.12v-7.89H198v3.4h4.48v-3.4Z"/><path class="cls-4" d="M214.22,249.59v1h-5.67v-7.89h5.51v1h-4.39v2.42h3.91v1h-3.91v2.54Z"/><path class="cls-4" d="M225.08,246.14v4.43H224V248.4h-4.51v2.17h-1.09v-4.43A3.36,3.36,0,1,1,225.08,246.14ZM224,247.42V246a2.26,2.26,0,1,0-4.51,0v1.38Z"/><path class="cls-4" d="M229.94,242.68h1.11v6.91h4.23v1h-5.34Z"/><path class="cls-4" d="M240,243.67H237.3v-1h6.46v1h-2.68v6.9H240Z"/><path class="cls-4" d="M254.32,242.68v7.89H253.2v-3.51h-4.48v3.51H247.6v-7.89h1.12v3.4h4.48v-3.4Z"/><path class="cls-4" d="M270.46,250.7l-1-1c-1.16,1.13-3.56,1.51-4.8.25-1.37-1.41.06-3,1.35-3.71-1.58-1.6-.78-4,1.67-3.53a1.63,1.63,0,0,1,1.45,1.6c0,1-.88,1.61-1.67,2.06l1.93,1.94a4.71,4.71,0,0,0,.48-1.43l.86.28a5.25,5.25,0,0,1-.68,1.81l1.05,1.06ZM268.78,249l-2.21-2.23c-.82.46-2,1.42-1.17,2.44S268,249.78,268.78,249ZM266,244.36c0,.41.16.7.79,1.36.61-.35,1.87-1.1,1.19-2A1.16,1.16,0,0,0,266,244.36Z"/><path class="cls-4" d="M279.22,249.53l.64-.77c1,1.38,3,1.2,3-.67v-4.42H280v-1h3.92V248a2.4,2.4,0,0,1-1.39,2.46A2.9,2.9,0,0,1,279.22,249.53Z"/><path class="cls-4" d="M295.4,246.14v4.43h-1.11V248.4h-4.51v2.17h-1.09v-4.43A3.36,3.36,0,1,1,295.4,246.14Zm-1.11,1.28V246a2.26,2.26,0,1,0-4.51,0v1.38Z"/><path class="cls-4" d="M306.78,242.68l-3.42,7.89h-1.11l-3.43-7.89H300l2.81,6.49,2.84-6.49Z"/><path class="cls-4" d="M316.91,246.14v4.43H315.8V248.4h-4.51v2.17H310.2v-4.43A3.36,3.36,0,1,1,316.91,246.14Zm-1.11,1.28V246a2.26,2.26,0,1,0-4.51,0v1.38Z"/><path class="cls-4" d="M334,242.68v7.89h-1.12v-3.51h-4.48v3.51h-1.11v-7.89h1.11v3.4h4.48v-3.4Z"/><path class="cls-4" d="M338.34,246.63c0-5.25,8.3-5.26,8.3,0S338.34,251.88,338.34,246.63Zm7.19,0c0-4-6.07-3.91-6.07,0S345.53,250.59,345.53,246.63Z"/><path class="cls-4" d="M350.91,247.17v-4.49H352v4.45a2.22,2.22,0,1,0,4.4,0v-4.45h1.08v4.49A3.3,3.3,0,1,1,350.91,247.17Z"/><path class="cls-4" d="M361.67,249.67l.41-.88c.82.76,5.09,1.71,4.47-.54-.29-1.07-2.12-1.1-3-1.39-1.26-.44-2.19-1.55-1.52-2.93.88-1.8,3.9-1.61,5.3-.64l-.37.91c-.86-.56-4.91-1.17-4,1,.43,1,2.26,1,3.13,1.31a2,2,0,0,1,1.19,3C366.23,251.24,363,250.91,361.67,249.67Z"/><path class="cls-4" d="M377.63,249.59v1H372v-7.89h5.51v1h-4.39v2.42H377v1h-3.91v2.54Z"/><g id="Good_Latte_Winner" data-name="Good Latte Winner"><path class="cls-5" d="M99,257.44c3.33-9.42,37-13.8,23.86-51.93C117.07,234.24,101.17,232,99,241.78c0,0,.3-10.13,1-10.88,6.09-6.6,27.41-15.27,13.08-40.22-3.59,17.55-10.61,18.48-12.8,23-.41.85-1-1.89-.87-2.83.49-2.69,2.66-8.39,5.65-11.6,4.38-4.68,8.35-18.88-3.17-29.42,1.86,7.65-4.78,22.88-4.78,22.88s-4.43-16-4.75-22.88c-11.25,16.34-7.57,24.74-3.19,29.42,3.85,4.12,5.11,13.55,5.28,15.09C91,207.14,84.33,209.75,79.36,192c-11,29,9.54,32.79,15.7,38.94.72.71.48,8.35.48,8.35-2.62-5.53-20.05-7.72-25-33.38-11,40.1,21.13,42.78,24.62,51.57A59.64,59.64,0,0,1,97.08,265S98.16,259.69,99,257.44Z"/><path class="cls-5" d="M97.08,272.42a7.52,7.52,0,0,0-.65-2.29,3.47,3.47,0,0,0-1.55-1.46,23.14,23.14,0,0,0-4.44-1.48L80.89,265a56.64,56.64,0,0,1-19.1-7.76,50.78,50.78,0,0,1-15.23-14.91,46.7,46.7,0,0,1-7.35-20.49,63.73,63.73,0,0,1,1.28-21.22A54.55,54.55,0,0,1,64.34,167a54.45,54.45,0,0,1,9.08-4.66c1.58-.62,3.17-1.16,4.78-1.64a41.47,41.47,0,0,1,4.89-1.08c-11.34,6.81-20.5,15.9-26.22,26.49A56.64,56.64,0,0,0,51,202.87c-.28,1.45-.47,2.93-.64,4.4s-.26,3-.32,4.47a65.38,65.38,0,0,0,.24,8.89A45,45,0,0,0,52,229a40.43,40.43,0,0,0,1.51,4,38.81,38.81,0,0,0,1.9,3.89,50.68,50.68,0,0,0,11.31,13.6,64.85,64.85,0,0,0,15.68,9.93c3,1.34,6,2.68,9,4.24a20.08,20.08,0,0,1,4.34,2.81,4.53,4.53,0,0,1,1.4,2.35A6.75,6.75,0,0,1,97.08,272.42Z"/><path class="cls-5" d="M97.08,272.42A8.21,8.21,0,0,0,95.69,269a9.57,9.57,0,0,0-2.62-2.37A19.82,19.82,0,0,0,89.86,265c-1.12-.5-2.3-.9-3.48-1.31s-2.37-.76-3.59-1.1l-1.9-.56c-.67-.19-1.32-.43-2-.64a37.75,37.75,0,0,1-7.56-3.75,35.92,35.92,0,0,1-6.6-5.55,37.64,37.64,0,0,1-5.12-7,42.45,42.45,0,0,1-3.51-7.83,51.38,51.38,0,0,1-2-8.17,55.13,55.13,0,0,1-.4-16.73,45.84,45.84,0,0,1,5.29-16,65,65,0,0,1,9.57-13A143.49,143.49,0,0,1,80,172.57c-1.07,2.42-2.36,4.72-3.63,7s-2.56,4.49-3.77,6.72a98.56,98.56,0,0,0-6.32,13.42,52.61,52.61,0,0,0-2,6.75,47.59,47.59,0,0,0-.89,6.88,63.19,63.19,0,0,0,.74,14,60.61,60.61,0,0,0,1.5,6.84c.31,1.12.68,2.21,1.08,3.27s.81,2.13,1.29,3.16a35.22,35.22,0,0,0,7.9,11,40,40,0,0,0,5.59,4.3c.51.31,1,.65,1.54.94s1.05.61,1.66.92c1.18.61,2.34,1.27,3.49,2a28.51,28.51,0,0,1,6.45,5.06,10.25,10.25,0,0,1,2.17,3.61A8,8,0,0,1,97.08,272.42Z"/><path class="cls-5" d="M97.08,272.42a4,4,0,0,1,.49-2.48,8.73,8.73,0,0,1,1.58-2.08,21.73,21.73,0,0,1,4.11-3.08,76.19,76.19,0,0,1,8.93-4.5,65.21,65.21,0,0,0,15.54-10,50.52,50.52,0,0,0,11.16-13.62,43,43,0,0,0,3.33-7.9,44.81,44.81,0,0,0,1.68-8.4,66.82,66.82,0,0,0,.2-8.87,62,62,0,0,0-1-8.83A56.39,56.39,0,0,0,137.24,186c-5.72-10.56-14.86-19.6-26.16-26.39a44.35,44.35,0,0,1,4.88,1.07c1.6.48,3.18,1,4.76,1.64a54.61,54.61,0,0,1,24.12,18.87,54.94,54.94,0,0,1,8.79,19.26,60.47,60.47,0,0,1,1.56,10.51,62.1,62.1,0,0,1-.19,10.63A46.91,46.91,0,0,1,147.81,242a50.75,50.75,0,0,1-15.05,15,56.57,56.57,0,0,1-19,7.87c-3.18.73-6.32,1.4-9.35,2.33A23.36,23.36,0,0,0,100,269,5.22,5.22,0,0,0,97.08,272.42Z"/><path class="cls-5" d="M97.08,272.42a5.77,5.77,0,0,1,1.08-3.83,18.14,18.14,0,0,1,2.58-3.13,45.46,45.46,0,0,1,6.2-5c1.09-.74,2.19-1.46,3.3-2.15a29.09,29.09,0,0,0,3-2.08,41.64,41.64,0,0,0,5.15-4.77,48.75,48.75,0,0,0,11.72-24.57,63,63,0,0,0,.72-6.93,55.54,55.54,0,0,0-.05-6.95,46.64,46.64,0,0,0-.94-6.82,50.52,50.52,0,0,0-2-6.7,99.62,99.62,0,0,0-6.3-13.31c-1.2-2.22-2.48-4.42-3.74-6.67s-2.54-4.53-3.6-6.93a144.86,144.86,0,0,1,11.4,10.65,66.16,66.16,0,0,1,9.53,12.87,45.7,45.7,0,0,1,5.35,15.84,53.2,53.2,0,0,1,.51,8.35c0,1.4-.11,2.78-.24,4.15s-.29,2.74-.54,4.16a47.38,47.38,0,0,1-5.76,15.82,43.63,43.63,0,0,1-11,12.66,38.13,38.13,0,0,1-7.12,4.37c-.63.3-1.28.55-1.91.82l-1.9.71c-1.18.44-2.36.87-3.52,1.33a59.48,59.48,0,0,0-6.78,3.11,19.9,19.9,0,0,0-3.07,2A5.47,5.47,0,0,0,97.08,272.42Z"/><path class="cls-5" d="M97.08,272.42a5.18,5.18,0,0,0-3-3.4,23.36,23.36,0,0,0-4.35-1.78c-3-.93-6.17-1.6-9.35-2.33a56.57,56.57,0,0,1-19-7.87,50.75,50.75,0,0,1-15-15,46.91,46.91,0,0,1-7.19-20.48A62.1,62.1,0,0,1,39,210.93a60.47,60.47,0,0,1,1.56-10.51,54.68,54.68,0,0,1,23.86-33.5,54,54,0,0,1,9-4.63c1.58-.62,3.16-1.16,4.76-1.64a44.35,44.35,0,0,1,4.88-1.07c-11.3,6.79-20.44,15.83-26.16,26.39a56.39,56.39,0,0,0-5.87,16.72,62,62,0,0,0-1,8.83,66.82,66.82,0,0,0,.2,8.87,44.81,44.81,0,0,0,1.68,8.4,43,43,0,0,0,3.33,7.9,50.52,50.52,0,0,0,11.16,13.62,65.21,65.21,0,0,0,15.54,10,77,77,0,0,1,8.93,4.5A21.73,21.73,0,0,1,95,267.86a8.73,8.73,0,0,1,1.58,2.08A3.91,3.91,0,0,1,97.08,272.42Z"/><path class="cls-5" d="M97.08,272.42a5.46,5.46,0,0,0-2.06-3,19.9,19.9,0,0,0-3.07-2,59.48,59.48,0,0,0-6.78-3.11c-1.16-.46-2.34-.89-3.52-1.33l-1.9-.71c-.63-.27-1.28-.52-1.91-.82a38.13,38.13,0,0,1-7.12-4.37,43.63,43.63,0,0,1-10.95-12.66A47.38,47.38,0,0,1,54,228.59c-.25-1.42-.43-2.78-.54-4.16s-.21-2.75-.24-4.15a53.2,53.2,0,0,1,.51-8.35,45.7,45.7,0,0,1,5.35-15.84,66.16,66.16,0,0,1,9.53-12.87A144.86,144.86,0,0,1,80,172.57c-1.06,2.4-2.34,4.69-3.6,6.93s-2.54,4.45-3.74,6.67a99.62,99.62,0,0,0-6.3,13.31,50.52,50.52,0,0,0-2,6.7,46.64,46.64,0,0,0-.94,6.82,55.54,55.54,0,0,0,0,6.95,63,63,0,0,0,.72,6.93,48.75,48.75,0,0,0,11.72,24.57A41.64,41.64,0,0,0,81,256.22a29.09,29.09,0,0,0,3,2.08c1.11.69,2.21,1.41,3.3,2.15a45.46,45.46,0,0,1,6.2,5A18.14,18.14,0,0,1,96,268.59,5.7,5.7,0,0,1,97.08,272.42Z"/><path class="cls-5" d="M97.08,272.42a7,7,0,0,1,0-2.54,4.53,4.53,0,0,1,1.4-2.35,20.08,20.08,0,0,1,4.34-2.81c3-1.56,6-2.9,9-4.24a64.85,64.85,0,0,0,15.68-9.93A50.68,50.68,0,0,0,138.74,237a38.81,38.81,0,0,0,1.9-3.89,40.43,40.43,0,0,0,1.51-4,45,45,0,0,0,1.72-8.41,65.38,65.38,0,0,0,.24-8.89c-.06-1.5-.19-3-.32-4.47s-.36-3-.64-4.4a56.64,56.64,0,0,0-5.85-16.8c-5.72-10.59-14.88-19.68-26.22-26.49a41.47,41.47,0,0,1,4.89,1.08c1.61.48,3.2,1,4.78,1.64a54.77,54.77,0,0,1,24.18,19,55,55,0,0,1,8.75,19.37A63.73,63.73,0,0,1,155,221.86a46.7,46.7,0,0,1-7.35,20.49,50.78,50.78,0,0,1-15.23,14.91,56.64,56.64,0,0,1-19.1,7.76l-9.55,2.17a22.91,22.91,0,0,0-4.44,1.48,3.47,3.47,0,0,0-1.55,1.46A7.82,7.82,0,0,0,97.08,272.42Z"/><path class="cls-5" d="M97.08,272.42a8.14,8.14,0,0,1,.25-4,10.25,10.25,0,0,1,2.17-3.61,28.51,28.51,0,0,1,6.45-5.06c1.15-.69,2.31-1.35,3.49-2,.61-.31,1.14-.62,1.66-.92s1-.63,1.54-.94a40,40,0,0,0,5.59-4.3,35.22,35.22,0,0,0,7.9-11c.48-1,.91-2.08,1.29-3.16s.77-2.15,1.08-3.27a60.61,60.61,0,0,0,1.5-6.84,63.19,63.19,0,0,0,.74-14,47.59,47.59,0,0,0-.89-6.88,52.61,52.61,0,0,0-2-6.75,98.56,98.56,0,0,0-6.32-13.42c-1.21-2.23-2.5-4.46-3.77-6.72s-2.56-4.56-3.63-7a143.49,143.49,0,0,1,11.48,10.74,65,65,0,0,1,9.57,13,45.84,45.84,0,0,1,5.29,16,55.13,55.13,0,0,1-.4,16.73,51.38,51.38,0,0,1-2,8.17,42.45,42.45,0,0,1-3.51,7.83,38.1,38.1,0,0,1-5.12,7,35.92,35.92,0,0,1-6.6,5.55,37.75,37.75,0,0,1-7.56,3.75c-.66.21-1.31.45-2,.64l-1.9.56c-1.22.34-2.42.71-3.59,1.1s-2.36.81-3.48,1.31a19.82,19.82,0,0,0-3.21,1.65A9.57,9.57,0,0,0,98.48,269,8.36,8.36,0,0,0,97.08,272.42Z"/></g></g></svg>