<svg id="Layer_1" data-name="Layer 1" xmlns="http://www.w3.org/2000/svg" viewBox="0 0 221.77 230.25"><defs><style>.cls-1{fill:#fff;}</style></defs><rect class="cls-1" x="-247.54" y="-233.94" width="2240.39" height="1814.65"/><path d="M1992.35-233.44V1580.21H-247V-233.44H1992.35m1-1H-248V1581.21H1993.35V-234.44Z"/><path id="Stacked" d="M24.28,211l3-9.06a6,6,0,0,0,2.86.76c1.51,0,2.63-1.1,2.63-3.64V169.2H44.85v29.94c0,8.13-4.89,13.38-12.79,13.38A17.36,17.36,0,0,1,24.28,211Zm14.54-57.17a6.49,6.49,0,1,0,6.81,6.49A6.66,6.66,0,0,0,38.82,153.79ZM80,169.2v31.55H68.56v-3a11.68,11.68,0,0,1-8.67,3.58c-6.16,0-12.29-4.44-12.29-14.71V169.2H59.66v15.17c0,4.5,1.51,6,4,6,2.18,0,4.3-1.67,4.3-6.35V169.2ZM115.38,158v42.8H103.94v-2.59c-1.85,2.13-4.59,3.17-8.4,3.17-8,0-14.18-5.57-14.18-16.36,0-10.61,6.18-16.35,14.18-16.35,3.36,0,5.93.87,7.78,2.71V158Zm-11.83,27c0-4.1-2.19-6.18-5-6.18s-5.4,1.54-5.4,6.2,2.61,6.21,5.4,6.21S103.55,189,103.55,185Zm37.05,4.44,6.51,6.86c-3,3.35-7.22,5.08-13.18,5.08-11.09,0-17.36-7.38-17.36-16.36A16.3,16.3,0,0,1,133,168.62c8.77,0,16.39,5.65,16.39,16.15l-20.64,4.16c1,2,2.87,2.76,5.57,2.76A9,9,0,0,0,140.6,189.39Zm-12.68-6.64,9.65-2a4.6,4.6,0,0,0-4.52-3.29C130.23,177.5,128.3,179.18,127.92,182.75Zm34.28-9.05c0,1.55-.1,3-2,7.27l-2.91,6.51H150l2-7.61a6.52,6.52,0,0,1-3.48-6.17,6.85,6.85,0,1,1,13.7,0ZM162,198.21l3.47-8.59a21.61,21.61,0,0,0,10.69,2.82c3.07,0,3.91-.57,3.91-1.49,0-3.24-17.62,1.09-17.62-11.54,0-5.94,5.37-10.79,15.66-10.79,4.48,0,9.24.87,12.48,2.6l-3.47,8.59a17.66,17.66,0,0,0-8.84-2.31c-3.24,0-4.14.75-4.14,1.5,0,3.29,17.57-1,17.57,11.66,0,5.71-5.2,10.67-15.83,10.67C170.64,201.33,165.15,200.06,162,198.21ZM52.87,205.67v6.2H52V209.1H48.48v2.77H47.6v-6.2h.88v2.66H52v-2.66Zm8.32,5.43v.77H56.74v-6.2h4.32v.77H57.61v1.9h3.08v.75H57.61v2Zm8.53-2.71v3.48h-.88v-1.71H65.31v1.71h-.86v-3.48A2.64,2.64,0,1,1,69.72,208.39Zm-.88,1v-1.08a1.77,1.77,0,1,0-3.53,0v1.08Zm4.69-3.72h.88v5.43h3.32v.77h-4.2Zm7.88.77h-2.1v-.77h5.07v.77h-2.1v5.43h-.87Zm11.26-.77v6.2H91.8V209.1H88.28v2.77H87.4v-6.2h.88v2.66H91.8v-2.66ZM105.35,212l-.82-.82a2.85,2.85,0,0,1-3.76.19c-1.08-1.1,0-2.32,1.06-2.91-1.25-1.25-.62-3.13,1.31-2.77a1.27,1.27,0,0,1,1.13,1.26c0,.78-.69,1.26-1.31,1.62l1.52,1.52a3.88,3.88,0,0,0,.38-1.12l.67.22a4.19,4.19,0,0,1-.53,1.41l.82.84ZM104,210.64l-1.74-1.75c-.64.37-1.59,1.12-.91,1.92S103.43,211.24,104,210.64ZM101.87,207c0,.32.12.55.62,1.06.48-.27,1.47-.86.93-1.55A.9.9,0,0,0,101.87,207Zm10.35,4,.51-.6c.76,1.09,2.33.94,2.33-.52v-3.48h-2.22v-.77h3.09v4.2a1.89,1.89,0,0,1-1.09,1.94A2.29,2.29,0,0,1,112.22,211Zm12.71-2.65v3.48h-.87v-1.71h-3.54v1.71h-.86v-3.48A2.64,2.64,0,1,1,124.93,208.39Zm-.87,1v-1.08a1.77,1.77,0,1,0-3.54,0v1.08Zm9.81-3.72-2.69,6.2h-.87l-2.7-6.2h1l2.21,5.09,2.22-5.09Zm7.95,2.72v3.48H141v-1.71h-3.54v1.71h-.86v-3.48A2.64,2.64,0,1,1,141.82,208.39Zm-.87,1v-1.08a1.77,1.77,0,1,0-3.54,0v1.08Zm14.28-3.72v6.2h-.87V209.1h-3.53v2.77H150v-6.2h.87v2.66h3.53v-2.66Zm3.42,3.1c0-4.12,6.51-4.13,6.51,0S158.65,212.89,158.65,208.77Zm5.64,0c0-3.11-4.77-3.07-4.77,0S164.29,211.88,164.29,208.77Zm4.23.42v-3.52h.87v3.49a1.74,1.74,0,1,0,3.46,0v-3.49h.85v3.52A2.59,2.59,0,1,1,168.52,209.19Zm8.44,2,.33-.69c.64.59,4,1.33,3.51-.43-.23-.84-1.67-.86-2.33-1.09-1-.34-1.73-1.22-1.2-2.3.69-1.42,3.06-1.27,4.16-.5l-.29.71c-.67-.44-3.85-.92-3.11.78.34.77,1.78.76,2.46,1a1.58,1.58,0,0,1,.94,2.38C180.55,212.39,178,212.13,177,211.16Zm12.53-.06v.77h-4.44v-6.2h4.32v.77h-3.45v1.9H189v.75h-3.08v2Zm2.28-41.93h4.16v.9h-1.5v3.46h-1.17v-3.46h-1.49Zm9,4.36V171l-1.32,2h-.53l-1.32-2v2.43h-1.11v-4.36h1l1.75,2.63,1.7-2.63h1l0,4.36ZM100.36,64.89a18.3,18.3,0,0,1-4.7-8.81c-1-4.94.18-10,2.07-14.63a61.55,61.55,0,0,1,6.43-11.51,75.83,75.83,0,0,0,2.06,12.68c.88,4,1.86,8,2.91,12,.22.84.45,1.67.68,2.51a73.78,73.78,0,0,0,5.84-20.06,20.28,20.28,0,0,0-.17-7.12,26.63,26.63,0,0,1,9,20c-.07,5.22-1.61,11-5.15,14.93a30.24,30.24,0,0,0-5.68,10A15.55,15.55,0,0,0,112.51,79c0,.44.14,3.29.85,3.26.27,0,1-1.45,1.16-1.71A17.9,17.9,0,0,1,116,78.85c1.29-1.3,2.65-2.53,3.87-3.91,5-5.64,7.42-13,8.9-20.26,3.34,5.82,6,12.43,5.77,19.24a23.9,23.9,0,0,1-4.81,13.34,49.59,49.59,0,0,1-9.29,9.13c-1.46,1.17-2.94,2.3-4.38,3.48-.94.78-2.56,1.8-3,3a11.35,11.35,0,0,0-.44,2.83c-.14,1.4-.24,2.8-.32,4.2-.1,1.83-.18,3.67-.24,5.51,1-4.68,5.23-7.41,8.83-10.11A45.84,45.84,0,0,0,134.42,90a65.67,65.67,0,0,0,6-17.74c2.66,7.7,4.39,16,3.27,24.19a32.31,32.31,0,0,1-6.75,15.77,53.35,53.35,0,0,1-11.25,10.11c-3.4,2.4-7.05,4.53-10.21,7.25a11.9,11.9,0,0,0-3.2,3.86,27.91,27.91,0,0,0-1.45,5c-.35,1.47-.68,2.95-1,4.43-.82-4.27-1.3-9.1-4.69-12.16-2.83-2.54-6.28-4.38-9.46-6.43a55,55,0,0,1-11.21-9.13,33.54,33.54,0,0,1-7.81-14.93c-2.11-9.08-.75-18.67,1.69-27.54C80.07,81.84,83.66,90.67,90,97.56c4,4.35,8.87,7.41,13.7,10.72,1.58,1.09,3.42,2.32,4.27,4.11,0-1.79.07-3.58,0-5.37,0-1.59.23-3.85-1.06-5-2.29-2.07-5.1-3.55-7.68-5.21a39.11,39.11,0,0,1-8.65-7.09,22.75,22.75,0,0,1-5.31-11.6c-1.11-7.4.86-15,3.46-21.91C90.31,61.77,92.4,67.5,96.21,72c2.14,2.5,4.89,4.25,7.26,6.5a14.37,14.37,0,0,1,3.17,4.36,52.13,52.13,0,0,0-1.5-7.82C104.2,71.47,102.91,67.62,100.36,64.89ZM179,85.28a70.85,70.85,0,0,0-8.67-36A63.33,63.33,0,0,0,145.6,24.65a59.67,59.67,0,0,0-19.17-6.92c12.62,7.63,23.55,18,30.82,30.87a66.63,66.63,0,0,1,7.19,20.11,71.87,71.87,0,0,1,.89,22,51.41,51.41,0,0,1-7.81,21.86,64.33,64.33,0,0,0,3.38-35c-2.22-11.39-8.09-21.46-15.77-30a165.47,165.47,0,0,0-15-14.31c1.86,4.2,4.25,8.14,6.49,12.14,2.33,4.17,4.66,8.36,6.69,12.69a77.45,77.45,0,0,1,4.57,11.86,57.87,57.87,0,0,1,2,13.08,65.72,65.72,0,0,1-3.67,25.34c-2.86,7.8-7.43,15.9-14,21.12-4,3.13-8.48,5.18-12.72,7.86-4,2.52-8.7,5.9-9.65,10.85-.85-4.38-4.71-7.54-8.21-9.91-3.71-2.51-7.82-4.32-11.51-6.84a34.89,34.89,0,0,1-5.33-4.27,43,43,0,0,1-4-4.93,57.54,57.54,0,0,1-6.23-11.09A64.62,64.62,0,0,1,69.68,86,61.57,61.57,0,0,1,75,61.07,153,153,0,0,1,82.22,46.8c2.51-4.49,5.22-8.92,7.31-13.63-9,7.81-17.92,16-24,26.37a58.31,58.31,0,0,0-7.79,32.6,65,65,0,0,0,4.3,20.43,51.68,51.68,0,0,1-7.45-19.28,69.18,69.18,0,0,1,0-21.78,70.5,70.5,0,0,1,18.78-38A94.57,94.57,0,0,1,93.19,17.73c-12.21,1.94-24,8.42-32.77,17.1a65.63,65.63,0,0,0-18.12,33C39.67,80.41,39.86,93.84,44.58,106a59,59,0,0,0,25,28.88,69.07,69.07,0,0,0,17.68,7.37c3.4.9,6.87,1.54,10.28,2.42s6.82,1.75,9.66,3.65a5.81,5.81,0,0,1,2.63,3.51c.74-3.37,4.72-4.8,7.61-5.79a106.79,106.79,0,0,1,10.72-2.79,74.89,74.89,0,0,0,19.15-6.81c12-6.46,21.85-16.52,27.22-29.1A58.65,58.65,0,0,0,179,85.28Z"/></svg>