<svg id="Layer_1" data-name="Layer 1" xmlns="http://www.w3.org/2000/svg" xmlns:xlink="http://www.w3.org/1999/xlink" viewBox="0 0 216 216"><defs><style>.cls-1{fill:none;}.cls-2{clip-path:url(#clip-path);}.cls-3{opacity:0.5;}</style><clipPath id="clip-path"><path class="cls-1" d="M150.42,74.44c-20.22-28.72-19.25,12.84-43,12.84-5.83,0-10.69-49.73-13.16-54.2-6.73-12.16-19,.94-22.7,8.67-4.33,9.18-3.83,37.77-5.12,36.55a5.41,5.41,0,0,1-2-3.87,60.9,60.9,0,0,0-7.91,30.28c0,31.25,22.77,56.58,50.87,56.58s50.87-25.33,50.87-56.58A61,61,0,0,0,150.42,74.44Z"/></clipPath></defs><path d="M124.24,31.57l-.09.85c-.05.56-.41.81-1.05.75l-.55-.06L121.15,47a1,1,0,0,1-.36.72,1,1,0,0,1-.77.22l-1.29-.13a1,1,0,0,1-.43-.15.73.73,0,0,1-.28-.35l-6.29-12.6-1,9.73.53,0c.64.07.94.38.88,1l-.08.85c-.06.56-.41.81-1.06.75l-3.69-.38c-.65-.06-1-.38-.89-.94l.09-.85c0-.57.41-.82,1-.75l.55,0,1.25-12.37-.55-.05c-.65-.07-.94-.38-.89-.95l.09-.84c.06-.57.41-.82,1.06-.75l2.87.28a1,1,0,0,1,.42.16.71.71,0,0,1,.28.34L119,42.57l1-9.72-.52-.06c-.65-.06-1-.38-.89-.94l.08-.85c.06-.56.41-.81,1.06-.75l3.69.37C124,30.69,124.3,31,124.24,31.57Z"/><path d="M139,50l-1.18,2.9a1.14,1.14,0,0,1-.64.65,1.18,1.18,0,0,1-.92,0l-10.31-4.19c-.6-.25-.8-.63-.58-1.16l.32-.79q.31-.8,1.23-.42l.51.21,4.68-11.52-.51-.21c-.6-.24-.8-.63-.58-1.16l.32-.78c.21-.53.62-.67,1.22-.43l10.17,4.14a1.13,1.13,0,0,1,.67.65,1.18,1.18,0,0,1,0,.92l-1,2.46c-.24.6-.63.8-1.15.58l-.77-.31c-.53-.21-.67-.62-.42-1.22l.49-1.21-5.64-2.3-1.75,4.3,4.36,1.77a.93.93,0,0,1,.53.5.86.86,0,0,1,0,.72l-.26.63a.9.9,0,0,1-.51.52.93.93,0,0,1-.73,0l-4.36-1.77-2,4.85,5.76,2.34.66-1.62c.25-.61.63-.8,1.16-.59l.79.32C139.06,49,139.21,49.42,139,50Z"/><path d="M169.26,58.27l-.56.64c-.38.42-.81.42-1.3,0l-.39-.35-12.5,8a.84.84,0,0,1-.59.16,1,1,0,0,1-.6-.29l-1-.85A1,1,0,0,1,152,65a.92.92,0,0,1,.07-.63l4.26-10-9.45,5.38a.91.91,0,0,1-.62.14,1.1,1.1,0,0,1-.61-.3l-.94-.83a1,1,0,0,1-.35-.56.93.93,0,0,1,.07-.63L151,44.28l-.39-.35c-.49-.44-.55-.86-.17-1.29L151,42c.38-.42.81-.41,1.3,0l3.07,2.73c.48.43.54.86.16,1.29l-.57.63c-.37.43-.81.42-1.29,0l-.4-.35-4.86,9.84,9-5.18a1.18,1.18,0,0,1,.63-.16.92.92,0,0,1,.55.23l1.12,1a.88.88,0,0,1,.29.53,1.28,1.28,0,0,1-.08.63l-4.06,9.51L165,56.78l-.39-.35c-.49-.44-.54-.87-.16-1.29l.56-.64c.38-.42.81-.42,1.3,0L169.1,57C169.59,57.42,169.64,57.85,169.26,58.27Z"/><path d="M165.05,69.81a1,1,0,0,1,.49-.6l.45-.27a1,1,0,0,1,.78-.13,1,1,0,0,1,.64.53l4.26,7.32a1.1,1.1,0,0,1,.14.83,1,1,0,0,1-.49.62l-.46.26a.93.93,0,0,1-.77.12,1,1,0,0,1-.63-.54l-4.26-7.33A1,1,0,0,1,165.05,69.81Z"/><path d="M185.58,92.91a1.2,1.2,0,0,1-.73.57l-2.55.73c-.63.18-1,0-1.18-.55l-.22-.79c-.16-.55.07-.91.7-1.09l1.25-.36-1.69-5.86-4.72,1.37,1.31,4.52a.9.9,0,0,1-.65,1.18l-.65.19a.9.9,0,0,1-.72-.08,1,1,0,0,1-.44-.58L174,87.63,169.22,89l.46,1.61c.18.63,0,1-.54,1.18l-.82.23c-.55.16-.91-.07-1.09-.7l-1.45-5c-.18-.63,0-1,.54-1.18l.82-.24c.55-.15.91.08,1.09.71l.16.53,11.94-3.45-.15-.52c-.18-.63,0-1,.55-1.18l.82-.24c.54-.15.91.08,1.09.71l3,10.55A1.17,1.17,0,0,1,185.58,92.91Z"/><path d="M171.69,114.49l-.85,0c-.57,0-.87-.29-.89-.94l-.17-4.19c0-.65.24-1,.81-1l.85,0c.57,0,.86.29.89.94l0,.55,2.94-1.22-.25-6-3-1,0,.53c0,.65-.24,1-.81,1l-.85,0c-.57,0-.87-.29-.89-.94l-.16-3.76c0-.65.25-1,.82-1l.85,0c.57,0,.86.29.89.94l0,.53,14.49,4.7a1,1,0,0,1,.53.38,1.1,1.1,0,0,1,.21.62l.06,1.25a1.07,1.07,0,0,1-.66,1l-14.06,6,0,.52C172.53,114.13,172.26,114.47,171.69,114.49Zm6.11-6.92,5.53-2.28-5.69-1.8Z"/><path d="M175.82,128.35a4.26,4.26,0,0,1-2,1.3,5.1,5.1,0,0,1-2.42,0,4.54,4.54,0,0,1-2.34-1.35,5.41,5.41,0,0,1-1.28-2.55,7.32,7.32,0,0,1,.06-3.22,9.68,9.68,0,0,1,1.25-3.11,5.11,5.11,0,0,1,1.95-1.83,3.39,3.39,0,0,1,2.34-.27,2.11,2.11,0,0,1,1.35.85,1.78,1.78,0,0,1,.25,1.49,1.84,1.84,0,0,1-.77,1.18,1.67,1.67,0,0,1-1.33.22,1.88,1.88,0,0,1-1-.65,3.44,3.44,0,0,0-.89,1,5.59,5.59,0,0,0-.58,1.52,3.94,3.94,0,0,0,.08,2.46,2,2,0,0,0,1.47,1.21,2.11,2.11,0,0,0,1.15,0,2.39,2.39,0,0,0,.95-.74,15.13,15.13,0,0,0,1.28-1.89,17.34,17.34,0,0,1,2.13-3,4.84,4.84,0,0,1,2.05-1.38,4.69,4.69,0,0,1,2.42,0,4.43,4.43,0,0,1,2.34,1.37,5.2,5.2,0,0,1,1.24,2.58,8,8,0,0,1-.12,3.36,7.49,7.49,0,0,1-1.14,2.69,4.34,4.34,0,0,1-1.83,1.56,3.41,3.41,0,0,1-2.24.18,2.09,2.09,0,0,1-1.34-.83,1.79,1.79,0,0,1-.24-1.48,1.85,1.85,0,0,1,.77-1.19,1.61,1.61,0,0,1,1.31-.22,2,2,0,0,1,1,.57c.58-.24,1-.94,1.28-2.1a3.72,3.72,0,0,0-.1-2.32,1.93,1.93,0,0,0-1.41-1.19,2,2,0,0,0-1.18,0,2.72,2.72,0,0,0-1,.83,20.53,20.53,0,0,0-1.31,2A17.88,17.88,0,0,1,175.82,128.35Z"/><path d="M171.78,151.71l-10.86-6-.26.46c-.31.57-.72.71-1.22.44l-.74-.42c-.5-.27-.59-.7-.27-1.27l2-3.54c.31-.57.72-.72,1.22-.44l.74.41c.5.28.59.7.27,1.27l-.26.46,4.52,2.51,3.6-6.48L166,136.56l-.25.46c-.32.56-.73.71-1.22.44l-.75-.42c-.5-.28-.59-.7-.27-1.27l2-3.57c.32-.57.72-.71,1.22-.44l.74.42c.5.27.59.7.27,1.27l-.27.48,10.87,6,.27-.48c.31-.57.72-.71,1.22-.44l.74.42c.5.27.59.7.27,1.26l-2,3.57c-.31.57-.72.72-1.22.44l-.74-.41c-.5-.28-.59-.7-.27-1.27l.26-.46-4.12-2.29-3.61,6.48,4.12,2.29.25-.46c.32-.57.73-.71,1.22-.44l.75.42c.49.28.58.7.27,1.27l-2,3.55c-.31.57-.72.71-1.22.44l-.74-.42c-.5-.27-.59-.7-.27-1.27Z"/><path d="M156.33,148.42l.63.58c.42.38.41.81,0,1.3l-.37.4,9.19,8.37.38-.41c.43-.48.86-.53,1.28-.15l.63.58c.42.38.42.81,0,1.3l-2.75,3q-.66.72-1.29.15l-.63-.58q-.63-.57,0-1.29l.35-.39-9.19-8.37-.36.39q-.66.72-1.29.15l-.63-.58q-.63-.57,0-1.29l2.75-3Q155.7,147.85,156.33,148.42Z"/><path d="M147.17,157.5a6.92,6.92,0,0,1,3.94,1,11,11,0,0,1,3.43,3.33,11.18,11.18,0,0,1,2,4.59,7.43,7.43,0,0,1-.48,4.25,8,8,0,0,1-2.88,3.37,7.72,7.72,0,0,1-4,1.48,6.82,6.82,0,0,1-3.94-1,11,11,0,0,1-3.44-3.32,11.42,11.42,0,0,1-2-4.58,7.52,7.52,0,0,1,.47-4.25,7.89,7.89,0,0,1,2.86-3.37A7.8,7.8,0,0,1,147.17,157.5Zm-4.63,7.12a8.19,8.19,0,0,0,1.78,4.82,7.64,7.64,0,0,0,3.63,3.15,4.14,4.14,0,0,0,3.8-.71,4.29,4.29,0,0,0,2-3.51,8.16,8.16,0,0,0-1.77-4.79,7.7,7.7,0,0,0-3.65-3.18,4.1,4.1,0,0,0-3.77.7A4.36,4.36,0,0,0,142.54,164.62Z"/><path d="M123.58,185.85l-.25-.82c-.17-.54.06-.91.68-1.1l.52-.17-4.15-13.3a1,1,0,0,1,.05-.8,1,1,0,0,1,.61-.51l1.25-.39a1,1,0,0,1,.45,0,.73.73,0,0,1,.39.2l10.73,9.12-2.92-9.33-.5.16c-.62.19-1,0-1.19-.52l-.25-.81c-.17-.55.06-.92.68-1.11l3.54-1.11c.62-.19,1,0,1.19.52l.25.82c.17.54-.06.91-.68,1.1l-.52.17,3.71,11.86.52-.16c.62-.2,1,0,1.19.52l.25.81c.17.55,0,.91-.67,1.11l-2.76.86a1,1,0,0,1-.45,0,.73.73,0,0,1-.39-.2l-10.73-9.12,2.92,9.33.5-.16c.62-.19,1,0,1.19.52l.25.82c.17.54-.06.91-.68,1.1l-3.54,1.11C124.15,186.56,123.75,186.39,123.58,185.85Z"/><path d="M102.81,174.66l-.06-3.13a1.11,1.11,0,0,1,.33-.85,1.21,1.21,0,0,1,.85-.35l11.13-.21q1,0,1,.84l0,.85c0,.57-.31.86-1,.87h-.55l.23,12.43h.56c.65,0,1,.27,1,.83v.86c0,.56-.31.85-1,.87l-11,.2a1.15,1.15,0,0,1-.87-.33,1.22,1.22,0,0,1-.36-.85l-.05-2.66q0-1,.84-1h.82c.57,0,.86.31.87,1l0,1.3,6.09-.11-.09-4.64-4.71.09a1,1,0,0,1-.68-.25.85.85,0,0,1-.29-.66V179a.9.9,0,0,1,.26-.68.92.92,0,0,1,.67-.29l4.71-.09-.09-5.23-6.22.11,0,1.76c0,.65-.26,1-.83,1h-.85C103.11,175.64,102.82,175.31,102.81,174.66Z"/><path d="M83,181.63a8.28,8.28,0,0,1-.54-6.51,10.74,10.74,0,0,1,2.25-4.4,7.67,7.67,0,0,1,3.68-2.37,8.24,8.24,0,0,1,4.54,0l5.79,1.54q.94.25.72,1.08l-.22.82c-.14.55-.53.74-1.16.57l-.53-.14-3.2,12,.53.14c.63.17.87.52.72,1.07l-.22.83c-.14.54-.53.73-1.16.57l-5.76-1.54A8.45,8.45,0,0,1,83,181.63Zm5.1-10.13a7.23,7.23,0,0,0-2.65,4.31,6.23,6.23,0,0,0,.18,4.61,5.38,5.38,0,0,0,3.61,2.47l2.18.58,3.2-12-2.15-.58A5.05,5.05,0,0,0,88.07,171.5Z"/><path d="M46.35,158.32l.57-.63c.39-.42.82-.41,1.3,0l.39.35,12.58-7.87a.92.92,0,0,1,.6-.15,1.2,1.2,0,0,1,.6.29l.94.86a1,1,0,0,1,.33.56.9.9,0,0,1-.08.62l-4.37,10,9.51-5.27a.9.9,0,0,1,.62-.13,1.1,1.1,0,0,1,.61.3l.93.84a1.07,1.07,0,0,1,.34.57,1,1,0,0,1-.07.63l-6.67,13.24.39.36c.48.44.53.87.14,1.29l-.57.63c-.38.42-.81.41-1.3,0l-3-2.77q-.72-.66-.15-1.29l.58-.63c.38-.42.81-.41,1.3,0l.38.36,5-9.78-9.09,5.07a1.18,1.18,0,0,1-.63.16,1,1,0,0,1-.54-.24l-1.12-1a.84.84,0,0,1-.28-.52,1.21,1.21,0,0,1,.09-.64L59.78,154l-9.21,5.83.39.35q.74.66.15,1.29l-.57.63c-.38.42-.82.41-1.3,0l-2.74-2.49Q45.78,159,46.35,158.32Z"/><path d="M56.35,143.77l-.72.45c-.49.29-.9.16-1.24-.39l-.29-.47-10.6,6.49.28.47c.34.55.27,1-.21,1.28l-.73.44c-.48.3-.9.17-1.24-.39l-2.13-3.48c-.34-.56-.27-1,.22-1.28l.73-.45q.72-.44,1.23.39l.28.45,10.6-6.49-.27-.45c-.34-.55-.27-1,.22-1.28l.72-.44c.49-.3.9-.17,1.24.39l2.13,3.48C56.91,143.05,56.84,143.48,56.35,143.77Z"/><path d="M31.16,125.47l.81-.27q.81-.27,1.11.66l.18.52L46.48,122a1.07,1.07,0,0,1,.81,0,1,1,0,0,1,.52.61l.41,1.23a1.18,1.18,0,0,1,0,.46.7.7,0,0,1-.2.39l-8.93,10.89,9.28-3.08-.17-.5c-.2-.62,0-1,.5-1.2l.81-.26c.54-.18.91,0,1.12.66l1.17,3.52c.2.61,0,1-.5,1.19l-.81.27c-.54.18-.92,0-1.12-.66l-.17-.52-11.8,3.91.17.53c.2.62,0,1-.5,1.19l-.81.27c-.54.18-.91,0-1.12-.66l-.9-2.73a1,1,0,0,1,0-.45.8.8,0,0,1,.2-.4l8.93-10.89-9.27,3.08.16.5c.21.62,0,1-.5,1.2l-.81.27q-.81.27-1.11-.66l-1.17-3.52C30.45,126.05,30.62,125.65,31.16,125.47Z"/><path d="M42,104.5l3.13-.11a1.09,1.09,0,0,1,.85.32,1.17,1.17,0,0,1,.37.84l.4,11.12c0,.65-.25,1-.82,1l-.85,0c-.57,0-.86-.3-.89-.95v-.55l-12.43.44,0,.56c0,.65-.25,1-.82,1l-.85,0c-.57,0-.86-.29-.89-.94l-.39-11A1.18,1.18,0,0,1,30,105.08l2.66-.1c.65,0,1,.25,1,.82l0,.83c0,.57-.3.86-.95.88l-1.3,0,.21,6.09,4.64-.17-.17-4.71a.93.93,0,0,1,.24-.68.89.89,0,0,1,.65-.3l.68,0a.9.9,0,0,1,.68.26.84.84,0,0,1,.3.66l.17,4.71,5.24-.18L43.83,107l-1.76.07c-.65,0-1-.25-1-.82l0-.85C41,104.82,41.33,104.52,42,104.5Z"/><path d="M47.88,79.4a1,1,0,0,1,.89-.09,2.12,2.12,0,0,1,.58.34,3.48,3.48,0,0,1,.58.57,6.21,6.21,0,0,1,1.33,3,7.22,7.22,0,0,1-.48,3.45,7.14,7.14,0,0,1-2.44,3.38,7,7,0,0,1-3.88,1.34,11.79,11.79,0,0,1-4.82-.82,9.85,9.85,0,0,1-5.48-4.15,6.88,6.88,0,0,1-.29-6,8,8,0,0,1,1.62-2.72,5.48,5.48,0,0,1,2.25-1.54,3.36,3.36,0,0,1,2.38,0,2.12,2.12,0,0,1,1.24,1,1.79,1.79,0,0,1,0,1.49,1.89,1.89,0,0,1-.91,1.09,1.58,1.58,0,0,1-1.33.05,1.78,1.78,0,0,1-1-.78,3.51,3.51,0,0,0-1.92,2.25A3.87,3.87,0,0,0,36.56,85a8.2,8.2,0,0,0,4.08,2.68,8.7,8.7,0,0,0,5,.64,3.93,3.93,0,0,0,2.77-2.67,3.6,3.6,0,0,0-.75-4,2.14,2.14,0,0,1-.51-.75,1.13,1.13,0,0,1,.07-.73A1.48,1.48,0,0,1,47.88,79.4Z"/><path d="M55.49,74.75a6.86,6.86,0,0,1-4.05.32A11,11,0,0,1,47.13,73a11.43,11.43,0,0,1-3.33-3.72,7.4,7.4,0,0,1-.89-4.19A7.94,7.94,0,0,1,44.58,61a7.79,7.79,0,0,1,3.33-2.67A6.91,6.91,0,0,1,52,58a11,11,0,0,1,4.31,2.07,11.17,11.17,0,0,1,3.32,3.72,7.44,7.44,0,0,1,.9,4.18,8.66,8.66,0,0,1-5,6.8Zm2.13-8.22a8.17,8.17,0,0,0-3.21-4A7.62,7.62,0,0,0,50,60.68a4.13,4.13,0,0,0-3.38,1.87,4.34,4.34,0,0,0-.83,4,8.18,8.18,0,0,0,3.2,4,7.69,7.69,0,0,0,4.47,1.85,4.09,4.09,0,0,0,3.36-1.85A4.32,4.32,0,0,0,57.62,66.53Z"/><g class="cls-2"><path class="cls-3" d="M92.75,34.63c-7.51,11.09-1.59,21.59-8.61,41.72-7.63,21.88,3.12,40.4.29,53.83,2,5.54,2.11-7.25,18.3-7.25s22.43-11.13,22.43-19,13.25-17.42,15.22-10.5,16.44,43.82-6.07,60.65c-29.44,22-65.42-3-72.48-24.78-1.09-3.37-2.06-11.71,2.13-10.56,1.85.51,4.23,6.21,7.64,6.37C69,108.31,74.73,87.44,73.21,69.66,72,55.25,72,41.69,82.45,34.07,86.13,31.39,95.37,30.75,92.75,34.63Z"/><path d="M103.83,138.52c10.4,9.16,27.14-11.71,29.33-19.42,1.55-5.45,3-18.31,1.15-25.21-2-7.4-.2-12.73,4.38-15.47,3.09-1.85-2.93-10.35,2.26-10.6S153.3,75,157.89,93c3.7,14.53,12,67.65-18.6,68.64s-96.62,11.51-84.1-9C70.78,127.15,86.32,123.11,103.83,138.52Z"/></g></svg>