<svg id="Layer_1" data-name="Layer 1" xmlns="http://www.w3.org/2000/svg" viewBox="0 0 936 432"><path d="M508.05,79.16A28.12,28.12,0,1,1,536.17,51,28.14,28.14,0,0,1,508.05,79.16Z" fill="#00d355"/><path d="M508.05,25.43A25.62,25.62,0,1,1,482.44,51a25.61,25.61,0,0,1,25.61-25.61m0-5A30.62,30.62,0,1,0,538.67,51a30.64,30.64,0,0,0-30.62-30.61Z" fill="#88ffa1"/><polyline points="494.31 54.32 503.95 63.77 520.61 38.22" fill="none" stroke="#fff" stroke-linecap="round" stroke-linejoin="round" stroke-width="5"/><path d="M50.05,79.16A28.12,28.12,0,1,1,78.17,51,28.14,28.14,0,0,1,50.05,79.16Z" fill="#ea1130"/><path d="M50.05,25.43A25.62,25.62,0,1,1,24.44,51,25.61,25.61,0,0,1,50.05,25.43m0-5A30.62,30.62,0,1,0,80.67,51,30.64,30.64,0,0,0,50.05,20.43Z" fill="#ff7d87"/><line x1="38.05" y1="63.04" x2="62.05" y2="39.04" fill="none" stroke="#fff" stroke-linecap="round" stroke-linejoin="round" stroke-width="5"/><line x1="38.05" y1="39.04" x2="62.05" y2="63.04" fill="none" stroke="#fff" stroke-linecap="round" stroke-linejoin="round" stroke-width="5"/><rect x="571.38" y="150.53" width="299.26" height="299.26" rx="12.53" fill="none" stroke="#333" stroke-miterlimit="10" stroke-width="2"/><rect x="571.38" y="-16.68" width="299.26" height="149.63" rx="8.86" fill="none" stroke="#333" stroke-miterlimit="10" stroke-width="2"/><rect x="655.32" y="171.66" width="191.99" height="23.75" fill="#333"/><rect x="655.32" y="202.84" width="83.63" height="12.87" fill="#333"/><circle cx="614.5" cy="193.68" r="28.95" fill="none" stroke="#333" stroke-miterlimit="10" stroke-width="2"/><path d="M626.14,191.44a5.75,5.75,0,0,0-1.64,4.6l0,0a6.74,6.74,0,0,1-.39,2.92A6.78,6.78,0,0,1,620,203a6.71,6.71,0,0,1-2.91.4l0,0a5.79,5.79,0,1,0,5.22,5.22l0,0a6.9,6.9,0,0,1,.39-2.92,6.9,6.9,0,0,1,4.07-4.07,6.9,6.9,0,0,1,2.92-.39l0,0a5.76,5.76,0,0,0,5.09-2.23,5.79,5.79,0,0,0,1.13-2.63,5.92,5.92,0,0,0-.28-2.86,5.85,5.85,0,0,0-1.62-2.36,5.75,5.75,0,0,0-5.43-1.2,5.69,5.69,0,0,0-2.46,1.47Z" fill="#b3b3ff"/><path d="M613.92,199.1l0,0a5.69,5.69,0,0,0,4.6-1.64,5.63,5.63,0,0,0,1.34-2.12,5.54,5.54,0,0,0,.3-2.49l0,0a6.83,6.83,0,0,1,7.38-7.37l0,0a5.8,5.8,0,0,0,3.41-.74A5.78,5.78,0,0,0,629.05,174a5.77,5.77,0,0,0-6,2.83,5.76,5.76,0,0,0-.73,3.4l0,0a6.9,6.9,0,0,1-.39,2.92,6.83,6.83,0,0,1-4.07,4.07,6.9,6.9,0,0,1-2.92.39l0,0a5.86,5.86,0,0,0-2.49.3,5.71,5.71,0,0,0-2.11,1.34,5.75,5.75,0,0,0-1.65,4.61l0,0a6.76,6.76,0,0,1-.39,2.92,6.91,6.91,0,0,1-1.58,2.48,6.83,6.83,0,0,1-5.4,2l0,0a5.77,5.77,0,1,0,5.21,5.22l0,0a6.92,6.92,0,0,1,.39-2.92,6.78,6.78,0,0,1,4.07-4.06,6.74,6.74,0,0,1,2.92-.39Z" fill="#7878ff"/><path d="M602.66,195.24a5.73,5.73,0,0,0,1.33-2.12,5.65,5.65,0,0,0,.31-2.48l0,0a6.9,6.9,0,0,1,.39-2.92,6.9,6.9,0,0,1,4.07-4.07,6.9,6.9,0,0,1,2.92-.39l0,0a5.78,5.78,0,0,0,5.77-3.29,5.79,5.79,0,0,0-1.15-6.55,5.78,5.78,0,0,0-9.1,1.22,5.82,5.82,0,0,0-.74,3.41l0,0a6.75,6.75,0,0,1-.4,2.92A6.84,6.84,0,0,1,602,185a6.9,6.9,0,0,1-2.92.39l0,0a5.79,5.79,0,0,0-5.09,2.22,5.83,5.83,0,0,0-1.13,2.64,5.78,5.78,0,0,0,1.9,5.22,5.66,5.66,0,0,0,2.56,1.29,5.72,5.72,0,0,0,5.33-1.56Z" fill="#4a4aff"/><rect x="113.38" y="150.53" width="299.26" height="299.26" rx="12.53" fill="none" stroke="#333" stroke-miterlimit="10" stroke-width="2"/><rect x="113.38" y="-16.68" width="299.26" height="149.63" rx="8.86" fill="none" stroke="#333" stroke-miterlimit="10" stroke-width="2"/><rect x="197.32" y="171.66" width="191.99" height="23.75" fill="#333"/><rect x="197.32" y="202.84" width="83.63" height="12.87" fill="#333"/><circle cx="156.5" cy="193.68" r="28.95" fill="none" stroke="#333" stroke-miterlimit="10" stroke-width="2"/><path d="M165.5,192.22a4.43,4.43,0,0,0-1,1.63,4.55,4.55,0,0,0-.23,1.9l0,0a5.24,5.24,0,0,1-5.66,5.66l0,0A4.4,4.4,0,0,0,156,202a4.48,4.48,0,0,0-1.81,2,4.44,4.44,0,0,0,5.9,5.89,4.42,4.42,0,0,0,2.52-4.43l0,0a5.24,5.24,0,0,1,1.51-4.14,5.25,5.25,0,0,1,1.9-1.22,5.34,5.34,0,0,1,2.24-.3l0,0a4.48,4.48,0,0,0,2.17-.35,4.43,4.43,0,0,0,1.73-1.36,4.52,4.52,0,0,0,.87-2,4.42,4.42,0,0,0-.22-2.19,4.36,4.36,0,0,0-1.24-1.81,4.45,4.45,0,0,0-4.16-.92,4.56,4.56,0,0,0-1.89,1.12Z" fill="#b3b3ff"/><path d="M156.12,198.1l0,0a4.44,4.44,0,0,0,1.91-.24,4.25,4.25,0,0,0,1.62-1,4.39,4.39,0,0,0,1-1.62,4.3,4.3,0,0,0,.23-1.91l0,0a5.27,5.27,0,0,1,3.42-5.36,5.18,5.18,0,0,1,2.24-.29l0,0a4.42,4.42,0,0,0,4.42-2.52,4.48,4.48,0,0,0,.36-2.65,4.4,4.4,0,0,0-1.24-2.37,4.32,4.32,0,0,0-2.37-1.23,4.4,4.4,0,0,0-2.65.35,4.42,4.42,0,0,0-2.52,4.43l0,0a5.32,5.32,0,0,1-.3,2.24,5.09,5.09,0,0,1-1.22,1.9,5.17,5.17,0,0,1-1.9,1.22,5.34,5.34,0,0,1-2.24.3l0,0a4.55,4.55,0,0,0-1.9.23,4.43,4.43,0,0,0-1.63,1,4.25,4.25,0,0,0-1,1.62,4.42,4.42,0,0,0-.24,1.91l0,0a5.27,5.27,0,0,1-1.51,4.14,5.27,5.27,0,0,1-4.14,1.51l0,0a4.48,4.48,0,0,0-2.61.57,4.43,4.43,0,0,0-.94,7,4.42,4.42,0,0,0,7-.94,4.4,4.4,0,0,0,.56-2.61l0,0a5.12,5.12,0,0,1,.3-2.23,5.22,5.22,0,0,1,5.35-3.42Z" fill="#7878ff"/><path d="M147.49,195.14a4.25,4.25,0,0,0,1-1.62,4.42,4.42,0,0,0,.24-1.91l0,0a5.32,5.32,0,0,1,.3-2.24,5.21,5.21,0,0,1,1.22-1.91,5.24,5.24,0,0,1,4.14-1.51l0,0a4.44,4.44,0,0,0,4.42-2.53,4.37,4.37,0,0,0,.35-2.64,4.32,4.32,0,0,0-1.23-2.37,4.4,4.4,0,0,0-2.37-1.24,4.43,4.43,0,0,0-5.17,4.78l0,0a5.34,5.34,0,0,1-.3,2.24,5.25,5.25,0,0,1-1.22,1.9,5.24,5.24,0,0,1-4.14,1.51l0,0a4.35,4.35,0,0,0-2.17.35,4.37,4.37,0,0,0-2.6,3.38,4.39,4.39,0,0,0,1.46,4,4.4,4.4,0,0,0,2,1,4.51,4.51,0,0,0,2.19-.07,4.35,4.35,0,0,0,1.89-1.13Z" fill="#4a4aff"/></svg>