<svg id="Layer_1" data-name="Layer 1" xmlns="http://www.w3.org/2000/svg" viewBox="0 0 755.08 470"><defs><style>.cls-1{fill:none;}.cls-2{fill:#fe3b1f;}.cls-3{fill:#101820;}</style></defs><rect class="cls-1" x="640.42" y="76.7" width="15.11" height="211.81"/><path class="cls-2" d="M414.13,288.51l-23.05-53.69H366.2l-12-28.06h24.88L323.18,76.7h34.54l90.94,211.81Z"/><path class="cls-3" d="M124,371.24l18.62-3.75c4.24,10.28,14.64,15.24,27.95,15.24,12,0,18.14-3.63,18.14-10.89,0-6.77-6.29-8.95-22.38-11.61-18.26-2.91-35.78-6.41-35.78-25.89,0-16,13.67-25.28,35-25.28,16.21,0,27.82,4.36,38,14.27L191,333.62c-6.41-6.54-16.21-10.29-26.85-10.29-9.44,0-14.64,3.27-14.64,9.2s5.93,8,21.53,10.76c15.24,2.79,36.5,6.71,36.5,26.71,0,15.84-11.49,27-37.13,27C141.17,397,129.55,386.48,124,371.24Zm122.3,23.95V326.48H214v-15.6h83.83v15.6H265.41v68.71Zm61.25-30.49V310.88h18.87v49.47c0,11.25,5.08,20.08,22.14,20.08,16.81,0,22.13-8.59,22.13-20.08V310.88h19V364.1c0,21.65-14.14,32.9-41.14,32.9S307.55,386,307.55,364.7Zm99.39,30.49V310.88h42.7c28.67,0,45.36,15.48,45.36,42.82,0,26.85-16.21,41.49-45.6,41.49Zm19.12-15.61h19.71c9.56,0,30-2.05,30-26.37,0-20.92-14.15-26.73-28.43-26.73H426.08Zm83,15.61V310.88h19.11v84.31Zm32.83-42.1c0-26.61,18.51-44,49.23-44,31.09,0,49.36,17.18,49.36,44S621.86,397,591.13,397s-49.23-17.3-49.23-43.91Zm79.48,0c0-17.42-10.65-28.43-30.25-28.43s-30.36,11-30.36,28.43,10.89,28.31,30.36,28.31,30.26-11,30.26-28.31ZM99.55,182.45C99.55,123,150.12,73,209.31,73c59.81,0,109.75,50,109.75,109.45S269.12,292.21,209.31,292.21C150.12,292.21,99.55,242,99.55,182.45Zm187.76,0c0-43.78-35.45-80.78-78-80.78-42.24,0-78,37-78,80.78,0,44.08,35.76,81.08,78,81.08C251.86,263.53,287.31,226.53,287.31,182.45ZM463.77,76.7h31.14V187.07L594.8,76.7h39.75L547.63,172l92.79,116.54H601.27l-75.54-95-30.82,33v62H463.77Z"/></svg>