<svg xmlns="http://www.w3.org/2000/svg" viewBox="0 0 522.23 304.33">
  <rect fill="none" x="508.04" y="4.41" width="14.19" height="198.95"/>
  <path fill="var(--primary)" d="M295.49,203.37l-21.66-50.43H250.46l-11.27-26.36h23.37L210.06,4.41H242.5l85.42,199Z"/>
  <path fill="var(--g0)" d="M23,280.14l17.49-3.53c4,9.66,13.75,14.32,26.25,14.32,11.27,0,17-3.41,17-10.23,0-6.36-5.91-8.41-21-10.9-17.16-2.74-33.61-6-33.61-24.32,0-15,12.84-23.75,32.87-23.75,15.23,0,26.14,4.1,35.7,13.41L85.91,244.8c-6-6.14-15.23-9.66-25.22-9.66-8.87,0-13.75,3.07-13.75,8.64s5.57,7.51,20.22,10.1c14.32,2.62,34.28,6.31,34.28,25.09,0,14.88-10.79,25.36-34.87,25.36C39.09,304.33,28.18,294.45,23,280.14Zm114.87,22.49V238.09H107.5V223.44h78.74v14.65H155.79v64.54ZM195.37,274V223.44H213.1v46.47c0,10.57,4.77,18.86,20.8,18.86,15.79,0,20.78-8.07,20.78-18.86V223.44h17.85v50c0,20.34-13.28,30.9-38.64,30.9S195.37,294,195.37,274Zm93.36,28.64V223.44h40.11c26.93,0,42.61,14.54,42.61,40.22,0,25.22-15.23,39-42.84,39Zm18-14.66H325.2c9,0,28.18-1.92,28.18-24.77,0-19.65-13.29-25.11-26.7-25.11h-20Zm78,14.66V223.44h18v79.19Zm30.84-39.54c0-25,17.39-41.33,46.24-41.33,29.21,0,46.37,16.14,46.37,41.33s-17.49,41.24-46.36,41.24-46.24-16.25-46.24-41.24Zm74.66,0c0-16.36-10-26.71-28.42-26.71s-28.51,10.34-28.51,26.71,10.22,26.59,28.51,26.59,28.43-10.34,28.43-26.59ZM0,102.81C0,47,47.5,0,103.1,0c56.18,0,103.09,47,103.09,102.81S159.28,205.9,103.1,205.9C47.5,205.9,0,158.74,0,102.81Zm176.36,0c0-41.13-33.3-75.88-73.26-75.88-39.68,0-73.27,34.75-73.27,75.88,0,41.4,33.59,76.16,73.27,76.16C143.06,179,176.36,144.21,176.36,102.81ZM342.11,3.48h29.25V107.15L465.19,3.48h37.34L420.88,93,508,202.46H471.27l-71-89.24-28.95,31v58.24H342.11Z"/>
</svg>