<svg id="Layer_1" data-name="Layer 1" xmlns="http://www.w3.org/2000/svg" viewBox="0 0 755.08 317.38"><defs><style>.cls-1{fill:none;}.cls-2{fill:#fe3b1f;}.cls-3{fill:#101820;}</style></defs><rect class="cls-1" x="624.47" y="10.94" width="14.19" height="198.95"/><path class="cls-2" d="M411.91,209.89l-21.65-50.43H366.89L355.62,133.1H379L326.48,10.94h32.44l85.43,199Z"/><path class="cls-3" d="M139.39,286.66l17.49-3.52c4,9.66,13.75,14.31,26.25,14.31,11.28,0,17-3.41,17-10.22,0-6.36-5.9-8.41-21-10.91-17.15-2.73-33.61-6-33.61-24.32,0-15,12.84-23.74,32.88-23.74,15.23,0,26.13,4.09,35.69,13.4l-11.78,9.67c-6-6.15-15.22-9.67-25.22-9.67-8.86,0-13.75,3.07-13.75,8.64s5.57,7.52,20.23,10.11c14.31,2.62,34.28,6.3,34.28,25.09,0,14.88-10.79,25.36-34.88,25.36C155.52,310.86,144.6,301,139.39,286.66Zm114.88,22.5V244.62H223.93V230h78.74v14.65H272.22v64.54Zm57.53-28.64V230h17.72v46.46c0,10.57,4.78,18.86,20.8,18.86,15.79,0,20.79-8.06,20.79-18.86V230H389v50c0,20.33-13.28,30.9-38.64,30.9S311.8,300.53,311.8,280.52Zm93.36,28.64V230h40.11c26.93,0,42.6,14.54,42.6,40.22,0,25.22-15.22,39-42.83,39Zm18-14.66h18.51c9,0,28.18-1.93,28.18-24.77,0-19.65-13.29-25.11-26.7-25.11h-20Zm78,14.66V230H519v79.19Zm30.84-39.55c0-25,17.38-41.33,46.24-41.33,29.2,0,46.36,16.14,46.36,41.33S607,310.86,578.17,310.86s-46.24-16.25-46.24-41.25Zm74.65,0c0-16.36-10-26.7-28.41-26.7s-28.52,10.33-28.52,26.7,10.23,26.6,28.52,26.6,28.42-10.35,28.42-26.6ZM116.43,109.33c0-55.84,47.5-102.81,103.09-102.81,56.18,0,103.09,47,103.09,102.81s-46.91,103.1-103.09,103.1C163.93,212.43,116.43,165.27,116.43,109.33Zm176.36,0c0-41.12-33.3-75.88-73.27-75.88-39.67,0-73.26,34.76-73.26,75.88,0,41.41,33.59,76.16,73.26,76.16C259.49,185.49,292.79,150.74,292.79,109.33ZM458.54,10h29.25V113.67L581.61,10H619L537.31,99.52,624.47,209H587.69l-71-89.23-28.95,31V209H458.54Z"/></svg>