<svg id="Layer_1" data-name="Layer 1" xmlns="http://www.w3.org/2000/svg" viewBox="0 0 216 216"><path d="M108,187.89A79.89,79.89,0,1,1,187.89,108,80,80,0,0,1,108,187.89Zm0-159A79.07,79.07,0,1,0,187.07,108,79.16,79.16,0,0,0,108,28.93Zm0,154A74.9,74.9,0,1,1,182.9,108,75,75,0,0,1,108,182.9Zm0-149A74.08,74.08,0,1,0,182.08,108,74.16,74.16,0,0,0,108,33.92Zm-40.18,70a22.16,22.16,0,0,1,14.67,8.36A23.89,23.89,0,0,1,88,127.94c0,6.94-1.93,12.92-5.77,17.36s-9.41,6.36-15,6.36a17.25,17.25,0,0,1-12.29-4.61,14.41,14.41,0,0,1-4.67-10.56,7.9,7.9,0,0,1,1.85-5.33A5.8,5.8,0,0,1,56.69,129a6.46,6.46,0,0,1,4.71,1.76,6.07,6.07,0,0,1,1.78,4.53c0,2.48-1.39,4.55-4.17,6.23q-1.92,1.2-1.92,1.86a7.43,7.43,0,0,0,2.75,5.21,10.9,10.9,0,0,0,6.19,2c3.86.07,7.14-1.53,8.68-4.61S77,138,77,130.39c0-16.65-5-26.18-15-26.18H58.68v-.84H60.6c9.85,0,14.77-6.49,14.77-18.23,0-6.89-.57-12.57-2-15.74A7.49,7.49,0,0,0,66,64.6a9.11,9.11,0,0,0-5.59,2,7.41,7.41,0,0,0-2.56,5c0,.45.56,1,1.66,1.53a8.79,8.79,0,0,1,3,2.45,6.05,6.05,0,0,1,.8,3.38,5.78,5.78,0,0,1-1.69,4.3A6,6,0,0,1,57.22,85a5.88,5.88,0,0,1-4.47-1.86A6.55,6.55,0,0,1,51,78.39a14.09,14.09,0,0,1,4.7-10.3,17.66,17.66,0,0,1,12.92-4.61c5,.13,9.59,1.53,12.75,5.17S86.1,77.2,86.1,82.76a20.85,20.85,0,0,1-4.63,13.71c-3.09,3.76-7.64,6-13.65,7.41Zm35.18,0q4.64-5.55,10-5.56c4.24,0,8,2,11.13,6.76s4.77,10.84,4.77,17.82c0,8.21-1.79,15.36-5.37,20.83s-8,7.92-13.24,7.92c-5.52,0-10-2.94-13.55-9.41S91.47,127,91.47,116.41q0-20,7.79-34.18A38.29,38.29,0,0,1,122,63.35v1c-11.84,5.83-18.25,19.74-19.22,39.3Zm14.9,36.91V109.51a12.1,12.1,0,0,0-1.65-6.62,5.17,5.17,0,0,0-4.57-2.58,8.68,8.68,0,0,0-6.53,2.91,10.67,10.67,0,0,0-2.75,7.62v30a10.12,10.12,0,0,0,2.39,7.13,7,7,0,0,0,5.5,2.94,6.89,6.89,0,0,0,5.39-2.85C117.37,146,117.9,143.72,117.9,140.8Zm32.93-77.32c6,0,10.59,3.53,13.75,11.17s4.73,18.87,4.73,33.09-1.57,25.36-4.73,33-7.74,11.1-13.75,11.1-10.57-3.5-13.71-11.1-4.7-18.78-4.7-32.95,1.56-25.45,4.7-33.09S144.83,63.48,150.83,63.48Zm7.49,71.23V80.63q0-16.29-7.49-16.3t-7.48,16.3v54.08q0,16.29,7.48,16.3T158.32,134.71Z"/></svg>