<svg id="Layer_1" data-name="Layer 1" xmlns="http://www.w3.org/2000/svg" viewBox="0 0 216 216"><path d="M146.07,88.74c-1.15,1.14-.79,2.87.35,4a2.91,2.91,0,0,0,4.13,0c1.15-1.14,2.08-2.06,0-4.14A3.39,3.39,0,0,0,146.07,88.74Zm9.68,7.86c-.18-1.61-1.76-2.4-3.37-2.22a2.94,2.94,0,0,0-2.58,3.24c.19,1.61.33,2.91,3.24,2.58A3.38,3.38,0,0,0,155.75,96.6Zm3.52-7c-.18-1.61-1.76-2.4-3.37-2.22a2.92,2.92,0,0,0-2.57,3.24c.18,1.6.32,2.9,3.23,2.57A3.37,3.37,0,0,0,159.27,89.64Zm-10.82,38.22c-1.4-.8-3,0-3.78,1.4a2.93,2.93,0,0,0,1.07,4c1.4.8,2.54,1.46,4-1.08A3.39,3.39,0,0,0,148.45,127.86Zm7.74,7c-.19-1.6-1.77-2.4-3.37-2.21a2.92,2.92,0,0,0-2.58,3.23c.18,1.61.33,2.91,3.23,2.58A3.39,3.39,0,0,0,156.19,134.87Zm-42.38-9.67a2.45,2.45,0,0,0-1.53.51,10.8,10.8,0,0,0-1.68,1.84,19,19,0,0,1-8.07,9.17,25.62,25.62,0,0,1-13.46,3.44q-12.15,0-19.62-8c-4.47-4.79-6.81-11.71-7.28-20.55l0-5.1a37,37,0,0,1,2.42-12.56,22.38,22.38,0,0,1,7.12-9.63,17,17,0,0,1,10.49-3.41,14.56,14.56,0,0,1,12.14,5.88q4.55,5.86,4.54,16.28c0,2.3-1.3,3.44-3.91,3.44H72.77a5.1,5.1,0,0,0-5.09,5.1h39.63q4.16,0,6.31-1.92a7.13,7.13,0,0,0,2.15-5.6,29.93,29.93,0,0,0-3.84-15.31,27,27,0,0,0-10.88-10.38,35,35,0,0,0-16.68-3.76q-11.67,0-20.13,5.21A34.74,34.74,0,0,0,51.24,94a44.7,44.7,0,0,0-4.54,20.44,39.57,39.57,0,0,0,4.7,19.65,32.83,32.83,0,0,0,13.12,13A39.75,39.75,0,0,0,84,151.75a38.15,38.15,0,0,0,15.94-3.18,29.61,29.61,0,0,0,11.24-8.49,21,21,0,0,0,4.7-11.75,4.77,4.77,0,0,0-.48-2.19A1.6,1.6,0,0,0,113.81,125.2Zm47.44,9.94a2.67,2.67,0,0,0-2.08.94,28.12,28.12,0,0,0-1.72,2.24,8.29,8.29,0,0,1-2.51,2.27,8.69,8.69,0,0,1-4.5,1,7.42,7.42,0,0,1-6.15-2.82c-1.48-1.88-2.23-4.62-2.23-8.22v-69a3.5,3.5,0,0,0-.78-2.43,2.75,2.75,0,0,0-2.12-.86,4.27,4.27,0,0,0-2.5.82,9.05,9.05,0,0,0-2.35,2.71l-6.19,11.35a5.51,5.51,0,0,1-2.23,2.47,7.53,7.53,0,0,1-3.41.66h-5a3.9,3.9,0,0,0-2.35.63,2.17,2.17,0,0,0-.86,1.87,2.31,2.31,0,0,0,.75,1.69,6.47,6.47,0,0,0,2.77,1.3l4.07,1.09a5.08,5.08,0,0,1,2.83,1.57,4.8,4.8,0,0,1,.78,3v45.81q0,9.09,5.13,13.58t13.74,4.51a23.25,23.25,0,0,0,9.83-2,17.91,17.91,0,0,0,6.69-5,10.18,10.18,0,0,0,2.43-6.42,3.42,3.42,0,0,0-.51-2.12A1.87,1.87,0,0,0,161.25,135.14Zm-15-51.33c0-15.06,8.72-9.24,23.08-11.85C157.86,81,158.57,88.41,146.22,83.81Z"/></svg>