<svg id="Layer_1" data-name="Layer 1" xmlns="http://www.w3.org/2000/svg" viewBox="0 0 216 216"><defs><style>.cls-1{opacity:0.5;}</style></defs><path d="M74.54,79.68a2.54,2.54,0,0,1-1.6.83,3.34,3.34,0,0,1-1.62-.17A2.54,2.54,0,0,1,70,79a23.21,23.21,0,0,0-3.27-5.12,8.79,8.79,0,0,0-3.27-2.41,10.13,10.13,0,0,0-3.74-.66H56.34V86.92h3.21a4.06,4.06,0,0,0,2.8-.78A7.68,7.68,0,0,0,64,83a2.48,2.48,0,0,1,.87-1.31,2.31,2.31,0,0,1,1.31-.37,2,2,0,0,1,2.21,1.71L70.79,93a2.41,2.41,0,0,1-.06,1.75,2.14,2.14,0,0,1-1.15.93,2.44,2.44,0,0,1-1.64,0,3.27,3.27,0,0,1-1.45-1.17,11.6,11.6,0,0,0-1.69-2,4.64,4.64,0,0,0-1.83-1,10.69,10.69,0,0,0-2.67-.28h-4V103a2.38,2.38,0,0,0,.36,1.33,1.89,1.89,0,0,0,1.23.73l1.87.4a2.08,2.08,0,0,1,1.87,2.34,1.94,1.94,0,0,1-.66,1.54,3,3,0,0,1-2,.58H40.18a3,3,0,0,1-2-.58,1.94,1.94,0,0,1-.66-1.54,2.3,2.3,0,0,1,1.62-2.31l1.18-.43a2.75,2.75,0,0,0,1.2-.8,1.94,1.94,0,0,0,.39-1.26V73.25A1.94,1.94,0,0,0,41.5,72a2.73,2.73,0,0,0-1.2-.79l-1.18-.44a2.29,2.29,0,0,1-1.62-2.3,1.93,1.93,0,0,1,.66-1.56,3,3,0,0,1,2-.56H62.73a9.89,9.89,0,0,0,2.42-.25L67,65.61a5.8,5.8,0,0,1,1.63-.24,3.09,3.09,0,0,1,2.24.73,5.65,5.65,0,0,1,1.25,2.48l2.74,9.47A1.62,1.62,0,0,1,74.54,79.68Zm18,26.52-.69-.31a1.24,1.24,0,0,1-.65-.73A5.59,5.59,0,0,1,91,103.4V65.72a2.81,2.81,0,0,0-.75-2,2.93,2.93,0,0,0-2.24-.8,6.4,6.4,0,0,0-1.71.27,25.48,25.48,0,0,0-2.65.92l-6.91,2.67a4.25,4.25,0,0,0-1.53.88,1.66,1.66,0,0,0-.4,1.18,1.69,1.69,0,0,0,.29,1,1.93,1.93,0,0,0,1,.62l.69.22a1.33,1.33,0,0,1,.79.57,2.77,2.77,0,0,1,.27,1.42V103.4a5.91,5.91,0,0,1-.19,1.76,1.27,1.27,0,0,1-.65.73l-.69.31a2.32,2.32,0,0,0-1,.78,1.89,1.89,0,0,0-.31,1.09,1.75,1.75,0,0,0,.56,1.37,2.72,2.72,0,0,0,1.81.5h14.2a2.67,2.67,0,0,0,1.8-.5,1.72,1.72,0,0,0,.57-1.37,1.89,1.89,0,0,0-.32-1.09A2.29,2.29,0,0,0,92.5,106.2Zm20.29,0-.69-.31a1.24,1.24,0,0,1-.65-.73,5.59,5.59,0,0,1-.19-1.76V81.78a2.77,2.77,0,0,0-.75-2,2.91,2.91,0,0,0-2.24-.8,6.4,6.4,0,0,0-1.71.27c-.64.17-1.53.48-2.65.91L97,82.84a4.26,4.26,0,0,0-1.53.87,1.7,1.7,0,0,0-.4,1.19,1.76,1.76,0,0,0,.29,1,1.93,1.93,0,0,0,1,.62l.69.22a1.3,1.3,0,0,1,.79.57,2.77,2.77,0,0,1,.27,1.42V103.4a5.59,5.59,0,0,1-.19,1.76,1.24,1.24,0,0,1-.65.73l-.69.31a2.32,2.32,0,0,0-1,.78,2,2,0,0,0-.31,1.09,1.75,1.75,0,0,0,.56,1.37,2.72,2.72,0,0,0,1.81.5h14.2a2.72,2.72,0,0,0,1.81-.5,1.75,1.75,0,0,0,.56-1.37,1.89,1.89,0,0,0-.32-1.09A2.29,2.29,0,0,0,112.79,106.2Zm41.23,0-.68-.31a1.29,1.29,0,0,1-.66-.73,6,6,0,0,1-.18-1.76V89a10.14,10.14,0,0,0-2.56-7.21A8.72,8.72,0,0,0,143.22,79a13.18,13.18,0,0,0-5.95,1.67,28.78,28.78,0,0,0-5.57,4V81.78a2.81,2.81,0,0,0-.74-2,2.75,2.75,0,0,0-2.13-.8,6.8,6.8,0,0,0-1.91.28c-.66.19-1.52.49-2.57.9l-6.92,2.68a4.29,4.29,0,0,0-1.52.87,1.93,1.93,0,0,0-.11,2.22,1.84,1.84,0,0,0,1,.62l.68.22a1.33,1.33,0,0,1,.8.57,2.9,2.9,0,0,1,.26,1.42V103.4a5.59,5.59,0,0,1-.19,1.76,1.24,1.24,0,0,1-.65.73l-.68.31a2.32,2.32,0,0,0-1,.78,1.89,1.89,0,0,0-.31,1.09,1.72,1.72,0,0,0,.56,1.37,2.67,2.67,0,0,0,1.8.5h13.8c1.6,0,2.4-.67,2.4-2a1.87,1.87,0,0,0-1-1.71l-.62-.34a1.39,1.39,0,0,1-.66-.75,5.75,5.75,0,0,1-.18-1.74v-15a6.13,6.13,0,0,1,2-1.16,6.26,6.26,0,0,1,2.15-.4,3.32,3.32,0,0,1,2.57,1,4.27,4.27,0,0,1,.91,3V103.4a5.75,5.75,0,0,1-.18,1.74,1.43,1.43,0,0,1-.66.75l-.62.34a1.87,1.87,0,0,0-1,1.71c0,1.33.8,2,2.4,2H153a2.67,2.67,0,0,0,1.8-.5,1.72,1.72,0,0,0,.56-1.37,1.89,1.89,0,0,0-.31-1.09A2.32,2.32,0,0,0,154,106.2Zm25.63-6.85a1.41,1.41,0,0,0-1.19.59,10.05,10.05,0,0,0-.82,1.35,5,5,0,0,1-1,1.36,2.6,2.6,0,0,1-1.82.59,2.5,2.5,0,0,1-2.24-1.18,6.31,6.31,0,0,1-.78-3.46V84.34h4a6.79,6.79,0,0,0,3.8-.81,2.38,2.38,0,0,0,1.15-2,1.39,1.39,0,0,0-.57-1.19,2.58,2.58,0,0,0-1.54-.42h-6.82v-6.3a2.52,2.52,0,0,0-.52-1.71,1.78,1.78,0,0,0-1.41-.59,3.51,3.51,0,0,0-1.7.5,9.38,9.38,0,0,0-1.92,1.52l-5.07,5.14a7.17,7.17,0,0,1-1.33,1.12,2.07,2.07,0,0,1-1.1.32H157a2.48,2.48,0,0,0-1.58.48,1.66,1.66,0,0,0-.6,1.38,1.64,1.64,0,0,0,.34,1.06,2.49,2.49,0,0,0,1,.72l1,.4a2.76,2.76,0,0,1,1.05.72,2.15,2.15,0,0,1,.32,1.31v15c0,3.3.93,5.76,2.77,7.39s4.47,2.45,7.85,2.45a14.06,14.06,0,0,0,6.11-1.28,10.64,10.64,0,0,0,4.2-3.44,8.14,8.14,0,0,0,1.53-4.81,2.31,2.31,0,0,0-.38-1.5A1.24,1.24,0,0,0,179.65,99.35ZM48.9,126.66a29.79,29.79,0,0,0-8.81-2.57,10.64,10.64,0,0,1-2.86-.81,2.36,2.36,0,0,1-1.16-1,3.22,3.22,0,0,1-.25-1.23,2.41,2.41,0,0,1,.89-1.87,4,4,0,0,1,2.73-.78,10.06,10.06,0,0,1,4.62,1.23A13.2,13.2,0,0,1,48.62,124a5,5,0,0,0,1.53,1.51A2.12,2.12,0,0,0,53,124.32a5.65,5.65,0,0,0,0-2.38l-1-5.32a3.48,3.48,0,0,0-.69-1.72,1.51,1.51,0,0,0-1.15-.5,2.25,2.25,0,0,0-1.31.39l-1.14.78a2.44,2.44,0,0,1-1.41.39,4.35,4.35,0,0,1-1.76-.39,17,17,0,0,0-2.31-.78,15.14,15.14,0,0,0-3.87-.39,16.73,16.73,0,0,0-6.71,1.28,11,11,0,0,0-4.64,3.6,8.94,8.94,0,0,0-1.7,5.46,11.12,11.12,0,0,0,1.15,5.19,9.31,9.31,0,0,0,3.82,3.74A23,23,0,0,0,37.44,136a24.16,24.16,0,0,1,3.91.94A3.75,3.75,0,0,1,43.06,138a2.28,2.28,0,0,1,.43,1.4,2.48,2.48,0,0,1-1.05,2.09,5.19,5.19,0,0,1-3.13.78,9.21,9.21,0,0,1-3.5-.69,11.37,11.37,0,0,1-3.24-2.05,18.92,18.92,0,0,1-3-3.46,3.68,3.68,0,0,0-1.44-1.37,2.19,2.19,0,0,0-1.74,0,1.79,1.79,0,0,0-1.18,1.32,5.18,5.18,0,0,0,.28,2.6l1.62,5.52a4.45,4.45,0,0,0,.73,1.6,1.46,1.46,0,0,0,1.17.45,2.06,2.06,0,0,0,1.27-.37l1-.75a2,2,0,0,1,1.24-.37,3.91,3.91,0,0,1,1.55.37,15.8,15.8,0,0,0,2.27.75,15.34,15.34,0,0,0,3.78.37q6.91,0,10.45-2.88a9.69,9.69,0,0,0,3.54-8A10.79,10.79,0,0,0,53,130.44,9.27,9.27,0,0,0,48.9,126.66Zm30.63,8.11a1.41,1.41,0,0,0-1.18.59,10.21,10.21,0,0,0-.83,1.36,4.63,4.63,0,0,1-1,1.35,2.57,2.57,0,0,1-1.82.59,2.53,2.53,0,0,1-2.25-1.18,6.31,6.31,0,0,1-.78-3.46V119.76h4a6.79,6.79,0,0,0,3.8-.81,2.37,2.37,0,0,0,1.15-2,1.4,1.4,0,0,0-.57-1.2,2.59,2.59,0,0,0-1.55-.42H71.65v-6.29a2.58,2.58,0,0,0-.51-1.72,1.78,1.78,0,0,0-1.42-.59,3.47,3.47,0,0,0-1.69.5,8.88,8.88,0,0,0-1.92,1.53L61,113.91A8,8,0,0,1,59.71,115a2.15,2.15,0,0,1-1.1.31H56.89a2.47,2.47,0,0,0-1.57.48,1.69,1.69,0,0,0-.61,1.39,1.67,1.67,0,0,0,.35,1.06,2.35,2.35,0,0,0,1,.71l1,.41a2.53,2.53,0,0,1,1,.71,2.08,2.08,0,0,1,.33,1.31v15q0,5,2.77,7.4t7.85,2.44a14,14,0,0,0,6.1-1.28,10.52,10.52,0,0,0,4.21-3.44,8.18,8.18,0,0,0,1.52-4.81,2.31,2.31,0,0,0-.37-1.49A1.25,1.25,0,0,0,79.53,134.77ZM115.11,122a15.9,15.9,0,0,1,2.19,8.41,14.55,14.55,0,0,1-2.3,8,16.36,16.36,0,0,1-6.37,5.68,20.24,20.24,0,0,1-9.42,2.1,19.9,19.9,0,0,1-9.25-2,15.09,15.09,0,0,1-6.15-5.65,15.7,15.7,0,0,1-2.2-8.35,14.54,14.54,0,0,1,2.31-8.08,16.12,16.12,0,0,1,6.37-5.64,20.43,20.43,0,0,1,9.42-2.07,20.13,20.13,0,0,1,9.24,2A15,15,0,0,1,115.11,122Zm-10.76,14.05a37.4,37.4,0,0,0-.94-6.63,36.33,36.33,0,0,0-1.82-6.3,9.7,9.7,0,0,0-2.2-3.48,2.6,2.6,0,0,0-2.46-.75,2.66,2.66,0,0,0-1.8,1.65,9.19,9.19,0,0,0-.55,4,39.89,39.89,0,0,0,.92,6.65,35.07,35.07,0,0,0,1.84,6.27A9.76,9.76,0,0,0,99.53,141a2.51,2.51,0,0,0,4.26-.89A9.51,9.51,0,0,0,104.35,136.08Zm52.6,5.54-.68-.31a1.21,1.21,0,0,1-.65-.73,5.55,5.55,0,0,1-.19-1.76V124.37a10.2,10.2,0,0,0-2.55-7.21,8.75,8.75,0,0,0-6.73-2.76,13.18,13.18,0,0,0-6,1.67,28.76,28.76,0,0,0-5.57,4v-2.85a2.89,2.89,0,0,0-.73-2,2.77,2.77,0,0,0-2.14-.8,7.18,7.18,0,0,0-1.91.28c-.66.19-1.51.49-2.57.91l-6.92,2.68a4.29,4.29,0,0,0-1.52.87,1.66,1.66,0,0,0-.41,1.18,1.68,1.68,0,0,0,.3,1,1.82,1.82,0,0,0,1,.62l.68.22a1.34,1.34,0,0,1,.8.58,2.86,2.86,0,0,1,.26,1.41v14.64a6,6,0,0,1-.18,1.76,1.26,1.26,0,0,1-.66.73l-.68.31a2.32,2.32,0,0,0-1,.78,1.89,1.89,0,0,0-.31,1.09,1.72,1.72,0,0,0,.56,1.37,2.67,2.67,0,0,0,1.8.5h13.8c1.6,0,2.4-.67,2.4-2a1.88,1.88,0,0,0-1-1.72l-.62-.34a1.43,1.43,0,0,1-.66-.75,5.75,5.75,0,0,1-.18-1.74v-15a5.93,5.93,0,0,1,2-1.15,6.33,6.33,0,0,1,2.15-.41,3.32,3.32,0,0,1,2.57,1,4.28,4.28,0,0,1,.92,3v12.58a5.67,5.67,0,0,1-.19,1.74,1.39,1.39,0,0,1-.66.75l-.62.34a1.9,1.9,0,0,0-1,1.72c0,1.32.8,2,2.4,2h13.8a2.67,2.67,0,0,0,1.8-.5,1.72,1.72,0,0,0,.56-1.37,1.89,1.89,0,0,0-.31-1.09A2.26,2.26,0,0,0,157,141.62Zm33.46-7.44a3.46,3.46,0,0,1,.3,1.52,8.26,8.26,0,0,1-1.89,5.19,13.15,13.15,0,0,1-5.23,3.88,19.42,19.42,0,0,1-7.8,1.46,19.13,19.13,0,0,1-8.57-1.88,15,15,0,0,1-6-5.27,14.1,14.1,0,0,1-2.21-7.89,18.4,18.4,0,0,1,2-8.84,14.07,14.07,0,0,1,5.9-5.86,19.49,19.49,0,0,1,9.36-2.09,18.53,18.53,0,0,1,8.06,1.56,11,11,0,0,1,4.86,4.27,11.81,11.81,0,0,1,1.62,6.19,4.15,4.15,0,0,1-4.58,4.58h-15a8.49,8.49,0,0,0,2,3.66,9.27,9.27,0,0,0,7,2.63,14,14,0,0,0,3.74-.46,8.62,8.62,0,0,0,3.3-1.9,9.74,9.74,0,0,1,1.37-1.09,1.71,1.71,0,0,1,.9-.28A1,1,0,0,1,190.41,134.18Zm-19.76-7.82c0,.49,0,1,0,1.4h5.41q1.71,0,1.71-1.62a12.68,12.68,0,0,0-.9-5.6,2.7,2.7,0,0,0-2.4-1.68,2.8,2.8,0,0,0-2,.81,5.61,5.61,0,0,0-1.39,2.47A14.69,14.69,0,0,0,170.65,126.36Z"/><g class="cls-1"><polygon points="107.55 65.97 104.06 59.77 100.57 65.97 94.37 69.46 100.57 72.95 104.06 79.15 107.55 72.95 113.75 69.46 107.55 65.97"/></g></svg>