<svg id="Layer_1" data-name="Layer 1" xmlns="http://www.w3.org/2000/svg" viewBox="0 0 216 216"><path d="M102,69.13a20.2,20.2,0,0,1,6.36-27.85l17.11-10.75,10.74,17.11A20.2,20.2,0,0,1,102,69.13Zm-23.69-21a20.21,20.21,0,0,0-4.53,40.16l20.08,2.26,2.26-20.08A20.22,20.22,0,0,0,78.28,48.13ZM56.85,128.2a20.06,20.06,0,0,0,14.28-5.91L85.42,108,71.14,93.71A20.21,20.21,0,1,0,56.85,128.2Zm37-2.74-20.08,2.26A20.2,20.2,0,0,0,76,168a19.61,19.61,0,0,0,2.28-.13,20.23,20.23,0,0,0,17.81-22.34Zm36,15a20.21,20.21,0,1,0-21.5,34.22l17.11,10.74,10.75-17.1a20.21,20.21,0,0,0-6.36-27.86ZM146.93,111a20.22,20.22,0,0,0,6.65,39.29,20.33,20.33,0,0,0,6.69-1.15l19.07-6.67-6.67-19.07A20.23,20.23,0,0,0,146.93,111Zm-2.1-43.3a20.21,20.21,0,0,0,2.1,37.28,20.2,20.2,0,0,0,25.74-12.4l6.67-19.07-19.07-6.67A20.09,20.09,0,0,0,144.83,67.71Z"/></svg>