<svg id="Layer_1" data-name="Layer 1" xmlns="http://www.w3.org/2000/svg" viewBox="0 0 216 216"><path d="M134.1,52.5l.1,0a6,6,0,0,1-.69.21l.38-.11a6.7,6.7,0,0,1-.74.19h0a6.46,6.46,0,0,1-7.64-6.37C125.81,31.81,148.39,44.94,134.1,52.5Zm-.95.25a7.08,7.08,0,0,1-1.12.11A6.07,6.07,0,0,0,133.15,52.75Zm.95-.25-.21.06Zm28.73,49.27c-6.26-4.17-11.29-12.3-17.73-17-4.59-3.38-3.9-8.38-8.75-2.64-6,3.57,2.67,7.2,5,10.6,4,4.47,13.21,13.84,13.21,13.84s9.48,9.29,8.68,4.85A70.09,70.09,0,0,1,162.83,101.77ZM118.09,52.11l.21-.06Zm2-.35a6.72,6.72,0,0,0-1.1.11h0c-.25,0-.5.12-.74.19l.38-.11c-.24.06-.46.13-.69.21l.1,0c-8,2.26-3.51,14.67,2.21,12.6,9.35.34,7.91-14.26-1.26-12.85A6.46,6.46,0,0,1,120.11,51.76Zm-1.75,36.16c16.27-19.33,30.11-20.85,45.31-1.08.06-2-.47-8.25-.47-8.25V75.86c-3.93-12.3-24.71-15-35.37-7.93a27.51,27.51,0,0,0-4.94,3.75c-.64.63-7.75,7.58-10.09,10C113,83.54,117,86.23,118.36,87.92ZM162.84,139c1.38,2.57.36-2.81.36-2.81l-.19-9.49s-20.21-20.11-30.84-31c-.52-.48-4.31-4.19-4.75-4.6-1.45,2.33-8.28,5.4-4,7.72C136.31,112.77,151.27,126,162.84,139ZM52.9,115.71c.29-.54,10.19-10.41,14.78-15.47C72.67,96.36,77.75,89.68,83,85c-2.3-1.5-5.4-8.26-7.73-4-6.53,5.68-21.83,21.84-21.83,21.84l-.49.54C52.39,105,52.86,115,52.9,115.71Zm110.33,46.65c.18-2.72,0-9.2,0-9.2l-.38-2.57S146.46,134,137.7,125.48c-5.48-6.35-17.95-18-17.95-18s-1.68,11.29,1.35,13.1c11.47,11.68,38.06,39.14,38.23,38.24C160.87,159.53,162.75,162.45,163.23,162.36Zm-50.78,1.25c-10.79,2.14-8.41-1.71-8.31-10.32-.7-13.13-.1-28.5-.24-42.34-.14-14.08,2.21-15-6.82-24.51-14.87-15.73-26.22-21.3-43-1.33-1.12,1.33-.22-8.47-.64-10.82,1-2.53,4.78-5,7-6.37,14.55-9,27.76-2.88,39.84,9.72,0,0,10.65,8.45,12.24,14.46.21,5.35.34,12.22.43,19.26.14,11.58.07,35.37.07,35.37S113.3,160.45,112.45,163.61ZM106.22,40.25l.21-.07ZM102.4,49.9c8.4,11.37,20.35-9.62,4.74-9.9h0a6.64,6.64,0,0,0-.74.18l.39-.11c-.24.06-.47.14-.7.22l.1,0C102.29,41.41,100.62,46.55,102.4,49.9Zm-5.47,64.41c.76-11.48-2.71-3.27-7.82.89-5.84,5-10.44,11.16-16.28,15.75-6.2,6.6-12.49,13.07-19.39,19.24-.44,3.91.17,8.62-.56,12.48-1.08,3.19,22.7-21.82,29.48-29,3.78-2.8,7-7.22,11.19-11.19C96.34,121.28,97.39,117.46,96.93,114.31ZM52.66,140.38c11.7-13.1,27.78-27.85,40.73-41.78,3.73-1.91-2.33-4.91-3.57-6.76-.46-2.11-4.28,3-4.57,3.15C74.13,105.33,64,116.87,54,125.57,51.31,128.09,52.66,140.38,52.66,140.38ZM94.35,52.11l.21-.06Zm-3.82,9.66c8.38,11.34,20.36-9.57,4.78-9.91a6.36,6.36,0,0,1,1.07-.1,6.61,6.61,0,0,0-1.1.11h0c-.26,0-.5.12-.75.19l.39-.11a7,7,0,0,0-.69.21l.09,0C90.42,53.28,88.76,58.41,90.53,61.77Zm19.84,14.46-.21.07Zm-1,.25a6,6,0,0,1-1.12.11A6,6,0,0,0,109.41,76.48Zm4.78-9.9c-8.41-11.37-20.36,9.62-4.75,9.9h0a6.3,6.3,0,0,0,.75-.18l-.39.11c.24-.06.47-.14.7-.22l-.1,0C114.3,75.07,116,69.93,114.19,66.58Z"/></svg>