<svg id="Layer_1" data-name="Layer 1" xmlns="http://www.w3.org/2000/svg" viewBox="0 0 216 216"><path d="M159,167.93a5.92,5.92,0,0,1-4.54.35L146,165.65a12.35,12.35,0,0,1-8.7-11.53l-1.9-30.94a4.89,4.89,0,0,1,.84-3.09,14.37,14.37,0,0,0,2.63-8.58,28.38,28.38,0,0,0-1.23-8.5,1.78,1.78,0,0,1,2.61-2.05c2.55,1.5,5.55,3.5,6.93,5.26s2,20.92,2.16,33.18a31.86,31.86,0,0,0,4.42,15.79,12.35,12.35,0,0,0,2.35,2.84C158.58,160.27,163.55,165.54,159,167.93Z"/><path d="M126,59.47l3,.84-2.57.74a.91.91,0,0,0,.14,1.78l4.33.51h.11a.91.91,0,0,0,.24-1.78l1.35-.39a.91.91,0,0,0,0-1.75l-3-.84,2.74-.79a.93.93,0,0,0,.66-1,.92.92,0,0,0-.83-.81l-5-.43a.91.91,0,0,0-1,.83.92.92,0,0,0,.83,1h.13l-1.1.31a.91.91,0,0,0,0,1.75Z"/><path d="M102.56,59.11l1.94-.19-2.27,1.55a1,1,0,0,0-.36,1.13,1,1,0,0,0,1,.61l1.66-.23-1.09.62a1,1,0,0,0-.44,1.11.94.94,0,0,0,.91.68H104l4.89-.32a1,1,0,0,0-.12-1.91l-.77.05,1.81-1a1,1,0,0,0-.6-1.78l-2.53.36,2-1.34A1,1,0,0,0,109,57.3a1,1,0,0,0-1-.63l-5.64.53a1,1,0,0,0-.87,1A1,1,0,0,0,102.56,59.11Z"/><path d="M98.75,99.85a1.86,1.86,0,0,0-2.28-2.69c-5.1,2-12.21,6.08-14,11.73-2.24,6.93-8.35,15.92-11.36,21.12A56.37,56.37,0,0,0,68,136.29c-1.6,3.82-4,9.53-4.13,9.22-.69-2.19-2.17-5.77-4.22-4.2-2.87,2.21-7.49,16.34-1.76,19.43s14.79,1.77,15.9,0-2-23.34,6.86-26.39c2-.7,5.2-5.49,9.1-12.6a37.21,37.21,0,0,0,2.74-6.35l2.63-8a30.25,30.25,0,0,1,3.07-6.6C98.37,100.48,98.56,100.17,98.75,99.85Z"/><ellipse cx="85.58" cy="155.98" rx="8.57" ry="19.34" transform="translate(-13.59 8.26) rotate(-5.12)"/><ellipse cx="115.61" cy="172.75" rx="19.34" ry="8.57" transform="translate(-48.35 44.97) rotate(-18.28)"/><path d="M113,74h.09l9-.88a.89.89,0,0,0,0-1.77l-1.26-.15.47-.07a.89.89,0,0,0,0-1.76l-2.1-.32.74-.18a.89.89,0,0,0,.67-.89.87.87,0,0,0-.71-.85l-.22-.05a.83.83,0,0,0,.18-.48.89.89,0,0,0-.64-.91l-.17,0a.93.93,0,0,0,.31-.68.91.91,0,0,0-.6-.85.89.89,0,0,0-.21-1.24.87.87,0,0,0,0-.87.9.9,0,0,0-.79-.48h-.37a.89.89,0,0,0-.89.89.78.78,0,0,0,0,.22l-.32.47a.86.86,0,0,0-.15.52.89.89,0,0,0-.4.82,1,1,0,0,0,.14.4.9.9,0,0,0-.62.86.85.85,0,0,0,.2.55h-.06a.89.89,0,0,0,0,1.75l.36.08-1.23.3a.89.89,0,0,0,.08,1.75l.65.1-1.27.19a.89.89,0,0,0-.18,1.72l-.78.08A.89.89,0,0,0,113,74Z"/><path d="M107.83,74.33a.67.67,0,0,0-.94.07l-2.68,3.12a.68.68,0,0,0,.07,1,.72.72,0,0,0,.44.16.67.67,0,0,0,.51-.24l2.67-3.12A.67.67,0,0,0,107.83,74.33Z"/><path d="M106.22,77.41a.67.67,0,0,0-.15.94c.38.53,3.81,5.26,5.59,6.42a1.53,1.53,0,0,0,1.28.28l.26,2.56a.67.67,0,0,0,.65.61h0a.68.68,0,0,0,.67-.58l0-.32h0a.67.67,0,0,0,.73-.52l.14-.67.1.73a.67.67,0,0,0,1.31.07l.44-1.73a.88.88,0,0,0,.23.24.68.68,0,0,0,.52.08c.41-.1,4-1,4.85-1.37s4.93-2.38,5.1-2.47a.71.71,0,0,0,.14-.1l.61,1.06a.67.67,0,0,0,.58.34.69.69,0,0,0,.34-.09.67.67,0,0,0,.24-.92l-2.52-4.35a.67.67,0,0,0-.92-.24.66.66,0,0,0-.24.91l1.25,2.16-.08,0c-1.46.73-4.38,2.18-5,2.43s-2.67.8-4,1.14L118,82.17a.65.65,0,0,0-.64-.53h0a.68.68,0,0,0-.65.5l-.27,1.09-.14-1a.66.66,0,0,0-.63-.58.62.62,0,0,0-.33.07.66.66,0,0,0-.62-.63.68.68,0,0,0-.71.58v.1a.68.68,0,0,0-.74-.56.66.66,0,0,0-.59.73l0,.35a3.87,3.87,0,0,1-.11,1.45l-.18-.09c-1.33-.86-4.22-4.67-5.22-6.07A.68.68,0,0,0,106.22,77.41Z"/><path d="M96.77,154.36a.56.56,0,0,1-.54-.46l-.77-5s-.11-2.26,2.7-.05c2.48,2,3.91,5.5,4.21,6.31a.56.56,0,0,1,0,.34c-.2.71-1,3.24-2.19,1.59C98.84,155.13,97.5,154.4,96.77,154.36Z"/><path d="M101.67,147.7c1.14,1.63,2-1.18,2.17-2a.53.53,0,0,0-.07-.44,13.73,13.73,0,0,0-5.15-4.78,7.39,7.39,0,0,0-4.74,0,.54.54,0,0,0-.36.73l.76,1.94a.54.54,0,0,0,.45.34C96,143.59,100.15,145.52,101.67,147.7Z"/><path d="M115.82,160.72h0a.51.51,0,0,0-.3-.41,13.6,13.6,0,0,0-12.19.24s-1.39,4.82.88,3.7a14.82,14.82,0,0,1,6-1.17,2.29,2.29,0,0,0,1.09-.27,24.36,24.36,0,0,1,4.16-1.49A.55.55,0,0,0,115.82,160.72Z"/><path d="M115.5,155.78v-1.62a.54.54,0,0,0-.15-.38,6,6,0,0,0-3.06-1.64,11.83,11.83,0,0,0-5.39.14.55.55,0,0,0-.32.26c-.4.71-1.7,3.17,0,2.63,2-.64,6.44.41,8.23,1.12A.54.54,0,0,0,115.5,155.78Z"/><path d="M155.25,81.19a1,1,0,0,0-1.14.13V79.58a1.32,1.32,0,0,0-1.79-1.25l-1.56.59a3,3,0,0,0-.52-1.14,3.28,3.28,0,0,0-.31-.34H150a4.43,4.43,0,0,0,1.79-.41.91.91,0,0,0,.48-1.2.93.93,0,0,0-1.21-.48,2.59,2.59,0,0,1-1.89.14,5.8,5.8,0,0,0-2-.13,5,5,0,0,0-.84-1.82,4.92,4.92,0,0,0-.73-.78,3.64,3.64,0,0,0-.28-2.7l1.22-1a1.27,1.27,0,0,0,.47-.91,1.33,1.33,0,0,0-.32-1l-.64-.73a3.7,3.7,0,0,0-.44-1.76l1.81-1.47a1.33,1.33,0,0,0-.35-2.26l-1.31-.52a4.32,4.32,0,0,0-.16-.51l.19.16a.94.94,0,0,0,.55.19.92.92,0,0,0,.56-1.65,9.68,9.68,0,0,1-1.9-2.15,3.36,3.36,0,0,0-.61-1.48,3.59,3.59,0,0,0-.83-.78,1.53,1.53,0,0,0-.34-.3,3,3,0,0,0-1.14-4,2.64,2.64,0,0,0-2.12-3.8,3.82,3.82,0,0,0-.42-1.47,9.4,9.4,0,0,0,1.7.39h.1a.92.92,0,0,0,.1-1.83,8.43,8.43,0,0,1-2.21-.64,2.89,2.89,0,0,0-.54-1.3l.26-.94a1.33,1.33,0,0,0-2-1.5l-1.46.87a3.6,3.6,0,0,0-.54-1.07,3.76,3.76,0,0,0-4.7-1.13,3.74,3.74,0,0,0-2.05-1.2,28.36,28.36,0,0,1-1.58-2.44c-.47-.82-1-.76-1.35-.58a.81.81,0,0,0-.39.36,2.67,2.67,0,0,0-.26-.09,1.31,1.31,0,0,0-1.36.59l-.44.69a3,3,0,0,0-1.13.52,3.17,3.17,0,0,0-1,1.36,2.38,2.38,0,0,0-.18-.3,2.51,2.51,0,0,0-2.73-.9,1.4,1.4,0,0,0-.83-.36,1.35,1.35,0,0,0-1.19.63l-.08.13a4.22,4.22,0,0,0-5.85-.45,4.55,4.55,0,0,0-.65.67,3.6,3.6,0,0,0-3.36.06,22.08,22.08,0,0,1-3.54-.62c-.74-.18-1.2,0-1.36.57-.25.84.49,1.1,1.09,1.31l.07,0a.78.78,0,0,0,.45,0l.47.11-.07.2-.27.09a3.49,3.49,0,0,0-1,.58,4,4,0,0,0-2,.2A3.88,3.88,0,0,0,97.86,40l-2.8-.47a1.33,1.33,0,0,0-.8,2.5l2.8,1.34a2.42,2.42,0,0,0-.46.13,2.9,2.9,0,0,0-4.06,2.64L90.15,47a1.32,1.32,0,0,0,.6,2.56l.61-.07c-.25.51-.45,1-.61,1.34a.84.84,0,0,0-.06.14l-1.75,1.59-.17,0a.92.92,0,0,0-.82,1s0,.09,0,.13a1.24,1.24,0,0,0,0,.43,1.33,1.33,0,0,0,.56,1l1.11.78a3.28,3.28,0,0,0-.72,4.54,3.59,3.59,0,0,0-.66,4.45c-1.85,1.48-2.29,2.4-2.4,2.91a.89.89,0,0,0-.2,1.29.78.78,0,0,0,.65.38l.12,0,.19.16L88.83,71a4.27,4.27,0,0,0-2.5,4.28l-.39.18a3,3,0,0,0-1.07,0,3.08,3.08,0,0,0-2.08,1.45l-.88.4a1.33,1.33,0,0,0-.77,1.21h-.06a4,4,0,0,0-3.19,4.64,4.66,4.66,0,0,0,.26.85,1.55,1.55,0,0,0-.27.24c-.31.18-.63.37-1,.56-.67.36-.88.81-.62,1.33a.78.78,0,0,0,.74.51,2.59,2.59,0,0,0,1-.28l.07,0,.15-.1.19.1a4.11,4.11,0,0,0,0,1.26,4,4,0,0,0,3,3.13,5.14,5.14,0,0,0,10-.4A6,6,0,0,0,94.28,84a6.19,6.19,0,0,0-.61-1.74,2.94,2.94,0,0,0,.56-5.16,4.23,4.23,0,0,0,.58-2.85l.17-.07a1.33,1.33,0,0,0,.16-2.32l-1.53-1a3.37,3.37,0,0,0-.09-5,3.59,3.59,0,0,0,1.32-2,7,7,0,0,0,.42.67A.93.93,0,0,0,96,65a.89.89,0,0,0,.54-.17.91.91,0,0,0,.2-1.28,14.4,14.4,0,0,1-1.81-4.72,3.14,3.14,0,0,0-.5-2.09A3.31,3.31,0,0,0,95.8,53.4a2.87,2.87,0,0,0-.17-.59,2.89,2.89,0,0,0,1.64-3.16,2.58,2.58,0,0,0-.22-.68,2.84,2.84,0,0,0,1.2,0,2.89,2.89,0,0,0,2.36-2.89l.06,0a1,1,0,0,0,.62,0l.18,0a4.7,4.7,0,0,0,.63-.13,3.93,3.93,0,0,1,1.48.1,6,6,0,0,0,1.2.15,4.4,4.4,0,0,0,1.79-.4.91.91,0,0,0-.46-1.75,3.56,3.56,0,0,0,1-1.21,3.44,3.44,0,0,0,1.06,0l1.36,1.2a1.33,1.33,0,0,0,2.18-.78l.07-.4a4.23,4.23,0,0,0,1.42,0,1.51,1.51,0,0,0,.37.07,1.33,1.33,0,0,0,1.19-.62l0-.09.25-.18c0,.05.07.11.12.17a2.5,2.5,0,0,0,3.27.5l0,.08a1.35,1.35,0,0,0,1.12.74,1.32,1.32,0,0,0,1.16-.57A2.49,2.49,0,0,0,122,43c.32.14.39.44.45,1.16a.93.93,0,0,0,.92.84h.07a.91.91,0,0,0,.84-1,3.84,3.84,0,0,0-.62-2,2.32,2.32,0,0,0,.34-.64,4,4,0,0,0,.43.74l.06.07.2,1a1.31,1.31,0,0,0,.85,1,1.33,1.33,0,0,0,1.3-.23l.4-.35a3.65,3.65,0,0,0,1.89-.38l0,0L129,44a1.31,1.31,0,0,0,2,1.32l1.41-.83.44-.07a3.76,3.76,0,0,0,4.43,5.41,4,4,0,0,0,.23.39,2.75,2.75,0,0,0,.55.53,3,3,0,0,0-.26,2.83l-.24,1a1.33,1.33,0,0,0,.68,1.51h0a3.4,3.4,0,0,0,0,1.79h0a1.31,1.31,0,0,0-.75,1.24,1.33,1.33,0,0,0,.72,1.12,3.8,3.8,0,0,0-.14,1.11.92.92,0,0,0-1.35,1.24,12.31,12.31,0,0,1,1.94,3.58,3.69,3.69,0,0,0,.71,2.43c.09.12.2.23.3.34a3.67,3.67,0,0,0-1.1,4.1,2.25,2.25,0,0,0-.05.22.45.45,0,0,0,0,.11,4.92,4.92,0,0,0-.56,5.35,5.82,5.82,0,0,0-.15,7.12l0,.05a4,4,0,0,0,.15,4.54,3.22,3.22,0,0,0,.59.63,1.25,1.25,0,0,0,.8.54,4,4,0,0,0,2.78.33,4,4,0,0,0,5.26.82h.21c1.41.06,1.52.07,1.63,1.3a.91.91,0,0,0,.91.84h.08a.92.92,0,0,0,.83-1,3.55,3.55,0,0,0-.76-2.15,4.08,4.08,0,0,0,.91-.5,4,4,0,0,0,1.52-2.38H154a1.32,1.32,0,0,0,1.3-1.1c.86-5.05.86-5.2.86-5.34A1.33,1.33,0,0,0,155.25,81.19Z"/><path d="M133.7,113.64a.9.9,0,0,0,.86-.87.88.88,0,0,0-.82-.91l-1.21-.1c0-.2-.09-.4-.15-.61l.79,0a.9.9,0,0,0,.86-.87.88.88,0,0,0-.82-.91l-1.59-.13-.19-.3,1.31,0a.87.87,0,0,0,.91-.76.89.89,0,0,0-.65-1l-2.21-.61.76,0a.89.89,0,0,0,.25-1.73l-.78-.26a.86.86,0,0,0,.07-.36.89.89,0,0,0-.89-.89h-3.07a.89.89,0,0,0-.45,1.66l-1.7.07a.89.89,0,0,0-.2,1.75l.42.12-.06,0-2.68-.08a.94.94,0,0,0-.57.18l-.23,0c-.09-.35-.19-.68-.28-1a.88.88,0,0,0,.82-.84.89.89,0,0,0-.78-.92l-.7-.1c0-.11-.11-.2-.16-.31a.88.88,0,0,0,.06-1.75L119,101.8l0,0a.87.87,0,0,0,.78-.76.88.88,0,0,0-.63-1l-1.24-.36a.89.89,0,0,0-.5-1.63h-5.29a.9.9,0,0,0-.25,1.76l1,.28-.18.11-2.67.09a.89.89,0,0,0-.87.83.9.9,0,0,0,.74.94l1,.18a2.55,2.55,0,0,0-.13.29l-1.52.07a.89.89,0,0,0-.08,1.77l1.08.15c0,.09,0,.18,0,.26l-1.09.06a.89.89,0,0,0-.11,1.77l1.21.21c0,.23.06.46.1.7l-.71,0a.89.89,0,0,0,0,1.78l1.17.09.14.57h-.66a.9.9,0,0,0-.05,1.79l1.2.09.19.74-.66,0a.89.89,0,0,0,0,1.78l1.2.09.11.46-.66,0a.89.89,0,0,0-.07,1.78l1.24.14.21.83-.66,0a.88.88,0,0,0-.87.83.9.9,0,0,0,.75.94l1.3.2.15.58h-.66a.89.89,0,0,0-.87.81.87.87,0,0,0,.69.95l1,.22h-.29a.9.9,0,0,0-.37,1.71l1.38.63-.47,0a.9.9,0,0,0,.07,1.79h.08l3.81-.33a.9.9,0,0,0,.81-.74.89.89,0,0,0-.51-1l-.27-.13.44-.21H122a.9.9,0,0,0,.19-1.77l-.14,0,.82-.4,3.78-.09a.89.89,0,0,0,.12-1.77l-.11,0h0a12.52,12.52,0,0,0,1.89-.94l2.71-.08a.9.9,0,0,0,.86-.86.89.89,0,0,0-.79-.92l-.43,0a7.79,7.79,0,0,0,.77-1l1.58-.05a.9.9,0,0,0,0-1.79l-.83-.06a4.68,4.68,0,0,0,.08-.54Z"/></svg>